<?xml version="1.0" encoding="utf-8" standalone="no"?>
<!DOCTYPE svg PUBLIC "-//W3C//DTD SVG 1.1//EN"
  "http://www.w3.org/Graphics/SVG/1.1/DTD/svg11.dtd">
<svg xmlns:xlink="http://www.w3.org/1999/xlink" width="458.64pt" height="352.8pt" viewBox="0 0 458.64 352.8" xmlns="http://www.w3.org/2000/svg" version="1.1">
 <metadata>
  <rdf:RDF xmlns:dc="http://purl.org/dc/elements/1.1/" xmlns:cc="http://creativecommons.org/ns#" xmlns:rdf="http://www.w3.org/1999/02/22-rdf-syntax-ns#">
   <cc:Work>
    <dc:type rdf:resource="http://purl.org/dc/dcmitype/StillImage"/>
    <dc:date>2026-04-26T16:27:17.571602</dc:date>
    <dc:format>image/svg+xml</dc:format>
    <dc:creator>
     <cc:Agent>
      <dc:title>Matplotlib v3.10.8, https://matplotlib.org/</dc:title>
     </cc:Agent>
    </dc:creator>
   </cc:Work>
  </rdf:RDF>
 </metadata>
 <defs>
  <style type="text/css">*{stroke-linejoin: round; stroke-linecap: butt}</style>
 </defs>
 <g id="figure_1">
  <g id="patch_1">
   <path d="M 0 352.8 
L 458.64 352.8 
L 458.64 0 
L 0 0 
L 0 352.8 
z
" style="fill: none"/>
  </g>
  <g id="axes_1">
   <g id="patch_2">
    <path d="M 38.800084 317.351479 
L 453.43976 317.351479 
L 453.43976 3.00024 
L 38.800084 3.00024 
L 38.800084 317.351479 
z
" style="fill: none"/>
   </g>
   <g id="FillBetweenPolyCollection_1">
    <defs>
     <path id="me3cdd25450" d="M 38.800084 -153.694068 
L 38.800084 -35.448521 
L 40.388742 -85.475483 
L 41.977399 -99.1192 
L 43.566057 -108.215012 
L 45.154715 -117.310823 
L 46.743373 -117.310823 
L 48.33203 -117.310823 
L 49.920688 -126.406634 
L 51.509346 -135.502446 
L 53.098004 -135.502446 
L 54.686661 -149.146163 
L 56.275319 -149.146163 
L 57.863977 -149.146163 
L 59.452635 -153.694068 
L 61.041292 -180.981502 
L 62.62995 -180.981502 
L 64.218608 -180.981502 
L 65.807266 -180.981502 
L 67.395923 -180.981502 
L 68.984581 -185.529408 
L 70.573239 -185.529408 
L 72.161897 -185.529408 
L 73.750555 -203.72103 
L 75.339212 -203.72103 
L 76.92787 -212.816842 
L 78.516528 -212.816842 
L 80.105186 -217.364747 
L 81.693843 -217.364747 
L 83.282501 -217.364747 
L 84.871159 -217.364747 
L 86.459817 -217.364747 
L 88.048474 -217.364747 
L 89.637132 -231.008464 
L 91.22579 -235.55637 
L 92.814448 -235.55637 
L 94.403105 -235.55637 
L 95.991763 -235.55637 
L 97.580421 -235.55637 
L 99.169079 -235.55637 
L 100.757737 -235.55637 
L 102.346394 -235.55637 
L 103.935052 -235.55637 
L 105.52371 -235.55637 
L 107.112368 -235.55637 
L 108.701025 -244.652181 
L 110.289683 -244.652181 
L 111.878341 -249.200087 
L 113.466999 -249.200087 
L 115.055656 -253.747993 
L 116.644314 -253.747993 
L 118.232972 -253.747993 
L 119.82163 -253.747993 
L 121.410287 -253.747993 
L 122.998945 -253.747993 
L 124.587603 -258.295898 
L 126.176261 -258.295898 
L 127.764919 -262.843804 
L 129.353576 -262.843804 
L 130.942234 -262.843804 
L 132.530892 -262.843804 
L 134.11955 -262.843804 
L 135.708207 -262.843804 
L 137.296865 -267.39171 
L 138.885523 -267.39171 
L 140.474181 -267.39171 
L 142.062838 -267.39171 
L 143.651496 -267.39171 
L 145.240154 -267.39171 
L 146.828812 -267.39171 
L 148.417469 -267.39171 
L 150.006127 -267.39171 
L 151.594785 -267.39171 
L 153.183443 -285.583332 
L 154.7721 -285.583332 
L 156.360758 -285.583332 
L 157.949416 -285.583332 
L 159.538074 -285.583332 
L 161.126732 -285.583332 
L 162.715389 -285.583332 
L 164.304047 -285.583332 
L 165.892705 -285.583332 
L 167.481363 -285.583332 
L 169.07002 -285.583332 
L 170.658678 -285.583332 
L 172.247336 -285.583332 
L 173.835994 -285.583332 
L 175.424651 -285.583332 
L 177.013309 -290.131238 
L 178.601967 -290.131238 
L 180.190625 -294.679143 
L 181.779282 -294.679143 
L 183.36794 -294.679143 
L 184.956598 -294.679143 
L 186.545256 -294.679143 
L 188.133914 -294.679143 
L 189.722571 -294.679143 
L 191.311229 -294.679143 
L 192.899887 -294.679143 
L 194.488545 -294.679143 
L 196.077202 -294.679143 
L 197.66586 -294.679143 
L 199.254518 -294.679143 
L 200.843176 -294.679143 
L 202.431833 -294.679143 
L 204.020491 -294.679143 
L 205.609149 -294.679143 
L 207.197807 -294.679143 
L 208.786464 -294.679143 
L 210.375122 -294.679143 
L 211.96378 -294.679143 
L 213.552438 -294.679143 
L 215.141095 -294.679143 
L 216.729753 -294.679143 
L 218.318411 -294.679143 
L 219.907069 -294.679143 
L 221.495727 -299.227049 
L 223.084384 -299.227049 
L 224.673042 -299.227049 
L 226.2617 -299.227049 
L 227.850358 -299.227049 
L 229.439015 -299.227049 
L 231.027673 -299.227049 
L 232.616331 -299.227049 
L 234.204989 -299.227049 
L 235.793646 -299.227049 
L 237.382304 -299.227049 
L 238.970962 -299.227049 
L 240.55962 -299.227049 
L 242.148277 -299.227049 
L 243.736935 -299.227049 
L 245.325593 -299.227049 
L 246.914251 -299.227049 
L 248.502909 -299.227049 
L 250.091566 -303.774955 
L 251.680224 -303.774955 
L 253.268882 -303.774955 
L 254.85754 -303.774955 
L 256.446197 -303.774955 
L 258.034855 -303.774955 
L 259.623513 -303.774955 
L 261.212171 -303.774955 
L 262.800828 -303.774955 
L 264.389486 -303.774955 
L 265.978144 -308.32286 
L 267.566802 -308.32286 
L 269.155459 -308.32286 
L 270.744117 -308.32286 
L 272.332775 -308.32286 
L 273.921433 -308.32286 
L 275.51009 -308.32286 
L 277.098748 -308.32286 
L 278.687406 -308.32286 
L 280.276064 -308.32286 
L 281.864722 -308.32286 
L 283.453379 -308.32286 
L 285.042037 -308.32286 
L 286.630695 -308.32286 
L 288.219353 -308.32286 
L 289.80801 -308.32286 
L 291.396668 -312.870766 
L 292.985326 -312.870766 
L 294.573984 -312.870766 
L 296.162641 -312.870766 
L 297.751299 -312.870766 
L 299.339957 -312.870766 
L 300.928615 -312.870766 
L 302.517272 -312.870766 
L 304.10593 -312.870766 
L 305.694588 -312.870766 
L 307.283246 -312.870766 
L 308.871904 -312.870766 
L 310.460561 -312.870766 
L 312.049219 -312.870766 
L 313.637877 -312.870766 
L 315.226535 -312.870766 
L 316.815192 -312.870766 
L 318.40385 -312.870766 
L 319.992508 -312.870766 
L 321.581166 -312.870766 
L 323.169823 -312.870766 
L 324.758481 -312.870766 
L 326.347139 -312.870766 
L 327.935797 -312.870766 
L 329.524454 -312.870766 
L 331.113112 -312.870766 
L 332.70177 -312.870766 
L 334.290428 -312.870766 
L 335.879086 -312.870766 
L 337.467743 -312.870766 
L 339.056401 -312.870766 
L 340.645059 -312.870766 
L 342.233717 -312.870766 
L 343.822374 -312.870766 
L 345.411032 -312.870766 
L 346.99969 -312.870766 
L 348.588348 -312.870766 
L 350.177005 -312.870766 
L 351.765663 -312.870766 
L 353.354321 -312.870766 
L 354.942979 -312.870766 
L 356.531636 -312.870766 
L 358.120294 -312.870766 
L 359.708952 -312.870766 
L 361.29761 -312.870766 
L 362.886267 -312.870766 
L 364.474925 -317.418672 
L 366.063583 -317.418672 
L 367.652241 -317.418672 
L 369.240899 -317.418672 
L 370.829556 -317.418672 
L 372.418214 -317.418672 
L 374.006872 -317.418672 
L 375.59553 -317.418672 
L 377.184187 -317.418672 
L 378.772845 -317.418672 
L 380.361503 -317.418672 
L 381.950161 -317.418672 
L 383.538818 -317.418672 
L 385.127476 -317.418672 
L 386.716134 -317.418672 
L 388.304792 -317.418672 
L 389.893449 -317.418672 
L 391.482107 -317.418672 
L 393.070765 -317.418672 
L 394.659423 -317.418672 
L 396.248081 -317.418672 
L 397.836738 -317.418672 
L 399.425396 -317.418672 
L 401.014054 -317.418672 
L 402.602712 -317.418672 
L 404.191369 -317.418672 
L 405.780027 -317.418672 
L 407.368685 -317.418672 
L 408.957343 -317.418672 
L 410.546 -317.418672 
L 412.134658 -317.418672 
L 413.723316 -317.418672 
L 415.311974 -317.418672 
L 416.900631 -317.418672 
L 418.489289 -317.418672 
L 420.077947 -317.418672 
L 421.666605 -317.418672 
L 423.255262 -317.418672 
L 424.84392 -317.418672 
L 426.432578 -317.418672 
L 428.021236 -317.418672 
L 429.609894 -317.418672 
L 431.198551 -317.418672 
L 432.787209 -317.418672 
L 434.375867 -317.418672 
L 435.964525 -317.418672 
L 437.553182 -321.966577 
L 439.14184 -321.966577 
L 440.730498 -321.966577 
L 442.319156 -321.966577 
L 443.907813 -321.966577 
L 445.496471 -321.966577 
L 447.085129 -321.966577 
L 448.673787 -321.966577 
L 450.262444 -321.966577 
L 451.851102 -321.966577 
L 453.43976 -326.514483 
L 453.43976 -326.514483 
L 453.43976 -326.514483 
L 451.851102 -326.514483 
L 450.262444 -326.514483 
L 448.673787 -326.514483 
L 447.085129 -326.514483 
L 445.496471 -326.514483 
L 443.907813 -326.514483 
L 442.319156 -326.514483 
L 440.730498 -326.514483 
L 439.14184 -326.514483 
L 437.553182 -326.514483 
L 435.964525 -326.514483 
L 434.375867 -326.514483 
L 432.787209 -326.514483 
L 431.198551 -326.514483 
L 429.609894 -326.514483 
L 428.021236 -326.514483 
L 426.432578 -326.514483 
L 424.84392 -326.514483 
L 423.255262 -326.514483 
L 421.666605 -326.514483 
L 420.077947 -326.514483 
L 418.489289 -326.514483 
L 416.900631 -326.514483 
L 415.311974 -326.514483 
L 413.723316 -326.514483 
L 412.134658 -326.514483 
L 410.546 -326.514483 
L 408.957343 -326.514483 
L 407.368685 -326.514483 
L 405.780027 -326.514483 
L 404.191369 -326.514483 
L 402.602712 -326.514483 
L 401.014054 -326.514483 
L 399.425396 -326.514483 
L 397.836738 -326.514483 
L 396.248081 -326.514483 
L 394.659423 -326.514483 
L 393.070765 -326.514483 
L 391.482107 -326.514483 
L 389.893449 -326.514483 
L 388.304792 -326.514483 
L 386.716134 -326.514483 
L 385.127476 -326.514483 
L 383.538818 -326.514483 
L 381.950161 -326.514483 
L 380.361503 -326.514483 
L 378.772845 -326.514483 
L 377.184187 -326.514483 
L 375.59553 -326.514483 
L 374.006872 -326.514483 
L 372.418214 -326.514483 
L 370.829556 -326.514483 
L 369.240899 -326.514483 
L 367.652241 -326.514483 
L 366.063583 -326.514483 
L 364.474925 -326.514483 
L 362.886267 -326.514483 
L 361.29761 -326.514483 
L 359.708952 -326.514483 
L 358.120294 -326.514483 
L 356.531636 -326.514483 
L 354.942979 -326.514483 
L 353.354321 -326.514483 
L 351.765663 -326.514483 
L 350.177005 -326.514483 
L 348.588348 -326.514483 
L 346.99969 -326.514483 
L 345.411032 -326.514483 
L 343.822374 -326.514483 
L 342.233717 -326.514483 
L 340.645059 -326.514483 
L 339.056401 -326.514483 
L 337.467743 -326.514483 
L 335.879086 -326.514483 
L 334.290428 -326.514483 
L 332.70177 -326.514483 
L 331.113112 -326.514483 
L 329.524454 -326.514483 
L 327.935797 -326.514483 
L 326.347139 -326.514483 
L 324.758481 -326.514483 
L 323.169823 -326.514483 
L 321.581166 -326.514483 
L 319.992508 -326.514483 
L 318.40385 -326.514483 
L 316.815192 -326.514483 
L 315.226535 -326.514483 
L 313.637877 -326.514483 
L 312.049219 -326.514483 
L 310.460561 -326.514483 
L 308.871904 -326.514483 
L 307.283246 -326.514483 
L 305.694588 -326.514483 
L 304.10593 -326.514483 
L 302.517272 -326.514483 
L 300.928615 -326.514483 
L 299.339957 -326.514483 
L 297.751299 -326.514483 
L 296.162641 -326.514483 
L 294.573984 -326.514483 
L 292.985326 -326.514483 
L 291.396668 -326.514483 
L 289.80801 -326.514483 
L 288.219353 -326.514483 
L 286.630695 -326.514483 
L 285.042037 -326.514483 
L 283.453379 -326.514483 
L 281.864722 -326.514483 
L 280.276064 -326.514483 
L 278.687406 -326.514483 
L 277.098748 -326.514483 
L 275.51009 -326.514483 
L 273.921433 -326.514483 
L 272.332775 -326.514483 
L 270.744117 -326.514483 
L 269.155459 -326.514483 
L 267.566802 -326.514483 
L 265.978144 -326.514483 
L 264.389486 -326.514483 
L 262.800828 -326.514483 
L 261.212171 -326.514483 
L 259.623513 -326.514483 
L 258.034855 -326.514483 
L 256.446197 -326.514483 
L 254.85754 -326.514483 
L 253.268882 -326.514483 
L 251.680224 -326.514483 
L 250.091566 -326.514483 
L 248.502909 -326.514483 
L 246.914251 -326.514483 
L 245.325593 -326.514483 
L 243.736935 -326.514483 
L 242.148277 -326.514483 
L 240.55962 -326.514483 
L 238.970962 -326.514483 
L 237.382304 -326.514483 
L 235.793646 -326.514483 
L 234.204989 -326.514483 
L 232.616331 -326.514483 
L 231.027673 -326.514483 
L 229.439015 -326.514483 
L 227.850358 -326.514483 
L 226.2617 -326.514483 
L 224.673042 -326.514483 
L 223.084384 -326.514483 
L 221.495727 -326.514483 
L 219.907069 -326.514483 
L 218.318411 -326.514483 
L 216.729753 -326.514483 
L 215.141095 -326.514483 
L 213.552438 -326.514483 
L 211.96378 -326.514483 
L 210.375122 -326.514483 
L 208.786464 -326.514483 
L 207.197807 -326.514483 
L 205.609149 -326.514483 
L 204.020491 -326.514483 
L 202.431833 -326.514483 
L 200.843176 -326.514483 
L 199.254518 -326.514483 
L 197.66586 -326.514483 
L 196.077202 -326.514483 
L 194.488545 -326.514483 
L 192.899887 -326.514483 
L 191.311229 -326.514483 
L 189.722571 -326.514483 
L 188.133914 -326.514483 
L 186.545256 -326.514483 
L 184.956598 -326.514483 
L 183.36794 -326.514483 
L 181.779282 -326.514483 
L 180.190625 -326.514483 
L 178.601967 -326.514483 
L 177.013309 -326.514483 
L 175.424651 -326.514483 
L 173.835994 -321.966577 
L 172.247336 -321.966577 
L 170.658678 -321.966577 
L 169.07002 -321.966577 
L 167.481363 -321.966577 
L 165.892705 -321.966577 
L 164.304047 -321.966577 
L 162.715389 -321.966577 
L 161.126732 -321.966577 
L 159.538074 -321.966577 
L 157.949416 -321.966577 
L 156.360758 -321.966577 
L 154.7721 -321.966577 
L 153.183443 -321.966577 
L 151.594785 -321.966577 
L 150.006127 -321.966577 
L 148.417469 -321.966577 
L 146.828812 -321.966577 
L 145.240154 -321.966577 
L 143.651496 -321.966577 
L 142.062838 -321.966577 
L 140.474181 -321.966577 
L 138.885523 -321.966577 
L 137.296865 -321.966577 
L 135.708207 -321.966577 
L 134.11955 -321.966577 
L 132.530892 -321.966577 
L 130.942234 -321.966577 
L 129.353576 -321.966577 
L 127.764919 -321.966577 
L 126.176261 -321.966577 
L 124.587603 -321.966577 
L 122.998945 -321.966577 
L 121.410287 -321.966577 
L 119.82163 -321.966577 
L 118.232972 -317.418672 
L 116.644314 -317.418672 
L 115.055656 -317.418672 
L 113.466999 -312.870766 
L 111.878341 -312.870766 
L 110.289683 -312.870766 
L 108.701025 -312.870766 
L 107.112368 -312.870766 
L 105.52371 -312.870766 
L 103.935052 -312.870766 
L 102.346394 -312.870766 
L 100.757737 -312.870766 
L 99.169079 -312.870766 
L 97.580421 -312.870766 
L 95.991763 -312.870766 
L 94.403105 -308.32286 
L 92.814448 -308.32286 
L 91.22579 -308.32286 
L 89.637132 -308.32286 
L 88.048474 -308.32286 
L 86.459817 -308.32286 
L 84.871159 -308.32286 
L 83.282501 -308.32286 
L 81.693843 -308.32286 
L 80.105186 -308.32286 
L 78.516528 -308.32286 
L 76.92787 -308.32286 
L 75.339212 -303.774955 
L 73.750555 -299.227049 
L 72.161897 -294.679143 
L 70.573239 -294.679143 
L 68.984581 -294.679143 
L 67.395923 -294.679143 
L 65.807266 -285.583332 
L 64.218608 -285.583332 
L 62.62995 -285.583332 
L 61.041292 -285.583332 
L 59.452635 -281.035427 
L 57.863977 -281.035427 
L 56.275319 -281.035427 
L 54.686661 -276.487521 
L 53.098004 -276.487521 
L 51.509346 -267.39171 
L 49.920688 -267.39171 
L 48.33203 -267.39171 
L 46.743373 -253.747993 
L 45.154715 -249.200087 
L 43.566057 -244.652181 
L 41.977399 -221.912653 
L 40.388742 -190.077313 
L 38.800084 -153.694068 
z
"/>
    </defs>
    <g clip-path="url(#p74d13b6198)">
     <use xlink:href="#me3cdd25450" x="0" y="352.8" style="fill: #c7623c; fill-opacity: 0.18"/>
    </g>
   </g>
   <g id="FillBetweenPolyCollection_2">
    <defs>
     <path id="m6e49fc7ce7" d="M 38.800084 -130.95454 
L 38.800084 -39.996427 
L 40.388742 -67.283861 
L 41.977399 -80.927578 
L 43.566057 -90.023389 
L 45.154715 -94.571295 
L 46.743373 -99.1192 
L 48.33203 -103.667106 
L 49.920688 -103.667106 
L 51.509346 -112.762917 
L 53.098004 -117.310823 
L 54.686661 -117.310823 
L 56.275319 -121.858729 
L 57.863977 -121.858729 
L 59.452635 -135.502446 
L 61.041292 -140.050351 
L 62.62995 -144.598257 
L 64.218608 -144.598257 
L 65.807266 -144.598257 
L 67.395923 -144.598257 
L 68.984581 -144.598257 
L 70.573239 -149.146163 
L 72.161897 -149.146163 
L 73.750555 -153.694068 
L 75.339212 -153.694068 
L 76.92787 -153.694068 
L 78.516528 -158.241974 
L 80.105186 -167.337785 
L 81.693843 -167.337785 
L 83.282501 -171.885691 
L 84.871159 -171.885691 
L 86.459817 -176.433596 
L 88.048474 -180.981502 
L 89.637132 -185.529408 
L 91.22579 -185.529408 
L 92.814448 -185.529408 
L 94.403105 -185.529408 
L 95.991763 -185.529408 
L 97.580421 -185.529408 
L 99.169079 -190.077313 
L 100.757737 -190.077313 
L 102.346394 -190.077313 
L 103.935052 -190.077313 
L 105.52371 -190.077313 
L 107.112368 -190.077313 
L 108.701025 -194.625219 
L 110.289683 -194.625219 
L 111.878341 -194.625219 
L 113.466999 -194.625219 
L 115.055656 -194.625219 
L 116.644314 -194.625219 
L 118.232972 -194.625219 
L 119.82163 -194.625219 
L 121.410287 -194.625219 
L 122.998945 -194.625219 
L 124.587603 -199.173125 
L 126.176261 -199.173125 
L 127.764919 -199.173125 
L 129.353576 -199.173125 
L 130.942234 -199.173125 
L 132.530892 -203.72103 
L 134.11955 -203.72103 
L 135.708207 -203.72103 
L 137.296865 -203.72103 
L 138.885523 -208.268936 
L 140.474181 -208.268936 
L 142.062838 -208.268936 
L 143.651496 -208.268936 
L 145.240154 -208.268936 
L 146.828812 -208.268936 
L 148.417469 -208.268936 
L 150.006127 -217.364747 
L 151.594785 -217.364747 
L 153.183443 -221.912653 
L 154.7721 -221.912653 
L 156.360758 -221.912653 
L 157.949416 -221.912653 
L 159.538074 -221.912653 
L 161.126732 -221.912653 
L 162.715389 -231.008464 
L 164.304047 -231.008464 
L 165.892705 -231.008464 
L 167.481363 -231.008464 
L 169.07002 -235.55637 
L 170.658678 -235.55637 
L 172.247336 -235.55637 
L 173.835994 -235.55637 
L 175.424651 -235.55637 
L 177.013309 -235.55637 
L 178.601967 -240.104276 
L 180.190625 -240.104276 
L 181.779282 -244.652181 
L 183.36794 -244.652181 
L 184.956598 -244.652181 
L 186.545256 -244.652181 
L 188.133914 -244.652181 
L 189.722571 -244.652181 
L 191.311229 -244.652181 
L 192.899887 -244.652181 
L 194.488545 -244.652181 
L 196.077202 -244.652181 
L 197.66586 -244.652181 
L 199.254518 -253.747993 
L 200.843176 -253.747993 
L 202.431833 -253.747993 
L 204.020491 -253.747993 
L 205.609149 -253.747993 
L 207.197807 -253.747993 
L 208.786464 -253.747993 
L 210.375122 -253.747993 
L 211.96378 -253.747993 
L 213.552438 -253.747993 
L 215.141095 -258.295898 
L 216.729753 -258.295898 
L 218.318411 -258.295898 
L 219.907069 -258.295898 
L 221.495727 -258.295898 
L 223.084384 -258.295898 
L 224.673042 -258.295898 
L 226.2617 -258.295898 
L 227.850358 -258.295898 
L 229.439015 -258.295898 
L 231.027673 -258.295898 
L 232.616331 -258.295898 
L 234.204989 -262.843804 
L 235.793646 -262.843804 
L 237.382304 -262.843804 
L 238.970962 -262.843804 
L 240.55962 -262.843804 
L 242.148277 -262.843804 
L 243.736935 -262.843804 
L 245.325593 -262.843804 
L 246.914251 -262.843804 
L 248.502909 -262.843804 
L 250.091566 -262.843804 
L 251.680224 -262.843804 
L 253.268882 -267.39171 
L 254.85754 -267.39171 
L 256.446197 -267.39171 
L 258.034855 -271.939615 
L 259.623513 -271.939615 
L 261.212171 -271.939615 
L 262.800828 -271.939615 
L 264.389486 -271.939615 
L 265.978144 -271.939615 
L 267.566802 -271.939615 
L 269.155459 -271.939615 
L 270.744117 -271.939615 
L 272.332775 -271.939615 
L 273.921433 -271.939615 
L 275.51009 -271.939615 
L 277.098748 -276.487521 
L 278.687406 -276.487521 
L 280.276064 -276.487521 
L 281.864722 -276.487521 
L 283.453379 -276.487521 
L 285.042037 -276.487521 
L 286.630695 -276.487521 
L 288.219353 -276.487521 
L 289.80801 -276.487521 
L 291.396668 -276.487521 
L 292.985326 -276.487521 
L 294.573984 -276.487521 
L 296.162641 -276.487521 
L 297.751299 -276.487521 
L 299.339957 -276.487521 
L 300.928615 -276.487521 
L 302.517272 -276.487521 
L 304.10593 -276.487521 
L 305.694588 -276.487521 
L 307.283246 -276.487521 
L 308.871904 -276.487521 
L 310.460561 -276.487521 
L 312.049219 -276.487521 
L 313.637877 -276.487521 
L 315.226535 -276.487521 
L 316.815192 -276.487521 
L 318.40385 -276.487521 
L 319.992508 -276.487521 
L 321.581166 -276.487521 
L 323.169823 -276.487521 
L 324.758481 -276.487521 
L 326.347139 -276.487521 
L 327.935797 -276.487521 
L 329.524454 -276.487521 
L 331.113112 -281.035427 
L 332.70177 -281.035427 
L 334.290428 -281.035427 
L 335.879086 -281.035427 
L 337.467743 -281.035427 
L 339.056401 -281.035427 
L 340.645059 -281.035427 
L 342.233717 -281.035427 
L 343.822374 -281.035427 
L 345.411032 -281.035427 
L 346.99969 -281.035427 
L 348.588348 -285.583332 
L 350.177005 -285.583332 
L 351.765663 -285.583332 
L 353.354321 -285.583332 
L 354.942979 -285.583332 
L 356.531636 -285.583332 
L 358.120294 -285.583332 
L 359.708952 -285.583332 
L 361.29761 -285.583332 
L 362.886267 -285.583332 
L 364.474925 -285.583332 
L 366.063583 -285.583332 
L 367.652241 -285.583332 
L 369.240899 -285.583332 
L 370.829556 -285.583332 
L 372.418214 -285.583332 
L 374.006872 -285.583332 
L 375.59553 -285.583332 
L 377.184187 -285.583332 
L 378.772845 -285.583332 
L 380.361503 -285.583332 
L 381.950161 -285.583332 
L 383.538818 -285.583332 
L 385.127476 -285.583332 
L 386.716134 -285.583332 
L 388.304792 -285.583332 
L 389.893449 -285.583332 
L 391.482107 -285.583332 
L 393.070765 -285.583332 
L 394.659423 -285.583332 
L 396.248081 -285.583332 
L 397.836738 -285.583332 
L 399.425396 -285.583332 
L 401.014054 -285.583332 
L 402.602712 -285.583332 
L 404.191369 -285.583332 
L 405.780027 -290.131238 
L 407.368685 -290.131238 
L 408.957343 -290.131238 
L 410.546 -290.131238 
L 412.134658 -290.131238 
L 413.723316 -290.131238 
L 415.311974 -290.131238 
L 416.900631 -290.131238 
L 418.489289 -290.131238 
L 420.077947 -290.131238 
L 421.666605 -290.131238 
L 423.255262 -290.131238 
L 424.84392 -290.131238 
L 426.432578 -290.131238 
L 428.021236 -290.131238 
L 429.609894 -290.131238 
L 431.198551 -290.131238 
L 432.787209 -294.679143 
L 434.375867 -294.679143 
L 435.964525 -294.679143 
L 437.553182 -294.679143 
L 439.14184 -294.679143 
L 440.730498 -294.679143 
L 442.319156 -294.679143 
L 443.907813 -294.679143 
L 445.496471 -294.679143 
L 447.085129 -294.679143 
L 448.673787 -294.679143 
L 450.262444 -294.679143 
L 451.851102 -294.679143 
L 453.43976 -299.227049 
L 453.43976 -299.227049 
L 453.43976 -299.227049 
L 451.851102 -299.227049 
L 450.262444 -299.227049 
L 448.673787 -299.227049 
L 447.085129 -299.227049 
L 445.496471 -299.227049 
L 443.907813 -299.227049 
L 442.319156 -299.227049 
L 440.730498 -299.227049 
L 439.14184 -299.227049 
L 437.553182 -299.227049 
L 435.964525 -299.227049 
L 434.375867 -299.227049 
L 432.787209 -299.227049 
L 431.198551 -299.227049 
L 429.609894 -299.227049 
L 428.021236 -299.227049 
L 426.432578 -299.227049 
L 424.84392 -299.227049 
L 423.255262 -299.227049 
L 421.666605 -299.227049 
L 420.077947 -299.227049 
L 418.489289 -299.227049 
L 416.900631 -299.227049 
L 415.311974 -299.227049 
L 413.723316 -299.227049 
L 412.134658 -299.227049 
L 410.546 -299.227049 
L 408.957343 -299.227049 
L 407.368685 -299.227049 
L 405.780027 -299.227049 
L 404.191369 -299.227049 
L 402.602712 -299.227049 
L 401.014054 -299.227049 
L 399.425396 -299.227049 
L 397.836738 -299.227049 
L 396.248081 -299.227049 
L 394.659423 -299.227049 
L 393.070765 -299.227049 
L 391.482107 -299.227049 
L 389.893449 -299.227049 
L 388.304792 -299.227049 
L 386.716134 -299.227049 
L 385.127476 -299.227049 
L 383.538818 -299.227049 
L 381.950161 -299.227049 
L 380.361503 -299.227049 
L 378.772845 -299.227049 
L 377.184187 -299.227049 
L 375.59553 -299.227049 
L 374.006872 -299.227049 
L 372.418214 -299.227049 
L 370.829556 -299.227049 
L 369.240899 -299.227049 
L 367.652241 -299.227049 
L 366.063583 -299.227049 
L 364.474925 -299.227049 
L 362.886267 -299.227049 
L 361.29761 -299.227049 
L 359.708952 -299.227049 
L 358.120294 -299.227049 
L 356.531636 -299.227049 
L 354.942979 -299.227049 
L 353.354321 -299.227049 
L 351.765663 -299.227049 
L 350.177005 -299.227049 
L 348.588348 -299.227049 
L 346.99969 -299.227049 
L 345.411032 -299.227049 
L 343.822374 -299.227049 
L 342.233717 -299.227049 
L 340.645059 -299.227049 
L 339.056401 -299.227049 
L 337.467743 -299.227049 
L 335.879086 -299.227049 
L 334.290428 -299.227049 
L 332.70177 -299.227049 
L 331.113112 -299.227049 
L 329.524454 -299.227049 
L 327.935797 -299.227049 
L 326.347139 -299.227049 
L 324.758481 -299.227049 
L 323.169823 -299.227049 
L 321.581166 -299.227049 
L 319.992508 -299.227049 
L 318.40385 -299.227049 
L 316.815192 -299.227049 
L 315.226535 -299.227049 
L 313.637877 -299.227049 
L 312.049219 -299.227049 
L 310.460561 -299.227049 
L 308.871904 -299.227049 
L 307.283246 -299.227049 
L 305.694588 -299.227049 
L 304.10593 -299.227049 
L 302.517272 -299.227049 
L 300.928615 -299.227049 
L 299.339957 -299.227049 
L 297.751299 -299.227049 
L 296.162641 -299.227049 
L 294.573984 -299.227049 
L 292.985326 -299.227049 
L 291.396668 -299.227049 
L 289.80801 -299.227049 
L 288.219353 -299.227049 
L 286.630695 -299.227049 
L 285.042037 -299.227049 
L 283.453379 -299.227049 
L 281.864722 -299.227049 
L 280.276064 -299.227049 
L 278.687406 -299.227049 
L 277.098748 -299.227049 
L 275.51009 -299.227049 
L 273.921433 -299.227049 
L 272.332775 -299.227049 
L 270.744117 -299.227049 
L 269.155459 -299.227049 
L 267.566802 -299.227049 
L 265.978144 -299.227049 
L 264.389486 -299.227049 
L 262.800828 -299.227049 
L 261.212171 -299.227049 
L 259.623513 -299.227049 
L 258.034855 -299.227049 
L 256.446197 -299.227049 
L 254.85754 -299.227049 
L 253.268882 -299.227049 
L 251.680224 -299.227049 
L 250.091566 -299.227049 
L 248.502909 -299.227049 
L 246.914251 -299.227049 
L 245.325593 -299.227049 
L 243.736935 -299.227049 
L 242.148277 -299.227049 
L 240.55962 -299.227049 
L 238.970962 -299.227049 
L 237.382304 -299.227049 
L 235.793646 -299.227049 
L 234.204989 -299.227049 
L 232.616331 -299.227049 
L 231.027673 -299.227049 
L 229.439015 -299.227049 
L 227.850358 -299.227049 
L 226.2617 -299.227049 
L 224.673042 -299.227049 
L 223.084384 -299.227049 
L 221.495727 -299.227049 
L 219.907069 -299.227049 
L 218.318411 -299.227049 
L 216.729753 -299.227049 
L 215.141095 -294.679143 
L 213.552438 -294.679143 
L 211.96378 -294.679143 
L 210.375122 -294.679143 
L 208.786464 -294.679143 
L 207.197807 -294.679143 
L 205.609149 -294.679143 
L 204.020491 -294.679143 
L 202.431833 -294.679143 
L 200.843176 -294.679143 
L 199.254518 -294.679143 
L 197.66586 -294.679143 
L 196.077202 -294.679143 
L 194.488545 -294.679143 
L 192.899887 -294.679143 
L 191.311229 -294.679143 
L 189.722571 -294.679143 
L 188.133914 -294.679143 
L 186.545256 -294.679143 
L 184.956598 -294.679143 
L 183.36794 -294.679143 
L 181.779282 -294.679143 
L 180.190625 -294.679143 
L 178.601967 -294.679143 
L 177.013309 -294.679143 
L 175.424651 -294.679143 
L 173.835994 -294.679143 
L 172.247336 -294.679143 
L 170.658678 -294.679143 
L 169.07002 -290.131238 
L 167.481363 -290.131238 
L 165.892705 -290.131238 
L 164.304047 -290.131238 
L 162.715389 -290.131238 
L 161.126732 -290.131238 
L 159.538074 -290.131238 
L 157.949416 -290.131238 
L 156.360758 -290.131238 
L 154.7721 -290.131238 
L 153.183443 -290.131238 
L 151.594785 -290.131238 
L 150.006127 -290.131238 
L 148.417469 -290.131238 
L 146.828812 -290.131238 
L 145.240154 -290.131238 
L 143.651496 -290.131238 
L 142.062838 -290.131238 
L 140.474181 -290.131238 
L 138.885523 -290.131238 
L 137.296865 -290.131238 
L 135.708207 -290.131238 
L 134.11955 -290.131238 
L 132.530892 -290.131238 
L 130.942234 -290.131238 
L 129.353576 -290.131238 
L 127.764919 -290.131238 
L 126.176261 -290.131238 
L 124.587603 -290.131238 
L 122.998945 -290.131238 
L 121.410287 -290.131238 
L 119.82163 -285.583332 
L 118.232972 -276.487521 
L 116.644314 -276.487521 
L 115.055656 -276.487521 
L 113.466999 -276.487521 
L 111.878341 -276.487521 
L 110.289683 -276.487521 
L 108.701025 -276.487521 
L 107.112368 -276.487521 
L 105.52371 -271.939615 
L 103.935052 -271.939615 
L 102.346394 -271.939615 
L 100.757737 -271.939615 
L 99.169079 -271.939615 
L 97.580421 -271.939615 
L 95.991763 -267.39171 
L 94.403105 -267.39171 
L 92.814448 -267.39171 
L 91.22579 -267.39171 
L 89.637132 -267.39171 
L 88.048474 -267.39171 
L 86.459817 -262.843804 
L 84.871159 -262.843804 
L 83.282501 -262.843804 
L 81.693843 -262.843804 
L 80.105186 -258.295898 
L 78.516528 -249.200087 
L 76.92787 -249.200087 
L 75.339212 -249.200087 
L 73.750555 -244.652181 
L 72.161897 -244.652181 
L 70.573239 -240.104276 
L 68.984581 -240.104276 
L 67.395923 -235.55637 
L 65.807266 -235.55637 
L 64.218608 -235.55637 
L 62.62995 -235.55637 
L 61.041292 -235.55637 
L 59.452635 -235.55637 
L 57.863977 -235.55637 
L 56.275319 -226.460559 
L 54.686661 -221.912653 
L 53.098004 -212.816842 
L 51.509346 -208.268936 
L 49.920688 -208.268936 
L 48.33203 -208.268936 
L 46.743373 -190.077313 
L 45.154715 -190.077313 
L 43.566057 -176.433596 
L 41.977399 -167.337785 
L 40.388742 -149.146163 
L 38.800084 -130.95454 
z
"/>
    </defs>
    <g clip-path="url(#p74d13b6198)">
     <use xlink:href="#m6e49fc7ce7" x="0" y="352.8" style="fill: #1f3a5f; fill-opacity: 0.18"/>
    </g>
   </g>
   <g id="matplotlib.axis_1">
    <g id="xtick_1">
     <g id="line2d_1">
      <path d="M 116.644314 317.351479 
L 116.644314 3.00024 
" clip-path="url(#p74d13b6198)" style="fill: none; stroke: #cfc7ab; stroke-width: 0.5; stroke-linecap: square"/>
     </g>
     <g id="line2d_2">
      <defs>
       <path id="m787f0dcad8" d="M 0 0 
L 0 3.5 
" style="stroke: #1f1f1f; stroke-width: 0.8"/>
      </defs>
      <g>
       <use xlink:href="#m787f0dcad8" x="116.644314" y="317.351479" style="fill: #1f1f1f; stroke: #1f1f1f; stroke-width: 0.8"/>
      </g>
     </g>
     <g id="text_1">
      <!-- 50 -->
      <g style="fill: #1f1f1f" transform="translate(109.645564 332.70976) scale(0.11 -0.11)">
       <defs>
        <path id="DejaVuSerif-35" d="M 3219 4666 
L 3219 4153 
L 1081 4153 
L 1081 2816 
Q 1244 2928 1461 2984 
Q 1678 3041 1947 3041 
Q 2703 3041 3140 2622 
Q 3578 2203 3578 1478 
Q 3578 738 3136 323 
Q 2694 -91 1894 -91 
Q 1572 -91 1234 -12 
Q 897 66 544 225 
L 544 1131 
L 897 1131 
Q 925 688 1179 453 
Q 1434 219 1894 219 
Q 2388 219 2653 544 
Q 2919 869 2919 1478 
Q 2919 2084 2655 2407 
Q 2391 2731 1894 2731 
Q 1613 2731 1398 2631 
Q 1184 2531 1019 2322 
L 750 2322 
L 750 4666 
L 3219 4666 
z
" transform="scale(0.015625)"/>
        <path id="DejaVuSerif-30" d="M 2034 219 
Q 2513 219 2750 744 
Q 2988 1269 2988 2328 
Q 2988 3391 2750 3916 
Q 2513 4441 2034 4441 
Q 1556 4441 1318 3916 
Q 1081 3391 1081 2328 
Q 1081 1269 1318 744 
Q 1556 219 2034 219 
z
M 2034 -91 
Q 1275 -91 848 546 
Q 422 1184 422 2328 
Q 422 3475 848 4112 
Q 1275 4750 2034 4750 
Q 2797 4750 3222 4112 
Q 3647 3475 3647 2328 
Q 3647 1184 3222 546 
Q 2797 -91 2034 -91 
z
" transform="scale(0.015625)"/>
       </defs>
       <use xlink:href="#DejaVuSerif-35"/>
       <use xlink:href="#DejaVuSerif-30" transform="translate(63.623047 0)"/>
      </g>
     </g>
    </g>
    <g id="xtick_2">
     <g id="line2d_3">
      <path d="M 196.077202 317.351479 
L 196.077202 3.00024 
" clip-path="url(#p74d13b6198)" style="fill: none; stroke: #cfc7ab; stroke-width: 0.5; stroke-linecap: square"/>
     </g>
     <g id="line2d_4">
      <g>
       <use xlink:href="#m787f0dcad8" x="196.077202" y="317.351479" style="fill: #1f1f1f; stroke: #1f1f1f; stroke-width: 0.8"/>
      </g>
     </g>
     <g id="text_2">
      <!-- 100 -->
      <g style="fill: #1f1f1f" transform="translate(185.579077 332.70976) scale(0.11 -0.11)">
       <defs>
        <path id="DejaVuSerif-31" d="M 909 0 
L 909 331 
L 1722 331 
L 1722 4213 
L 781 3603 
L 781 4013 
L 1919 4750 
L 2350 4750 
L 2350 331 
L 3163 331 
L 3163 0 
L 909 0 
z
" transform="scale(0.015625)"/>
       </defs>
       <use xlink:href="#DejaVuSerif-31"/>
       <use xlink:href="#DejaVuSerif-30" transform="translate(63.623047 0)"/>
       <use xlink:href="#DejaVuSerif-30" transform="translate(127.246094 0)"/>
      </g>
     </g>
    </g>
    <g id="xtick_3">
     <g id="line2d_5">
      <path d="M 275.51009 317.351479 
L 275.51009 3.00024 
" clip-path="url(#p74d13b6198)" style="fill: none; stroke: #cfc7ab; stroke-width: 0.5; stroke-linecap: square"/>
     </g>
     <g id="line2d_6">
      <g>
       <use xlink:href="#m787f0dcad8" x="275.51009" y="317.351479" style="fill: #1f1f1f; stroke: #1f1f1f; stroke-width: 0.8"/>
      </g>
     </g>
     <g id="text_3">
      <!-- 150 -->
      <g style="fill: #1f1f1f" transform="translate(265.011965 332.70976) scale(0.11 -0.11)">
       <use xlink:href="#DejaVuSerif-31"/>
       <use xlink:href="#DejaVuSerif-35" transform="translate(63.623047 0)"/>
       <use xlink:href="#DejaVuSerif-30" transform="translate(127.246094 0)"/>
      </g>
     </g>
    </g>
    <g id="xtick_4">
     <g id="line2d_7">
      <path d="M 354.942979 317.351479 
L 354.942979 3.00024 
" clip-path="url(#p74d13b6198)" style="fill: none; stroke: #cfc7ab; stroke-width: 0.5; stroke-linecap: square"/>
     </g>
     <g id="line2d_8">
      <g>
       <use xlink:href="#m787f0dcad8" x="354.942979" y="317.351479" style="fill: #1f1f1f; stroke: #1f1f1f; stroke-width: 0.8"/>
      </g>
     </g>
     <g id="text_4">
      <!-- 200 -->
      <g style="fill: #1f1f1f" transform="translate(344.444854 332.70976) scale(0.11 -0.11)">
       <defs>
        <path id="DejaVuSerif-32" d="M 819 3553 
L 469 3553 
L 469 4384 
Q 803 4563 1142 4656 
Q 1481 4750 1806 4750 
Q 2534 4750 2956 4397 
Q 3378 4044 3378 3438 
Q 3378 2753 2422 1800 
Q 2347 1728 2309 1691 
L 1131 513 
L 3078 513 
L 3078 1088 
L 3444 1088 
L 3444 0 
L 434 0 
L 434 341 
L 1850 1753 
Q 2319 2222 2519 2614 
Q 2719 3006 2719 3438 
Q 2719 3909 2473 4175 
Q 2228 4441 1797 4441 
Q 1350 4441 1106 4219 
Q 863 3997 819 3553 
z
" transform="scale(0.015625)"/>
       </defs>
       <use xlink:href="#DejaVuSerif-32"/>
       <use xlink:href="#DejaVuSerif-30" transform="translate(63.623047 0)"/>
       <use xlink:href="#DejaVuSerif-30" transform="translate(127.246094 0)"/>
      </g>
     </g>
    </g>
    <g id="xtick_5">
     <g id="line2d_9">
      <path d="M 434.375867 317.351479 
L 434.375867 3.00024 
" clip-path="url(#p74d13b6198)" style="fill: none; stroke: #cfc7ab; stroke-width: 0.5; stroke-linecap: square"/>
     </g>
     <g id="line2d_10">
      <g>
       <use xlink:href="#m787f0dcad8" x="434.375867" y="317.351479" style="fill: #1f1f1f; stroke: #1f1f1f; stroke-width: 0.8"/>
      </g>
     </g>
     <g id="text_5">
      <!-- 250 -->
      <g style="fill: #1f1f1f" transform="translate(423.877742 332.70976) scale(0.11 -0.11)">
       <use xlink:href="#DejaVuSerif-32"/>
       <use xlink:href="#DejaVuSerif-35" transform="translate(63.623047 0)"/>
       <use xlink:href="#DejaVuSerif-30" transform="translate(127.246094 0)"/>
      </g>
     </g>
    </g>
    <g id="text_6">
     <!-- Arrays sampled -->
     <g style="fill: #1f1f1f" transform="translate(202.559922 347.355698) scale(0.11 -0.11)">
      <defs>
       <path id="DejaVuSerif-41" d="M 1281 1691 
L 2994 1691 
L 2138 3909 
L 1281 1691 
z
M -38 0 
L -38 331 
L 372 331 
L 2034 4666 
L 2559 4666 
L 4225 331 
L 4684 331 
L 4684 0 
L 2988 0 
L 2988 331 
L 3506 331 
L 3116 1356 
L 1153 1356 
L 763 331 
L 1275 331 
L 1275 0 
L -38 0 
z
" transform="scale(0.015625)"/>
       <path id="DejaVuSerif-72" d="M 3059 3328 
L 3059 2497 
L 2728 2497 
Q 2713 2744 2591 2866 
Q 2469 2988 2234 2988 
Q 1809 2988 1582 2694 
Q 1356 2400 1356 1850 
L 1356 331 
L 2022 331 
L 2022 0 
L 263 0 
L 263 331 
L 781 331 
L 781 2994 
L 231 2994 
L 231 3322 
L 1356 3322 
L 1356 2731 
Q 1525 3078 1790 3245 
Q 2056 3413 2438 3413 
Q 2578 3413 2733 3391 
Q 2888 3369 3059 3328 
z
" transform="scale(0.015625)"/>
       <path id="DejaVuSerif-61" d="M 2547 1044 
L 2547 1747 
L 1806 1747 
Q 1378 1747 1168 1562 
Q 959 1378 959 997 
Q 959 650 1171 447 
Q 1384 244 1747 244 
Q 2106 244 2326 466 
Q 2547 688 2547 1044 
z
M 3122 2075 
L 3122 331 
L 3634 331 
L 3634 0 
L 2547 0 
L 2547 359 
Q 2356 128 2106 18 
Q 1856 -91 1522 -91 
Q 969 -91 644 203 
Q 319 497 319 997 
Q 319 1513 691 1797 
Q 1063 2081 1741 2081 
L 2547 2081 
L 2547 2309 
Q 2547 2688 2317 2895 
Q 2088 3103 1672 3103 
Q 1328 3103 1125 2947 
Q 922 2791 872 2484 
L 575 2484 
L 575 3156 
Q 875 3284 1158 3348 
Q 1441 3413 1709 3413 
Q 2400 3413 2761 3070 
Q 3122 2728 3122 2075 
z
" transform="scale(0.015625)"/>
       <path id="DejaVuSerif-79" d="M 1381 -609 
L 1600 -56 
L 359 2988 
L -19 2988 
L -19 3322 
L 1509 3322 
L 1509 2988 
L 978 2988 
L 1913 703 
L 2847 2988 
L 2350 2988 
L 2350 3322 
L 3597 3322 
L 3597 2988 
L 3225 2988 
L 1703 -750 
Q 1547 -1138 1356 -1280 
Q 1166 -1422 819 -1422 
Q 672 -1422 517 -1397 
Q 363 -1372 206 -1325 
L 206 -691 
L 500 -691 
Q 519 -903 608 -995 
Q 697 -1088 884 -1088 
Q 1056 -1088 1161 -992 
Q 1266 -897 1381 -609 
z
" transform="scale(0.015625)"/>
       <path id="DejaVuSerif-73" d="M 359 184 
L 359 959 
L 691 959 
Q 703 588 923 403 
Q 1144 219 1575 219 
Q 1963 219 2166 364 
Q 2369 509 2369 788 
Q 2369 1006 2220 1140 
Q 2072 1275 1594 1428 
L 1178 1569 
Q 750 1706 558 1912 
Q 366 2119 366 2438 
Q 366 2894 700 3153 
Q 1034 3413 1625 3413 
Q 1888 3413 2178 3344 
Q 2469 3275 2778 3144 
L 2778 2419 
L 2447 2419 
Q 2434 2741 2221 2922 
Q 2009 3103 1644 3103 
Q 1281 3103 1095 2975 
Q 909 2847 909 2591 
Q 909 2381 1050 2254 
Q 1191 2128 1613 1997 
L 2069 1856 
Q 2541 1709 2748 1489 
Q 2956 1269 2956 922 
Q 2956 450 2595 179 
Q 2234 -91 1600 -91 
Q 1278 -91 972 -22 
Q 666 47 359 184 
z
" transform="scale(0.015625)"/>
       <path id="DejaVuSerif-20" transform="scale(0.015625)"/>
       <path id="DejaVuSerif-6d" d="M 3316 2675 
Q 3481 3041 3739 3227 
Q 3997 3413 4341 3413 
Q 4863 3413 5119 3089 
Q 5375 2766 5375 2113 
L 5375 331 
L 5894 331 
L 5894 0 
L 4300 0 
L 4300 331 
L 4800 331 
L 4800 2047 
Q 4800 2556 4650 2772 
Q 4500 2988 4153 2988 
Q 3769 2988 3567 2697 
Q 3366 2406 3366 1850 
L 3366 331 
L 3866 331 
L 3866 0 
L 2291 0 
L 2291 331 
L 2791 331 
L 2791 2069 
Q 2791 2566 2641 2777 
Q 2491 2988 2144 2988 
Q 1759 2988 1557 2697 
Q 1356 2406 1356 1850 
L 1356 331 
L 1856 331 
L 1856 0 
L 263 0 
L 263 331 
L 781 331 
L 781 2994 
L 231 2994 
L 231 3322 
L 1356 3322 
L 1356 2731 
Q 1516 3063 1762 3238 
Q 2009 3413 2322 3413 
Q 2709 3413 2968 3220 
Q 3228 3028 3316 2675 
z
" transform="scale(0.015625)"/>
       <path id="DejaVuSerif-70" d="M 1313 1825 
L 1313 1497 
Q 1313 897 1542 583 
Q 1772 269 2209 269 
Q 2650 269 2876 622 
Q 3103 975 3103 1663 
Q 3103 2353 2876 2703 
Q 2650 3053 2209 3053 
Q 1772 3053 1542 2737 
Q 1313 2422 1313 1825 
z
M 738 2988 
L 184 2988 
L 184 3322 
L 1313 3322 
L 1313 2803 
Q 1481 3116 1742 3264 
Q 2003 3413 2388 3413 
Q 3000 3413 3387 2928 
Q 3775 2444 3775 1663 
Q 3775 881 3387 395 
Q 3000 -91 2388 -91 
Q 2003 -91 1742 57 
Q 1481 206 1313 519 
L 1313 -997 
L 1856 -997 
L 1856 -1331 
L 184 -1331 
L 184 -997 
L 738 -997 
L 738 2988 
z
" transform="scale(0.015625)"/>
       <path id="DejaVuSerif-6c" d="M 1313 331 
L 1856 331 
L 1856 0 
L 184 0 
L 184 331 
L 738 331 
L 738 4531 
L 184 4531 
L 184 4863 
L 1313 4863 
L 1313 331 
z
" transform="scale(0.015625)"/>
       <path id="DejaVuSerif-65" d="M 3469 1600 
L 991 1600 
L 991 1575 
Q 991 903 1244 561 
Q 1497 219 1991 219 
Q 2369 219 2611 417 
Q 2853 616 2950 1006 
L 3413 1006 
Q 3275 459 2904 184 
Q 2534 -91 1931 -91 
Q 1203 -91 761 389 
Q 319 869 319 1663 
Q 319 2450 753 2931 
Q 1188 3413 1894 3413 
Q 2647 3413 3050 2948 
Q 3453 2484 3469 1600 
z
M 2791 1931 
Q 2772 2513 2545 2808 
Q 2319 3103 1894 3103 
Q 1497 3103 1269 2806 
Q 1041 2509 991 1931 
L 2791 1931 
z
" transform="scale(0.015625)"/>
       <path id="DejaVuSerif-64" d="M 3359 331 
L 3909 331 
L 3909 0 
L 2784 0 
L 2784 519 
Q 2616 206 2355 57 
Q 2094 -91 1709 -91 
Q 1097 -91 708 395 
Q 319 881 319 1663 
Q 319 2444 706 2928 
Q 1094 3413 1709 3413 
Q 2094 3413 2355 3264 
Q 2616 3116 2784 2803 
L 2784 4531 
L 2241 4531 
L 2241 4863 
L 3359 4863 
L 3359 331 
z
M 2784 1497 
L 2784 1825 
Q 2784 2422 2554 2737 
Q 2325 3053 1888 3053 
Q 1444 3053 1217 2703 
Q 991 2353 991 1663 
Q 991 975 1217 622 
Q 1444 269 1888 269 
Q 2325 269 2554 583 
Q 2784 897 2784 1497 
z
" transform="scale(0.015625)"/>
      </defs>
      <use xlink:href="#DejaVuSerif-41"/>
      <use xlink:href="#DejaVuSerif-72" transform="translate(72.216797 0)"/>
      <use xlink:href="#DejaVuSerif-72" transform="translate(120.019531 0)"/>
      <use xlink:href="#DejaVuSerif-61" transform="translate(167.822266 0)"/>
      <use xlink:href="#DejaVuSerif-79" transform="translate(227.441406 0)"/>
      <use xlink:href="#DejaVuSerif-73" transform="translate(283.935547 0)"/>
      <use xlink:href="#DejaVuSerif-20" transform="translate(335.253906 0)"/>
      <use xlink:href="#DejaVuSerif-73" transform="translate(367.041016 0)"/>
      <use xlink:href="#DejaVuSerif-61" transform="translate(418.359375 0)"/>
      <use xlink:href="#DejaVuSerif-6d" transform="translate(477.978516 0)"/>
      <use xlink:href="#DejaVuSerif-70" transform="translate(572.802734 0)"/>
      <use xlink:href="#DejaVuSerif-6c" transform="translate(636.816406 0)"/>
      <use xlink:href="#DejaVuSerif-65" transform="translate(668.798828 0)"/>
      <use xlink:href="#DejaVuSerif-64" transform="translate(727.978516 0)"/>
     </g>
    </g>
   </g>
   <g id="matplotlib.axis_2">
    <g id="ytick_1">
     <g id="line2d_11">
      <path d="M 38.800084 317.351479 
L 453.43976 317.351479 
" clip-path="url(#p74d13b6198)" style="fill: none; stroke: #cfc7ab; stroke-width: 0.5; stroke-linecap: square"/>
     </g>
     <g id="line2d_12">
      <defs>
       <path id="m82b19e1274" d="M 0 0 
L -3.5 0 
" style="stroke: #1f1f1f; stroke-width: 0.8"/>
      </defs>
      <g>
       <use xlink:href="#m82b19e1274" x="38.800084" y="317.351479" style="fill: #1f1f1f; stroke: #1f1f1f; stroke-width: 0.8"/>
      </g>
     </g>
     <g id="text_7">
      <!-- 0 -->
      <g style="fill: #1f1f1f" transform="translate(24.801334 321.530619) scale(0.11 -0.11)">
       <use xlink:href="#DejaVuSerif-30"/>
      </g>
     </g>
    </g>
    <g id="ytick_2">
     <g id="line2d_13">
      <path d="M 38.800084 271.872422 
L 453.43976 271.872422 
" clip-path="url(#p74d13b6198)" style="fill: none; stroke: #cfc7ab; stroke-width: 0.5; stroke-linecap: square"/>
     </g>
     <g id="line2d_14">
      <g>
       <use xlink:href="#m82b19e1274" x="38.800084" y="271.872422" style="fill: #1f1f1f; stroke: #1f1f1f; stroke-width: 0.8"/>
      </g>
     </g>
     <g id="text_8">
      <!-- 10 -->
      <g style="fill: #1f1f1f" transform="translate(17.802584 276.051563) scale(0.11 -0.11)">
       <use xlink:href="#DejaVuSerif-31"/>
       <use xlink:href="#DejaVuSerif-30" transform="translate(63.623047 0)"/>
      </g>
     </g>
    </g>
    <g id="ytick_3">
     <g id="line2d_15">
      <path d="M 38.800084 226.393366 
L 453.43976 226.393366 
" clip-path="url(#p74d13b6198)" style="fill: none; stroke: #cfc7ab; stroke-width: 0.5; stroke-linecap: square"/>
     </g>
     <g id="line2d_16">
      <g>
       <use xlink:href="#m82b19e1274" x="38.800084" y="226.393366" style="fill: #1f1f1f; stroke: #1f1f1f; stroke-width: 0.8"/>
      </g>
     </g>
     <g id="text_9">
      <!-- 20 -->
      <g style="fill: #1f1f1f" transform="translate(17.802584 230.572506) scale(0.11 -0.11)">
       <use xlink:href="#DejaVuSerif-32"/>
       <use xlink:href="#DejaVuSerif-30" transform="translate(63.623047 0)"/>
      </g>
     </g>
    </g>
    <g id="ytick_4">
     <g id="line2d_17">
      <path d="M 38.800084 180.914309 
L 453.43976 180.914309 
" clip-path="url(#p74d13b6198)" style="fill: none; stroke: #cfc7ab; stroke-width: 0.5; stroke-linecap: square"/>
     </g>
     <g id="line2d_18">
      <g>
       <use xlink:href="#m82b19e1274" x="38.800084" y="180.914309" style="fill: #1f1f1f; stroke: #1f1f1f; stroke-width: 0.8"/>
      </g>
     </g>
     <g id="text_10">
      <!-- 30 -->
      <g style="fill: #1f1f1f" transform="translate(17.802584 185.09345) scale(0.11 -0.11)">
       <defs>
        <path id="DejaVuSerif-33" d="M 622 4469 
Q 988 4606 1323 4678 
Q 1659 4750 1953 4750 
Q 2638 4750 3022 4454 
Q 3406 4159 3406 3634 
Q 3406 3213 3140 2930 
Q 2875 2647 2388 2547 
Q 2963 2466 3280 2130 
Q 3597 1794 3597 1259 
Q 3597 606 3158 257 
Q 2719 -91 1894 -91 
Q 1528 -91 1179 -12 
Q 831 66 488 225 
L 488 1131 
L 838 1131 
Q 869 681 1141 450 
Q 1413 219 1906 219 
Q 2384 219 2661 495 
Q 2938 772 2938 1253 
Q 2938 1803 2653 2086 
Q 2369 2369 1819 2369 
L 1522 2369 
L 1522 2688 
L 1678 2688 
Q 2225 2688 2498 2914 
Q 2772 3141 2772 3597 
Q 2772 4006 2547 4223 
Q 2322 4441 1900 4441 
Q 1478 4441 1245 4241 
Q 1013 4041 972 3647 
L 622 3647 
L 622 4469 
z
" transform="scale(0.015625)"/>
       </defs>
       <use xlink:href="#DejaVuSerif-33"/>
       <use xlink:href="#DejaVuSerif-30" transform="translate(63.623047 0)"/>
      </g>
     </g>
    </g>
    <g id="ytick_5">
     <g id="line2d_19">
      <path d="M 38.800084 135.435253 
L 453.43976 135.435253 
" clip-path="url(#p74d13b6198)" style="fill: none; stroke: #cfc7ab; stroke-width: 0.5; stroke-linecap: square"/>
     </g>
     <g id="line2d_20">
      <g>
       <use xlink:href="#m82b19e1274" x="38.800084" y="135.435253" style="fill: #1f1f1f; stroke: #1f1f1f; stroke-width: 0.8"/>
      </g>
     </g>
     <g id="text_11">
      <!-- 40 -->
      <g style="fill: #1f1f1f" transform="translate(17.802584 139.614393) scale(0.11 -0.11)">
       <defs>
        <path id="DejaVuSerif-34" d="M 2234 1581 
L 2234 4063 
L 641 1581 
L 2234 1581 
z
M 3609 0 
L 1484 0 
L 1484 331 
L 2234 331 
L 2234 1247 
L 197 1247 
L 197 1588 
L 2241 4750 
L 2859 4750 
L 2859 1581 
L 3750 1581 
L 3750 1247 
L 2859 1247 
L 2859 331 
L 3609 331 
L 3609 0 
z
" transform="scale(0.015625)"/>
       </defs>
       <use xlink:href="#DejaVuSerif-34"/>
       <use xlink:href="#DejaVuSerif-30" transform="translate(63.623047 0)"/>
      </g>
     </g>
    </g>
    <g id="ytick_6">
     <g id="line2d_21">
      <path d="M 38.800084 89.956196 
L 453.43976 89.956196 
" clip-path="url(#p74d13b6198)" style="fill: none; stroke: #cfc7ab; stroke-width: 0.5; stroke-linecap: square"/>
     </g>
     <g id="line2d_22">
      <g>
       <use xlink:href="#m82b19e1274" x="38.800084" y="89.956196" style="fill: #1f1f1f; stroke: #1f1f1f; stroke-width: 0.8"/>
      </g>
     </g>
     <g id="text_12">
      <!-- 50 -->
      <g style="fill: #1f1f1f" transform="translate(17.802584 94.135337) scale(0.11 -0.11)">
       <use xlink:href="#DejaVuSerif-35"/>
       <use xlink:href="#DejaVuSerif-30" transform="translate(63.623047 0)"/>
      </g>
     </g>
    </g>
    <g id="ytick_7">
     <g id="line2d_23">
      <path d="M 38.800084 44.47714 
L 453.43976 44.47714 
" clip-path="url(#p74d13b6198)" style="fill: none; stroke: #cfc7ab; stroke-width: 0.5; stroke-linecap: square"/>
     </g>
     <g id="line2d_24">
      <g>
       <use xlink:href="#m82b19e1274" x="38.800084" y="44.47714" style="fill: #1f1f1f; stroke: #1f1f1f; stroke-width: 0.8"/>
      </g>
     </g>
     <g id="text_13">
      <!-- 60 -->
      <g style="fill: #1f1f1f" transform="translate(17.802584 48.65628) scale(0.11 -0.11)">
       <defs>
        <path id="DejaVuSerif-36" d="M 2094 219 
Q 2534 219 2771 542 
Q 3009 866 3009 1472 
Q 3009 2078 2771 2401 
Q 2534 2725 2094 2725 
Q 1647 2725 1412 2412 
Q 1178 2100 1178 1509 
Q 1178 888 1415 553 
Q 1653 219 2094 219 
z
M 1075 2569 
Q 1288 2803 1556 2918 
Q 1825 3034 2163 3034 
Q 2859 3034 3264 2615 
Q 3669 2197 3669 1472 
Q 3669 763 3233 336 
Q 2797 -91 2069 -91 
Q 1278 -91 853 498 
Q 428 1088 428 2181 
Q 428 3406 931 4078 
Q 1434 4750 2350 4750 
Q 2597 4750 2869 4703 
Q 3141 4656 3425 4563 
L 3425 3794 
L 3072 3794 
Q 3034 4109 2831 4275 
Q 2628 4441 2284 4441 
Q 1678 4441 1381 3981 
Q 1084 3522 1075 2569 
z
" transform="scale(0.015625)"/>
       </defs>
       <use xlink:href="#DejaVuSerif-36"/>
       <use xlink:href="#DejaVuSerif-30" transform="translate(63.623047 0)"/>
      </g>
     </g>
    </g>
    <g id="text_14">
     <!-- Cumulative species (≥ 500 g) -->
     <g style="fill: #1f1f1f" transform="translate(11.358521 242.481641) rotate(-90) scale(0.11 -0.11)">
      <defs>
       <path id="DejaVuSerif-43" d="M 4513 1234 
Q 4306 581 3820 245 
Q 3334 -91 2591 -91 
Q 2134 -91 1743 65 
Q 1353 222 1050 525 
Q 700 875 529 1320 
Q 359 1766 359 2328 
Q 359 3416 987 4083 
Q 1616 4750 2644 4750 
Q 3025 4750 3456 4650 
Q 3888 4550 4384 4347 
L 4384 3272 
L 4031 3272 
Q 3916 3859 3567 4137 
Q 3219 4416 2591 4416 
Q 1844 4416 1459 3886 
Q 1075 3356 1075 2328 
Q 1075 1303 1459 773 
Q 1844 244 2591 244 
Q 3113 244 3450 492 
Q 3788 741 3938 1234 
L 4513 1234 
z
" transform="scale(0.015625)"/>
       <path id="DejaVuSerif-75" d="M 2266 3322 
L 3341 3322 
L 3341 331 
L 3884 331 
L 3884 0 
L 2766 0 
L 2766 588 
Q 2606 256 2353 82 
Q 2100 -91 1766 -91 
Q 1213 -91 952 223 
Q 691 538 691 1209 
L 691 2988 
L 172 2988 
L 172 3322 
L 1269 3322 
L 1269 1388 
Q 1269 781 1417 556 
Q 1566 331 1947 331 
Q 2347 331 2556 625 
Q 2766 919 2766 1478 
L 2766 2988 
L 2266 2988 
L 2266 3322 
z
" transform="scale(0.015625)"/>
       <path id="DejaVuSerif-74" d="M 691 2988 
L 184 2988 
L 184 3322 
L 691 3322 
L 691 4353 
L 1269 4353 
L 1269 3322 
L 2350 3322 
L 2350 2988 
L 1269 2988 
L 1269 878 
Q 1269 456 1350 337 
Q 1431 219 1650 219 
Q 1875 219 1978 351 
Q 2081 484 2088 781 
L 2522 781 
Q 2497 328 2275 118 
Q 2053 -91 1600 -91 
Q 1103 -91 897 129 
Q 691 350 691 878 
L 691 2988 
z
" transform="scale(0.015625)"/>
       <path id="DejaVuSerif-69" d="M 622 4353 
Q 622 4497 726 4603 
Q 831 4709 978 4709 
Q 1122 4709 1226 4603 
Q 1331 4497 1331 4353 
Q 1331 4206 1228 4103 
Q 1125 4000 978 4000 
Q 831 4000 726 4103 
Q 622 4206 622 4353 
z
M 1356 331 
L 1900 331 
L 1900 0 
L 231 0 
L 231 331 
L 781 331 
L 781 2988 
L 231 2988 
L 231 3322 
L 1356 3322 
L 1356 331 
z
" transform="scale(0.015625)"/>
       <path id="DejaVuSerif-76" d="M 1581 0 
L 359 2988 
L -19 2988 
L -19 3322 
L 1509 3322 
L 1509 2988 
L 978 2988 
L 1913 703 
L 2847 2988 
L 2350 2988 
L 2350 3322 
L 3597 3322 
L 3597 2988 
L 3225 2988 
L 2003 0 
L 1581 0 
z
" transform="scale(0.015625)"/>
       <path id="DejaVuSerif-63" d="M 3291 997 
Q 3169 466 2822 187 
Q 2475 -91 1925 -91 
Q 1200 -91 759 389 
Q 319 869 319 1663 
Q 319 2459 759 2936 
Q 1200 3413 1925 3413 
Q 2241 3413 2553 3339 
Q 2866 3266 3181 3116 
L 3181 2266 
L 2847 2266 
Q 2781 2703 2561 2903 
Q 2341 3103 1931 3103 
Q 1466 3103 1228 2742 
Q 991 2381 991 1663 
Q 991 944 1227 581 
Q 1463 219 1931 219 
Q 2303 219 2525 412 
Q 2747 606 2828 997 
L 3291 997 
z
" transform="scale(0.015625)"/>
       <path id="DejaVuSerif-28" d="M 2041 -997 
Q 1281 -656 893 83 
Q 506 822 506 1931 
Q 506 3044 893 3783 
Q 1281 4522 2041 4863 
L 2041 4556 
Q 1559 4225 1350 3623 
Q 1141 3022 1141 1931 
Q 1141 844 1350 242 
Q 1559 -359 2041 -691 
L 2041 -997 
z
" transform="scale(0.015625)"/>
       <path id="DejaVuSerif-2265" d="M 4684 488 
L 4684 0 
L 678 0 
L 678 488 
L 4684 488 
z
M 678 3206 
L 678 3725 
L 4684 2578 
L 4684 2047 
L 678 897 
L 678 1416 
L 3975 2309 
L 678 3206 
z
" transform="scale(0.015625)"/>
       <path id="DejaVuSerif-67" d="M 3359 2988 
L 3359 72 
Q 3359 -644 2965 -1033 
Q 2572 -1422 1844 -1422 
Q 1516 -1422 1216 -1362 
Q 916 -1303 641 -1184 
L 641 -488 
L 941 -488 
Q 997 -813 1206 -963 
Q 1416 -1113 1806 -1113 
Q 2313 -1113 2548 -827 
Q 2784 -541 2784 72 
L 2784 519 
Q 2616 206 2355 57 
Q 2094 -91 1709 -91 
Q 1097 -91 708 395 
Q 319 881 319 1663 
Q 319 2444 706 2928 
Q 1094 3413 1709 3413 
Q 2094 3413 2355 3264 
Q 2616 3116 2784 2803 
L 2784 3322 
L 3909 3322 
L 3909 2988 
L 3359 2988 
z
M 2784 1825 
Q 2784 2422 2554 2737 
Q 2325 3053 1888 3053 
Q 1444 3053 1217 2703 
Q 991 2353 991 1663 
Q 991 975 1217 622 
Q 1444 269 1888 269 
Q 2325 269 2554 583 
Q 2784 897 2784 1497 
L 2784 1825 
z
" transform="scale(0.015625)"/>
       <path id="DejaVuSerif-29" d="M 453 -997 
L 453 -691 
Q 934 -359 1145 242 
Q 1356 844 1356 1931 
Q 1356 3022 1145 3623 
Q 934 4225 453 4556 
L 453 4863 
Q 1216 4522 1603 3783 
Q 1991 3044 1991 1931 
Q 1991 822 1603 83 
Q 1216 -656 453 -997 
z
" transform="scale(0.015625)"/>
      </defs>
      <use xlink:href="#DejaVuSerif-43"/>
      <use xlink:href="#DejaVuSerif-75" transform="translate(76.513672 0)"/>
      <use xlink:href="#DejaVuSerif-6d" transform="translate(140.917969 0)"/>
      <use xlink:href="#DejaVuSerif-75" transform="translate(235.742188 0)"/>
      <use xlink:href="#DejaVuSerif-6c" transform="translate(300.146484 0)"/>
      <use xlink:href="#DejaVuSerif-61" transform="translate(332.128906 0)"/>
      <use xlink:href="#DejaVuSerif-74" transform="translate(391.748047 0)"/>
      <use xlink:href="#DejaVuSerif-69" transform="translate(431.933594 0)"/>
      <use xlink:href="#DejaVuSerif-76" transform="translate(463.916016 0)"/>
      <use xlink:href="#DejaVuSerif-65" transform="translate(520.410156 0)"/>
      <use xlink:href="#DejaVuSerif-20" transform="translate(579.589844 0)"/>
      <use xlink:href="#DejaVuSerif-73" transform="translate(611.376953 0)"/>
      <use xlink:href="#DejaVuSerif-70" transform="translate(662.695312 0)"/>
      <use xlink:href="#DejaVuSerif-65" transform="translate(726.708984 0)"/>
      <use xlink:href="#DejaVuSerif-63" transform="translate(785.888672 0)"/>
      <use xlink:href="#DejaVuSerif-69" transform="translate(841.894531 0)"/>
      <use xlink:href="#DejaVuSerif-65" transform="translate(873.876953 0)"/>
      <use xlink:href="#DejaVuSerif-73" transform="translate(933.056641 0)"/>
      <use xlink:href="#DejaVuSerif-20" transform="translate(984.375 0)"/>
      <use xlink:href="#DejaVuSerif-28" transform="translate(1016.162109 0)"/>
      <use xlink:href="#DejaVuSerif-2265" transform="translate(1055.175781 0)"/>
      <use xlink:href="#DejaVuSerif-20" transform="translate(1138.964844 0)"/>
      <use xlink:href="#DejaVuSerif-35" transform="translate(1170.751953 0)"/>
      <use xlink:href="#DejaVuSerif-30" transform="translate(1234.375 0)"/>
      <use xlink:href="#DejaVuSerif-30" transform="translate(1297.998047 0)"/>
      <use xlink:href="#DejaVuSerif-20" transform="translate(1361.621094 0)"/>
      <use xlink:href="#DejaVuSerif-67" transform="translate(1393.408203 0)"/>
      <use xlink:href="#DejaVuSerif-29" transform="translate(1457.421875 0)"/>
     </g>
    </g>
   </g>
   <g id="line2d_25">
    <path d="M 38.800084 247.836741 
L 40.388742 220.708484 
L 41.977399 200.856875 
L 43.566057 186.735628 
L 45.154715 174.638199 
L 46.743373 164.701025 
L 48.33203 155.514256 
L 49.920688 147.418984 
L 51.509346 141.279311 
L 53.098004 136.162918 
L 54.686661 130.27338 
L 57.863977 120.15429 
L 59.452635 115.992956 
L 61.041292 112.377371 
L 62.62995 109.239316 
L 64.218608 105.464554 
L 65.807266 102.735811 
L 67.395923 99.734193 
L 68.984581 97.573938 
L 70.573239 95.095329 
L 75.339212 88.546345 
L 78.516528 84.976239 
L 83.282501 80.223678 
L 86.459817 77.836028 
L 91.22579 73.40182 
L 94.403105 71.150606 
L 95.991763 70.172806 
L 100.757737 66.670919 
L 111.878341 59.849061 
L 113.466999 59.439749 
L 118.232972 57.302233 
L 119.82163 56.369913 
L 137.296865 49.911887 
L 142.062838 48.729431 
L 143.651496 48.433817 
L 146.828812 47.274102 
L 148.417469 46.933009 
L 150.006127 46.455479 
L 153.183443 45.818772 
L 154.7721 45.454939 
L 156.360758 45.250284 
L 157.949416 44.522619 
L 161.126732 43.885912 
L 162.715389 43.567558 
L 164.304047 43.362903 
L 167.481363 43.158247 
L 169.07002 42.976331 
L 173.835994 41.907573 
L 178.601967 41.248127 
L 181.779282 40.565941 
L 183.36794 40.293066 
L 186.545256 39.974713 
L 189.722571 39.474443 
L 191.311229 39.224309 
L 194.488545 38.928695 
L 196.077202 38.769518 
L 200.843176 38.587602 
L 204.020491 38.223769 
L 208.786464 37.859937 
L 218.318411 36.813919 
L 221.495727 36.586523 
L 231.027673 35.699682 
L 234.204989 35.517765 
L 238.970962 35.017496 
L 250.091566 34.539966 
L 253.268882 34.221612 
L 256.446197 33.948738 
L 265.978144 33.175594 
L 267.566802 33.130115 
L 272.332775 32.743543 
L 275.51009 32.629845 
L 277.098748 32.493408 
L 280.276064 32.447929 
L 281.864722 32.288752 
L 285.042037 32.152315 
L 288.219353 31.92492 
L 289.80801 31.856701 
L 291.396668 31.674785 
L 292.985326 31.629306 
L 296.162641 31.356432 
L 299.339957 31.265474 
L 302.517272 31.219995 
L 307.283246 31.015339 
L 315.226535 30.696985 
L 323.169823 30.333153 
L 327.935797 30.242195 
L 332.70177 30.083018 
L 348.588348 29.49179 
L 354.942979 29.218916 
L 358.120294 29.105218 
L 378.772845 28.445772 
L 380.361503 28.286595 
L 405.780027 27.649889 
L 413.723316 27.445233 
L 420.077947 27.240577 
L 428.021236 27.035921 
L 453.43976 26.285517 
L 453.43976 26.285517 
" clip-path="url(#p74d13b6198)" style="fill: none; stroke: #c7623c; stroke-width: 2; stroke-linecap: square"/>
   </g>
   <g id="line2d_26">
    <path d="M 38.800084 272.145297 
L 40.388742 251.952595 
L 41.977399 237.558474 
L 43.566057 226.552542 
L 46.743373 210.225561 
L 48.33203 203.312744 
L 49.920688 196.945677 
L 51.509346 191.397232 
L 53.098004 187.258638 
L 54.686661 182.074025 
L 56.275319 177.730775 
L 57.863977 172.523423 
L 59.452635 168.589485 
L 62.62995 161.858584 
L 64.218608 158.356697 
L 67.395923 152.307983 
L 68.984581 150.170467 
L 70.573239 147.691858 
L 72.161897 145.622561 
L 75.339212 140.87 
L 76.92787 138.732484 
L 80.105186 135.139639 
L 81.693843 133.070342 
L 83.282501 131.2057 
L 84.871159 128.977227 
L 86.459817 127.430939 
L 88.048474 125.498079 
L 89.637132 124.156447 
L 92.814448 121.08661 
L 94.403105 120.313466 
L 97.580421 117.129932 
L 99.169079 115.924737 
L 100.757737 114.33297 
L 102.346394 113.127775 
L 103.935052 111.763404 
L 105.52371 110.626427 
L 111.878341 106.783447 
L 113.466999 105.919345 
L 115.055656 104.464015 
L 116.644314 103.463476 
L 121.410287 99.961589 
L 122.998945 98.961049 
L 124.587603 98.210645 
L 126.176261 97.710375 
L 130.942234 95.413683 
L 132.530892 94.413144 
L 134.11955 93.662739 
L 135.708207 93.071511 
L 137.296865 92.18467 
L 138.885523 91.593442 
L 140.474181 91.138652 
L 142.062838 90.25181 
L 143.651496 89.501406 
L 146.828812 88.432648 
L 148.417469 88.000597 
L 150.006127 87.386629 
L 153.183443 86.363351 
L 157.949416 84.817063 
L 159.538074 84.521449 
L 162.715389 83.384472 
L 164.304047 82.884203 
L 167.481363 82.111059 
L 169.07002 81.656268 
L 177.013309 78.813827 
L 183.36794 77.449456 
L 184.956598 77.22206 
L 189.722571 76.221521 
L 194.488545 75.31194 
L 202.431833 73.788391 
L 204.020491 73.242643 
L 207.197807 72.787852 
L 210.375122 72.196625 
L 211.96378 71.787313 
L 219.907069 70.695816 
L 226.2617 69.51336 
L 234.204989 68.285426 
L 235.793646 68.035291 
L 237.382304 67.989812 
L 240.55962 67.330365 
L 246.914251 66.511742 
L 251.680224 65.920515 
L 254.85754 65.488464 
L 258.034855 65.056413 
L 261.212171 64.669841 
L 267.566802 64.101352 
L 269.155459 63.851218 
L 270.744117 63.828478 
L 275.51009 63.350948 
L 277.098748 63.100813 
L 285.042037 62.464106 
L 286.630695 62.259451 
L 288.219353 62.191232 
L 292.985326 61.690962 
L 305.694588 60.781381 
L 308.871904 60.690423 
L 310.460561 60.667684 
L 315.226535 60.281112 
L 318.40385 60.144675 
L 319.992508 59.917279 
L 329.524454 59.439749 
L 331.113112 59.189614 
L 339.056401 58.507428 
L 342.233717 58.370991 
L 356.531636 57.597847 
L 359.708952 57.48415 
L 381.950161 56.301694 
L 397.836738 55.755946 
L 407.368685 55.232936 
L 412.134658 55.141978 
L 415.311974 54.914583 
L 423.255262 54.664448 
L 426.432578 54.346095 
L 432.787209 54.005002 
L 437.553182 53.959523 
L 440.730498 53.823086 
L 445.496471 53.777607 
L 448.673787 53.686649 
L 453.43976 53.572951 
L 453.43976 53.572951 
" clip-path="url(#p74d13b6198)" style="fill: none; stroke: #1f3a5f; stroke-width: 2; stroke-linecap: square"/>
   </g>
   <g id="patch_3">
    <path d="M 38.800084 317.351479 
L 38.800084 3.00024 
" style="fill: none; stroke: #1f1f1f; stroke-width: 0.8; stroke-linejoin: miter; stroke-linecap: square"/>
   </g>
   <g id="patch_4">
    <path d="M 453.43976 317.351479 
L 453.43976 3.00024 
" style="fill: none; stroke: #1f1f1f; stroke-width: 0.8; stroke-linejoin: miter; stroke-linecap: square"/>
   </g>
   <g id="patch_5">
    <path d="M 38.800084 317.351479 
L 453.43976 317.351479 
" style="fill: none; stroke: #1f1f1f; stroke-width: 0.8; stroke-linejoin: miter; stroke-linecap: square"/>
   </g>
   <g id="patch_6">
    <path d="M 38.800084 3.00024 
L 453.43976 3.00024 
" style="fill: none; stroke: #1f1f1f; stroke-width: 0.8; stroke-linejoin: miter; stroke-linecap: square"/>
   </g>
   <g id="text_15">
    <!-- gap = 6 -->
    <g style="fill: #c7623c" transform="translate(355.575698 42.546421) scale(0.1 -0.1)">
     <defs>
      <path id="DejaVuSerif-Italic-67" d="M 3822 3322 
L 3188 72 
Q 3044 -672 2581 -1031 
Q 2078 -1422 1381 -1422 
Q 1053 -1422 765 -1362 
Q 478 -1303 225 -1184 
L 363 -488 
L 663 -488 
Q 653 -813 834 -963 
Q 1016 -1113 1406 -1113 
Q 1913 -1113 2203 -825 
Q 2494 -544 2613 72 
L 2700 519 
Q 2472 206 2181 57 
Q 1891 -91 1525 -91 
Q 975 -91 697 281 
Q 522 516 503 841 
Q 491 1031 534 1256 
Q 750 2359 1516 2928 
Q 2169 3409 2931 3413 
Q 3631 3416 3822 3322 
z
M 3184 2988 
Q 3181 3094 2844 3094 
Q 2234 3094 1775 2625 
Q 1316 2153 1147 1297 
Q 1100 1044 1113 853 
Q 1125 659 1203 528 
Q 1356 269 1756 269 
Q 2194 269 2484 583 
Q 2775 897 2891 1497 
L 2953 1825 
L 3184 2988 
z
" transform="scale(0.015625)"/>
      <path id="DejaVuSerif-Italic-61" d="M 2325 519 
Q 1909 -91 1238 -91 
Q 688 -91 409 281 
Q 216 544 216 919 
Q 216 1078 250 1256 
Q 463 2359 1231 2928 
Q 1884 3413 2675 3413 
Q 3206 3413 3388 3322 
L 2806 331 
L 3300 331 
L 3238 0 
L 2225 0 
L 2325 519 
z
M 822 938 
Q 822 269 1469 269 
Q 1863 269 2130 583 
Q 2397 897 2516 1497 
L 2806 3003 
L 2806 3003 
Q 2806 3094 2556 3094 
Q 1956 3094 1491 2625 
Q 1028 2153 863 1297 
Q 822 1097 822 938 
z
" transform="scale(0.015625)"/>
      <path id="DejaVuSerif-Italic-70" d="M 1466 1825 
L 1400 1497 
Q 1353 1250 1353 1053 
Q 1353 769 1453 581 
Q 1622 269 2059 269 
Q 2500 269 2795 622 
Q 3091 975 3225 1663 
Q 3284 1978 3284 2225 
Q 3284 2513 3200 2703 
Q 3041 3053 2600 3053 
Q 2163 3053 1872 2737 
Q 1581 2422 1466 1825 
z
M 1116 2988 
L 563 2988 
L 628 3322 
L 1756 3322 
L 1656 2803 
Q 1884 3116 2175 3264 
Q 2466 3413 2850 3413 
Q 3463 3413 3753 2928 
Q 3947 2609 3947 2163 
Q 3947 1928 3897 1663 
Q 3744 881 3262 395 
Q 2781 -91 2169 -91 
Q 1784 -91 1551 57 
Q 1319 206 1213 519 
L 850 -1331 
L 275 -1331 
L 1116 2988 
z
" transform="scale(0.015625)"/>
      <path id="DejaVuSerif-Italic-20" transform="scale(0.015625)"/>
      <path id="DejaVuSerif-Italic-3d" d="M 678 2894 
L 4684 2894 
L 4684 2394 
L 678 2394 
L 678 2894 
z
M 678 1619 
L 4684 1619 
L 4684 1119 
L 678 1119 
L 678 1619 
z
" transform="scale(0.015625)"/>
      <path id="DejaVuSerif-Italic-36" d="M 1070 553 
Q 1244 219 1684 219 
Q 2125 219 2425 542 
Q 2725 866 2842 1472 
Q 2959 2078 2786 2401 
Q 2613 2725 2172 2725 
Q 1725 2725 1429 2412 
Q 1134 2100 1019 1509 
Q 897 888 1070 553 
z
M 1122 2569 
Q 1378 2803 1670 2918 
Q 1963 3034 2300 3034 
Q 2997 3034 3320 2615 
Q 3644 2197 3503 1472 
Q 3366 763 2845 336 
Q 2325 -91 1597 -91 
Q 806 -91 497 498 
Q 188 1088 400 2181 
Q 638 3406 1272 4078 
Q 1906 4750 2822 4750 
Q 3069 4750 3331 4703 
Q 3594 4656 3859 4563 
L 3709 3794 
L 3356 3794 
Q 3381 4109 3209 4275 
Q 3038 4441 2694 4441 
Q 2088 4441 1702 3981 
Q 1316 3522 1122 2569 
z
" transform="scale(0.015625)"/>
     </defs>
     <use xlink:href="#DejaVuSerif-Italic-67"/>
     <use xlink:href="#DejaVuSerif-Italic-61" transform="translate(64.013672 0)"/>
     <use xlink:href="#DejaVuSerif-Italic-70" transform="translate(123.632812 0)"/>
     <use xlink:href="#DejaVuSerif-Italic-20" transform="translate(187.646484 0)"/>
     <use xlink:href="#DejaVuSerif-Italic-3d" transform="translate(219.433594 0)"/>
     <use xlink:href="#DejaVuSerif-Italic-20" transform="translate(303.222656 0)"/>
     <use xlink:href="#DejaVuSerif-Italic-36" transform="translate(335.009766 0)"/>
    </g>
   </g>
   <g id="patch_7">
    <path d="M 453.43976 50.229388 
Q 453.43976 39.926791 453.43976 29.624195 
" style="fill: none; stroke: #c7623c; stroke-width: 1.2; stroke-linecap: round"/>
    <path d="M 455.63976 45.829388 
L 453.43976 50.229388 
L 451.23976 45.829388 
" style="fill: none; stroke: #c7623c; stroke-width: 1.2; stroke-linecap: round"/>
    <path d="M 451.23976 34.024195 
L 453.43976 29.624195 
L 455.63976 34.024195 
" style="fill: none; stroke: #c7623c; stroke-width: 1.2; stroke-linecap: round"/>
   </g>
   <g id="legend_1">
    <g id="line2d_27">
     <path d="M 268.124135 290.891479 
L 277.124135 290.891479 
L 286.124135 290.891479 
" style="fill: none; stroke: #c7623c; stroke-width: 2; stroke-linecap: square"/>
    </g>
    <g id="text_16">
     <!-- IUCN predicted (ceiling, 64 spp.) -->
     <g style="fill: #1f1f1f" transform="translate(293.324135 294.041479) scale(0.09 -0.09)">
      <defs>
       <path id="DejaVuSerif-49" d="M 1581 331 
L 2175 331 
L 2175 0 
L 353 0 
L 353 331 
L 947 331 
L 947 4331 
L 353 4331 
L 353 4666 
L 2175 4666 
L 2175 4331 
L 1581 4331 
L 1581 331 
z
" transform="scale(0.015625)"/>
       <path id="DejaVuSerif-55" d="M 897 4331 
L 300 4331 
L 300 4666 
L 2125 4666 
L 2125 4331 
L 1528 4331 
L 1528 1919 
Q 1528 1025 1820 672 
Q 2113 319 2828 319 
Q 3544 319 3836 672 
Q 4128 1025 4128 1919 
L 4128 4331 
L 3531 4331 
L 3531 4666 
L 5106 4666 
L 5106 4331 
L 4513 4331 
L 4513 1856 
Q 4513 791 4103 350 
Q 3694 -91 2713 -91 
Q 1731 -91 1314 353 
Q 897 797 897 1856 
L 897 4331 
z
" transform="scale(0.015625)"/>
       <path id="DejaVuSerif-4e" d="M 313 0 
L 313 331 
L 941 331 
L 941 4331 
L 313 4331 
L 313 4666 
L 1509 4666 
L 4306 984 
L 4306 4331 
L 3681 4331 
L 3681 4666 
L 5319 4666 
L 5319 4331 
L 4691 4331 
L 4691 -91 
L 4313 -91 
L 1325 3841 
L 1325 331 
L 1953 331 
L 1953 0 
L 313 0 
z
" transform="scale(0.015625)"/>
       <path id="DejaVuSerif-6e" d="M 263 0 
L 263 331 
L 781 331 
L 781 2988 
L 231 2988 
L 231 3322 
L 1356 3322 
L 1356 2731 
Q 1516 3069 1770 3241 
Q 2025 3413 2363 3413 
Q 2913 3413 3172 3097 
Q 3431 2781 3431 2113 
L 3431 331 
L 3944 331 
L 3944 0 
L 2356 0 
L 2356 331 
L 2853 331 
L 2853 1931 
Q 2853 2541 2703 2767 
Q 2553 2994 2175 2994 
Q 1775 2994 1565 2701 
Q 1356 2409 1356 1850 
L 1356 331 
L 1856 331 
L 1856 0 
L 263 0 
z
" transform="scale(0.015625)"/>
       <path id="DejaVuSerif-2c" d="M 231 -622 
Q 525 -406 662 -114 
Q 800 178 800 594 
L 800 709 
L 1416 709 
Q 1391 175 1164 -208 
Q 938 -591 481 -872 
L 231 -622 
z
" transform="scale(0.015625)"/>
       <path id="DejaVuSerif-2e" d="M 603 325 
Q 603 500 722 622 
Q 841 744 1019 744 
Q 1191 744 1312 622 
Q 1434 500 1434 325 
Q 1434 153 1312 31 
Q 1191 -91 1019 -91 
Q 841 -91 722 29 
Q 603 150 603 325 
z
" transform="scale(0.015625)"/>
      </defs>
      <use xlink:href="#DejaVuSerif-49"/>
      <use xlink:href="#DejaVuSerif-55" transform="translate(39.501953 0)"/>
      <use xlink:href="#DejaVuSerif-43" transform="translate(123.779297 0)"/>
      <use xlink:href="#DejaVuSerif-4e" transform="translate(200.292969 0)"/>
      <use xlink:href="#DejaVuSerif-20" transform="translate(287.792969 0)"/>
      <use xlink:href="#DejaVuSerif-70" transform="translate(319.580078 0)"/>
      <use xlink:href="#DejaVuSerif-72" transform="translate(383.59375 0)"/>
      <use xlink:href="#DejaVuSerif-65" transform="translate(431.396484 0)"/>
      <use xlink:href="#DejaVuSerif-64" transform="translate(490.576172 0)"/>
      <use xlink:href="#DejaVuSerif-69" transform="translate(554.589844 0)"/>
      <use xlink:href="#DejaVuSerif-63" transform="translate(586.572266 0)"/>
      <use xlink:href="#DejaVuSerif-74" transform="translate(642.578125 0)"/>
      <use xlink:href="#DejaVuSerif-65" transform="translate(682.763672 0)"/>
      <use xlink:href="#DejaVuSerif-64" transform="translate(741.943359 0)"/>
      <use xlink:href="#DejaVuSerif-20" transform="translate(805.957031 0)"/>
      <use xlink:href="#DejaVuSerif-28" transform="translate(837.744141 0)"/>
      <use xlink:href="#DejaVuSerif-63" transform="translate(876.757812 0)"/>
      <use xlink:href="#DejaVuSerif-65" transform="translate(932.763672 0)"/>
      <use xlink:href="#DejaVuSerif-69" transform="translate(991.943359 0)"/>
      <use xlink:href="#DejaVuSerif-6c" transform="translate(1023.925781 0)"/>
      <use xlink:href="#DejaVuSerif-69" transform="translate(1055.908203 0)"/>
      <use xlink:href="#DejaVuSerif-6e" transform="translate(1087.890625 0)"/>
      <use xlink:href="#DejaVuSerif-67" transform="translate(1152.294922 0)"/>
      <use xlink:href="#DejaVuSerif-2c" transform="translate(1216.308594 0)"/>
      <use xlink:href="#DejaVuSerif-20" transform="translate(1248.095703 0)"/>
      <use xlink:href="#DejaVuSerif-36" transform="translate(1279.882812 0)"/>
      <use xlink:href="#DejaVuSerif-34" transform="translate(1343.505859 0)"/>
      <use xlink:href="#DejaVuSerif-20" transform="translate(1407.128906 0)"/>
      <use xlink:href="#DejaVuSerif-73" transform="translate(1438.916016 0)"/>
      <use xlink:href="#DejaVuSerif-70" transform="translate(1490.234375 0)"/>
      <use xlink:href="#DejaVuSerif-70" transform="translate(1554.248047 0)"/>
      <use xlink:href="#DejaVuSerif-2e" transform="translate(1618.261719 0)"/>
      <use xlink:href="#DejaVuSerif-29" transform="translate(1650.048828 0)"/>
     </g>
    </g>
    <g id="line2d_28">
     <path d="M 268.124135 304.22976 
L 277.124135 304.22976 
L 286.124135 304.22976 
" style="fill: none; stroke: #1f3a5f; stroke-width: 2; stroke-linecap: square"/>
    </g>
    <g id="text_17">
     <!-- SSUSA observed (58 spp.) -->
     <g style="fill: #1f1f1f" transform="translate(293.324135 307.37976) scale(0.09 -0.09)">
      <defs>
       <path id="DejaVuSerif-53" d="M 594 225 
L 594 1288 
L 953 1284 
Q 969 753 1261 498 
Q 1553 244 2150 244 
Q 2706 244 2998 464 
Q 3291 684 3291 1106 
Q 3291 1444 3114 1625 
Q 2938 1806 2369 1978 
L 1753 2163 
Q 1084 2366 811 2669 
Q 538 2972 538 3500 
Q 538 4094 959 4422 
Q 1381 4750 2144 4750 
Q 2469 4750 2856 4679 
Q 3244 4609 3681 4475 
L 3681 3481 
L 3328 3481 
Q 3275 3975 2998 4195 
Q 2722 4416 2156 4416 
Q 1663 4416 1405 4214 
Q 1147 4013 1147 3628 
Q 1147 3294 1340 3103 
Q 1534 2913 2163 2725 
L 2741 2553 
Q 3375 2363 3645 2067 
Q 3916 1772 3916 1275 
Q 3916 597 3481 253 
Q 3047 -91 2188 -91 
Q 1803 -91 1404 -12 
Q 1006 66 594 225 
z
" transform="scale(0.015625)"/>
       <path id="DejaVuSerif-6f" d="M 1925 219 
Q 2388 219 2623 584 
Q 2859 950 2859 1663 
Q 2859 2375 2623 2739 
Q 2388 3103 1925 3103 
Q 1463 3103 1227 2739 
Q 991 2375 991 1663 
Q 991 950 1228 584 
Q 1466 219 1925 219 
z
M 1925 -91 
Q 1200 -91 759 389 
Q 319 869 319 1663 
Q 319 2456 758 2934 
Q 1197 3413 1925 3413 
Q 2653 3413 3092 2934 
Q 3531 2456 3531 1663 
Q 3531 869 3092 389 
Q 2653 -91 1925 -91 
z
" transform="scale(0.015625)"/>
       <path id="DejaVuSerif-62" d="M 738 331 
L 738 4531 
L 184 4531 
L 184 4863 
L 1313 4863 
L 1313 2803 
Q 1481 3116 1742 3264 
Q 2003 3413 2388 3413 
Q 3000 3413 3387 2928 
Q 3775 2444 3775 1663 
Q 3775 881 3387 395 
Q 3000 -91 2388 -91 
Q 2003 -91 1742 57 
Q 1481 206 1313 519 
L 1313 0 
L 184 0 
L 184 331 
L 738 331 
z
M 1313 1497 
Q 1313 897 1542 583 
Q 1772 269 2209 269 
Q 2650 269 2876 622 
Q 3103 975 3103 1663 
Q 3103 2353 2876 2703 
Q 2650 3053 2209 3053 
Q 1772 3053 1542 2737 
Q 1313 2422 1313 1825 
L 1313 1497 
z
" transform="scale(0.015625)"/>
       <path id="DejaVuSerif-38" d="M 2981 1275 
Q 2981 1775 2732 2051 
Q 2484 2328 2034 2328 
Q 1584 2328 1336 2051 
Q 1088 1775 1088 1275 
Q 1088 772 1336 495 
Q 1584 219 2034 219 
Q 2484 219 2732 495 
Q 2981 772 2981 1275 
z
M 2853 3541 
Q 2853 3966 2637 4203 
Q 2422 4441 2034 4441 
Q 1650 4441 1433 4203 
Q 1216 3966 1216 3541 
Q 1216 3113 1433 2875 
Q 1650 2638 2034 2638 
Q 2422 2638 2637 2875 
Q 2853 3113 2853 3541 
z
M 2516 2484 
Q 3047 2413 3344 2092 
Q 3641 1772 3641 1275 
Q 3641 619 3225 264 
Q 2809 -91 2034 -91 
Q 1263 -91 845 264 
Q 428 619 428 1275 
Q 428 1772 725 2092 
Q 1022 2413 1556 2484 
Q 1084 2569 832 2842 
Q 581 3116 581 3541 
Q 581 4103 968 4426 
Q 1356 4750 2034 4750 
Q 2713 4750 3100 4426 
Q 3488 4103 3488 3541 
Q 3488 3116 3236 2842 
Q 2984 2569 2516 2484 
z
" transform="scale(0.015625)"/>
      </defs>
      <use xlink:href="#DejaVuSerif-53"/>
      <use xlink:href="#DejaVuSerif-53" transform="translate(66.755859 0)"/>
      <use xlink:href="#DejaVuSerif-55" transform="translate(135.261719 0)"/>
      <use xlink:href="#DejaVuSerif-53" transform="translate(219.539062 0)"/>
      <use xlink:href="#DejaVuSerif-41" transform="translate(288.044922 0)"/>
      <use xlink:href="#DejaVuSerif-20" transform="translate(360.261719 0)"/>
      <use xlink:href="#DejaVuSerif-6f" transform="translate(392.048828 0)"/>
      <use xlink:href="#DejaVuSerif-62" transform="translate(452.253906 0)"/>
      <use xlink:href="#DejaVuSerif-73" transform="translate(516.267578 0)"/>
      <use xlink:href="#DejaVuSerif-65" transform="translate(567.585938 0)"/>
      <use xlink:href="#DejaVuSerif-72" transform="translate(626.765625 0)"/>
      <use xlink:href="#DejaVuSerif-76" transform="translate(674.568359 0)"/>
      <use xlink:href="#DejaVuSerif-65" transform="translate(731.0625 0)"/>
      <use xlink:href="#DejaVuSerif-64" transform="translate(790.242188 0)"/>
      <use xlink:href="#DejaVuSerif-20" transform="translate(854.255859 0)"/>
      <use xlink:href="#DejaVuSerif-28" transform="translate(886.042969 0)"/>
      <use xlink:href="#DejaVuSerif-35" transform="translate(925.056641 0)"/>
      <use xlink:href="#DejaVuSerif-38" transform="translate(988.679688 0)"/>
      <use xlink:href="#DejaVuSerif-20" transform="translate(1052.302734 0)"/>
      <use xlink:href="#DejaVuSerif-73" transform="translate(1084.089844 0)"/>
      <use xlink:href="#DejaVuSerif-70" transform="translate(1135.408203 0)"/>
      <use xlink:href="#DejaVuSerif-70" transform="translate(1199.421875 0)"/>
      <use xlink:href="#DejaVuSerif-2e" transform="translate(1263.435547 0)"/>
      <use xlink:href="#DejaVuSerif-29" transform="translate(1295.222656 0)"/>
     </g>
    </g>
   </g>
  </g>
 </g>
 <defs>
  <clipPath id="p74d13b6198">
   <rect x="38.800084" y="3.00024" width="414.639676" height="314.351239"/>
  </clipPath>
 </defs>
</svg>
