<?xml version="1.0" encoding="utf-8" standalone="no"?>
<!DOCTYPE svg PUBLIC "-//W3C//DTD SVG 1.1//EN"
  "http://www.w3.org/Graphics/SVG/1.1/DTD/svg11.dtd">
<svg xmlns:xlink="http://www.w3.org/1999/xlink" width="458.64pt" height="352.8pt" viewBox="0 0 458.64 352.8" xmlns="http://www.w3.org/2000/svg" version="1.1">
 <metadata>
  <rdf:RDF xmlns:dc="http://purl.org/dc/elements/1.1/" xmlns:cc="http://creativecommons.org/ns#" xmlns:rdf="http://www.w3.org/1999/02/22-rdf-syntax-ns#">
   <cc:Work>
    <dc:type rdf:resource="http://purl.org/dc/dcmitype/StillImage"/>
    <dc:date>2026-05-05T06:37:57.809712</dc:date>
    <dc:format>image/svg+xml</dc:format>
    <dc:creator>
     <cc:Agent>
      <dc:title>Matplotlib v3.10.9, https://matplotlib.org/</dc:title>
     </cc:Agent>
    </dc:creator>
   </cc:Work>
  </rdf:RDF>
 </metadata>
 <defs>
  <style type="text/css">*{stroke-linejoin: round; stroke-linecap: butt}</style>
 </defs>
 <g id="figure_1">
  <g id="patch_1">
   <path d="M 0 352.8 
L 458.64 352.8 
L 458.64 0 
L 0 0 
L 0 352.8 
z
" style="fill: none"/>
  </g>
  <g id="axes_1">
   <g id="patch_2">
    <path d="M 65.778365 303.95851 
L 452.03976 303.95851 
L 452.03976 3.00024 
L 65.778365 3.00024 
L 65.778365 303.95851 
z
" style="fill: none"/>
   </g>
   <g id="FillBetweenPolyCollection_1">
    <defs>
     <path id="m65a4cb8040" d="M 65.778365 -140.040966 
L 65.778365 -62.521411 
L 67.258294 -69.361372 
L 68.738222 -101.281189 
L 70.218151 -110.401136 
L 71.69808 -112.681123 
L 73.178009 -119.521084 
L 74.657937 -126.361044 
L 76.137866 -126.361044 
L 77.617795 -130.921018 
L 79.097723 -130.921018 
L 80.577652 -130.921018 
L 82.057581 -130.921018 
L 83.53751 -149.160913 
L 85.017438 -149.160913 
L 86.497367 -151.4409 
L 87.977296 -151.4409 
L 89.457224 -162.840835 
L 90.937153 -165.120822 
L 92.417082 -165.120822 
L 93.897011 -165.120822 
L 95.376939 -171.960782 
L 96.856868 -178.800743 
L 98.336797 -192.480664 
L 99.816725 -192.480664 
L 101.296654 -192.480664 
L 102.776583 -192.480664 
L 104.256512 -194.760651 
L 105.73644 -197.040638 
L 107.216369 -201.600612 
L 108.696298 -208.440573 
L 110.176226 -208.440573 
L 111.656155 -210.720559 
L 113.136084 -210.720559 
L 114.616013 -217.56052 
L 116.095941 -217.56052 
L 117.57587 -222.120494 
L 119.055799 -222.120494 
L 120.535728 -222.120494 
L 122.015656 -222.120494 
L 123.495585 -222.120494 
L 124.975514 -228.960455 
L 126.455442 -228.960455 
L 127.935371 -235.800415 
L 129.4153 -235.800415 
L 130.895229 -235.800415 
L 132.375157 -238.080402 
L 133.855086 -238.080402 
L 135.335015 -242.640376 
L 136.814943 -242.640376 
L 138.294872 -242.640376 
L 139.774801 -244.920363 
L 141.25473 -247.20035 
L 142.734658 -247.20035 
L 144.214587 -247.20035 
L 145.694516 -247.20035 
L 147.174444 -247.20035 
L 148.654373 -247.20035 
L 150.134302 -247.20035 
L 151.614231 -247.20035 
L 153.094159 -251.760324 
L 154.574088 -251.760324 
L 156.054017 -251.760324 
L 157.533945 -251.760324 
L 159.013874 -251.760324 
L 160.493803 -251.760324 
L 161.973732 -258.600284 
L 163.45366 -258.600284 
L 164.933589 -258.600284 
L 166.413518 -258.600284 
L 167.893446 -258.600284 
L 169.373375 -258.600284 
L 170.853304 -258.600284 
L 172.333233 -258.600284 
L 173.813161 -258.600284 
L 175.29309 -258.600284 
L 176.773019 -258.600284 
L 178.252947 -258.600284 
L 179.732876 -260.880271 
L 181.212805 -260.880271 
L 182.692734 -260.880271 
L 184.172662 -260.880271 
L 185.652591 -267.720232 
L 187.13252 -267.720232 
L 188.612448 -270.000219 
L 190.092377 -272.280206 
L 191.572306 -274.560192 
L 193.052235 -274.560192 
L 194.532163 -274.560192 
L 196.012092 -274.560192 
L 197.492021 -274.560192 
L 198.971949 -274.560192 
L 200.451878 -274.560192 
L 201.931807 -274.560192 
L 203.411736 -274.560192 
L 204.891664 -274.560192 
L 206.371593 -274.560192 
L 207.851522 -274.560192 
L 209.33145 -276.840179 
L 210.811379 -279.120166 
L 212.291308 -279.120166 
L 213.771237 -279.120166 
L 215.251165 -279.120166 
L 216.731094 -279.120166 
L 218.211023 -281.400153 
L 219.690952 -281.400153 
L 221.17088 -281.400153 
L 222.650809 -283.68014 
L 224.130738 -283.68014 
L 225.610666 -283.68014 
L 227.090595 -283.68014 
L 228.570524 -283.68014 
L 230.050453 -283.68014 
L 231.530381 -283.68014 
L 233.01031 -283.68014 
L 234.490239 -283.68014 
L 235.970167 -283.68014 
L 237.450096 -283.68014 
L 238.930025 -283.68014 
L 240.409954 -283.68014 
L 241.889882 -283.68014 
L 243.369811 -283.68014 
L 244.84974 -283.68014 
L 246.329668 -283.68014 
L 247.809597 -283.68014 
L 249.289526 -283.68014 
L 250.769455 -283.68014 
L 252.249383 -283.68014 
L 253.729312 -283.68014 
L 255.209241 -283.68014 
L 256.689169 -283.68014 
L 258.169098 -283.68014 
L 259.649027 -283.68014 
L 261.128956 -283.68014 
L 262.608884 -283.68014 
L 264.088813 -283.68014 
L 265.568742 -283.68014 
L 267.04867 -283.68014 
L 268.528599 -283.68014 
L 270.008528 -283.68014 
L 271.488457 -283.68014 
L 272.968385 -283.68014 
L 274.448314 -283.68014 
L 275.928243 -283.68014 
L 277.408171 -283.68014 
L 278.8881 -283.68014 
L 280.368029 -283.68014 
L 281.847958 -283.68014 
L 283.327886 -283.68014 
L 284.807815 -306.480009 
L 286.287744 -306.480009 
L 287.767672 -306.480009 
L 289.247601 -306.480009 
L 290.72753 -308.759996 
L 292.207459 -308.759996 
L 293.687387 -308.759996 
L 295.167316 -308.759996 
L 296.647245 -308.759996 
L 298.127173 -308.759996 
L 299.607102 -308.759996 
L 301.087031 -308.759996 
L 302.56696 -308.759996 
L 304.046888 -308.759996 
L 305.526817 -311.039983 
L 307.006746 -311.039983 
L 308.486675 -311.039983 
L 309.966603 -313.31997 
L 311.446532 -313.31997 
L 312.926461 -315.599957 
L 314.406389 -315.599957 
L 315.886318 -315.599957 
L 317.366247 -315.599957 
L 318.846176 -315.599957 
L 320.326104 -315.599957 
L 321.806033 -315.599957 
L 323.285962 -317.879943 
L 324.76589 -317.879943 
L 326.245819 -317.879943 
L 327.725748 -317.879943 
L 329.205677 -317.879943 
L 330.685605 -317.879943 
L 332.165534 -317.879943 
L 333.645463 -317.879943 
L 335.125391 -317.879943 
L 336.60532 -317.879943 
L 338.085249 -317.879943 
L 339.565178 -317.879943 
L 341.045106 -317.879943 
L 342.525035 -317.879943 
L 344.004964 -317.879943 
L 345.484892 -317.879943 
L 346.964821 -317.879943 
L 348.44475 -317.879943 
L 349.924679 -317.879943 
L 351.404607 -317.879943 
L 352.884536 -317.879943 
L 354.364465 -317.879943 
L 355.844393 -317.879943 
L 357.324322 -317.879943 
L 358.804251 -317.879943 
L 360.28418 -317.879943 
L 361.764108 -317.879943 
L 363.244037 -317.879943 
L 364.723966 -317.879943 
L 366.203894 -317.879943 
L 367.683823 -317.879943 
L 369.163752 -317.879943 
L 370.643681 -317.879943 
L 372.123609 -317.879943 
L 373.603538 -317.879943 
L 375.083467 -317.879943 
L 376.563395 -317.879943 
L 378.043324 -317.879943 
L 379.523253 -322.439917 
L 381.003182 -322.439917 
L 382.48311 -322.439917 
L 383.963039 -322.439917 
L 385.442968 -322.439917 
L 386.922896 -322.439917 
L 388.402825 -322.439917 
L 389.882754 -322.439917 
L 391.362683 -322.439917 
L 392.842611 -322.439917 
L 394.32254 -322.439917 
L 395.802469 -322.439917 
L 397.282397 -322.439917 
L 398.762326 -322.439917 
L 400.242255 -322.439917 
L 401.722184 -322.439917 
L 403.202112 -324.719904 
L 404.682041 -324.719904 
L 406.16197 -324.719904 
L 407.641899 -324.719904 
L 409.121827 -324.719904 
L 410.601756 -324.719904 
L 412.081685 -324.719904 
L 413.561613 -326.999891 
L 415.041542 -326.999891 
L 416.521471 -326.999891 
L 418.0014 -326.999891 
L 419.481328 -326.999891 
L 420.961257 -326.999891 
L 422.441186 -326.999891 
L 423.921114 -326.999891 
L 425.401043 -326.999891 
L 426.880972 -326.999891 
L 428.360901 -329.279878 
L 429.840829 -329.279878 
L 431.320758 -329.279878 
L 432.800687 -329.279878 
L 434.280615 -329.279878 
L 435.760544 -329.279878 
L 437.240473 -329.279878 
L 438.720402 -329.279878 
L 440.20033 -329.279878 
L 441.680259 -329.279878 
L 443.160188 -329.279878 
L 444.640116 -329.279878 
L 446.120045 -329.279878 
L 447.599974 -329.279878 
L 449.079903 -331.559865 
L 450.559831 -333.839852 
L 452.03976 -336.119839 
L 452.03976 -336.119839 
L 452.03976 -336.119839 
L 450.559831 -336.119839 
L 449.079903 -336.119839 
L 447.599974 -336.119839 
L 446.120045 -336.119839 
L 444.640116 -336.119839 
L 443.160188 -336.119839 
L 441.680259 -336.119839 
L 440.20033 -336.119839 
L 438.720402 -336.119839 
L 437.240473 -336.119839 
L 435.760544 -336.119839 
L 434.280615 -336.119839 
L 432.800687 -336.119839 
L 431.320758 -336.119839 
L 429.840829 -336.119839 
L 428.360901 -336.119839 
L 426.880972 -336.119839 
L 425.401043 -336.119839 
L 423.921114 -336.119839 
L 422.441186 -336.119839 
L 420.961257 -336.119839 
L 419.481328 -336.119839 
L 418.0014 -336.119839 
L 416.521471 -336.119839 
L 415.041542 -336.119839 
L 413.561613 -336.119839 
L 412.081685 -336.119839 
L 410.601756 -336.119839 
L 409.121827 -336.119839 
L 407.641899 -336.119839 
L 406.16197 -336.119839 
L 404.682041 -336.119839 
L 403.202112 -336.119839 
L 401.722184 -336.119839 
L 400.242255 -336.119839 
L 398.762326 -336.119839 
L 397.282397 -336.119839 
L 395.802469 -336.119839 
L 394.32254 -336.119839 
L 392.842611 -336.119839 
L 391.362683 -336.119839 
L 389.882754 -336.119839 
L 388.402825 -336.119839 
L 386.922896 -336.119839 
L 385.442968 -336.119839 
L 383.963039 -336.119839 
L 382.48311 -336.119839 
L 381.003182 -336.119839 
L 379.523253 -336.119839 
L 378.043324 -336.119839 
L 376.563395 -336.119839 
L 375.083467 -336.119839 
L 373.603538 -336.119839 
L 372.123609 -336.119839 
L 370.643681 -336.119839 
L 369.163752 -336.119839 
L 367.683823 -336.119839 
L 366.203894 -336.119839 
L 364.723966 -336.119839 
L 363.244037 -336.119839 
L 361.764108 -336.119839 
L 360.28418 -336.119839 
L 358.804251 -336.119839 
L 357.324322 -336.119839 
L 355.844393 -336.119839 
L 354.364465 -336.119839 
L 352.884536 -336.119839 
L 351.404607 -336.119839 
L 349.924679 -336.119839 
L 348.44475 -336.119839 
L 346.964821 -336.119839 
L 345.484892 -336.119839 
L 344.004964 -336.119839 
L 342.525035 -336.119839 
L 341.045106 -336.119839 
L 339.565178 -336.119839 
L 338.085249 -336.119839 
L 336.60532 -336.119839 
L 335.125391 -336.119839 
L 333.645463 -336.119839 
L 332.165534 -336.119839 
L 330.685605 -336.119839 
L 329.205677 -336.119839 
L 327.725748 -336.119839 
L 326.245819 -336.119839 
L 324.76589 -336.119839 
L 323.285962 -336.119839 
L 321.806033 -336.119839 
L 320.326104 -336.119839 
L 318.846176 -336.119839 
L 317.366247 -336.119839 
L 315.886318 -336.119839 
L 314.406389 -336.119839 
L 312.926461 -336.119839 
L 311.446532 -336.119839 
L 309.966603 -336.119839 
L 308.486675 -336.119839 
L 307.006746 -336.119839 
L 305.526817 -336.119839 
L 304.046888 -336.119839 
L 302.56696 -336.119839 
L 301.087031 -336.119839 
L 299.607102 -336.119839 
L 298.127173 -336.119839 
L 296.647245 -336.119839 
L 295.167316 -336.119839 
L 293.687387 -336.119839 
L 292.207459 -333.839852 
L 290.72753 -333.839852 
L 289.247601 -333.839852 
L 287.767672 -333.839852 
L 286.287744 -333.839852 
L 284.807815 -333.839852 
L 283.327886 -333.839852 
L 281.847958 -333.839852 
L 280.368029 -333.839852 
L 278.8881 -333.839852 
L 277.408171 -333.839852 
L 275.928243 -333.839852 
L 274.448314 -333.839852 
L 272.968385 -333.839852 
L 271.488457 -333.839852 
L 270.008528 -333.839852 
L 268.528599 -333.839852 
L 267.04867 -333.839852 
L 265.568742 -333.839852 
L 264.088813 -333.839852 
L 262.608884 -333.839852 
L 261.128956 -333.839852 
L 259.649027 -333.839852 
L 258.169098 -333.839852 
L 256.689169 -333.839852 
L 255.209241 -333.839852 
L 253.729312 -333.839852 
L 252.249383 -333.839852 
L 250.769455 -333.839852 
L 249.289526 -333.839852 
L 247.809597 -333.839852 
L 246.329668 -333.839852 
L 244.84974 -333.839852 
L 243.369811 -333.839852 
L 241.889882 -333.839852 
L 240.409954 -333.839852 
L 238.930025 -333.839852 
L 237.450096 -333.839852 
L 235.970167 -333.839852 
L 234.490239 -333.839852 
L 233.01031 -333.839852 
L 231.530381 -333.839852 
L 230.050453 -333.839852 
L 228.570524 -333.839852 
L 227.090595 -333.839852 
L 225.610666 -333.839852 
L 224.130738 -333.839852 
L 222.650809 -333.839852 
L 221.17088 -333.839852 
L 219.690952 -331.559865 
L 218.211023 -331.559865 
L 216.731094 -331.559865 
L 215.251165 -331.559865 
L 213.771237 -331.559865 
L 212.291308 -331.559865 
L 210.811379 -331.559865 
L 209.33145 -331.559865 
L 207.851522 -331.559865 
L 206.371593 -331.559865 
L 204.891664 -331.559865 
L 203.411736 -329.279878 
L 201.931807 -329.279878 
L 200.451878 -329.279878 
L 198.971949 -329.279878 
L 197.492021 -329.279878 
L 196.012092 -326.999891 
L 194.532163 -326.999891 
L 193.052235 -326.999891 
L 191.572306 -326.999891 
L 190.092377 -326.999891 
L 188.612448 -326.999891 
L 187.13252 -326.999891 
L 185.652591 -326.999891 
L 184.172662 -326.999891 
L 182.692734 -326.999891 
L 181.212805 -326.999891 
L 179.732876 -326.999891 
L 178.252947 -326.999891 
L 176.773019 -326.999891 
L 175.29309 -326.999891 
L 173.813161 -326.999891 
L 172.333233 -326.999891 
L 170.853304 -326.999891 
L 169.373375 -326.999891 
L 167.893446 -326.999891 
L 166.413518 -326.999891 
L 164.933589 -326.999891 
L 163.45366 -326.999891 
L 161.973732 -326.999891 
L 160.493803 -322.439917 
L 159.013874 -322.439917 
L 157.533945 -315.599957 
L 156.054017 -315.599957 
L 154.574088 -315.599957 
L 153.094159 -315.599957 
L 151.614231 -315.599957 
L 150.134302 -315.599957 
L 148.654373 -315.599957 
L 147.174444 -313.31997 
L 145.694516 -313.31997 
L 144.214587 -311.039983 
L 142.734658 -308.759996 
L 141.25473 -308.759996 
L 139.774801 -308.759996 
L 138.294872 -308.759996 
L 136.814943 -308.759996 
L 135.335015 -308.759996 
L 133.855086 -304.200022 
L 132.375157 -304.200022 
L 130.895229 -304.200022 
L 129.4153 -304.200022 
L 127.935371 -304.200022 
L 126.455442 -304.200022 
L 124.975514 -301.920035 
L 123.495585 -299.640048 
L 122.015656 -299.640048 
L 120.535728 -299.640048 
L 119.055799 -299.640048 
L 117.57587 -299.640048 
L 116.095941 -297.360061 
L 114.616013 -297.360061 
L 113.136084 -295.080075 
L 111.656155 -295.080075 
L 110.176226 -292.800088 
L 108.696298 -292.800088 
L 107.216369 -290.520101 
L 105.73644 -288.240114 
L 104.256512 -285.960127 
L 102.776583 -283.68014 
L 101.296654 -283.68014 
L 99.816725 -283.68014 
L 98.336797 -283.68014 
L 96.856868 -283.68014 
L 95.376939 -279.120166 
L 93.897011 -279.120166 
L 92.417082 -276.840179 
L 90.937153 -274.560192 
L 89.457224 -272.280206 
L 87.977296 -272.280206 
L 86.497367 -265.440245 
L 85.017438 -265.440245 
L 83.53751 -260.880271 
L 82.057581 -260.880271 
L 80.577652 -258.600284 
L 79.097723 -258.600284 
L 77.617795 -258.600284 
L 76.137866 -256.320297 
L 74.657937 -251.760324 
L 73.178009 -233.520428 
L 71.69808 -213.000546 
L 70.218151 -206.160586 
L 68.738222 -201.600612 
L 67.258294 -174.240769 
L 65.778365 -140.040966 
z
"/>
    </defs>
    <g clip-path="url(#pbff70fd34f)">
     <use xlink:href="#m65a4cb8040" x="0" y="352.8" style="fill: #c7623c; fill-opacity: 0.1"/>
    </g>
   </g>
   <g id="FillBetweenPolyCollection_2">
    <defs>
     <path id="mb34af1ec20" d="M 65.778365 -112.681123 
L 65.778365 -64.801398 
L 67.258294 -78.48132 
L 68.738222 -87.601267 
L 70.218151 -92.161241 
L 71.69808 -94.441228 
L 73.178009 -99.001202 
L 74.657937 -103.561175 
L 76.137866 -103.561175 
L 77.617795 -105.841162 
L 79.097723 -105.841162 
L 80.577652 -105.841162 
L 82.057581 -108.121149 
L 83.53751 -114.96111 
L 85.017438 -114.96111 
L 86.497367 -124.081057 
L 87.977296 -126.361044 
L 89.457224 -126.361044 
L 90.937153 -128.641031 
L 92.417082 -128.641031 
L 93.897011 -130.921018 
L 95.376939 -133.201005 
L 96.856868 -135.480992 
L 98.336797 -142.320953 
L 99.816725 -142.320953 
L 101.296654 -142.320953 
L 102.776583 -142.320953 
L 104.256512 -146.880926 
L 105.73644 -146.880926 
L 107.216369 -146.880926 
L 108.696298 -151.4409 
L 110.176226 -151.4409 
L 111.656155 -156.000874 
L 113.136084 -156.000874 
L 114.616013 -156.000874 
L 116.095941 -158.280861 
L 117.57587 -160.560848 
L 119.055799 -160.560848 
L 120.535728 -160.560848 
L 122.015656 -160.560848 
L 123.495585 -160.560848 
L 124.975514 -162.840835 
L 126.455442 -162.840835 
L 127.935371 -162.840835 
L 129.4153 -162.840835 
L 130.895229 -165.120822 
L 132.375157 -165.120822 
L 133.855086 -167.400808 
L 135.335015 -167.400808 
L 136.814943 -167.400808 
L 138.294872 -167.400808 
L 139.774801 -167.400808 
L 141.25473 -169.680795 
L 142.734658 -169.680795 
L 144.214587 -171.960782 
L 145.694516 -174.240769 
L 147.174444 -174.240769 
L 148.654373 -174.240769 
L 150.134302 -174.240769 
L 151.614231 -174.240769 
L 153.094159 -174.240769 
L 154.574088 -174.240769 
L 156.054017 -174.240769 
L 157.533945 -174.240769 
L 159.013874 -176.520756 
L 160.493803 -176.520756 
L 161.973732 -181.08073 
L 163.45366 -181.08073 
L 164.933589 -181.08073 
L 166.413518 -181.08073 
L 167.893446 -181.08073 
L 169.373375 -181.08073 
L 170.853304 -181.08073 
L 172.333233 -181.08073 
L 173.813161 -181.08073 
L 175.29309 -181.08073 
L 176.773019 -181.08073 
L 178.252947 -181.08073 
L 179.732876 -187.920691 
L 181.212805 -187.920691 
L 182.692734 -187.920691 
L 184.172662 -187.920691 
L 185.652591 -190.200677 
L 187.13252 -190.200677 
L 188.612448 -190.200677 
L 190.092377 -190.200677 
L 191.572306 -190.200677 
L 193.052235 -192.480664 
L 194.532163 -192.480664 
L 196.012092 -192.480664 
L 197.492021 -192.480664 
L 198.971949 -194.760651 
L 200.451878 -194.760651 
L 201.931807 -194.760651 
L 203.411736 -197.040638 
L 204.891664 -197.040638 
L 206.371593 -197.040638 
L 207.851522 -197.040638 
L 209.33145 -197.040638 
L 210.811379 -199.320625 
L 212.291308 -199.320625 
L 213.771237 -199.320625 
L 215.251165 -199.320625 
L 216.731094 -199.320625 
L 218.211023 -199.320625 
L 219.690952 -201.600612 
L 221.17088 -201.600612 
L 222.650809 -201.600612 
L 224.130738 -201.600612 
L 225.610666 -201.600612 
L 227.090595 -201.600612 
L 228.570524 -201.600612 
L 230.050453 -203.880599 
L 231.530381 -203.880599 
L 233.01031 -203.880599 
L 234.490239 -203.880599 
L 235.970167 -203.880599 
L 237.450096 -203.880599 
L 238.930025 -203.880599 
L 240.409954 -203.880599 
L 241.889882 -203.880599 
L 243.369811 -203.880599 
L 244.84974 -203.880599 
L 246.329668 -203.880599 
L 247.809597 -206.160586 
L 249.289526 -206.160586 
L 250.769455 -206.160586 
L 252.249383 -208.440573 
L 253.729312 -208.440573 
L 255.209241 -208.440573 
L 256.689169 -208.440573 
L 258.169098 -208.440573 
L 259.649027 -208.440573 
L 261.128956 -208.440573 
L 262.608884 -208.440573 
L 264.088813 -210.720559 
L 265.568742 -210.720559 
L 267.04867 -210.720559 
L 268.528599 -210.720559 
L 270.008528 -210.720559 
L 271.488457 -213.000546 
L 272.968385 -213.000546 
L 274.448314 -213.000546 
L 275.928243 -213.000546 
L 277.408171 -213.000546 
L 278.8881 -213.000546 
L 280.368029 -213.000546 
L 281.847958 -213.000546 
L 283.327886 -213.000546 
L 284.807815 -217.56052 
L 286.287744 -217.56052 
L 287.767672 -217.56052 
L 289.247601 -217.56052 
L 290.72753 -217.56052 
L 292.207459 -217.56052 
L 293.687387 -217.56052 
L 295.167316 -217.56052 
L 296.647245 -217.56052 
L 298.127173 -217.56052 
L 299.607102 -217.56052 
L 301.087031 -217.56052 
L 302.56696 -217.56052 
L 304.046888 -217.56052 
L 305.526817 -217.56052 
L 307.006746 -217.56052 
L 308.486675 -217.56052 
L 309.966603 -217.56052 
L 311.446532 -219.840507 
L 312.926461 -219.840507 
L 314.406389 -219.840507 
L 315.886318 -219.840507 
L 317.366247 -219.840507 
L 318.846176 -222.120494 
L 320.326104 -224.400481 
L 321.806033 -226.680468 
L 323.285962 -226.680468 
L 324.76589 -226.680468 
L 326.245819 -226.680468 
L 327.725748 -226.680468 
L 329.205677 -226.680468 
L 330.685605 -226.680468 
L 332.165534 -226.680468 
L 333.645463 -228.960455 
L 335.125391 -228.960455 
L 336.60532 -228.960455 
L 338.085249 -228.960455 
L 339.565178 -228.960455 
L 341.045106 -228.960455 
L 342.525035 -228.960455 
L 344.004964 -228.960455 
L 345.484892 -228.960455 
L 346.964821 -228.960455 
L 348.44475 -228.960455 
L 349.924679 -228.960455 
L 351.404607 -228.960455 
L 352.884536 -228.960455 
L 354.364465 -228.960455 
L 355.844393 -228.960455 
L 357.324322 -228.960455 
L 358.804251 -228.960455 
L 360.28418 -228.960455 
L 361.764108 -228.960455 
L 363.244037 -228.960455 
L 364.723966 -228.960455 
L 366.203894 -228.960455 
L 367.683823 -228.960455 
L 369.163752 -228.960455 
L 370.643681 -228.960455 
L 372.123609 -228.960455 
L 373.603538 -228.960455 
L 375.083467 -228.960455 
L 376.563395 -231.240442 
L 378.043324 -231.240442 
L 379.523253 -231.240442 
L 381.003182 -233.520428 
L 382.48311 -233.520428 
L 383.963039 -233.520428 
L 385.442968 -233.520428 
L 386.922896 -233.520428 
L 388.402825 -233.520428 
L 389.882754 -233.520428 
L 391.362683 -233.520428 
L 392.842611 -233.520428 
L 394.32254 -233.520428 
L 395.802469 -233.520428 
L 397.282397 -233.520428 
L 398.762326 -233.520428 
L 400.242255 -233.520428 
L 401.722184 -233.520428 
L 403.202112 -233.520428 
L 404.682041 -233.520428 
L 406.16197 -233.520428 
L 407.641899 -233.520428 
L 409.121827 -233.520428 
L 410.601756 -233.520428 
L 412.081685 -233.520428 
L 413.561613 -233.520428 
L 415.041542 -235.800415 
L 416.521471 -235.800415 
L 418.0014 -235.800415 
L 419.481328 -235.800415 
L 420.961257 -235.800415 
L 422.441186 -235.800415 
L 423.921114 -235.800415 
L 425.401043 -235.800415 
L 426.880972 -235.800415 
L 428.360901 -238.080402 
L 429.840829 -238.080402 
L 431.320758 -238.080402 
L 432.800687 -238.080402 
L 434.280615 -238.080402 
L 435.760544 -238.080402 
L 437.240473 -238.080402 
L 438.720402 -238.080402 
L 440.20033 -238.080402 
L 441.680259 -240.360389 
L 443.160188 -240.360389 
L 444.640116 -240.360389 
L 446.120045 -242.640376 
L 447.599974 -242.640376 
L 449.079903 -242.640376 
L 450.559831 -242.640376 
L 452.03976 -247.20035 
L 452.03976 -247.20035 
L 452.03976 -247.20035 
L 450.559831 -247.20035 
L 449.079903 -247.20035 
L 447.599974 -247.20035 
L 446.120045 -247.20035 
L 444.640116 -247.20035 
L 443.160188 -247.20035 
L 441.680259 -247.20035 
L 440.20033 -247.20035 
L 438.720402 -247.20035 
L 437.240473 -247.20035 
L 435.760544 -247.20035 
L 434.280615 -247.20035 
L 432.800687 -247.20035 
L 431.320758 -247.20035 
L 429.840829 -247.20035 
L 428.360901 -247.20035 
L 426.880972 -247.20035 
L 425.401043 -247.20035 
L 423.921114 -247.20035 
L 422.441186 -247.20035 
L 420.961257 -247.20035 
L 419.481328 -247.20035 
L 418.0014 -247.20035 
L 416.521471 -247.20035 
L 415.041542 -247.20035 
L 413.561613 -247.20035 
L 412.081685 -247.20035 
L 410.601756 -247.20035 
L 409.121827 -247.20035 
L 407.641899 -247.20035 
L 406.16197 -247.20035 
L 404.682041 -247.20035 
L 403.202112 -247.20035 
L 401.722184 -247.20035 
L 400.242255 -247.20035 
L 398.762326 -247.20035 
L 397.282397 -247.20035 
L 395.802469 -247.20035 
L 394.32254 -247.20035 
L 392.842611 -247.20035 
L 391.362683 -247.20035 
L 389.882754 -247.20035 
L 388.402825 -247.20035 
L 386.922896 -247.20035 
L 385.442968 -247.20035 
L 383.963039 -247.20035 
L 382.48311 -247.20035 
L 381.003182 -247.20035 
L 379.523253 -247.20035 
L 378.043324 -247.20035 
L 376.563395 -247.20035 
L 375.083467 -247.20035 
L 373.603538 -247.20035 
L 372.123609 -247.20035 
L 370.643681 -247.20035 
L 369.163752 -247.20035 
L 367.683823 -247.20035 
L 366.203894 -247.20035 
L 364.723966 -247.20035 
L 363.244037 -247.20035 
L 361.764108 -247.20035 
L 360.28418 -247.20035 
L 358.804251 -247.20035 
L 357.324322 -247.20035 
L 355.844393 -247.20035 
L 354.364465 -247.20035 
L 352.884536 -247.20035 
L 351.404607 -247.20035 
L 349.924679 -247.20035 
L 348.44475 -247.20035 
L 346.964821 -247.20035 
L 345.484892 -247.20035 
L 344.004964 -247.20035 
L 342.525035 -247.20035 
L 341.045106 -247.20035 
L 339.565178 -247.20035 
L 338.085249 -247.20035 
L 336.60532 -247.20035 
L 335.125391 -247.20035 
L 333.645463 -247.20035 
L 332.165534 -247.20035 
L 330.685605 -247.20035 
L 329.205677 -247.20035 
L 327.725748 -247.20035 
L 326.245819 -247.20035 
L 324.76589 -247.20035 
L 323.285962 -247.20035 
L 321.806033 -247.20035 
L 320.326104 -247.20035 
L 318.846176 -247.20035 
L 317.366247 -247.20035 
L 315.886318 -247.20035 
L 314.406389 -247.20035 
L 312.926461 -247.20035 
L 311.446532 -247.20035 
L 309.966603 -247.20035 
L 308.486675 -247.20035 
L 307.006746 -247.20035 
L 305.526817 -247.20035 
L 304.046888 -247.20035 
L 302.56696 -247.20035 
L 301.087031 -247.20035 
L 299.607102 -247.20035 
L 298.127173 -247.20035 
L 296.647245 -247.20035 
L 295.167316 -247.20035 
L 293.687387 -247.20035 
L 292.207459 -247.20035 
L 290.72753 -247.20035 
L 289.247601 -247.20035 
L 287.767672 -247.20035 
L 286.287744 -247.20035 
L 284.807815 -247.20035 
L 283.327886 -247.20035 
L 281.847958 -244.920363 
L 280.368029 -244.920363 
L 278.8881 -244.920363 
L 277.408171 -244.920363 
L 275.928243 -244.920363 
L 274.448314 -244.920363 
L 272.968385 -244.920363 
L 271.488457 -244.920363 
L 270.008528 -244.920363 
L 268.528599 -244.920363 
L 267.04867 -244.920363 
L 265.568742 -244.920363 
L 264.088813 -244.920363 
L 262.608884 -244.920363 
L 261.128956 -244.920363 
L 259.649027 -244.920363 
L 258.169098 -244.920363 
L 256.689169 -244.920363 
L 255.209241 -244.920363 
L 253.729312 -244.920363 
L 252.249383 -244.920363 
L 250.769455 -244.920363 
L 249.289526 -244.920363 
L 247.809597 -244.920363 
L 246.329668 -244.920363 
L 244.84974 -244.920363 
L 243.369811 -244.920363 
L 241.889882 -244.920363 
L 240.409954 -244.920363 
L 238.930025 -244.920363 
L 237.450096 -244.920363 
L 235.970167 -244.920363 
L 234.490239 -244.920363 
L 233.01031 -244.920363 
L 231.530381 -244.920363 
L 230.050453 -244.920363 
L 228.570524 -244.920363 
L 227.090595 -244.920363 
L 225.610666 -244.920363 
L 224.130738 -244.920363 
L 222.650809 -244.920363 
L 221.17088 -240.360389 
L 219.690952 -240.360389 
L 218.211023 -240.360389 
L 216.731094 -240.360389 
L 215.251165 -240.360389 
L 213.771237 -240.360389 
L 212.291308 -238.080402 
L 210.811379 -238.080402 
L 209.33145 -238.080402 
L 207.851522 -238.080402 
L 206.371593 -238.080402 
L 204.891664 -238.080402 
L 203.411736 -238.080402 
L 201.931807 -238.080402 
L 200.451878 -238.080402 
L 198.971949 -235.800415 
L 197.492021 -235.800415 
L 196.012092 -235.800415 
L 194.532163 -235.800415 
L 193.052235 -235.800415 
L 191.572306 -235.800415 
L 190.092377 -235.800415 
L 188.612448 -233.520428 
L 187.13252 -233.520428 
L 185.652591 -233.520428 
L 184.172662 -233.520428 
L 182.692734 -233.520428 
L 181.212805 -233.520428 
L 179.732876 -233.520428 
L 178.252947 -231.240442 
L 176.773019 -231.240442 
L 175.29309 -231.240442 
L 173.813161 -231.240442 
L 172.333233 -231.240442 
L 170.853304 -231.240442 
L 169.373375 -231.240442 
L 167.893446 -231.240442 
L 166.413518 -231.240442 
L 164.933589 -231.240442 
L 163.45366 -228.960455 
L 161.973732 -228.960455 
L 160.493803 -228.960455 
L 159.013874 -228.960455 
L 157.533945 -228.960455 
L 156.054017 -228.960455 
L 154.574088 -228.960455 
L 153.094159 -228.960455 
L 151.614231 -228.960455 
L 150.134302 -228.960455 
L 148.654373 -228.960455 
L 147.174444 -228.960455 
L 145.694516 -226.680468 
L 144.214587 -224.400481 
L 142.734658 -224.400481 
L 141.25473 -222.120494 
L 139.774801 -222.120494 
L 138.294872 -222.120494 
L 136.814943 -222.120494 
L 135.335015 -222.120494 
L 133.855086 -222.120494 
L 132.375157 -217.56052 
L 130.895229 -217.56052 
L 129.4153 -217.56052 
L 127.935371 -217.56052 
L 126.455442 -215.280533 
L 124.975514 -213.000546 
L 123.495585 -213.000546 
L 122.015656 -213.000546 
L 120.535728 -213.000546 
L 119.055799 -213.000546 
L 117.57587 -213.000546 
L 116.095941 -213.000546 
L 114.616013 -213.000546 
L 113.136084 -213.000546 
L 111.656155 -213.000546 
L 110.176226 -208.440573 
L 108.696298 -208.440573 
L 107.216369 -208.440573 
L 105.73644 -203.880599 
L 104.256512 -203.880599 
L 102.776583 -201.600612 
L 101.296654 -201.600612 
L 99.816725 -199.320625 
L 98.336797 -197.040638 
L 96.856868 -197.040638 
L 95.376939 -194.760651 
L 93.897011 -194.760651 
L 92.417082 -194.760651 
L 90.937153 -194.760651 
L 89.457224 -190.200677 
L 87.977296 -190.200677 
L 86.497367 -190.200677 
L 85.017438 -185.640704 
L 83.53751 -183.360717 
L 82.057581 -178.800743 
L 80.577652 -176.520756 
L 79.097723 -176.520756 
L 77.617795 -167.400808 
L 76.137866 -167.400808 
L 74.657937 -165.120822 
L 73.178009 -158.280861 
L 71.69808 -156.000874 
L 70.218151 -151.4409 
L 68.738222 -149.160913 
L 67.258294 -130.921018 
L 65.778365 -112.681123 
z
"/>
    </defs>
    <g clip-path="url(#pbff70fd34f)">
     <use xlink:href="#mb34af1ec20" x="0" y="352.8" style="fill: #1f3a5f; fill-opacity: 0.1"/>
    </g>
   </g>
   <g id="FillBetweenPolyCollection_3">
    <defs>
     <path id="m898bb7d829" d="M 65.778365 -121.801071 
L 65.778365 -62.521411 
L 67.258294 -69.361372 
L 68.738222 -92.161241 
L 70.218151 -96.721215 
L 71.69808 -99.001202 
L 73.178009 -105.841162 
L 74.657937 -110.401136 
L 76.137866 -110.401136 
L 77.617795 -112.681123 
L 79.097723 -112.681123 
L 80.577652 -112.681123 
L 82.057581 -112.681123 
L 83.53751 -124.081057 
L 85.017438 -124.081057 
L 86.497367 -126.361044 
L 87.977296 -126.361044 
L 89.457224 -130.921018 
L 90.937153 -130.921018 
L 92.417082 -130.921018 
L 93.897011 -130.921018 
L 95.376939 -137.760979 
L 96.856868 -144.60094 
L 98.336797 -153.720887 
L 99.816725 -153.720887 
L 101.296654 -153.720887 
L 102.776583 -153.720887 
L 104.256512 -158.280861 
L 105.73644 -158.280861 
L 107.216369 -160.560848 
L 108.696298 -162.840835 
L 110.176226 -162.840835 
L 111.656155 -162.840835 
L 113.136084 -162.840835 
L 114.616013 -165.120822 
L 116.095941 -165.120822 
L 117.57587 -165.120822 
L 119.055799 -165.120822 
L 120.535728 -165.120822 
L 122.015656 -165.120822 
L 123.495585 -167.400808 
L 124.975514 -167.400808 
L 126.455442 -167.400808 
L 127.935371 -167.400808 
L 129.4153 -167.400808 
L 130.895229 -167.400808 
L 132.375157 -167.400808 
L 133.855086 -167.400808 
L 135.335015 -169.680795 
L 136.814943 -169.680795 
L 138.294872 -169.680795 
L 139.774801 -171.960782 
L 141.25473 -171.960782 
L 142.734658 -171.960782 
L 144.214587 -171.960782 
L 145.694516 -178.800743 
L 147.174444 -178.800743 
L 148.654373 -178.800743 
L 150.134302 -178.800743 
L 151.614231 -178.800743 
L 153.094159 -181.08073 
L 154.574088 -181.08073 
L 156.054017 -181.08073 
L 157.533945 -181.08073 
L 159.013874 -181.08073 
L 160.493803 -181.08073 
L 161.973732 -181.08073 
L 163.45366 -183.360717 
L 164.933589 -183.360717 
L 166.413518 -183.360717 
L 167.893446 -183.360717 
L 169.373375 -183.360717 
L 170.853304 -183.360717 
L 172.333233 -183.360717 
L 173.813161 -183.360717 
L 175.29309 -183.360717 
L 176.773019 -183.360717 
L 178.252947 -183.360717 
L 179.732876 -183.360717 
L 181.212805 -183.360717 
L 182.692734 -183.360717 
L 184.172662 -183.360717 
L 185.652591 -187.920691 
L 187.13252 -190.200677 
L 188.612448 -190.200677 
L 190.092377 -190.200677 
L 191.572306 -190.200677 
L 193.052235 -190.200677 
L 194.532163 -190.200677 
L 196.012092 -190.200677 
L 197.492021 -190.200677 
L 198.971949 -190.200677 
L 200.451878 -190.200677 
L 201.931807 -190.200677 
L 203.411736 -190.200677 
L 204.891664 -190.200677 
L 206.371593 -190.200677 
L 207.851522 -190.200677 
L 209.33145 -190.200677 
L 210.811379 -190.200677 
L 212.291308 -190.200677 
L 213.771237 -190.200677 
L 215.251165 -190.200677 
L 216.731094 -190.200677 
L 218.211023 -190.200677 
L 219.690952 -190.200677 
L 221.17088 -190.200677 
L 222.650809 -190.200677 
L 224.130738 -190.200677 
L 225.610666 -190.200677 
L 227.090595 -190.200677 
L 228.570524 -190.200677 
L 230.050453 -190.200677 
L 231.530381 -190.200677 
L 233.01031 -190.200677 
L 234.490239 -190.200677 
L 235.970167 -190.200677 
L 237.450096 -190.200677 
L 238.930025 -190.200677 
L 240.409954 -190.200677 
L 241.889882 -190.200677 
L 243.369811 -190.200677 
L 244.84974 -190.200677 
L 246.329668 -190.200677 
L 247.809597 -190.200677 
L 249.289526 -190.200677 
L 250.769455 -190.200677 
L 252.249383 -190.200677 
L 253.729312 -190.200677 
L 255.209241 -190.200677 
L 256.689169 -190.200677 
L 258.169098 -190.200677 
L 259.649027 -190.200677 
L 261.128956 -190.200677 
L 262.608884 -190.200677 
L 264.088813 -190.200677 
L 265.568742 -190.200677 
L 267.04867 -190.200677 
L 268.528599 -190.200677 
L 270.008528 -190.200677 
L 271.488457 -190.200677 
L 272.968385 -190.200677 
L 274.448314 -190.200677 
L 275.928243 -190.200677 
L 277.408171 -190.200677 
L 278.8881 -190.200677 
L 280.368029 -190.200677 
L 281.847958 -190.200677 
L 283.327886 -190.200677 
L 284.807815 -197.040638 
L 286.287744 -197.040638 
L 287.767672 -197.040638 
L 289.247601 -197.040638 
L 290.72753 -197.040638 
L 292.207459 -197.040638 
L 293.687387 -199.320625 
L 295.167316 -199.320625 
L 296.647245 -199.320625 
L 298.127173 -199.320625 
L 299.607102 -199.320625 
L 301.087031 -199.320625 
L 302.56696 -199.320625 
L 304.046888 -199.320625 
L 305.526817 -199.320625 
L 307.006746 -199.320625 
L 308.486675 -199.320625 
L 309.966603 -199.320625 
L 311.446532 -199.320625 
L 312.926461 -199.320625 
L 314.406389 -199.320625 
L 315.886318 -199.320625 
L 317.366247 -199.320625 
L 318.846176 -199.320625 
L 320.326104 -201.600612 
L 321.806033 -201.600612 
L 323.285962 -201.600612 
L 324.76589 -201.600612 
L 326.245819 -201.600612 
L 327.725748 -201.600612 
L 329.205677 -201.600612 
L 330.685605 -201.600612 
L 332.165534 -201.600612 
L 333.645463 -201.600612 
L 335.125391 -201.600612 
L 336.60532 -201.600612 
L 338.085249 -201.600612 
L 339.565178 -201.600612 
L 341.045106 -201.600612 
L 342.525035 -201.600612 
L 344.004964 -201.600612 
L 345.484892 -201.600612 
L 346.964821 -201.600612 
L 348.44475 -201.600612 
L 349.924679 -201.600612 
L 351.404607 -201.600612 
L 352.884536 -201.600612 
L 354.364465 -201.600612 
L 355.844393 -201.600612 
L 357.324322 -201.600612 
L 358.804251 -201.600612 
L 360.28418 -201.600612 
L 361.764108 -201.600612 
L 363.244037 -201.600612 
L 364.723966 -201.600612 
L 366.203894 -201.600612 
L 367.683823 -201.600612 
L 369.163752 -201.600612 
L 370.643681 -201.600612 
L 372.123609 -201.600612 
L 373.603538 -201.600612 
L 375.083467 -201.600612 
L 376.563395 -201.600612 
L 378.043324 -201.600612 
L 379.523253 -201.600612 
L 381.003182 -201.600612 
L 382.48311 -201.600612 
L 383.963039 -201.600612 
L 385.442968 -201.600612 
L 386.922896 -201.600612 
L 388.402825 -201.600612 
L 389.882754 -201.600612 
L 391.362683 -201.600612 
L 392.842611 -203.880599 
L 394.32254 -203.880599 
L 395.802469 -203.880599 
L 397.282397 -203.880599 
L 398.762326 -203.880599 
L 400.242255 -203.880599 
L 401.722184 -203.880599 
L 403.202112 -203.880599 
L 404.682041 -203.880599 
L 406.16197 -203.880599 
L 407.641899 -203.880599 
L 409.121827 -203.880599 
L 410.601756 -203.880599 
L 412.081685 -203.880599 
L 413.561613 -203.880599 
L 415.041542 -203.880599 
L 416.521471 -203.880599 
L 418.0014 -203.880599 
L 419.481328 -203.880599 
L 420.961257 -203.880599 
L 422.441186 -203.880599 
L 423.921114 -203.880599 
L 425.401043 -203.880599 
L 426.880972 -203.880599 
L 428.360901 -203.880599 
L 429.840829 -203.880599 
L 431.320758 -203.880599 
L 432.800687 -206.160586 
L 434.280615 -206.160586 
L 435.760544 -206.160586 
L 437.240473 -206.160586 
L 438.720402 -206.160586 
L 440.20033 -206.160586 
L 441.680259 -206.160586 
L 443.160188 -206.160586 
L 444.640116 -206.160586 
L 446.120045 -206.160586 
L 447.599974 -206.160586 
L 449.079903 -206.160586 
L 450.559831 -206.160586 
L 452.03976 -208.440573 
L 452.03976 -208.440573 
L 452.03976 -208.440573 
L 450.559831 -208.440573 
L 449.079903 -208.440573 
L 447.599974 -208.440573 
L 446.120045 -208.440573 
L 444.640116 -208.440573 
L 443.160188 -208.440573 
L 441.680259 -208.440573 
L 440.20033 -208.440573 
L 438.720402 -208.440573 
L 437.240473 -208.440573 
L 435.760544 -208.440573 
L 434.280615 -208.440573 
L 432.800687 -208.440573 
L 431.320758 -208.440573 
L 429.840829 -208.440573 
L 428.360901 -208.440573 
L 426.880972 -208.440573 
L 425.401043 -208.440573 
L 423.921114 -208.440573 
L 422.441186 -208.440573 
L 420.961257 -208.440573 
L 419.481328 -208.440573 
L 418.0014 -208.440573 
L 416.521471 -208.440573 
L 415.041542 -208.440573 
L 413.561613 -208.440573 
L 412.081685 -208.440573 
L 410.601756 -208.440573 
L 409.121827 -208.440573 
L 407.641899 -208.440573 
L 406.16197 -208.440573 
L 404.682041 -208.440573 
L 403.202112 -208.440573 
L 401.722184 -208.440573 
L 400.242255 -208.440573 
L 398.762326 -208.440573 
L 397.282397 -208.440573 
L 395.802469 -208.440573 
L 394.32254 -208.440573 
L 392.842611 -208.440573 
L 391.362683 -208.440573 
L 389.882754 -208.440573 
L 388.402825 -208.440573 
L 386.922896 -208.440573 
L 385.442968 -208.440573 
L 383.963039 -208.440573 
L 382.48311 -208.440573 
L 381.003182 -208.440573 
L 379.523253 -208.440573 
L 378.043324 -208.440573 
L 376.563395 -208.440573 
L 375.083467 -208.440573 
L 373.603538 -208.440573 
L 372.123609 -208.440573 
L 370.643681 -208.440573 
L 369.163752 -208.440573 
L 367.683823 -208.440573 
L 366.203894 -208.440573 
L 364.723966 -208.440573 
L 363.244037 -208.440573 
L 361.764108 -208.440573 
L 360.28418 -208.440573 
L 358.804251 -208.440573 
L 357.324322 -208.440573 
L 355.844393 -208.440573 
L 354.364465 -208.440573 
L 352.884536 -208.440573 
L 351.404607 -208.440573 
L 349.924679 -208.440573 
L 348.44475 -208.440573 
L 346.964821 -208.440573 
L 345.484892 -208.440573 
L 344.004964 -208.440573 
L 342.525035 -208.440573 
L 341.045106 -208.440573 
L 339.565178 -208.440573 
L 338.085249 -208.440573 
L 336.60532 -208.440573 
L 335.125391 -208.440573 
L 333.645463 -208.440573 
L 332.165534 -208.440573 
L 330.685605 -208.440573 
L 329.205677 -208.440573 
L 327.725748 -208.440573 
L 326.245819 -208.440573 
L 324.76589 -208.440573 
L 323.285962 -208.440573 
L 321.806033 -208.440573 
L 320.326104 -208.440573 
L 318.846176 -208.440573 
L 317.366247 -208.440573 
L 315.886318 -208.440573 
L 314.406389 -208.440573 
L 312.926461 -208.440573 
L 311.446532 -208.440573 
L 309.966603 -208.440573 
L 308.486675 -208.440573 
L 307.006746 -208.440573 
L 305.526817 -208.440573 
L 304.046888 -208.440573 
L 302.56696 -208.440573 
L 301.087031 -208.440573 
L 299.607102 -208.440573 
L 298.127173 -208.440573 
L 296.647245 -208.440573 
L 295.167316 -208.440573 
L 293.687387 -208.440573 
L 292.207459 -208.440573 
L 290.72753 -208.440573 
L 289.247601 -208.440573 
L 287.767672 -208.440573 
L 286.287744 -208.440573 
L 284.807815 -208.440573 
L 283.327886 -208.440573 
L 281.847958 -208.440573 
L 280.368029 -208.440573 
L 278.8881 -208.440573 
L 277.408171 -208.440573 
L 275.928243 -208.440573 
L 274.448314 -208.440573 
L 272.968385 -208.440573 
L 271.488457 -208.440573 
L 270.008528 -208.440573 
L 268.528599 -208.440573 
L 267.04867 -208.440573 
L 265.568742 -208.440573 
L 264.088813 -208.440573 
L 262.608884 -208.440573 
L 261.128956 -208.440573 
L 259.649027 -208.440573 
L 258.169098 -208.440573 
L 256.689169 -208.440573 
L 255.209241 -208.440573 
L 253.729312 -208.440573 
L 252.249383 -208.440573 
L 250.769455 -208.440573 
L 249.289526 -208.440573 
L 247.809597 -208.440573 
L 246.329668 -208.440573 
L 244.84974 -208.440573 
L 243.369811 -208.440573 
L 241.889882 -208.440573 
L 240.409954 -208.440573 
L 238.930025 -208.440573 
L 237.450096 -208.440573 
L 235.970167 -208.440573 
L 234.490239 -208.440573 
L 233.01031 -208.440573 
L 231.530381 -208.440573 
L 230.050453 -208.440573 
L 228.570524 -208.440573 
L 227.090595 -208.440573 
L 225.610666 -208.440573 
L 224.130738 -208.440573 
L 222.650809 -208.440573 
L 221.17088 -208.440573 
L 219.690952 -208.440573 
L 218.211023 -208.440573 
L 216.731094 -208.440573 
L 215.251165 -208.440573 
L 213.771237 -208.440573 
L 212.291308 -208.440573 
L 210.811379 -208.440573 
L 209.33145 -208.440573 
L 207.851522 -208.440573 
L 206.371593 -208.440573 
L 204.891664 -208.440573 
L 203.411736 -208.440573 
L 201.931807 -208.440573 
L 200.451878 -208.440573 
L 198.971949 -208.440573 
L 197.492021 -208.440573 
L 196.012092 -208.440573 
L 194.532163 -208.440573 
L 193.052235 -208.440573 
L 191.572306 -208.440573 
L 190.092377 -208.440573 
L 188.612448 -208.440573 
L 187.13252 -208.440573 
L 185.652591 -208.440573 
L 184.172662 -208.440573 
L 182.692734 -208.440573 
L 181.212805 -208.440573 
L 179.732876 -208.440573 
L 178.252947 -208.440573 
L 176.773019 -208.440573 
L 175.29309 -208.440573 
L 173.813161 -208.440573 
L 172.333233 -208.440573 
L 170.853304 -208.440573 
L 169.373375 -208.440573 
L 167.893446 -208.440573 
L 166.413518 -208.440573 
L 164.933589 -208.440573 
L 163.45366 -208.440573 
L 161.973732 -208.440573 
L 160.493803 -208.440573 
L 159.013874 -208.440573 
L 157.533945 -206.160586 
L 156.054017 -206.160586 
L 154.574088 -206.160586 
L 153.094159 -206.160586 
L 151.614231 -206.160586 
L 150.134302 -206.160586 
L 148.654373 -206.160586 
L 147.174444 -206.160586 
L 145.694516 -206.160586 
L 144.214587 -206.160586 
L 142.734658 -206.160586 
L 141.25473 -206.160586 
L 139.774801 -206.160586 
L 138.294872 -206.160586 
L 136.814943 -206.160586 
L 135.335015 -206.160586 
L 133.855086 -206.160586 
L 132.375157 -203.880599 
L 130.895229 -203.880599 
L 129.4153 -201.600612 
L 127.935371 -201.600612 
L 126.455442 -201.600612 
L 124.975514 -201.600612 
L 123.495585 -201.600612 
L 122.015656 -201.600612 
L 120.535728 -201.600612 
L 119.055799 -201.600612 
L 117.57587 -199.320625 
L 116.095941 -199.320625 
L 114.616013 -199.320625 
L 113.136084 -199.320625 
L 111.656155 -199.320625 
L 110.176226 -199.320625 
L 108.696298 -199.320625 
L 107.216369 -199.320625 
L 105.73644 -199.320625 
L 104.256512 -199.320625 
L 102.776583 -199.320625 
L 101.296654 -199.320625 
L 99.816725 -199.320625 
L 98.336797 -197.040638 
L 96.856868 -192.480664 
L 95.376939 -192.480664 
L 93.897011 -192.480664 
L 92.417082 -190.200677 
L 90.937153 -190.200677 
L 89.457224 -190.200677 
L 87.977296 -187.920691 
L 86.497367 -185.640704 
L 85.017438 -185.640704 
L 83.53751 -185.640704 
L 82.057581 -183.360717 
L 80.577652 -181.08073 
L 79.097723 -181.08073 
L 77.617795 -181.08073 
L 76.137866 -181.08073 
L 74.657937 -176.520756 
L 73.178009 -169.680795 
L 71.69808 -162.840835 
L 70.218151 -156.000874 
L 68.738222 -156.000874 
L 67.258294 -137.760979 
L 65.778365 -121.801071 
z
"/>
    </defs>
    <g clip-path="url(#pbff70fd34f)">
     <use xlink:href="#m898bb7d829" x="0" y="352.8" style="fill: #c7623c; fill-opacity: 0.18"/>
    </g>
   </g>
   <g id="FillBetweenPolyCollection_4">
    <defs>
     <path id="me5258ef211" d="M 65.778365 -99.001202 
L 65.778365 -64.801398 
L 67.258294 -78.48132 
L 68.738222 -85.32128 
L 70.218151 -89.881254 
L 71.69808 -92.161241 
L 73.178009 -94.441228 
L 74.657937 -96.721215 
L 76.137866 -96.721215 
L 77.617795 -99.001202 
L 79.097723 -99.001202 
L 80.577652 -99.001202 
L 82.057581 -101.281189 
L 83.53751 -108.121149 
L 85.017438 -108.121149 
L 86.497367 -110.401136 
L 87.977296 -112.681123 
L 89.457224 -112.681123 
L 90.937153 -119.521084 
L 92.417082 -119.521084 
L 93.897011 -119.521084 
L 95.376939 -121.801071 
L 96.856868 -126.361044 
L 98.336797 -130.921018 
L 99.816725 -130.921018 
L 101.296654 -130.921018 
L 102.776583 -130.921018 
L 104.256512 -133.201005 
L 105.73644 -133.201005 
L 107.216369 -133.201005 
L 108.696298 -133.201005 
L 110.176226 -133.201005 
L 111.656155 -135.480992 
L 113.136084 -135.480992 
L 114.616013 -135.480992 
L 116.095941 -135.480992 
L 117.57587 -135.480992 
L 119.055799 -142.320953 
L 120.535728 -142.320953 
L 122.015656 -142.320953 
L 123.495585 -142.320953 
L 124.975514 -144.60094 
L 126.455442 -144.60094 
L 127.935371 -144.60094 
L 129.4153 -144.60094 
L 130.895229 -146.880926 
L 132.375157 -146.880926 
L 133.855086 -149.160913 
L 135.335015 -149.160913 
L 136.814943 -149.160913 
L 138.294872 -149.160913 
L 139.774801 -149.160913 
L 141.25473 -149.160913 
L 142.734658 -149.160913 
L 144.214587 -151.4409 
L 145.694516 -153.720887 
L 147.174444 -153.720887 
L 148.654373 -153.720887 
L 150.134302 -153.720887 
L 151.614231 -153.720887 
L 153.094159 -153.720887 
L 154.574088 -153.720887 
L 156.054017 -156.000874 
L 157.533945 -156.000874 
L 159.013874 -156.000874 
L 160.493803 -156.000874 
L 161.973732 -156.000874 
L 163.45366 -156.000874 
L 164.933589 -158.280861 
L 166.413518 -158.280861 
L 167.893446 -158.280861 
L 169.373375 -158.280861 
L 170.853304 -158.280861 
L 172.333233 -158.280861 
L 173.813161 -158.280861 
L 175.29309 -158.280861 
L 176.773019 -158.280861 
L 178.252947 -158.280861 
L 179.732876 -158.280861 
L 181.212805 -158.280861 
L 182.692734 -158.280861 
L 184.172662 -162.840835 
L 185.652591 -162.840835 
L 187.13252 -162.840835 
L 188.612448 -162.840835 
L 190.092377 -162.840835 
L 191.572306 -162.840835 
L 193.052235 -167.400808 
L 194.532163 -167.400808 
L 196.012092 -167.400808 
L 197.492021 -167.400808 
L 198.971949 -169.680795 
L 200.451878 -169.680795 
L 201.931807 -169.680795 
L 203.411736 -169.680795 
L 204.891664 -169.680795 
L 206.371593 -169.680795 
L 207.851522 -169.680795 
L 209.33145 -169.680795 
L 210.811379 -169.680795 
L 212.291308 -169.680795 
L 213.771237 -169.680795 
L 215.251165 -169.680795 
L 216.731094 -171.960782 
L 218.211023 -171.960782 
L 219.690952 -171.960782 
L 221.17088 -171.960782 
L 222.650809 -171.960782 
L 224.130738 -171.960782 
L 225.610666 -171.960782 
L 227.090595 -171.960782 
L 228.570524 -171.960782 
L 230.050453 -171.960782 
L 231.530381 -171.960782 
L 233.01031 -171.960782 
L 234.490239 -174.240769 
L 235.970167 -174.240769 
L 237.450096 -174.240769 
L 238.930025 -174.240769 
L 240.409954 -174.240769 
L 241.889882 -174.240769 
L 243.369811 -174.240769 
L 244.84974 -174.240769 
L 246.329668 -174.240769 
L 247.809597 -174.240769 
L 249.289526 -174.240769 
L 250.769455 -174.240769 
L 252.249383 -176.520756 
L 253.729312 -176.520756 
L 255.209241 -176.520756 
L 256.689169 -176.520756 
L 258.169098 -176.520756 
L 259.649027 -176.520756 
L 261.128956 -176.520756 
L 262.608884 -176.520756 
L 264.088813 -176.520756 
L 265.568742 -176.520756 
L 267.04867 -176.520756 
L 268.528599 -176.520756 
L 270.008528 -176.520756 
L 271.488457 -176.520756 
L 272.968385 -176.520756 
L 274.448314 -176.520756 
L 275.928243 -176.520756 
L 277.408171 -176.520756 
L 278.8881 -176.520756 
L 280.368029 -176.520756 
L 281.847958 -176.520756 
L 283.327886 -176.520756 
L 284.807815 -183.360717 
L 286.287744 -183.360717 
L 287.767672 -183.360717 
L 289.247601 -183.360717 
L 290.72753 -183.360717 
L 292.207459 -183.360717 
L 293.687387 -183.360717 
L 295.167316 -183.360717 
L 296.647245 -183.360717 
L 298.127173 -183.360717 
L 299.607102 -183.360717 
L 301.087031 -183.360717 
L 302.56696 -183.360717 
L 304.046888 -183.360717 
L 305.526817 -183.360717 
L 307.006746 -183.360717 
L 308.486675 -183.360717 
L 309.966603 -183.360717 
L 311.446532 -183.360717 
L 312.926461 -183.360717 
L 314.406389 -183.360717 
L 315.886318 -183.360717 
L 317.366247 -183.360717 
L 318.846176 -183.360717 
L 320.326104 -183.360717 
L 321.806033 -183.360717 
L 323.285962 -183.360717 
L 324.76589 -183.360717 
L 326.245819 -183.360717 
L 327.725748 -183.360717 
L 329.205677 -183.360717 
L 330.685605 -183.360717 
L 332.165534 -183.360717 
L 333.645463 -183.360717 
L 335.125391 -183.360717 
L 336.60532 -183.360717 
L 338.085249 -183.360717 
L 339.565178 -183.360717 
L 341.045106 -183.360717 
L 342.525035 -183.360717 
L 344.004964 -185.640704 
L 345.484892 -185.640704 
L 346.964821 -185.640704 
L 348.44475 -185.640704 
L 349.924679 -185.640704 
L 351.404607 -185.640704 
L 352.884536 -185.640704 
L 354.364465 -185.640704 
L 355.844393 -185.640704 
L 357.324322 -185.640704 
L 358.804251 -185.640704 
L 360.28418 -185.640704 
L 361.764108 -185.640704 
L 363.244037 -185.640704 
L 364.723966 -185.640704 
L 366.203894 -185.640704 
L 367.683823 -185.640704 
L 369.163752 -185.640704 
L 370.643681 -187.920691 
L 372.123609 -187.920691 
L 373.603538 -187.920691 
L 375.083467 -187.920691 
L 376.563395 -187.920691 
L 378.043324 -187.920691 
L 379.523253 -187.920691 
L 381.003182 -187.920691 
L 382.48311 -187.920691 
L 383.963039 -187.920691 
L 385.442968 -187.920691 
L 386.922896 -187.920691 
L 388.402825 -187.920691 
L 389.882754 -187.920691 
L 391.362683 -187.920691 
L 392.842611 -187.920691 
L 394.32254 -187.920691 
L 395.802469 -187.920691 
L 397.282397 -187.920691 
L 398.762326 -187.920691 
L 400.242255 -187.920691 
L 401.722184 -190.200677 
L 403.202112 -190.200677 
L 404.682041 -190.200677 
L 406.16197 -190.200677 
L 407.641899 -190.200677 
L 409.121827 -190.200677 
L 410.601756 -190.200677 
L 412.081685 -190.200677 
L 413.561613 -190.200677 
L 415.041542 -190.200677 
L 416.521471 -190.200677 
L 418.0014 -190.200677 
L 419.481328 -190.200677 
L 420.961257 -190.200677 
L 422.441186 -190.200677 
L 423.921114 -190.200677 
L 425.401043 -190.200677 
L 426.880972 -190.200677 
L 428.360901 -190.200677 
L 429.840829 -190.200677 
L 431.320758 -190.200677 
L 432.800687 -190.200677 
L 434.280615 -190.200677 
L 435.760544 -190.200677 
L 437.240473 -190.200677 
L 438.720402 -190.200677 
L 440.20033 -190.200677 
L 441.680259 -192.480664 
L 443.160188 -192.480664 
L 444.640116 -192.480664 
L 446.120045 -192.480664 
L 447.599974 -192.480664 
L 449.079903 -192.480664 
L 450.559831 -192.480664 
L 452.03976 -194.760651 
L 452.03976 -194.760651 
L 452.03976 -194.760651 
L 450.559831 -194.760651 
L 449.079903 -194.760651 
L 447.599974 -194.760651 
L 446.120045 -194.760651 
L 444.640116 -194.760651 
L 443.160188 -194.760651 
L 441.680259 -194.760651 
L 440.20033 -194.760651 
L 438.720402 -194.760651 
L 437.240473 -194.760651 
L 435.760544 -194.760651 
L 434.280615 -194.760651 
L 432.800687 -194.760651 
L 431.320758 -194.760651 
L 429.840829 -194.760651 
L 428.360901 -194.760651 
L 426.880972 -194.760651 
L 425.401043 -194.760651 
L 423.921114 -194.760651 
L 422.441186 -194.760651 
L 420.961257 -194.760651 
L 419.481328 -194.760651 
L 418.0014 -194.760651 
L 416.521471 -194.760651 
L 415.041542 -194.760651 
L 413.561613 -194.760651 
L 412.081685 -194.760651 
L 410.601756 -194.760651 
L 409.121827 -194.760651 
L 407.641899 -194.760651 
L 406.16197 -194.760651 
L 404.682041 -194.760651 
L 403.202112 -194.760651 
L 401.722184 -194.760651 
L 400.242255 -194.760651 
L 398.762326 -194.760651 
L 397.282397 -194.760651 
L 395.802469 -194.760651 
L 394.32254 -194.760651 
L 392.842611 -194.760651 
L 391.362683 -194.760651 
L 389.882754 -194.760651 
L 388.402825 -194.760651 
L 386.922896 -194.760651 
L 385.442968 -194.760651 
L 383.963039 -194.760651 
L 382.48311 -194.760651 
L 381.003182 -194.760651 
L 379.523253 -194.760651 
L 378.043324 -194.760651 
L 376.563395 -194.760651 
L 375.083467 -194.760651 
L 373.603538 -194.760651 
L 372.123609 -194.760651 
L 370.643681 -194.760651 
L 369.163752 -194.760651 
L 367.683823 -194.760651 
L 366.203894 -194.760651 
L 364.723966 -194.760651 
L 363.244037 -194.760651 
L 361.764108 -194.760651 
L 360.28418 -194.760651 
L 358.804251 -194.760651 
L 357.324322 -194.760651 
L 355.844393 -194.760651 
L 354.364465 -194.760651 
L 352.884536 -194.760651 
L 351.404607 -194.760651 
L 349.924679 -194.760651 
L 348.44475 -194.760651 
L 346.964821 -194.760651 
L 345.484892 -194.760651 
L 344.004964 -194.760651 
L 342.525035 -194.760651 
L 341.045106 -194.760651 
L 339.565178 -194.760651 
L 338.085249 -194.760651 
L 336.60532 -194.760651 
L 335.125391 -194.760651 
L 333.645463 -194.760651 
L 332.165534 -194.760651 
L 330.685605 -194.760651 
L 329.205677 -194.760651 
L 327.725748 -194.760651 
L 326.245819 -194.760651 
L 324.76589 -194.760651 
L 323.285962 -194.760651 
L 321.806033 -194.760651 
L 320.326104 -194.760651 
L 318.846176 -194.760651 
L 317.366247 -194.760651 
L 315.886318 -194.760651 
L 314.406389 -194.760651 
L 312.926461 -194.760651 
L 311.446532 -194.760651 
L 309.966603 -194.760651 
L 308.486675 -194.760651 
L 307.006746 -194.760651 
L 305.526817 -194.760651 
L 304.046888 -194.760651 
L 302.56696 -194.760651 
L 301.087031 -194.760651 
L 299.607102 -194.760651 
L 298.127173 -194.760651 
L 296.647245 -194.760651 
L 295.167316 -194.760651 
L 293.687387 -194.760651 
L 292.207459 -194.760651 
L 290.72753 -194.760651 
L 289.247601 -194.760651 
L 287.767672 -194.760651 
L 286.287744 -194.760651 
L 284.807815 -194.760651 
L 283.327886 -194.760651 
L 281.847958 -194.760651 
L 280.368029 -194.760651 
L 278.8881 -194.760651 
L 277.408171 -194.760651 
L 275.928243 -194.760651 
L 274.448314 -194.760651 
L 272.968385 -194.760651 
L 271.488457 -194.760651 
L 270.008528 -194.760651 
L 268.528599 -194.760651 
L 267.04867 -194.760651 
L 265.568742 -194.760651 
L 264.088813 -194.760651 
L 262.608884 -194.760651 
L 261.128956 -194.760651 
L 259.649027 -194.760651 
L 258.169098 -194.760651 
L 256.689169 -194.760651 
L 255.209241 -194.760651 
L 253.729312 -194.760651 
L 252.249383 -194.760651 
L 250.769455 -194.760651 
L 249.289526 -194.760651 
L 247.809597 -194.760651 
L 246.329668 -194.760651 
L 244.84974 -194.760651 
L 243.369811 -194.760651 
L 241.889882 -194.760651 
L 240.409954 -194.760651 
L 238.930025 -194.760651 
L 237.450096 -194.760651 
L 235.970167 -194.760651 
L 234.490239 -194.760651 
L 233.01031 -194.760651 
L 231.530381 -194.760651 
L 230.050453 -194.760651 
L 228.570524 -194.760651 
L 227.090595 -194.760651 
L 225.610666 -194.760651 
L 224.130738 -194.760651 
L 222.650809 -194.760651 
L 221.17088 -194.760651 
L 219.690952 -194.760651 
L 218.211023 -194.760651 
L 216.731094 -194.760651 
L 215.251165 -194.760651 
L 213.771237 -194.760651 
L 212.291308 -194.760651 
L 210.811379 -194.760651 
L 209.33145 -194.760651 
L 207.851522 -194.760651 
L 206.371593 -194.760651 
L 204.891664 -194.760651 
L 203.411736 -194.760651 
L 201.931807 -194.760651 
L 200.451878 -194.760651 
L 198.971949 -192.480664 
L 197.492021 -192.480664 
L 196.012092 -192.480664 
L 194.532163 -192.480664 
L 193.052235 -192.480664 
L 191.572306 -192.480664 
L 190.092377 -192.480664 
L 188.612448 -192.480664 
L 187.13252 -192.480664 
L 185.652591 -192.480664 
L 184.172662 -192.480664 
L 182.692734 -192.480664 
L 181.212805 -192.480664 
L 179.732876 -192.480664 
L 178.252947 -192.480664 
L 176.773019 -192.480664 
L 175.29309 -192.480664 
L 173.813161 -192.480664 
L 172.333233 -192.480664 
L 170.853304 -192.480664 
L 169.373375 -190.200677 
L 167.893446 -190.200677 
L 166.413518 -190.200677 
L 164.933589 -190.200677 
L 163.45366 -187.920691 
L 161.973732 -187.920691 
L 160.493803 -187.920691 
L 159.013874 -187.920691 
L 157.533945 -187.920691 
L 156.054017 -187.920691 
L 154.574088 -187.920691 
L 153.094159 -187.920691 
L 151.614231 -187.920691 
L 150.134302 -187.920691 
L 148.654373 -187.920691 
L 147.174444 -187.920691 
L 145.694516 -185.640704 
L 144.214587 -185.640704 
L 142.734658 -185.640704 
L 141.25473 -185.640704 
L 139.774801 -185.640704 
L 138.294872 -185.640704 
L 136.814943 -185.640704 
L 135.335015 -183.360717 
L 133.855086 -183.360717 
L 132.375157 -183.360717 
L 130.895229 -183.360717 
L 129.4153 -183.360717 
L 127.935371 -181.08073 
L 126.455442 -181.08073 
L 124.975514 -178.800743 
L 123.495585 -178.800743 
L 122.015656 -178.800743 
L 120.535728 -178.800743 
L 119.055799 -178.800743 
L 117.57587 -178.800743 
L 116.095941 -178.800743 
L 114.616013 -178.800743 
L 113.136084 -176.520756 
L 111.656155 -176.520756 
L 110.176226 -174.240769 
L 108.696298 -174.240769 
L 107.216369 -174.240769 
L 105.73644 -174.240769 
L 104.256512 -174.240769 
L 102.776583 -171.960782 
L 101.296654 -171.960782 
L 99.816725 -169.680795 
L 98.336797 -169.680795 
L 96.856868 -169.680795 
L 95.376939 -169.680795 
L 93.897011 -167.400808 
L 92.417082 -167.400808 
L 90.937153 -165.120822 
L 89.457224 -162.840835 
L 87.977296 -162.840835 
L 86.497367 -162.840835 
L 85.017438 -162.840835 
L 83.53751 -160.560848 
L 82.057581 -158.280861 
L 80.577652 -158.280861 
L 79.097723 -158.280861 
L 77.617795 -153.720887 
L 76.137866 -149.160913 
L 74.657937 -146.880926 
L 73.178009 -142.320953 
L 71.69808 -137.760979 
L 70.218151 -133.201005 
L 68.738222 -128.641031 
L 67.258294 -119.521084 
L 65.778365 -99.001202 
z
"/>
    </defs>
    <g clip-path="url(#pbff70fd34f)">
     <use xlink:href="#me5258ef211" x="0" y="352.8" style="fill: #1f3a5f; fill-opacity: 0.18"/>
    </g>
   </g>
   <g id="matplotlib.axis_1">
    <g id="xtick_1">
     <g id="line2d_1">
      <path d="M 138.294872 303.95851 
L 138.294872 3.00024 
" clip-path="url(#pbff70fd34f)" style="fill: none; stroke: #cfc7ab; stroke-width: 0.5; stroke-linecap: square"/>
     </g>
     <g id="line2d_2">
      <defs>
       <path id="m787f0dcad8" d="M 0 0 
L 0 3.5 
" style="stroke: #1f1f1f; stroke-width: 0.8"/>
      </defs>
      <g>
       <use xlink:href="#m787f0dcad8" x="138.294872" y="303.95851" style="fill: #1f1f1f; stroke: #1f1f1f; stroke-width: 0.8"/>
      </g>
     </g>
     <g id="text_1">
      <text style="font-size: 18px; font-family: 'Arial', 'Liberation Sans', 'DejaVu Sans', sans-serif; text-anchor: middle; fill: #1f1f1f" x="138.294872" y="324.635697" transform="rotate(-0 138.294872 324.635697)">50</text>
     </g>
    </g>
    <g id="xtick_2">
     <g id="line2d_3">
      <path d="M 212.291308 303.95851 
L 212.291308 3.00024 
" clip-path="url(#pbff70fd34f)" style="fill: none; stroke: #cfc7ab; stroke-width: 0.5; stroke-linecap: square"/>
     </g>
     <g id="line2d_4">
      <g>
       <use xlink:href="#m787f0dcad8" x="212.291308" y="303.95851" style="fill: #1f1f1f; stroke: #1f1f1f; stroke-width: 0.8"/>
      </g>
     </g>
     <g id="text_2">
      <text style="font-size: 18px; font-family: 'Arial', 'Liberation Sans', 'DejaVu Sans', sans-serif; text-anchor: middle; fill: #1f1f1f" x="212.291308" y="324.635697" transform="rotate(-0 212.291308 324.635697)">100</text>
     </g>
    </g>
    <g id="xtick_3">
     <g id="line2d_5">
      <path d="M 286.287744 303.95851 
L 286.287744 3.00024 
" clip-path="url(#pbff70fd34f)" style="fill: none; stroke: #cfc7ab; stroke-width: 0.5; stroke-linecap: square"/>
     </g>
     <g id="line2d_6">
      <g>
       <use xlink:href="#m787f0dcad8" x="286.287744" y="303.95851" style="fill: #1f1f1f; stroke: #1f1f1f; stroke-width: 0.8"/>
      </g>
     </g>
     <g id="text_3">
      <text style="font-size: 18px; font-family: 'Arial', 'Liberation Sans', 'DejaVu Sans', sans-serif; text-anchor: middle; fill: #1f1f1f" x="286.287744" y="324.635697" transform="rotate(-0 286.287744 324.635697)">150</text>
     </g>
    </g>
    <g id="xtick_4">
     <g id="line2d_7">
      <path d="M 360.28418 303.95851 
L 360.28418 3.00024 
" clip-path="url(#pbff70fd34f)" style="fill: none; stroke: #cfc7ab; stroke-width: 0.5; stroke-linecap: square"/>
     </g>
     <g id="line2d_8">
      <g>
       <use xlink:href="#m787f0dcad8" x="360.28418" y="303.95851" style="fill: #1f1f1f; stroke: #1f1f1f; stroke-width: 0.8"/>
      </g>
     </g>
     <g id="text_4">
      <text style="font-size: 18px; font-family: 'Arial', 'Liberation Sans', 'DejaVu Sans', sans-serif; text-anchor: middle; fill: #1f1f1f" x="360.28418" y="324.635697" transform="rotate(-0 360.28418 324.635697)">200</text>
     </g>
    </g>
    <g id="xtick_5">
     <g id="line2d_9">
      <path d="M 434.280615 303.95851 
L 434.280615 3.00024 
" clip-path="url(#pbff70fd34f)" style="fill: none; stroke: #cfc7ab; stroke-width: 0.5; stroke-linecap: square"/>
     </g>
     <g id="line2d_10">
      <g>
       <use xlink:href="#m787f0dcad8" x="434.280615" y="303.95851" style="fill: #1f1f1f; stroke: #1f1f1f; stroke-width: 0.8"/>
      </g>
     </g>
     <g id="text_5">
      <text style="font-size: 18px; font-family: 'Arial', 'Liberation Sans', 'DejaVu Sans', sans-serif; text-anchor: middle; fill: #1f1f1f" x="434.280615" y="324.635697" transform="rotate(-0 434.280615 324.635697)">250</text>
     </g>
    </g>
    <g id="text_6">
     <text style="font-size: 18px; font-family: 'Arial', 'Liberation Sans', 'DejaVu Sans', sans-serif; text-anchor: middle; fill: #1f1f1f" x="258.909063" y="346.056323" transform="rotate(-0 258.909063 346.056323)">Arrays sampled</text>
    </g>
   </g>
   <g id="matplotlib.axis_2">
    <g id="ytick_1">
     <g id="line2d_11">
      <path d="M 65.778365 290.278589 
L 452.03976 290.278589 
" clip-path="url(#pbff70fd34f)" style="fill: none; stroke: #cfc7ab; stroke-width: 0.5; stroke-linecap: square"/>
     </g>
     <g id="line2d_12">
      <defs>
       <path id="m82b19e1274" d="M 0 0 
L -3.5 0 
" style="stroke: #1f1f1f; stroke-width: 0.8"/>
      </defs>
      <g>
       <use xlink:href="#m82b19e1274" x="65.778365" y="290.278589" style="fill: #1f1f1f; stroke: #1f1f1f; stroke-width: 0.8"/>
      </g>
     </g>
     <g id="text_7">
      <text style="font-size: 18px; font-family: 'Arial', 'Liberation Sans', 'DejaVu Sans', sans-serif; text-anchor: end; fill: #1f1f1f" x="58.778365" y="297.117182" transform="rotate(-0 58.778365 297.117182)">0</text>
     </g>
    </g>
    <g id="ytick_2">
     <g id="line2d_13">
      <path d="M 65.778365 244.678851 
L 452.03976 244.678851 
" clip-path="url(#pbff70fd34f)" style="fill: none; stroke: #cfc7ab; stroke-width: 0.5; stroke-linecap: square"/>
     </g>
     <g id="line2d_14">
      <g>
       <use xlink:href="#m82b19e1274" x="65.778365" y="244.678851" style="fill: #1f1f1f; stroke: #1f1f1f; stroke-width: 0.8"/>
      </g>
     </g>
     <g id="text_8">
      <text style="font-size: 18px; font-family: 'Arial', 'Liberation Sans', 'DejaVu Sans', sans-serif; text-anchor: end; fill: #1f1f1f" x="58.778365" y="251.517445" transform="rotate(-0 58.778365 251.517445)">20</text>
     </g>
    </g>
    <g id="ytick_3">
     <g id="line2d_15">
      <path d="M 65.778365 199.079113 
L 452.03976 199.079113 
" clip-path="url(#pbff70fd34f)" style="fill: none; stroke: #cfc7ab; stroke-width: 0.5; stroke-linecap: square"/>
     </g>
     <g id="line2d_16">
      <g>
       <use xlink:href="#m82b19e1274" x="65.778365" y="199.079113" style="fill: #1f1f1f; stroke: #1f1f1f; stroke-width: 0.8"/>
      </g>
     </g>
     <g id="text_9">
      <text style="font-size: 18px; font-family: 'Arial', 'Liberation Sans', 'DejaVu Sans', sans-serif; text-anchor: end; fill: #1f1f1f" x="58.778365" y="205.917707" transform="rotate(-0 58.778365 205.917707)">40</text>
     </g>
    </g>
    <g id="ytick_4">
     <g id="line2d_17">
      <path d="M 65.778365 153.479375 
L 452.03976 153.479375 
" clip-path="url(#pbff70fd34f)" style="fill: none; stroke: #cfc7ab; stroke-width: 0.5; stroke-linecap: square"/>
     </g>
     <g id="line2d_18">
      <g>
       <use xlink:href="#m82b19e1274" x="65.778365" y="153.479375" style="fill: #1f1f1f; stroke: #1f1f1f; stroke-width: 0.8"/>
      </g>
     </g>
     <g id="text_10">
      <text style="font-size: 18px; font-family: 'Arial', 'Liberation Sans', 'DejaVu Sans', sans-serif; text-anchor: end; fill: #1f1f1f" x="58.778365" y="160.317969" transform="rotate(-0 58.778365 160.317969)">60</text>
     </g>
    </g>
    <g id="ytick_5">
     <g id="line2d_19">
      <path d="M 65.778365 107.879637 
L 452.03976 107.879637 
" clip-path="url(#pbff70fd34f)" style="fill: none; stroke: #cfc7ab; stroke-width: 0.5; stroke-linecap: square"/>
     </g>
     <g id="line2d_20">
      <g>
       <use xlink:href="#m82b19e1274" x="65.778365" y="107.879637" style="fill: #1f1f1f; stroke: #1f1f1f; stroke-width: 0.8"/>
      </g>
     </g>
     <g id="text_11">
      <text style="font-size: 18px; font-family: 'Arial', 'Liberation Sans', 'DejaVu Sans', sans-serif; text-anchor: end; fill: #1f1f1f" x="58.778365" y="114.718231" transform="rotate(-0 58.778365 114.718231)">80</text>
     </g>
    </g>
    <g id="ytick_6">
     <g id="line2d_21">
      <path d="M 65.778365 62.279899 
L 452.03976 62.279899 
" clip-path="url(#pbff70fd34f)" style="fill: none; stroke: #cfc7ab; stroke-width: 0.5; stroke-linecap: square"/>
     </g>
     <g id="line2d_22">
      <g>
       <use xlink:href="#m82b19e1274" x="65.778365" y="62.279899" style="fill: #1f1f1f; stroke: #1f1f1f; stroke-width: 0.8"/>
      </g>
     </g>
     <g id="text_12">
      <text style="font-size: 18px; font-family: 'Arial', 'Liberation Sans', 'DejaVu Sans', sans-serif; text-anchor: end; fill: #1f1f1f" x="58.778365" y="69.118493" transform="rotate(-0 58.778365 69.118493)">100</text>
     </g>
    </g>
    <g id="ytick_7">
     <g id="line2d_23">
      <path d="M 65.778365 16.680161 
L 452.03976 16.680161 
" clip-path="url(#pbff70fd34f)" style="fill: none; stroke: #cfc7ab; stroke-width: 0.5; stroke-linecap: square"/>
     </g>
     <g id="line2d_24">
      <g>
       <use xlink:href="#m82b19e1274" x="65.778365" y="16.680161" style="fill: #1f1f1f; stroke: #1f1f1f; stroke-width: 0.8"/>
      </g>
     </g>
     <g id="text_13">
      <text style="font-size: 18px; font-family: 'Arial', 'Liberation Sans', 'DejaVu Sans', sans-serif; text-anchor: end; fill: #1f1f1f" x="58.778365" y="23.518755" transform="rotate(-0 58.778365 23.518755)">120</text>
     </g>
    </g>
    <g id="text_14">
     <text style="font-size: 18px; font-family: 'Arial', 'Liberation Sans', 'DejaVu Sans', sans-serif; text-anchor: middle; fill: #1f1f1f" x="16.677427" y="153.479375" transform="rotate(-90 16.677427 153.479375)">Cumulative species</text>
    </g>
   </g>
   <g id="line2d_25">
    <path d="M 65.778365 245.989843 
L 67.258294 223.349573 
L 68.738222 208.598058 
L 71.69808 187.017982 
L 73.178009 177.761235 
L 74.657937 169.97508 
L 76.137866 164.343513 
L 77.617795 157.925349 
L 79.097723 152.53318 
L 82.057581 142.877436 
L 86.497367 130.06391 
L 87.977296 126.381731 
L 89.457224 122.095355 
L 90.937153 119.074373 
L 92.417082 116.760186 
L 96.856868 108.449634 
L 101.296654 101.974471 
L 104.256512 97.665296 
L 108.696298 91.885529 
L 110.176226 90.471937 
L 111.656155 88.499749 
L 113.136084 86.846758 
L 114.616013 85.433166 
L 120.535728 80.531194 
L 122.015656 79.6078 
L 123.495585 78.536206 
L 124.975514 77.681211 
L 127.935371 75.241625 
L 130.895229 73.657034 
L 132.375157 73.132637 
L 133.855086 72.232042 
L 136.814943 70.077454 
L 141.25473 67.877267 
L 142.734658 66.965272 
L 144.214587 65.722679 
L 145.694516 64.673885 
L 147.174444 64.035489 
L 148.654373 63.191894 
L 150.134302 62.701697 
L 151.614231 61.869502 
L 156.054017 59.806113 
L 160.493803 57.822525 
L 161.973732 57.320928 
L 163.45366 56.340533 
L 164.933589 55.759137 
L 166.413518 55.018141 
L 169.373375 53.923747 
L 173.813161 52.316357 
L 176.773019 51.575361 
L 184.172662 48.987576 
L 185.652591 48.417579 
L 187.13252 47.699383 
L 188.612448 47.220586 
L 190.092377 46.593589 
L 196.012092 44.997599 
L 197.492021 44.655601 
L 198.971949 44.165403 
L 200.451878 43.880405 
L 203.411736 43.01401 
L 204.891664 42.729012 
L 207.851522 42.307214 
L 209.33145 42.056415 
L 210.811379 41.589018 
L 212.291308 40.984822 
L 213.771237 40.677023 
L 215.251165 40.164026 
L 221.17088 38.978433 
L 228.570524 37.678841 
L 231.530381 37.074644 
L 234.490239 36.379248 
L 238.930025 35.592653 
L 240.409954 35.262055 
L 247.809597 34.190461 
L 252.249383 33.563464 
L 253.729312 33.426665 
L 256.689169 32.993468 
L 259.649027 32.64007 
L 262.608884 32.195472 
L 271.488457 31.101078 
L 274.448314 30.78188 
L 277.408171 30.428482 
L 283.327886 29.790086 
L 286.287744 29.299889 
L 289.247601 28.912291 
L 299.607102 27.726698 
L 307.006746 27.076902 
L 309.966603 26.860303 
L 311.446532 26.780503 
L 314.406389 26.472705 
L 317.366247 26.142107 
L 324.76589 25.332712 
L 327.725748 25.070513 
L 333.645463 24.352317 
L 339.565178 23.81652 
L 344.004964 23.406123 
L 346.964821 23.189524 
L 357.324322 22.323129 
L 361.764108 22.015331 
L 366.203894 21.536533 
L 372.123609 21.251535 
L 379.523253 20.704338 
L 383.963039 20.37374 
L 392.842611 19.815143 
L 394.32254 19.632744 
L 400.242255 19.438946 
L 410.601756 18.857549 
L 416.521471 18.65235 
L 422.441186 18.287552 
L 423.921114 18.241952 
L 426.880972 18.013954 
L 431.320758 17.785955 
L 434.280615 17.592156 
L 437.240473 17.421157 
L 447.599974 16.97656 
L 452.03976 16.680161 
L 452.03976 16.680161 
" clip-path="url(#pbff70fd34f)" style="fill: none; stroke-dasharray: 5.92,2.56; stroke-dashoffset: 0; stroke: #c7623c; stroke-width: 1.6"/>
   </g>
   <g id="line2d_26">
    <path d="M 65.778365 266.293127 
L 67.258294 253.707599 
L 68.738222 244.80425 
L 71.69808 232.173123 
L 74.657937 222.004381 
L 79.097723 212.132038 
L 85.017438 200.424305 
L 86.497367 197.642721 
L 87.977296 195.339934 
L 89.457224 192.56975 
L 92.417082 188.784972 
L 93.897011 187.291581 
L 95.376939 185.421991 
L 102.776583 177.943634 
L 104.256512 176.598442 
L 110.176226 172.209467 
L 113.136084 169.667282 
L 116.095941 167.968692 
L 122.015656 164.662711 
L 123.495585 163.705116 
L 124.975514 163.12372 
L 126.455442 162.188925 
L 127.935371 161.105931 
L 129.4153 160.330736 
L 130.895229 159.726539 
L 133.855086 158.700545 
L 135.335015 157.982349 
L 138.294872 156.260959 
L 139.774801 155.679562 
L 141.25473 154.744768 
L 142.734658 154.117771 
L 145.694516 152.350781 
L 157.533945 147.756608 
L 159.013874 147.084012 
L 161.973732 146.058018 
L 163.45366 145.271422 
L 166.413518 144.085829 
L 169.373375 143.219434 
L 173.813161 141.509444 
L 178.252947 140.42645 
L 179.732876 139.947653 
L 181.212805 139.320656 
L 185.652591 138.169263 
L 187.13252 137.587866 
L 191.572306 136.333874 
L 194.532163 135.478878 
L 196.012092 135.20528 
L 198.971949 134.487084 
L 200.451878 134.236286 
L 206.371593 132.799894 
L 209.33145 132.241297 
L 215.251165 130.804905 
L 218.211023 130.223509 
L 221.17088 129.448313 
L 233.01031 126.849128 
L 234.490239 126.632529 
L 235.970167 126.267731 
L 237.450096 126.085332 
L 238.930025 125.777534 
L 241.889882 125.025139 
L 243.369811 124.83134 
L 244.84974 124.443742 
L 264.088813 121.434159 
L 272.968385 120.442365 
L 274.448314 120.351165 
L 280.368029 119.450571 
L 283.327886 119.028773 
L 286.287744 118.458776 
L 290.72753 117.968579 
L 307.006746 116.13319 
L 311.446532 115.734192 
L 335.125391 113.271806 
L 339.565178 112.793009 
L 344.004964 112.371211 
L 351.404607 111.732815 
L 358.804251 111.402217 
L 363.244037 111.071619 
L 375.083467 110.285023 
L 378.043324 110.011425 
L 379.523253 109.965825 
L 382.48311 109.669427 
L 386.922896 109.373029 
L 420.961257 107.35524 
L 423.921114 107.241241 
L 431.320758 106.773843 
L 452.03976 105.59965 
L 452.03976 105.59965 
" clip-path="url(#pbff70fd34f)" style="fill: none; stroke-dasharray: 5.92,2.56; stroke-dashoffset: 0; stroke: #1f3a5f; stroke-width: 1.6"/>
   </g>
   <g id="line2d_27">
    <path d="M 65.778365 256.226984 
L 67.258294 240.871273 
L 68.738222 231.568926 
L 71.69808 218.436202 
L 73.178009 212.998433 
L 74.657937 208.484059 
L 76.137866 205.303477 
L 77.617795 201.769497 
L 80.577652 196.263329 
L 82.057581 193.778143 
L 86.497367 187.37138 
L 87.977296 185.58159 
L 89.457224 183.370003 
L 90.937153 182.013411 
L 92.417082 180.930417 
L 93.897011 179.482626 
L 96.856868 177.02024 
L 99.816725 175.127851 
L 102.776583 172.961863 
L 107.216369 170.168879 
L 108.696298 169.439283 
L 110.176226 168.926286 
L 113.136084 167.501294 
L 117.57587 165.893904 
L 119.055799 165.517706 
L 120.535728 165.016109 
L 124.975514 164.001515 
L 129.4153 162.713322 
L 133.855086 161.869727 
L 135.335015 161.36813 
L 138.294872 160.684134 
L 142.734658 159.794939 
L 145.694516 158.951344 
L 150.134302 158.153348 
L 151.614231 157.87975 
L 153.094159 157.731551 
L 156.054017 157.184354 
L 161.973732 156.374958 
L 163.45366 156.03296 
L 173.813161 154.699168 
L 176.773019 154.505369 
L 184.172662 153.638974 
L 194.532163 152.293782 
L 200.451878 151.928984 
L 204.891664 151.507186 
L 210.811379 151.222188 
L 215.251165 150.80039 
L 231.530381 149.831396 
L 234.490239 149.580597 
L 250.769455 148.862402 
L 256.689169 148.543203 
L 274.448314 147.916207 
L 280.368029 147.688208 
L 286.287744 147.43741 
L 289.247601 147.31201 
L 296.647245 147.038412 
L 309.966603 146.719214 
L 318.846176 146.559615 
L 326.245819 146.320216 
L 332.165534 146.058018 
L 372.123609 145.339822 
L 385.442968 145.111823 
L 395.802469 145.009224 
L 419.481328 144.735625 
L 428.360901 144.621626 
L 452.03976 144.359427 
L 452.03976 144.359427 
" clip-path="url(#pbff70fd34f)" style="fill: none; stroke: #c7623c; stroke-width: 2.4; stroke-linecap: square"/>
   </g>
   <g id="line2d_28">
    <path d="M 65.778365 268.128516 
L 67.258294 257.355578 
L 68.738222 250.242019 
L 70.218151 244.929649 
L 71.69808 240.175877 
L 74.657937 232.332722 
L 82.057581 219.895393 
L 83.53751 217.558407 
L 89.457224 209.635452 
L 92.417082 206.671469 
L 93.897011 205.599875 
L 95.376939 204.231883 
L 104.256512 197.79092 
L 113.136084 192.67235 
L 117.57587 190.91676 
L 119.055799 190.540562 
L 123.495585 188.727972 
L 124.975514 188.340375 
L 127.935371 186.995182 
L 130.895229 186.071788 
L 133.855086 185.410591 
L 136.814943 184.327598 
L 138.294872 183.712001 
L 139.774801 183.324403 
L 141.25473 182.663207 
L 144.214587 181.625813 
L 145.694516 181.090016 
L 153.094159 179.288827 
L 156.054017 178.65043 
L 159.013874 177.943634 
L 161.973732 177.316638 
L 163.45366 176.758041 
L 166.413518 176.005646 
L 169.373375 175.504048 
L 173.813161 174.466654 
L 178.252947 173.942257 
L 179.732876 173.691459 
L 181.212805 173.303861 
L 184.172662 172.870664 
L 185.652591 172.642665 
L 187.13252 172.277867 
L 188.612448 172.141068 
L 193.052235 171.377272 
L 194.532163 171.183473 
L 196.012092 171.115074 
L 198.971949 170.681876 
L 201.931807 170.351278 
L 204.891664 169.92948 
L 207.851522 169.678682 
L 210.811379 169.359484 
L 213.771237 168.892086 
L 238.930025 166.349901 
L 241.889882 165.859704 
L 244.84974 165.574705 
L 267.04867 163.933115 
L 277.408171 163.363118 
L 280.368029 163.08952 
L 283.327886 162.895721 
L 287.767672 162.587923 
L 308.486675 161.710128 
L 315.886318 161.493529 
L 339.565178 160.490335 
L 345.484892 160.319336 
L 348.44475 160.171137 
L 355.844393 160.011537 
L 372.123609 159.680939 
L 378.043324 159.52134 
L 385.442968 159.373141 
L 416.521471 158.734745 
L 422.441186 158.654945 
L 452.03976 158.039349 
L 452.03976 158.039349 
" clip-path="url(#pbff70fd34f)" style="fill: none; stroke: #1f3a5f; stroke-width: 2.4; stroke-linecap: square"/>
   </g>
   <g id="patch_3">
    <path d="M 65.778365 303.95851 
L 65.778365 3.00024 
" style="fill: none; stroke: #1f1f1f; stroke-width: 0.8; stroke-linejoin: miter; stroke-linecap: square"/>
   </g>
   <g id="patch_4">
    <path d="M 452.03976 303.95851 
L 452.03976 3.00024 
" style="fill: none; stroke: #1f1f1f; stroke-width: 0.8; stroke-linejoin: miter; stroke-linecap: square"/>
   </g>
   <g id="patch_5">
    <path d="M 65.778365 303.95851 
L 452.03976 303.95851 
" style="fill: none; stroke: #1f1f1f; stroke-width: 0.8; stroke-linejoin: miter; stroke-linecap: square"/>
   </g>
   <g id="patch_6">
    <path d="M 65.778365 3.00024 
L 452.03976 3.00024 
" style="fill: none; stroke: #1f1f1f; stroke-width: 0.8; stroke-linejoin: miter; stroke-linecap: square"/>
   </g>
   <g id="patch_7">
    <path d="M 452.03976 102.481688 
Q 452.03976 61.138636 452.03976 19.795584 
" style="fill: none; stroke: #c7623c; stroke-linecap: round"/>
    <path d="M 455.63976 95.281688 
L 452.03976 102.481688 
L 448.43976 95.281688 
" style="fill: none; stroke: #c7623c; stroke-linecap: round"/>
    <path d="M 448.43976 26.995584 
L 452.03976 19.795584 
L 455.63976 26.995584 
" style="fill: none; stroke: #c7623c; stroke-linecap: round"/>
   </g>
   <g id="text_15">
    <text style="font-style: italic; font-size: 13px; font-family: 'Arial', 'Liberation Sans', 'DejaVu Sans', sans-serif; text-anchor: end; fill: #c7623c" x="402.03976" y="64.727093" transform="rotate(-0 402.03976 64.727093)">gap = 39</text>
   </g>
   <g id="patch_8">
    <path d="M 452.03976 154.92076 
Q 452.03976 151.198529 452.03976 147.476298 
" style="fill: none; stroke: #c7623c; stroke-linecap: round"/>
    <path d="M 455.63976 147.72076 
L 452.03976 154.92076 
L 448.43976 147.72076 
" style="fill: none; stroke: #c7623c; stroke-linecap: round"/>
    <path d="M 448.43976 154.676298 
L 452.03976 147.476298 
L 455.63976 154.676298 
" style="fill: none; stroke: #c7623c; stroke-linecap: round"/>
   </g>
   <g id="text_16">
    <text style="font-style: italic; font-size: 13px; font-family: 'Arial', 'Liberation Sans', 'DejaVu Sans', sans-serif; text-anchor: end; fill: #c7623c" x="402.03976" y="154.786576" transform="rotate(-0 402.03976 154.786576)">gap = 6</text>
   </g>
   <g id="legend_1">
    <g id="line2d_29">
     <path d="M 255.401479 216.037416 
L 270.401479 216.037416 
L 285.401479 216.037416 
" style="fill: none; stroke-dasharray: 5.92,2.56; stroke-dashoffset: 0; stroke: #c7623c; stroke-width: 1.6"/>
    </g>
    <g id="text_17">
     <text style="font-size: 15px; font-family: 'Arial', 'Liberation Sans', 'DejaVu Sans', sans-serif; text-anchor: start; fill: #1f1f1f" x="297.401479" y="221.287416" transform="rotate(-0 297.401479 221.287416)">IUCN ≥100g (120)</text>
    </g>
    <g id="line2d_30">
     <path d="M 255.401479 238.054604 
L 270.401479 238.054604 
L 285.401479 238.054604 
" style="fill: none; stroke-dasharray: 5.92,2.56; stroke-dashoffset: 0; stroke: #1f3a5f; stroke-width: 1.6"/>
    </g>
    <g id="text_18">
     <text style="font-size: 15px; font-family: 'Arial', 'Liberation Sans', 'DejaVu Sans', sans-serif; text-anchor: start; fill: #1f1f1f" x="297.401479" y="243.304604" transform="rotate(-0 297.401479 243.304604)">SSUSA ≥100g (81)</text>
    </g>
    <g id="line2d_31">
     <path d="M 255.401479 260.071791 
L 270.401479 260.071791 
L 285.401479 260.071791 
" style="fill: none; stroke: #c7623c; stroke-width: 2.4; stroke-linecap: square"/>
    </g>
    <g id="text_19">
     <text style="font-size: 15px; font-family: 'Arial', 'Liberation Sans', 'DejaVu Sans', sans-serif; text-anchor: start; fill: #1f1f1f" x="297.401479" y="265.321791" transform="rotate(-0 297.401479 265.321791)">IUCN ≥500g (64)</text>
    </g>
    <g id="line2d_32">
     <path d="M 255.401479 282.088979 
L 270.401479 282.088979 
L 285.401479 282.088979 
" style="fill: none; stroke: #1f3a5f; stroke-width: 2.4; stroke-linecap: square"/>
    </g>
    <g id="text_20">
     <text style="font-size: 15px; font-family: 'Arial', 'Liberation Sans', 'DejaVu Sans', sans-serif; text-anchor: start; fill: #1f1f1f" x="297.401479" y="287.338979" transform="rotate(-0 297.401479 287.338979)">SSUSA ≥500g (58)</text>
    </g>
   </g>
  </g>
 </g>
 <defs>
  <clipPath id="pbff70fd34f">
   <rect x="65.778365" y="3.00024" width="386.261395" height="300.95827"/>
  </clipPath>
 </defs>
</svg>
