<?xml version="1.0" encoding="utf-8" standalone="no"?>
<!DOCTYPE svg PUBLIC "-//W3C//DTD SVG 1.1//EN"
  "http://www.w3.org/Graphics/SVG/1.1/DTD/svg11.dtd">
<svg xmlns:xlink="http://www.w3.org/1999/xlink" width="458.64pt" height="352.8pt" viewBox="0 0 458.64 352.8" xmlns="http://www.w3.org/2000/svg" version="1.1">
 <metadata>
  <rdf:RDF xmlns:dc="http://purl.org/dc/elements/1.1/" xmlns:cc="http://creativecommons.org/ns#" xmlns:rdf="http://www.w3.org/1999/02/22-rdf-syntax-ns#">
   <cc:Work>
    <dc:type rdf:resource="http://purl.org/dc/dcmitype/StillImage"/>
    <dc:date>2026-04-28T13:55:44.764440</dc:date>
    <dc:format>image/svg+xml</dc:format>
    <dc:creator>
     <cc:Agent>
      <dc:title>Matplotlib v3.10.8, https://matplotlib.org/</dc:title>
     </cc:Agent>
    </dc:creator>
   </cc:Work>
  </rdf:RDF>
 </metadata>
 <defs>
  <style type="text/css">*{stroke-linejoin: round; stroke-linecap: butt}</style>
 </defs>
 <g id="figure_1">
  <g id="patch_1">
   <path d="M 0 352.8 
L 458.64 352.8 
L 458.64 0 
L 0 0 
L 0 352.8 
z
" style="fill: none"/>
  </g>
  <g id="axes_1">
   <g id="patch_2">
    <path d="M 60.808677 305.24101 
L 452.03976 305.24101 
L 452.03976 3.00024 
L 60.808677 3.00024 
L 60.808677 305.24101 
z
" style="fill: none"/>
   </g>
   <g id="FillBetweenPolyCollection_1">
    <defs>
     <path id="mc3a95c7a87" d="M 60.808677 -139.147102 
L 60.808677 -61.297207 
L 62.307647 -68.166315 
L 63.806617 -100.222154 
L 65.305586 -109.380966 
L 66.804556 -111.670668 
L 68.303526 -118.539777 
L 69.802495 -125.408885 
L 71.301465 -125.408885 
L 72.800435 -129.988291 
L 74.299404 -129.988291 
L 75.798374 -129.988291 
L 77.297344 -129.988291 
L 78.796313 -148.305913 
L 80.295283 -148.305913 
L 81.794253 -150.595616 
L 83.293222 -150.595616 
L 84.792192 -162.04413 
L 86.291162 -164.333833 
L 87.790131 -164.333833 
L 89.289101 -164.333833 
L 90.788071 -168.913239 
L 92.28704 -178.07205 
L 93.78601 -191.810267 
L 95.28498 -191.810267 
L 96.783949 -191.810267 
L 98.282919 -191.810267 
L 99.781889 -191.810267 
L 101.280858 -194.099969 
L 102.779828 -200.969078 
L 104.278798 -207.838186 
L 105.777767 -207.838186 
L 107.276737 -210.127889 
L 108.775707 -210.127889 
L 110.274676 -216.996997 
L 111.773646 -216.996997 
L 113.272616 -219.2867 
L 114.771585 -219.2867 
L 116.270555 -219.2867 
L 117.769525 -219.2867 
L 119.268494 -219.2867 
L 120.767464 -226.155809 
L 122.266434 -228.445511 
L 123.765403 -233.024917 
L 125.264373 -233.024917 
L 126.763343 -233.024917 
L 128.262312 -237.604323 
L 129.761282 -237.604323 
L 131.260252 -242.183728 
L 132.759221 -242.183728 
L 134.258191 -242.183728 
L 135.757161 -244.473431 
L 137.25613 -246.763134 
L 138.7551 -246.763134 
L 140.25407 -246.763134 
L 141.753039 -246.763134 
L 143.252009 -246.763134 
L 144.750979 -246.763134 
L 146.249948 -246.763134 
L 147.748918 -246.763134 
L 149.247888 -251.342539 
L 150.746857 -251.342539 
L 152.245827 -251.342539 
L 153.744797 -251.342539 
L 155.243766 -251.342539 
L 156.742736 -251.342539 
L 158.241706 -258.211648 
L 159.740675 -258.211648 
L 161.239645 -258.211648 
L 162.738615 -258.211648 
L 164.237584 -258.211648 
L 165.736554 -258.211648 
L 167.235524 -258.211648 
L 168.734493 -258.211648 
L 170.233463 -258.211648 
L 171.732433 -258.211648 
L 173.231402 -258.211648 
L 174.730372 -258.211648 
L 176.229342 -260.501351 
L 177.728311 -260.501351 
L 179.227281 -260.501351 
L 180.726251 -260.501351 
L 182.22522 -267.370459 
L 183.72419 -267.370459 
L 185.22316 -269.660162 
L 186.722129 -271.949865 
L 188.221099 -274.239568 
L 189.720069 -274.239568 
L 191.219038 -274.239568 
L 192.718008 -274.239568 
L 194.216978 -274.239568 
L 195.715947 -274.239568 
L 197.214917 -274.239568 
L 198.713887 -274.239568 
L 200.212856 -274.239568 
L 201.711826 -274.239568 
L 203.210796 -274.239568 
L 204.709765 -274.239568 
L 206.208735 -276.52927 
L 207.707705 -278.818973 
L 209.206674 -278.818973 
L 210.705644 -278.818973 
L 212.204614 -278.818973 
L 213.703583 -278.818973 
L 215.202553 -281.108676 
L 216.701523 -281.108676 
L 218.200492 -281.108676 
L 219.699462 -283.398379 
L 221.198432 -283.398379 
L 222.697401 -283.398379 
L 224.196371 -283.398379 
L 225.695341 -283.398379 
L 227.19431 -283.398379 
L 228.69328 -283.398379 
L 230.19225 -283.398379 
L 231.691219 -283.398379 
L 233.190189 -283.398379 
L 234.689159 -283.398379 
L 236.188128 -283.398379 
L 237.687098 -283.398379 
L 239.186068 -283.398379 
L 240.685037 -283.398379 
L 242.184007 -283.398379 
L 243.682977 -283.398379 
L 245.181946 -283.398379 
L 246.680916 -283.398379 
L 248.179886 -283.398379 
L 249.678855 -283.398379 
L 251.177825 -283.398379 
L 252.676795 -283.398379 
L 254.175764 -283.398379 
L 255.674734 -283.398379 
L 257.173704 -283.398379 
L 258.672673 -283.398379 
L 260.171643 -283.398379 
L 261.670613 -283.398379 
L 263.169582 -283.398379 
L 264.668552 -283.398379 
L 266.167522 -283.398379 
L 267.666491 -283.398379 
L 269.165461 -283.398379 
L 270.664431 -283.398379 
L 272.1634 -283.398379 
L 273.66237 -283.398379 
L 275.16134 -283.398379 
L 276.660309 -283.398379 
L 278.159279 -283.398379 
L 279.658249 -283.398379 
L 281.157218 -283.398379 
L 282.656188 -306.295407 
L 284.155158 -306.295407 
L 285.654127 -306.295407 
L 287.153097 -306.295407 
L 288.652067 -308.58511 
L 290.151036 -308.58511 
L 291.650006 -308.58511 
L 293.148976 -308.58511 
L 294.647945 -308.58511 
L 296.146915 -308.58511 
L 297.645885 -308.58511 
L 299.144854 -308.58511 
L 300.643824 -308.58511 
L 302.142794 -308.58511 
L 303.641763 -310.874812 
L 305.140733 -310.874812 
L 306.639703 -310.874812 
L 308.138672 -313.164515 
L 309.637642 -313.164515 
L 311.136612 -315.454218 
L 312.635581 -315.454218 
L 314.134551 -315.454218 
L 315.633521 -315.454218 
L 317.13249 -315.454218 
L 318.63146 -315.454218 
L 320.13043 -315.454218 
L 321.629399 -317.743921 
L 323.128369 -317.743921 
L 324.627338 -317.743921 
L 326.126308 -317.743921 
L 327.625278 -317.743921 
L 329.124247 -317.743921 
L 330.623217 -317.743921 
L 332.122187 -317.743921 
L 333.621156 -317.743921 
L 335.120126 -317.743921 
L 336.619096 -317.743921 
L 338.118065 -317.743921 
L 339.617035 -317.743921 
L 341.116005 -317.743921 
L 342.614974 -317.743921 
L 344.113944 -317.743921 
L 345.612914 -317.743921 
L 347.111883 -317.743921 
L 348.610853 -317.743921 
L 350.109823 -317.743921 
L 351.608792 -317.743921 
L 353.107762 -317.743921 
L 354.606732 -317.743921 
L 356.105701 -317.743921 
L 357.604671 -317.743921 
L 359.103641 -317.743921 
L 360.60261 -317.743921 
L 362.10158 -317.743921 
L 363.60055 -317.743921 
L 365.099519 -317.743921 
L 366.598489 -317.743921 
L 368.097459 -317.743921 
L 369.596428 -317.743921 
L 371.095398 -317.743921 
L 372.594368 -317.743921 
L 374.093337 -317.743921 
L 375.592307 -317.743921 
L 377.091277 -317.743921 
L 378.590246 -322.323326 
L 380.089216 -322.323326 
L 381.588186 -322.323326 
L 383.087155 -322.323326 
L 384.586125 -322.323326 
L 386.085095 -322.323326 
L 387.584064 -322.323326 
L 389.083034 -322.323326 
L 390.582004 -322.323326 
L 392.080973 -322.323326 
L 393.579943 -322.323326 
L 395.078913 -322.323326 
L 396.577882 -322.323326 
L 398.076852 -322.323326 
L 399.575822 -322.323326 
L 401.074791 -322.323326 
L 402.573761 -324.613029 
L 404.072731 -324.613029 
L 405.5717 -324.613029 
L 407.07067 -324.613029 
L 408.56964 -324.613029 
L 410.068609 -324.613029 
L 411.567579 -324.613029 
L 413.066549 -326.902732 
L 414.565518 -326.902732 
L 416.064488 -326.902732 
L 417.563458 -326.902732 
L 419.062427 -326.902732 
L 420.561397 -326.902732 
L 422.060367 -326.902732 
L 423.559336 -326.902732 
L 425.058306 -326.902732 
L 426.557276 -326.902732 
L 428.056245 -329.192435 
L 429.555215 -329.192435 
L 431.054185 -329.192435 
L 432.553154 -329.192435 
L 434.052124 -329.192435 
L 435.551094 -329.192435 
L 437.050063 -329.192435 
L 438.549033 -329.192435 
L 440.048003 -329.192435 
L 441.546972 -329.192435 
L 443.045942 -329.192435 
L 444.544912 -329.192435 
L 446.043881 -329.192435 
L 447.542851 -329.192435 
L 449.041821 -331.482138 
L 450.54079 -333.77184 
L 452.03976 -336.061543 
L 452.03976 -336.061543 
L 452.03976 -336.061543 
L 450.54079 -336.061543 
L 449.041821 -336.061543 
L 447.542851 -336.061543 
L 446.043881 -336.061543 
L 444.544912 -336.061543 
L 443.045942 -336.061543 
L 441.546972 -336.061543 
L 440.048003 -336.061543 
L 438.549033 -336.061543 
L 437.050063 -336.061543 
L 435.551094 -336.061543 
L 434.052124 -336.061543 
L 432.553154 -336.061543 
L 431.054185 -336.061543 
L 429.555215 -336.061543 
L 428.056245 -336.061543 
L 426.557276 -336.061543 
L 425.058306 -336.061543 
L 423.559336 -336.061543 
L 422.060367 -336.061543 
L 420.561397 -336.061543 
L 419.062427 -336.061543 
L 417.563458 -336.061543 
L 416.064488 -336.061543 
L 414.565518 -336.061543 
L 413.066549 -336.061543 
L 411.567579 -336.061543 
L 410.068609 -336.061543 
L 408.56964 -336.061543 
L 407.07067 -336.061543 
L 405.5717 -336.061543 
L 404.072731 -336.061543 
L 402.573761 -336.061543 
L 401.074791 -336.061543 
L 399.575822 -336.061543 
L 398.076852 -336.061543 
L 396.577882 -336.061543 
L 395.078913 -336.061543 
L 393.579943 -336.061543 
L 392.080973 -336.061543 
L 390.582004 -336.061543 
L 389.083034 -336.061543 
L 387.584064 -336.061543 
L 386.085095 -336.061543 
L 384.586125 -336.061543 
L 383.087155 -336.061543 
L 381.588186 -336.061543 
L 380.089216 -336.061543 
L 378.590246 -336.061543 
L 377.091277 -336.061543 
L 375.592307 -336.061543 
L 374.093337 -336.061543 
L 372.594368 -336.061543 
L 371.095398 -336.061543 
L 369.596428 -336.061543 
L 368.097459 -336.061543 
L 366.598489 -336.061543 
L 365.099519 -336.061543 
L 363.60055 -336.061543 
L 362.10158 -336.061543 
L 360.60261 -336.061543 
L 359.103641 -336.061543 
L 357.604671 -336.061543 
L 356.105701 -336.061543 
L 354.606732 -336.061543 
L 353.107762 -336.061543 
L 351.608792 -336.061543 
L 350.109823 -336.061543 
L 348.610853 -336.061543 
L 347.111883 -336.061543 
L 345.612914 -336.061543 
L 344.113944 -336.061543 
L 342.614974 -336.061543 
L 341.116005 -336.061543 
L 339.617035 -336.061543 
L 338.118065 -336.061543 
L 336.619096 -336.061543 
L 335.120126 -336.061543 
L 333.621156 -336.061543 
L 332.122187 -336.061543 
L 330.623217 -336.061543 
L 329.124247 -336.061543 
L 327.625278 -336.061543 
L 326.126308 -336.061543 
L 324.627338 -336.061543 
L 323.128369 -336.061543 
L 321.629399 -336.061543 
L 320.13043 -336.061543 
L 318.63146 -336.061543 
L 317.13249 -336.061543 
L 315.633521 -336.061543 
L 314.134551 -336.061543 
L 312.635581 -336.061543 
L 311.136612 -336.061543 
L 309.637642 -336.061543 
L 308.138672 -336.061543 
L 306.639703 -336.061543 
L 305.140733 -336.061543 
L 303.641763 -336.061543 
L 302.142794 -336.061543 
L 300.643824 -336.061543 
L 299.144854 -336.061543 
L 297.645885 -336.061543 
L 296.146915 -336.061543 
L 294.647945 -336.061543 
L 293.148976 -336.061543 
L 291.650006 -336.061543 
L 290.151036 -333.77184 
L 288.652067 -333.77184 
L 287.153097 -333.77184 
L 285.654127 -333.77184 
L 284.155158 -333.77184 
L 282.656188 -333.77184 
L 281.157218 -333.77184 
L 279.658249 -333.77184 
L 278.159279 -333.77184 
L 276.660309 -333.77184 
L 275.16134 -333.77184 
L 273.66237 -333.77184 
L 272.1634 -333.77184 
L 270.664431 -333.77184 
L 269.165461 -333.77184 
L 267.666491 -333.77184 
L 266.167522 -333.77184 
L 264.668552 -333.77184 
L 263.169582 -333.77184 
L 261.670613 -333.77184 
L 260.171643 -333.77184 
L 258.672673 -333.77184 
L 257.173704 -333.77184 
L 255.674734 -333.77184 
L 254.175764 -333.77184 
L 252.676795 -333.77184 
L 251.177825 -333.77184 
L 249.678855 -333.77184 
L 248.179886 -333.77184 
L 246.680916 -333.77184 
L 245.181946 -333.77184 
L 243.682977 -333.77184 
L 242.184007 -333.77184 
L 240.685037 -333.77184 
L 239.186068 -333.77184 
L 237.687098 -333.77184 
L 236.188128 -333.77184 
L 234.689159 -333.77184 
L 233.190189 -333.77184 
L 231.691219 -333.77184 
L 230.19225 -333.77184 
L 228.69328 -333.77184 
L 227.19431 -333.77184 
L 225.695341 -333.77184 
L 224.196371 -333.77184 
L 222.697401 -333.77184 
L 221.198432 -333.77184 
L 219.699462 -333.77184 
L 218.200492 -333.77184 
L 216.701523 -331.482138 
L 215.202553 -331.482138 
L 213.703583 -331.482138 
L 212.204614 -331.482138 
L 210.705644 -331.482138 
L 209.206674 -331.482138 
L 207.707705 -331.482138 
L 206.208735 -331.482138 
L 204.709765 -331.482138 
L 203.210796 -331.482138 
L 201.711826 -331.482138 
L 200.212856 -329.192435 
L 198.713887 -329.192435 
L 197.214917 -329.192435 
L 195.715947 -329.192435 
L 194.216978 -329.192435 
L 192.718008 -326.902732 
L 191.219038 -326.902732 
L 189.720069 -326.902732 
L 188.221099 -326.902732 
L 186.722129 -326.902732 
L 185.22316 -326.902732 
L 183.72419 -326.902732 
L 182.22522 -326.902732 
L 180.726251 -326.902732 
L 179.227281 -326.902732 
L 177.728311 -326.902732 
L 176.229342 -326.902732 
L 174.730372 -326.902732 
L 173.231402 -326.902732 
L 171.732433 -326.902732 
L 170.233463 -326.902732 
L 168.734493 -326.902732 
L 167.235524 -326.902732 
L 165.736554 -326.902732 
L 164.237584 -326.902732 
L 162.738615 -326.902732 
L 161.239645 -326.902732 
L 159.740675 -326.902732 
L 158.241706 -326.902732 
L 156.742736 -322.323326 
L 155.243766 -322.323326 
L 153.744797 -315.454218 
L 152.245827 -315.454218 
L 150.746857 -315.454218 
L 149.247888 -315.454218 
L 147.748918 -315.454218 
L 146.249948 -315.454218 
L 144.750979 -315.454218 
L 143.252009 -313.164515 
L 141.753039 -313.164515 
L 140.25407 -310.874812 
L 138.7551 -308.58511 
L 137.25613 -308.58511 
L 135.757161 -308.58511 
L 134.258191 -308.58511 
L 132.759221 -308.58511 
L 131.260252 -308.58511 
L 129.761282 -304.005704 
L 128.262312 -304.005704 
L 126.763343 -304.005704 
L 125.264373 -304.005704 
L 123.765403 -304.005704 
L 122.266434 -304.005704 
L 120.767464 -301.716001 
L 119.268494 -299.426298 
L 117.769525 -297.136596 
L 116.270555 -297.136596 
L 114.771585 -297.136596 
L 113.272616 -297.136596 
L 111.773646 -297.136596 
L 110.274676 -297.136596 
L 108.775707 -294.846893 
L 107.276737 -292.55719 
L 105.777767 -292.55719 
L 104.278798 -292.55719 
L 102.779828 -290.267487 
L 101.280858 -287.977784 
L 99.781889 -285.688082 
L 98.282919 -283.398379 
L 96.783949 -283.398379 
L 95.28498 -283.398379 
L 93.78601 -283.398379 
L 92.28704 -283.398379 
L 90.788071 -278.818973 
L 89.289101 -278.818973 
L 87.790131 -276.52927 
L 86.291162 -274.239568 
L 84.792192 -271.949865 
L 83.293222 -271.949865 
L 81.794253 -265.080756 
L 80.295283 -265.080756 
L 78.796313 -260.501351 
L 77.297344 -260.501351 
L 75.798374 -258.211648 
L 74.299404 -258.211648 
L 72.800435 -258.211648 
L 71.301465 -255.921945 
L 69.802495 -251.342539 
L 68.303526 -233.024917 
L 66.804556 -212.417592 
L 65.305586 -205.548483 
L 63.806617 -200.969078 
L 62.307647 -173.492644 
L 60.808677 -139.147102 
z
"/>
    </defs>
    <g clip-path="url(#pfef91c63c9)">
     <use xlink:href="#mc3a95c7a87" x="0" y="352.8" style="fill: #c7623c; fill-opacity: 0.1"/>
    </g>
   </g>
   <g id="FillBetweenPolyCollection_2">
    <defs>
     <path id="m33077202b0" d="M 60.808677 -111.670668 
L 60.808677 -63.58691 
L 62.307647 -77.325126 
L 63.806617 -86.483938 
L 65.305586 -91.063343 
L 66.804556 -93.353046 
L 68.303526 -97.932452 
L 69.802495 -102.511857 
L 71.301465 -102.511857 
L 72.800435 -104.80156 
L 74.299404 -104.80156 
L 75.798374 -104.80156 
L 77.297344 -107.091263 
L 78.796313 -113.960371 
L 80.295283 -113.960371 
L 81.794253 -123.119183 
L 83.293222 -125.408885 
L 84.792192 -125.408885 
L 86.291162 -127.698588 
L 87.790131 -127.698588 
L 89.289101 -129.988291 
L 90.788071 -132.277994 
L 92.28704 -134.567697 
L 93.78601 -141.436805 
L 95.28498 -141.436805 
L 96.783949 -141.436805 
L 98.282919 -141.436805 
L 99.781889 -146.016211 
L 101.280858 -146.016211 
L 102.779828 -146.016211 
L 104.278798 -150.595616 
L 105.777767 -150.595616 
L 107.276737 -155.175022 
L 108.775707 -155.175022 
L 110.274676 -155.175022 
L 111.773646 -157.464725 
L 113.272616 -159.754427 
L 114.771585 -159.754427 
L 116.270555 -159.754427 
L 117.769525 -159.754427 
L 119.268494 -159.754427 
L 120.767464 -162.04413 
L 122.266434 -162.04413 
L 123.765403 -162.04413 
L 125.264373 -162.04413 
L 126.763343 -164.333833 
L 128.262312 -164.333833 
L 129.761282 -166.623536 
L 131.260252 -166.623536 
L 132.759221 -166.623536 
L 134.258191 -166.623536 
L 135.757161 -166.623536 
L 137.25613 -168.913239 
L 138.7551 -168.913239 
L 140.25407 -171.202941 
L 141.753039 -173.492644 
L 143.252009 -173.492644 
L 144.750979 -173.492644 
L 146.249948 -173.492644 
L 147.748918 -173.492644 
L 149.247888 -173.492644 
L 150.746857 -173.492644 
L 152.245827 -173.492644 
L 153.744797 -173.492644 
L 155.243766 -175.782347 
L 156.742736 -175.782347 
L 158.241706 -180.361753 
L 159.740675 -180.361753 
L 161.239645 -180.361753 
L 162.738615 -180.361753 
L 164.237584 -180.361753 
L 165.736554 -180.361753 
L 167.235524 -180.361753 
L 168.734493 -180.361753 
L 170.233463 -180.361753 
L 171.732433 -180.361753 
L 173.231402 -180.361753 
L 174.730372 -180.361753 
L 176.229342 -187.230861 
L 177.728311 -187.230861 
L 179.227281 -187.230861 
L 180.726251 -187.230861 
L 182.22522 -189.520564 
L 183.72419 -189.520564 
L 185.22316 -189.520564 
L 186.722129 -189.520564 
L 188.221099 -189.520564 
L 189.720069 -191.810267 
L 191.219038 -191.810267 
L 192.718008 -191.810267 
L 194.216978 -191.810267 
L 195.715947 -194.099969 
L 197.214917 -194.099969 
L 198.713887 -194.099969 
L 200.212856 -196.389672 
L 201.711826 -196.389672 
L 203.210796 -196.389672 
L 204.709765 -196.389672 
L 206.208735 -196.389672 
L 207.707705 -198.679375 
L 209.206674 -198.679375 
L 210.705644 -198.679375 
L 212.204614 -198.679375 
L 213.703583 -198.679375 
L 215.202553 -198.679375 
L 216.701523 -200.969078 
L 218.200492 -200.969078 
L 219.699462 -200.969078 
L 221.198432 -200.969078 
L 222.697401 -200.969078 
L 224.196371 -200.969078 
L 225.695341 -200.969078 
L 227.19431 -203.258781 
L 228.69328 -203.258781 
L 230.19225 -203.258781 
L 231.691219 -203.258781 
L 233.190189 -203.258781 
L 234.689159 -203.258781 
L 236.188128 -203.258781 
L 237.687098 -203.258781 
L 239.186068 -203.258781 
L 240.685037 -203.258781 
L 242.184007 -203.258781 
L 243.682977 -203.258781 
L 245.181946 -205.548483 
L 246.680916 -205.548483 
L 248.179886 -205.548483 
L 249.678855 -207.838186 
L 251.177825 -207.838186 
L 252.676795 -207.838186 
L 254.175764 -207.838186 
L 255.674734 -207.838186 
L 257.173704 -207.838186 
L 258.672673 -207.838186 
L 260.171643 -207.838186 
L 261.670613 -210.127889 
L 263.169582 -210.127889 
L 264.668552 -210.127889 
L 266.167522 -210.127889 
L 267.666491 -210.127889 
L 269.165461 -212.417592 
L 270.664431 -212.417592 
L 272.1634 -212.417592 
L 273.66237 -212.417592 
L 275.16134 -212.417592 
L 276.660309 -212.417592 
L 278.159279 -212.417592 
L 279.658249 -212.417592 
L 281.157218 -212.417592 
L 282.656188 -216.996997 
L 284.155158 -216.996997 
L 285.654127 -216.996997 
L 287.153097 -216.996997 
L 288.652067 -216.996997 
L 290.151036 -216.996997 
L 291.650006 -216.996997 
L 293.148976 -216.996997 
L 294.647945 -216.996997 
L 296.146915 -216.996997 
L 297.645885 -216.996997 
L 299.144854 -216.996997 
L 300.643824 -216.996997 
L 302.142794 -216.996997 
L 303.641763 -216.996997 
L 305.140733 -216.996997 
L 306.639703 -216.996997 
L 308.138672 -216.996997 
L 309.637642 -219.2867 
L 311.136612 -219.2867 
L 312.635581 -219.2867 
L 314.134551 -219.2867 
L 315.633521 -219.2867 
L 317.13249 -221.576403 
L 318.63146 -223.866106 
L 320.13043 -226.155809 
L 321.629399 -226.155809 
L 323.128369 -226.155809 
L 324.627338 -226.155809 
L 326.126308 -226.155809 
L 327.625278 -226.155809 
L 329.124247 -226.155809 
L 330.623217 -226.155809 
L 332.122187 -228.445511 
L 333.621156 -228.445511 
L 335.120126 -228.445511 
L 336.619096 -228.445511 
L 338.118065 -228.445511 
L 339.617035 -228.445511 
L 341.116005 -228.445511 
L 342.614974 -228.445511 
L 344.113944 -228.445511 
L 345.612914 -228.445511 
L 347.111883 -228.445511 
L 348.610853 -228.445511 
L 350.109823 -228.445511 
L 351.608792 -228.445511 
L 353.107762 -228.445511 
L 354.606732 -228.445511 
L 356.105701 -228.445511 
L 357.604671 -228.445511 
L 359.103641 -228.445511 
L 360.60261 -228.445511 
L 362.10158 -228.445511 
L 363.60055 -228.445511 
L 365.099519 -228.445511 
L 366.598489 -228.445511 
L 368.097459 -228.445511 
L 369.596428 -228.445511 
L 371.095398 -228.445511 
L 372.594368 -228.445511 
L 374.093337 -228.445511 
L 375.592307 -230.735214 
L 377.091277 -230.735214 
L 378.590246 -230.735214 
L 380.089216 -233.024917 
L 381.588186 -233.024917 
L 383.087155 -233.024917 
L 384.586125 -233.024917 
L 386.085095 -233.024917 
L 387.584064 -233.024917 
L 389.083034 -233.024917 
L 390.582004 -233.024917 
L 392.080973 -233.024917 
L 393.579943 -233.024917 
L 395.078913 -233.024917 
L 396.577882 -233.024917 
L 398.076852 -233.024917 
L 399.575822 -233.024917 
L 401.074791 -233.024917 
L 402.573761 -233.024917 
L 404.072731 -233.024917 
L 405.5717 -233.024917 
L 407.07067 -233.024917 
L 408.56964 -233.024917 
L 410.068609 -233.024917 
L 411.567579 -233.024917 
L 413.066549 -233.024917 
L 414.565518 -235.31462 
L 416.064488 -235.31462 
L 417.563458 -235.31462 
L 419.062427 -235.31462 
L 420.561397 -235.31462 
L 422.060367 -235.31462 
L 423.559336 -235.31462 
L 425.058306 -235.31462 
L 426.557276 -235.31462 
L 428.056245 -237.604323 
L 429.555215 -237.604323 
L 431.054185 -237.604323 
L 432.553154 -237.604323 
L 434.052124 -237.604323 
L 435.551094 -237.604323 
L 437.050063 -237.604323 
L 438.549033 -237.604323 
L 440.048003 -237.604323 
L 441.546972 -239.894025 
L 443.045942 -239.894025 
L 444.544912 -239.894025 
L 446.043881 -242.183728 
L 447.542851 -242.183728 
L 449.041821 -242.183728 
L 450.54079 -242.183728 
L 452.03976 -246.763134 
L 452.03976 -246.763134 
L 452.03976 -246.763134 
L 450.54079 -246.763134 
L 449.041821 -246.763134 
L 447.542851 -246.763134 
L 446.043881 -246.763134 
L 444.544912 -246.763134 
L 443.045942 -246.763134 
L 441.546972 -246.763134 
L 440.048003 -246.763134 
L 438.549033 -246.763134 
L 437.050063 -246.763134 
L 435.551094 -246.763134 
L 434.052124 -246.763134 
L 432.553154 -246.763134 
L 431.054185 -246.763134 
L 429.555215 -246.763134 
L 428.056245 -246.763134 
L 426.557276 -246.763134 
L 425.058306 -246.763134 
L 423.559336 -246.763134 
L 422.060367 -246.763134 
L 420.561397 -246.763134 
L 419.062427 -246.763134 
L 417.563458 -246.763134 
L 416.064488 -246.763134 
L 414.565518 -246.763134 
L 413.066549 -246.763134 
L 411.567579 -246.763134 
L 410.068609 -246.763134 
L 408.56964 -246.763134 
L 407.07067 -246.763134 
L 405.5717 -246.763134 
L 404.072731 -246.763134 
L 402.573761 -246.763134 
L 401.074791 -246.763134 
L 399.575822 -246.763134 
L 398.076852 -246.763134 
L 396.577882 -246.763134 
L 395.078913 -246.763134 
L 393.579943 -246.763134 
L 392.080973 -246.763134 
L 390.582004 -246.763134 
L 389.083034 -246.763134 
L 387.584064 -246.763134 
L 386.085095 -246.763134 
L 384.586125 -246.763134 
L 383.087155 -246.763134 
L 381.588186 -246.763134 
L 380.089216 -246.763134 
L 378.590246 -246.763134 
L 377.091277 -246.763134 
L 375.592307 -246.763134 
L 374.093337 -246.763134 
L 372.594368 -246.763134 
L 371.095398 -246.763134 
L 369.596428 -246.763134 
L 368.097459 -246.763134 
L 366.598489 -246.763134 
L 365.099519 -246.763134 
L 363.60055 -246.763134 
L 362.10158 -246.763134 
L 360.60261 -246.763134 
L 359.103641 -246.763134 
L 357.604671 -246.763134 
L 356.105701 -246.763134 
L 354.606732 -246.763134 
L 353.107762 -246.763134 
L 351.608792 -246.763134 
L 350.109823 -246.763134 
L 348.610853 -246.763134 
L 347.111883 -246.763134 
L 345.612914 -246.763134 
L 344.113944 -246.763134 
L 342.614974 -246.763134 
L 341.116005 -246.763134 
L 339.617035 -246.763134 
L 338.118065 -246.763134 
L 336.619096 -246.763134 
L 335.120126 -246.763134 
L 333.621156 -246.763134 
L 332.122187 -246.763134 
L 330.623217 -246.763134 
L 329.124247 -246.763134 
L 327.625278 -246.763134 
L 326.126308 -246.763134 
L 324.627338 -246.763134 
L 323.128369 -246.763134 
L 321.629399 -246.763134 
L 320.13043 -246.763134 
L 318.63146 -246.763134 
L 317.13249 -246.763134 
L 315.633521 -246.763134 
L 314.134551 -246.763134 
L 312.635581 -246.763134 
L 311.136612 -246.763134 
L 309.637642 -246.763134 
L 308.138672 -246.763134 
L 306.639703 -246.763134 
L 305.140733 -246.763134 
L 303.641763 -246.763134 
L 302.142794 -246.763134 
L 300.643824 -246.763134 
L 299.144854 -246.763134 
L 297.645885 -246.763134 
L 296.146915 -246.763134 
L 294.647945 -246.763134 
L 293.148976 -246.763134 
L 291.650006 -246.763134 
L 290.151036 -246.763134 
L 288.652067 -246.763134 
L 287.153097 -246.763134 
L 285.654127 -246.763134 
L 284.155158 -246.763134 
L 282.656188 -246.763134 
L 281.157218 -246.763134 
L 279.658249 -244.473431 
L 278.159279 -244.473431 
L 276.660309 -244.473431 
L 275.16134 -244.473431 
L 273.66237 -244.473431 
L 272.1634 -244.473431 
L 270.664431 -244.473431 
L 269.165461 -244.473431 
L 267.666491 -244.473431 
L 266.167522 -244.473431 
L 264.668552 -244.473431 
L 263.169582 -244.473431 
L 261.670613 -244.473431 
L 260.171643 -244.473431 
L 258.672673 -244.473431 
L 257.173704 -244.473431 
L 255.674734 -244.473431 
L 254.175764 -244.473431 
L 252.676795 -244.473431 
L 251.177825 -244.473431 
L 249.678855 -244.473431 
L 248.179886 -244.473431 
L 246.680916 -244.473431 
L 245.181946 -244.473431 
L 243.682977 -244.473431 
L 242.184007 -244.473431 
L 240.685037 -244.473431 
L 239.186068 -244.473431 
L 237.687098 -244.473431 
L 236.188128 -244.473431 
L 234.689159 -244.473431 
L 233.190189 -244.473431 
L 231.691219 -244.473431 
L 230.19225 -244.473431 
L 228.69328 -244.473431 
L 227.19431 -244.473431 
L 225.695341 -244.473431 
L 224.196371 -244.473431 
L 222.697401 -244.473431 
L 221.198432 -244.473431 
L 219.699462 -244.473431 
L 218.200492 -239.894025 
L 216.701523 -239.894025 
L 215.202553 -239.894025 
L 213.703583 -239.894025 
L 212.204614 -239.894025 
L 210.705644 -239.894025 
L 209.206674 -237.604323 
L 207.707705 -237.604323 
L 206.208735 -237.604323 
L 204.709765 -237.604323 
L 203.210796 -237.604323 
L 201.711826 -237.604323 
L 200.212856 -237.604323 
L 198.713887 -237.604323 
L 197.214917 -237.604323 
L 195.715947 -235.31462 
L 194.216978 -235.31462 
L 192.718008 -235.31462 
L 191.219038 -235.31462 
L 189.720069 -235.31462 
L 188.221099 -235.31462 
L 186.722129 -235.31462 
L 185.22316 -233.024917 
L 183.72419 -233.024917 
L 182.22522 -233.024917 
L 180.726251 -233.024917 
L 179.227281 -233.024917 
L 177.728311 -233.024917 
L 176.229342 -233.024917 
L 174.730372 -230.735214 
L 173.231402 -230.735214 
L 171.732433 -230.735214 
L 170.233463 -230.735214 
L 168.734493 -230.735214 
L 167.235524 -230.735214 
L 165.736554 -230.735214 
L 164.237584 -230.735214 
L 162.738615 -230.735214 
L 161.239645 -230.735214 
L 159.740675 -228.445511 
L 158.241706 -228.445511 
L 156.742736 -228.445511 
L 155.243766 -228.445511 
L 153.744797 -228.445511 
L 152.245827 -228.445511 
L 150.746857 -228.445511 
L 149.247888 -228.445511 
L 147.748918 -228.445511 
L 146.249948 -228.445511 
L 144.750979 -228.445511 
L 143.252009 -228.445511 
L 141.753039 -226.155809 
L 140.25407 -223.866106 
L 138.7551 -223.866106 
L 137.25613 -221.576403 
L 135.757161 -221.576403 
L 134.258191 -221.576403 
L 132.759221 -221.576403 
L 131.260252 -221.576403 
L 129.761282 -221.576403 
L 128.262312 -216.996997 
L 126.763343 -216.996997 
L 125.264373 -216.996997 
L 123.765403 -216.996997 
L 122.266434 -214.707295 
L 120.767464 -212.417592 
L 119.268494 -212.417592 
L 117.769525 -212.417592 
L 116.270555 -212.417592 
L 114.771585 -212.417592 
L 113.272616 -212.417592 
L 111.773646 -212.417592 
L 110.274676 -212.417592 
L 108.775707 -212.417592 
L 107.276737 -212.417592 
L 105.777767 -207.838186 
L 104.278798 -207.838186 
L 102.779828 -207.838186 
L 101.280858 -203.258781 
L 99.781889 -203.258781 
L 98.282919 -200.969078 
L 96.783949 -200.969078 
L 95.28498 -198.679375 
L 93.78601 -196.389672 
L 92.28704 -196.389672 
L 90.788071 -194.099969 
L 89.289101 -194.099969 
L 87.790131 -194.099969 
L 86.291162 -194.099969 
L 84.792192 -189.520564 
L 83.293222 -189.520564 
L 81.794253 -189.520564 
L 80.295283 -184.941158 
L 78.796313 -182.651455 
L 77.297344 -178.07205 
L 75.798374 -175.782347 
L 74.299404 -175.782347 
L 72.800435 -166.623536 
L 71.301465 -166.623536 
L 69.802495 -164.333833 
L 68.303526 -157.464725 
L 66.804556 -155.175022 
L 65.305586 -150.595616 
L 63.806617 -148.305913 
L 62.307647 -129.988291 
L 60.808677 -111.670668 
z
"/>
    </defs>
    <g clip-path="url(#pfef91c63c9)">
     <use xlink:href="#m33077202b0" x="0" y="352.8" style="fill: #1f3a5f; fill-opacity: 0.1"/>
    </g>
   </g>
   <g id="FillBetweenPolyCollection_3">
    <defs>
     <path id="m0b1f163926" d="M 60.808677 -120.82948 
L 60.808677 -61.297207 
L 62.307647 -68.166315 
L 63.806617 -91.063343 
L 65.305586 -95.642749 
L 66.804556 -97.932452 
L 68.303526 -104.80156 
L 69.802495 -109.380966 
L 71.301465 -109.380966 
L 72.800435 -111.670668 
L 74.299404 -111.670668 
L 75.798374 -111.670668 
L 77.297344 -111.670668 
L 78.796313 -123.119183 
L 80.295283 -123.119183 
L 81.794253 -125.408885 
L 83.293222 -125.408885 
L 84.792192 -129.988291 
L 86.291162 -129.988291 
L 87.790131 -129.988291 
L 89.289101 -129.988291 
L 90.788071 -134.567697 
L 92.28704 -143.726508 
L 93.78601 -150.595616 
L 95.28498 -150.595616 
L 96.783949 -150.595616 
L 98.282919 -152.885319 
L 99.781889 -155.175022 
L 101.280858 -155.175022 
L 102.779828 -159.754427 
L 104.278798 -162.04413 
L 105.777767 -162.04413 
L 107.276737 -162.04413 
L 108.775707 -162.04413 
L 110.274676 -162.04413 
L 111.773646 -162.04413 
L 113.272616 -162.04413 
L 114.771585 -162.04413 
L 116.270555 -162.04413 
L 117.769525 -162.04413 
L 119.268494 -164.333833 
L 120.767464 -164.333833 
L 122.266434 -164.333833 
L 123.765403 -166.623536 
L 125.264373 -166.623536 
L 126.763343 -166.623536 
L 128.262312 -166.623536 
L 129.761282 -166.623536 
L 131.260252 -168.913239 
L 132.759221 -168.913239 
L 134.258191 -168.913239 
L 135.757161 -171.202941 
L 137.25613 -171.202941 
L 138.7551 -171.202941 
L 140.25407 -171.202941 
L 141.753039 -178.07205 
L 143.252009 -178.07205 
L 144.750979 -178.07205 
L 146.249948 -178.07205 
L 147.748918 -178.07205 
L 149.247888 -178.07205 
L 150.746857 -178.07205 
L 152.245827 -178.07205 
L 153.744797 -178.07205 
L 155.243766 -178.07205 
L 156.742736 -178.07205 
L 158.241706 -178.07205 
L 159.740675 -180.361753 
L 161.239645 -180.361753 
L 162.738615 -180.361753 
L 164.237584 -180.361753 
L 165.736554 -182.651455 
L 167.235524 -182.651455 
L 168.734493 -182.651455 
L 170.233463 -182.651455 
L 171.732433 -182.651455 
L 173.231402 -182.651455 
L 174.730372 -182.651455 
L 176.229342 -182.651455 
L 177.728311 -182.651455 
L 179.227281 -182.651455 
L 180.726251 -182.651455 
L 182.22522 -187.230861 
L 183.72419 -189.520564 
L 185.22316 -189.520564 
L 186.722129 -189.520564 
L 188.221099 -189.520564 
L 189.720069 -189.520564 
L 191.219038 -189.520564 
L 192.718008 -189.520564 
L 194.216978 -189.520564 
L 195.715947 -189.520564 
L 197.214917 -189.520564 
L 198.713887 -189.520564 
L 200.212856 -189.520564 
L 201.711826 -189.520564 
L 203.210796 -189.520564 
L 204.709765 -189.520564 
L 206.208735 -189.520564 
L 207.707705 -189.520564 
L 209.206674 -189.520564 
L 210.705644 -189.520564 
L 212.204614 -189.520564 
L 213.703583 -189.520564 
L 215.202553 -189.520564 
L 216.701523 -189.520564 
L 218.200492 -189.520564 
L 219.699462 -189.520564 
L 221.198432 -189.520564 
L 222.697401 -189.520564 
L 224.196371 -189.520564 
L 225.695341 -189.520564 
L 227.19431 -189.520564 
L 228.69328 -189.520564 
L 230.19225 -189.520564 
L 231.691219 -189.520564 
L 233.190189 -189.520564 
L 234.689159 -189.520564 
L 236.188128 -189.520564 
L 237.687098 -189.520564 
L 239.186068 -189.520564 
L 240.685037 -189.520564 
L 242.184007 -189.520564 
L 243.682977 -189.520564 
L 245.181946 -189.520564 
L 246.680916 -189.520564 
L 248.179886 -189.520564 
L 249.678855 -189.520564 
L 251.177825 -189.520564 
L 252.676795 -189.520564 
L 254.175764 -189.520564 
L 255.674734 -189.520564 
L 257.173704 -189.520564 
L 258.672673 -189.520564 
L 260.171643 -189.520564 
L 261.670613 -189.520564 
L 263.169582 -189.520564 
L 264.668552 -189.520564 
L 266.167522 -189.520564 
L 267.666491 -189.520564 
L 269.165461 -189.520564 
L 270.664431 -189.520564 
L 272.1634 -189.520564 
L 273.66237 -189.520564 
L 275.16134 -189.520564 
L 276.660309 -189.520564 
L 278.159279 -189.520564 
L 279.658249 -189.520564 
L 281.157218 -189.520564 
L 282.656188 -196.389672 
L 284.155158 -196.389672 
L 285.654127 -196.389672 
L 287.153097 -196.389672 
L 288.652067 -196.389672 
L 290.151036 -196.389672 
L 291.650006 -198.679375 
L 293.148976 -198.679375 
L 294.647945 -198.679375 
L 296.146915 -198.679375 
L 297.645885 -198.679375 
L 299.144854 -198.679375 
L 300.643824 -198.679375 
L 302.142794 -198.679375 
L 303.641763 -198.679375 
L 305.140733 -198.679375 
L 306.639703 -198.679375 
L 308.138672 -198.679375 
L 309.637642 -198.679375 
L 311.136612 -198.679375 
L 312.635581 -198.679375 
L 314.134551 -198.679375 
L 315.633521 -198.679375 
L 317.13249 -198.679375 
L 318.63146 -200.969078 
L 320.13043 -200.969078 
L 321.629399 -200.969078 
L 323.128369 -200.969078 
L 324.627338 -200.969078 
L 326.126308 -200.969078 
L 327.625278 -200.969078 
L 329.124247 -200.969078 
L 330.623217 -200.969078 
L 332.122187 -200.969078 
L 333.621156 -200.969078 
L 335.120126 -200.969078 
L 336.619096 -200.969078 
L 338.118065 -200.969078 
L 339.617035 -200.969078 
L 341.116005 -200.969078 
L 342.614974 -200.969078 
L 344.113944 -200.969078 
L 345.612914 -200.969078 
L 347.111883 -200.969078 
L 348.610853 -200.969078 
L 350.109823 -200.969078 
L 351.608792 -200.969078 
L 353.107762 -200.969078 
L 354.606732 -200.969078 
L 356.105701 -200.969078 
L 357.604671 -200.969078 
L 359.103641 -200.969078 
L 360.60261 -200.969078 
L 362.10158 -200.969078 
L 363.60055 -200.969078 
L 365.099519 -200.969078 
L 366.598489 -200.969078 
L 368.097459 -200.969078 
L 369.596428 -200.969078 
L 371.095398 -200.969078 
L 372.594368 -200.969078 
L 374.093337 -200.969078 
L 375.592307 -200.969078 
L 377.091277 -200.969078 
L 378.590246 -200.969078 
L 380.089216 -200.969078 
L 381.588186 -200.969078 
L 383.087155 -200.969078 
L 384.586125 -200.969078 
L 386.085095 -200.969078 
L 387.584064 -200.969078 
L 389.083034 -200.969078 
L 390.582004 -200.969078 
L 392.080973 -203.258781 
L 393.579943 -203.258781 
L 395.078913 -203.258781 
L 396.577882 -203.258781 
L 398.076852 -203.258781 
L 399.575822 -203.258781 
L 401.074791 -203.258781 
L 402.573761 -203.258781 
L 404.072731 -203.258781 
L 405.5717 -203.258781 
L 407.07067 -203.258781 
L 408.56964 -203.258781 
L 410.068609 -203.258781 
L 411.567579 -203.258781 
L 413.066549 -203.258781 
L 414.565518 -203.258781 
L 416.064488 -203.258781 
L 417.563458 -203.258781 
L 419.062427 -203.258781 
L 420.561397 -203.258781 
L 422.060367 -203.258781 
L 423.559336 -203.258781 
L 425.058306 -203.258781 
L 426.557276 -203.258781 
L 428.056245 -203.258781 
L 429.555215 -203.258781 
L 431.054185 -203.258781 
L 432.553154 -205.548483 
L 434.052124 -205.548483 
L 435.551094 -205.548483 
L 437.050063 -205.548483 
L 438.549033 -205.548483 
L 440.048003 -205.548483 
L 441.546972 -205.548483 
L 443.045942 -205.548483 
L 444.544912 -205.548483 
L 446.043881 -205.548483 
L 447.542851 -205.548483 
L 449.041821 -205.548483 
L 450.54079 -205.548483 
L 452.03976 -207.838186 
L 452.03976 -207.838186 
L 452.03976 -207.838186 
L 450.54079 -207.838186 
L 449.041821 -207.838186 
L 447.542851 -207.838186 
L 446.043881 -207.838186 
L 444.544912 -207.838186 
L 443.045942 -207.838186 
L 441.546972 -207.838186 
L 440.048003 -207.838186 
L 438.549033 -207.838186 
L 437.050063 -207.838186 
L 435.551094 -207.838186 
L 434.052124 -207.838186 
L 432.553154 -207.838186 
L 431.054185 -207.838186 
L 429.555215 -207.838186 
L 428.056245 -207.838186 
L 426.557276 -207.838186 
L 425.058306 -207.838186 
L 423.559336 -207.838186 
L 422.060367 -207.838186 
L 420.561397 -207.838186 
L 419.062427 -207.838186 
L 417.563458 -207.838186 
L 416.064488 -207.838186 
L 414.565518 -207.838186 
L 413.066549 -207.838186 
L 411.567579 -207.838186 
L 410.068609 -207.838186 
L 408.56964 -207.838186 
L 407.07067 -207.838186 
L 405.5717 -207.838186 
L 404.072731 -207.838186 
L 402.573761 -207.838186 
L 401.074791 -207.838186 
L 399.575822 -207.838186 
L 398.076852 -207.838186 
L 396.577882 -207.838186 
L 395.078913 -207.838186 
L 393.579943 -207.838186 
L 392.080973 -207.838186 
L 390.582004 -207.838186 
L 389.083034 -207.838186 
L 387.584064 -207.838186 
L 386.085095 -207.838186 
L 384.586125 -207.838186 
L 383.087155 -207.838186 
L 381.588186 -207.838186 
L 380.089216 -207.838186 
L 378.590246 -207.838186 
L 377.091277 -207.838186 
L 375.592307 -207.838186 
L 374.093337 -207.838186 
L 372.594368 -207.838186 
L 371.095398 -207.838186 
L 369.596428 -207.838186 
L 368.097459 -207.838186 
L 366.598489 -207.838186 
L 365.099519 -207.838186 
L 363.60055 -207.838186 
L 362.10158 -207.838186 
L 360.60261 -207.838186 
L 359.103641 -207.838186 
L 357.604671 -207.838186 
L 356.105701 -207.838186 
L 354.606732 -207.838186 
L 353.107762 -207.838186 
L 351.608792 -207.838186 
L 350.109823 -207.838186 
L 348.610853 -207.838186 
L 347.111883 -207.838186 
L 345.612914 -207.838186 
L 344.113944 -207.838186 
L 342.614974 -207.838186 
L 341.116005 -207.838186 
L 339.617035 -207.838186 
L 338.118065 -207.838186 
L 336.619096 -207.838186 
L 335.120126 -207.838186 
L 333.621156 -207.838186 
L 332.122187 -207.838186 
L 330.623217 -207.838186 
L 329.124247 -207.838186 
L 327.625278 -207.838186 
L 326.126308 -207.838186 
L 324.627338 -207.838186 
L 323.128369 -207.838186 
L 321.629399 -207.838186 
L 320.13043 -207.838186 
L 318.63146 -207.838186 
L 317.13249 -207.838186 
L 315.633521 -207.838186 
L 314.134551 -207.838186 
L 312.635581 -207.838186 
L 311.136612 -207.838186 
L 309.637642 -207.838186 
L 308.138672 -207.838186 
L 306.639703 -207.838186 
L 305.140733 -207.838186 
L 303.641763 -207.838186 
L 302.142794 -207.838186 
L 300.643824 -207.838186 
L 299.144854 -207.838186 
L 297.645885 -207.838186 
L 296.146915 -207.838186 
L 294.647945 -207.838186 
L 293.148976 -207.838186 
L 291.650006 -207.838186 
L 290.151036 -207.838186 
L 288.652067 -207.838186 
L 287.153097 -207.838186 
L 285.654127 -207.838186 
L 284.155158 -207.838186 
L 282.656188 -207.838186 
L 281.157218 -207.838186 
L 279.658249 -207.838186 
L 278.159279 -207.838186 
L 276.660309 -207.838186 
L 275.16134 -207.838186 
L 273.66237 -207.838186 
L 272.1634 -207.838186 
L 270.664431 -207.838186 
L 269.165461 -207.838186 
L 267.666491 -207.838186 
L 266.167522 -207.838186 
L 264.668552 -207.838186 
L 263.169582 -207.838186 
L 261.670613 -207.838186 
L 260.171643 -207.838186 
L 258.672673 -207.838186 
L 257.173704 -207.838186 
L 255.674734 -207.838186 
L 254.175764 -207.838186 
L 252.676795 -207.838186 
L 251.177825 -207.838186 
L 249.678855 -207.838186 
L 248.179886 -207.838186 
L 246.680916 -207.838186 
L 245.181946 -207.838186 
L 243.682977 -207.838186 
L 242.184007 -207.838186 
L 240.685037 -207.838186 
L 239.186068 -207.838186 
L 237.687098 -207.838186 
L 236.188128 -207.838186 
L 234.689159 -207.838186 
L 233.190189 -207.838186 
L 231.691219 -207.838186 
L 230.19225 -207.838186 
L 228.69328 -207.838186 
L 227.19431 -207.838186 
L 225.695341 -207.838186 
L 224.196371 -207.838186 
L 222.697401 -207.838186 
L 221.198432 -207.838186 
L 219.699462 -207.838186 
L 218.200492 -207.838186 
L 216.701523 -207.838186 
L 215.202553 -207.838186 
L 213.703583 -207.838186 
L 212.204614 -207.838186 
L 210.705644 -207.838186 
L 209.206674 -207.838186 
L 207.707705 -207.838186 
L 206.208735 -207.838186 
L 204.709765 -207.838186 
L 203.210796 -207.838186 
L 201.711826 -207.838186 
L 200.212856 -207.838186 
L 198.713887 -207.838186 
L 197.214917 -207.838186 
L 195.715947 -207.838186 
L 194.216978 -207.838186 
L 192.718008 -207.838186 
L 191.219038 -207.838186 
L 189.720069 -207.838186 
L 188.221099 -207.838186 
L 186.722129 -207.838186 
L 185.22316 -207.838186 
L 183.72419 -207.838186 
L 182.22522 -207.838186 
L 180.726251 -207.838186 
L 179.227281 -207.838186 
L 177.728311 -207.838186 
L 176.229342 -207.838186 
L 174.730372 -207.838186 
L 173.231402 -207.838186 
L 171.732433 -207.838186 
L 170.233463 -207.838186 
L 168.734493 -207.838186 
L 167.235524 -207.838186 
L 165.736554 -207.838186 
L 164.237584 -207.838186 
L 162.738615 -207.838186 
L 161.239645 -207.838186 
L 159.740675 -207.838186 
L 158.241706 -207.838186 
L 156.742736 -207.838186 
L 155.243766 -207.838186 
L 153.744797 -205.548483 
L 152.245827 -205.548483 
L 150.746857 -205.548483 
L 149.247888 -205.548483 
L 147.748918 -205.548483 
L 146.249948 -205.548483 
L 144.750979 -205.548483 
L 143.252009 -205.548483 
L 141.753039 -205.548483 
L 140.25407 -205.548483 
L 138.7551 -205.548483 
L 137.25613 -205.548483 
L 135.757161 -205.548483 
L 134.258191 -205.548483 
L 132.759221 -205.548483 
L 131.260252 -205.548483 
L 129.761282 -205.548483 
L 128.262312 -203.258781 
L 126.763343 -203.258781 
L 125.264373 -200.969078 
L 123.765403 -200.969078 
L 122.266434 -200.969078 
L 120.767464 -200.969078 
L 119.268494 -200.969078 
L 117.769525 -200.969078 
L 116.270555 -200.969078 
L 114.771585 -200.969078 
L 113.272616 -198.679375 
L 111.773646 -198.679375 
L 110.274676 -198.679375 
L 108.775707 -198.679375 
L 107.276737 -198.679375 
L 105.777767 -198.679375 
L 104.278798 -198.679375 
L 102.779828 -198.679375 
L 101.280858 -198.679375 
L 99.781889 -198.679375 
L 98.282919 -198.679375 
L 96.783949 -198.679375 
L 95.28498 -198.679375 
L 93.78601 -196.389672 
L 92.28704 -191.810267 
L 90.788071 -191.810267 
L 89.289101 -191.810267 
L 87.790131 -189.520564 
L 86.291162 -189.520564 
L 84.792192 -189.520564 
L 83.293222 -187.230861 
L 81.794253 -184.941158 
L 80.295283 -184.941158 
L 78.796313 -184.941158 
L 77.297344 -182.651455 
L 75.798374 -180.361753 
L 74.299404 -180.361753 
L 72.800435 -180.361753 
L 71.301465 -180.361753 
L 69.802495 -175.782347 
L 68.303526 -168.913239 
L 66.804556 -162.04413 
L 65.305586 -155.175022 
L 63.806617 -155.175022 
L 62.307647 -136.857399 
L 60.808677 -120.82948 
z
"/>
    </defs>
    <g clip-path="url(#pfef91c63c9)">
     <use xlink:href="#m0b1f163926" x="0" y="352.8" style="fill: #c7623c; fill-opacity: 0.18"/>
    </g>
   </g>
   <g id="FillBetweenPolyCollection_4">
    <defs>
     <path id="me8a88198c4" d="M 60.808677 -97.932452 
L 60.808677 -63.58691 
L 62.307647 -77.325126 
L 63.806617 -84.194235 
L 65.305586 -88.77364 
L 66.804556 -91.063343 
L 68.303526 -93.353046 
L 69.802495 -95.642749 
L 71.301465 -95.642749 
L 72.800435 -97.932452 
L 74.299404 -97.932452 
L 75.798374 -97.932452 
L 77.297344 -100.222154 
L 78.796313 -107.091263 
L 80.295283 -107.091263 
L 81.794253 -109.380966 
L 83.293222 -111.670668 
L 84.792192 -111.670668 
L 86.291162 -118.539777 
L 87.790131 -118.539777 
L 89.289101 -118.539777 
L 90.788071 -120.82948 
L 92.28704 -125.408885 
L 93.78601 -129.988291 
L 95.28498 -129.988291 
L 96.783949 -129.988291 
L 98.282919 -129.988291 
L 99.781889 -132.277994 
L 101.280858 -132.277994 
L 102.779828 -132.277994 
L 104.278798 -132.277994 
L 105.777767 -132.277994 
L 107.276737 -134.567697 
L 108.775707 -134.567697 
L 110.274676 -134.567697 
L 111.773646 -134.567697 
L 113.272616 -134.567697 
L 114.771585 -141.436805 
L 116.270555 -141.436805 
L 117.769525 -141.436805 
L 119.268494 -141.436805 
L 120.767464 -143.726508 
L 122.266434 -143.726508 
L 123.765403 -143.726508 
L 125.264373 -143.726508 
L 126.763343 -146.016211 
L 128.262312 -146.016211 
L 129.761282 -148.305913 
L 131.260252 -148.305913 
L 132.759221 -148.305913 
L 134.258191 -148.305913 
L 135.757161 -148.305913 
L 137.25613 -148.305913 
L 138.7551 -148.305913 
L 140.25407 -150.595616 
L 141.753039 -152.885319 
L 143.252009 -152.885319 
L 144.750979 -152.885319 
L 146.249948 -152.885319 
L 147.748918 -152.885319 
L 149.247888 -152.885319 
L 150.746857 -152.885319 
L 152.245827 -155.175022 
L 153.744797 -155.175022 
L 155.243766 -155.175022 
L 156.742736 -155.175022 
L 158.241706 -155.175022 
L 159.740675 -155.175022 
L 161.239645 -157.464725 
L 162.738615 -157.464725 
L 164.237584 -157.464725 
L 165.736554 -157.464725 
L 167.235524 -157.464725 
L 168.734493 -157.464725 
L 170.233463 -157.464725 
L 171.732433 -157.464725 
L 173.231402 -157.464725 
L 174.730372 -157.464725 
L 176.229342 -157.464725 
L 177.728311 -157.464725 
L 179.227281 -157.464725 
L 180.726251 -162.04413 
L 182.22522 -162.04413 
L 183.72419 -162.04413 
L 185.22316 -162.04413 
L 186.722129 -162.04413 
L 188.221099 -162.04413 
L 189.720069 -166.623536 
L 191.219038 -166.623536 
L 192.718008 -166.623536 
L 194.216978 -166.623536 
L 195.715947 -168.913239 
L 197.214917 -168.913239 
L 198.713887 -168.913239 
L 200.212856 -168.913239 
L 201.711826 -168.913239 
L 203.210796 -168.913239 
L 204.709765 -168.913239 
L 206.208735 -168.913239 
L 207.707705 -168.913239 
L 209.206674 -168.913239 
L 210.705644 -168.913239 
L 212.204614 -168.913239 
L 213.703583 -171.202941 
L 215.202553 -171.202941 
L 216.701523 -171.202941 
L 218.200492 -171.202941 
L 219.699462 -171.202941 
L 221.198432 -171.202941 
L 222.697401 -171.202941 
L 224.196371 -171.202941 
L 225.695341 -171.202941 
L 227.19431 -171.202941 
L 228.69328 -171.202941 
L 230.19225 -171.202941 
L 231.691219 -173.492644 
L 233.190189 -173.492644 
L 234.689159 -173.492644 
L 236.188128 -173.492644 
L 237.687098 -173.492644 
L 239.186068 -173.492644 
L 240.685037 -173.492644 
L 242.184007 -173.492644 
L 243.682977 -173.492644 
L 245.181946 -173.492644 
L 246.680916 -173.492644 
L 248.179886 -173.492644 
L 249.678855 -175.782347 
L 251.177825 -175.782347 
L 252.676795 -175.782347 
L 254.175764 -175.782347 
L 255.674734 -175.782347 
L 257.173704 -175.782347 
L 258.672673 -175.782347 
L 260.171643 -175.782347 
L 261.670613 -175.782347 
L 263.169582 -175.782347 
L 264.668552 -175.782347 
L 266.167522 -175.782347 
L 267.666491 -175.782347 
L 269.165461 -175.782347 
L 270.664431 -175.782347 
L 272.1634 -175.782347 
L 273.66237 -175.782347 
L 275.16134 -175.782347 
L 276.660309 -175.782347 
L 278.159279 -175.782347 
L 279.658249 -175.782347 
L 281.157218 -175.782347 
L 282.656188 -182.651455 
L 284.155158 -182.651455 
L 285.654127 -182.651455 
L 287.153097 -182.651455 
L 288.652067 -182.651455 
L 290.151036 -182.651455 
L 291.650006 -182.651455 
L 293.148976 -182.651455 
L 294.647945 -182.651455 
L 296.146915 -182.651455 
L 297.645885 -182.651455 
L 299.144854 -182.651455 
L 300.643824 -182.651455 
L 302.142794 -182.651455 
L 303.641763 -182.651455 
L 305.140733 -182.651455 
L 306.639703 -182.651455 
L 308.138672 -182.651455 
L 309.637642 -182.651455 
L 311.136612 -182.651455 
L 312.635581 -182.651455 
L 314.134551 -182.651455 
L 315.633521 -182.651455 
L 317.13249 -182.651455 
L 318.63146 -182.651455 
L 320.13043 -182.651455 
L 321.629399 -182.651455 
L 323.128369 -182.651455 
L 324.627338 -182.651455 
L 326.126308 -182.651455 
L 327.625278 -182.651455 
L 329.124247 -182.651455 
L 330.623217 -182.651455 
L 332.122187 -182.651455 
L 333.621156 -182.651455 
L 335.120126 -182.651455 
L 336.619096 -182.651455 
L 338.118065 -182.651455 
L 339.617035 -182.651455 
L 341.116005 -182.651455 
L 342.614974 -184.941158 
L 344.113944 -184.941158 
L 345.612914 -184.941158 
L 347.111883 -184.941158 
L 348.610853 -184.941158 
L 350.109823 -184.941158 
L 351.608792 -184.941158 
L 353.107762 -184.941158 
L 354.606732 -184.941158 
L 356.105701 -184.941158 
L 357.604671 -184.941158 
L 359.103641 -184.941158 
L 360.60261 -184.941158 
L 362.10158 -184.941158 
L 363.60055 -184.941158 
L 365.099519 -184.941158 
L 366.598489 -184.941158 
L 368.097459 -184.941158 
L 369.596428 -187.230861 
L 371.095398 -187.230861 
L 372.594368 -187.230861 
L 374.093337 -187.230861 
L 375.592307 -187.230861 
L 377.091277 -187.230861 
L 378.590246 -187.230861 
L 380.089216 -187.230861 
L 381.588186 -187.230861 
L 383.087155 -187.230861 
L 384.586125 -187.230861 
L 386.085095 -187.230861 
L 387.584064 -187.230861 
L 389.083034 -187.230861 
L 390.582004 -187.230861 
L 392.080973 -187.230861 
L 393.579943 -187.230861 
L 395.078913 -187.230861 
L 396.577882 -187.230861 
L 398.076852 -187.230861 
L 399.575822 -187.230861 
L 401.074791 -189.520564 
L 402.573761 -189.520564 
L 404.072731 -189.520564 
L 405.5717 -189.520564 
L 407.07067 -189.520564 
L 408.56964 -189.520564 
L 410.068609 -189.520564 
L 411.567579 -189.520564 
L 413.066549 -189.520564 
L 414.565518 -189.520564 
L 416.064488 -189.520564 
L 417.563458 -189.520564 
L 419.062427 -189.520564 
L 420.561397 -189.520564 
L 422.060367 -189.520564 
L 423.559336 -189.520564 
L 425.058306 -189.520564 
L 426.557276 -189.520564 
L 428.056245 -189.520564 
L 429.555215 -189.520564 
L 431.054185 -189.520564 
L 432.553154 -189.520564 
L 434.052124 -189.520564 
L 435.551094 -189.520564 
L 437.050063 -189.520564 
L 438.549033 -189.520564 
L 440.048003 -189.520564 
L 441.546972 -191.810267 
L 443.045942 -191.810267 
L 444.544912 -191.810267 
L 446.043881 -191.810267 
L 447.542851 -191.810267 
L 449.041821 -191.810267 
L 450.54079 -191.810267 
L 452.03976 -194.099969 
L 452.03976 -194.099969 
L 452.03976 -194.099969 
L 450.54079 -194.099969 
L 449.041821 -194.099969 
L 447.542851 -194.099969 
L 446.043881 -194.099969 
L 444.544912 -194.099969 
L 443.045942 -194.099969 
L 441.546972 -194.099969 
L 440.048003 -194.099969 
L 438.549033 -194.099969 
L 437.050063 -194.099969 
L 435.551094 -194.099969 
L 434.052124 -194.099969 
L 432.553154 -194.099969 
L 431.054185 -194.099969 
L 429.555215 -194.099969 
L 428.056245 -194.099969 
L 426.557276 -194.099969 
L 425.058306 -194.099969 
L 423.559336 -194.099969 
L 422.060367 -194.099969 
L 420.561397 -194.099969 
L 419.062427 -194.099969 
L 417.563458 -194.099969 
L 416.064488 -194.099969 
L 414.565518 -194.099969 
L 413.066549 -194.099969 
L 411.567579 -194.099969 
L 410.068609 -194.099969 
L 408.56964 -194.099969 
L 407.07067 -194.099969 
L 405.5717 -194.099969 
L 404.072731 -194.099969 
L 402.573761 -194.099969 
L 401.074791 -194.099969 
L 399.575822 -194.099969 
L 398.076852 -194.099969 
L 396.577882 -194.099969 
L 395.078913 -194.099969 
L 393.579943 -194.099969 
L 392.080973 -194.099969 
L 390.582004 -194.099969 
L 389.083034 -194.099969 
L 387.584064 -194.099969 
L 386.085095 -194.099969 
L 384.586125 -194.099969 
L 383.087155 -194.099969 
L 381.588186 -194.099969 
L 380.089216 -194.099969 
L 378.590246 -194.099969 
L 377.091277 -194.099969 
L 375.592307 -194.099969 
L 374.093337 -194.099969 
L 372.594368 -194.099969 
L 371.095398 -194.099969 
L 369.596428 -194.099969 
L 368.097459 -194.099969 
L 366.598489 -194.099969 
L 365.099519 -194.099969 
L 363.60055 -194.099969 
L 362.10158 -194.099969 
L 360.60261 -194.099969 
L 359.103641 -194.099969 
L 357.604671 -194.099969 
L 356.105701 -194.099969 
L 354.606732 -194.099969 
L 353.107762 -194.099969 
L 351.608792 -194.099969 
L 350.109823 -194.099969 
L 348.610853 -194.099969 
L 347.111883 -194.099969 
L 345.612914 -194.099969 
L 344.113944 -194.099969 
L 342.614974 -194.099969 
L 341.116005 -194.099969 
L 339.617035 -194.099969 
L 338.118065 -194.099969 
L 336.619096 -194.099969 
L 335.120126 -194.099969 
L 333.621156 -194.099969 
L 332.122187 -194.099969 
L 330.623217 -194.099969 
L 329.124247 -194.099969 
L 327.625278 -194.099969 
L 326.126308 -194.099969 
L 324.627338 -194.099969 
L 323.128369 -194.099969 
L 321.629399 -194.099969 
L 320.13043 -194.099969 
L 318.63146 -194.099969 
L 317.13249 -194.099969 
L 315.633521 -194.099969 
L 314.134551 -194.099969 
L 312.635581 -194.099969 
L 311.136612 -194.099969 
L 309.637642 -194.099969 
L 308.138672 -194.099969 
L 306.639703 -194.099969 
L 305.140733 -194.099969 
L 303.641763 -194.099969 
L 302.142794 -194.099969 
L 300.643824 -194.099969 
L 299.144854 -194.099969 
L 297.645885 -194.099969 
L 296.146915 -194.099969 
L 294.647945 -194.099969 
L 293.148976 -194.099969 
L 291.650006 -194.099969 
L 290.151036 -194.099969 
L 288.652067 -194.099969 
L 287.153097 -194.099969 
L 285.654127 -194.099969 
L 284.155158 -194.099969 
L 282.656188 -194.099969 
L 281.157218 -194.099969 
L 279.658249 -194.099969 
L 278.159279 -194.099969 
L 276.660309 -194.099969 
L 275.16134 -194.099969 
L 273.66237 -194.099969 
L 272.1634 -194.099969 
L 270.664431 -194.099969 
L 269.165461 -194.099969 
L 267.666491 -194.099969 
L 266.167522 -194.099969 
L 264.668552 -194.099969 
L 263.169582 -194.099969 
L 261.670613 -194.099969 
L 260.171643 -194.099969 
L 258.672673 -194.099969 
L 257.173704 -194.099969 
L 255.674734 -194.099969 
L 254.175764 -194.099969 
L 252.676795 -194.099969 
L 251.177825 -194.099969 
L 249.678855 -194.099969 
L 248.179886 -194.099969 
L 246.680916 -194.099969 
L 245.181946 -194.099969 
L 243.682977 -194.099969 
L 242.184007 -194.099969 
L 240.685037 -194.099969 
L 239.186068 -194.099969 
L 237.687098 -194.099969 
L 236.188128 -194.099969 
L 234.689159 -194.099969 
L 233.190189 -194.099969 
L 231.691219 -194.099969 
L 230.19225 -194.099969 
L 228.69328 -194.099969 
L 227.19431 -194.099969 
L 225.695341 -194.099969 
L 224.196371 -194.099969 
L 222.697401 -194.099969 
L 221.198432 -194.099969 
L 219.699462 -194.099969 
L 218.200492 -194.099969 
L 216.701523 -194.099969 
L 215.202553 -194.099969 
L 213.703583 -194.099969 
L 212.204614 -194.099969 
L 210.705644 -194.099969 
L 209.206674 -194.099969 
L 207.707705 -194.099969 
L 206.208735 -194.099969 
L 204.709765 -194.099969 
L 203.210796 -194.099969 
L 201.711826 -194.099969 
L 200.212856 -194.099969 
L 198.713887 -194.099969 
L 197.214917 -194.099969 
L 195.715947 -191.810267 
L 194.216978 -191.810267 
L 192.718008 -191.810267 
L 191.219038 -191.810267 
L 189.720069 -191.810267 
L 188.221099 -191.810267 
L 186.722129 -191.810267 
L 185.22316 -191.810267 
L 183.72419 -191.810267 
L 182.22522 -191.810267 
L 180.726251 -191.810267 
L 179.227281 -191.810267 
L 177.728311 -191.810267 
L 176.229342 -191.810267 
L 174.730372 -191.810267 
L 173.231402 -191.810267 
L 171.732433 -191.810267 
L 170.233463 -191.810267 
L 168.734493 -191.810267 
L 167.235524 -191.810267 
L 165.736554 -189.520564 
L 164.237584 -189.520564 
L 162.738615 -189.520564 
L 161.239645 -189.520564 
L 159.740675 -187.230861 
L 158.241706 -187.230861 
L 156.742736 -187.230861 
L 155.243766 -187.230861 
L 153.744797 -187.230861 
L 152.245827 -187.230861 
L 150.746857 -187.230861 
L 149.247888 -187.230861 
L 147.748918 -187.230861 
L 146.249948 -187.230861 
L 144.750979 -187.230861 
L 143.252009 -187.230861 
L 141.753039 -184.941158 
L 140.25407 -184.941158 
L 138.7551 -184.941158 
L 137.25613 -184.941158 
L 135.757161 -184.941158 
L 134.258191 -184.941158 
L 132.759221 -184.941158 
L 131.260252 -182.651455 
L 129.761282 -182.651455 
L 128.262312 -182.651455 
L 126.763343 -182.651455 
L 125.264373 -182.651455 
L 123.765403 -180.361753 
L 122.266434 -180.361753 
L 120.767464 -178.07205 
L 119.268494 -178.07205 
L 117.769525 -178.07205 
L 116.270555 -178.07205 
L 114.771585 -178.07205 
L 113.272616 -178.07205 
L 111.773646 -178.07205 
L 110.274676 -178.07205 
L 108.775707 -175.782347 
L 107.276737 -175.782347 
L 105.777767 -173.492644 
L 104.278798 -173.492644 
L 102.779828 -173.492644 
L 101.280858 -173.492644 
L 99.781889 -173.492644 
L 98.282919 -171.202941 
L 96.783949 -171.202941 
L 95.28498 -168.913239 
L 93.78601 -168.913239 
L 92.28704 -168.913239 
L 90.788071 -168.913239 
L 89.289101 -166.623536 
L 87.790131 -166.623536 
L 86.291162 -164.333833 
L 84.792192 -162.04413 
L 83.293222 -162.04413 
L 81.794253 -162.04413 
L 80.295283 -162.04413 
L 78.796313 -159.754427 
L 77.297344 -157.464725 
L 75.798374 -157.464725 
L 74.299404 -157.464725 
L 72.800435 -152.885319 
L 71.301465 -148.305913 
L 69.802495 -146.016211 
L 68.303526 -141.436805 
L 66.804556 -136.857399 
L 65.305586 -132.277994 
L 63.806617 -127.698588 
L 62.307647 -118.539777 
L 60.808677 -97.932452 
z
"/>
    </defs>
    <g clip-path="url(#pfef91c63c9)">
     <use xlink:href="#me8a88198c4" x="0" y="352.8" style="fill: #1f3a5f; fill-opacity: 0.18"/>
    </g>
   </g>
   <g id="matplotlib.axis_1">
    <g id="xtick_1">
     <g id="line2d_1">
      <path d="M 134.258191 305.24101 
L 134.258191 3.00024 
" clip-path="url(#pfef91c63c9)" style="fill: none; stroke: #cfc7ab; stroke-width: 0.5; stroke-linecap: square"/>
     </g>
     <g id="line2d_2">
      <defs>
       <path id="m787f0dcad8" d="M 0 0 
L 0 3.5 
" style="stroke: #1f1f1f; stroke-width: 0.8"/>
      </defs>
      <g>
       <use xlink:href="#m787f0dcad8" x="134.258191" y="305.24101" style="fill: #1f1f1f; stroke: #1f1f1f; stroke-width: 0.8"/>
      </g>
     </g>
     <g id="text_1">
      <text style="font-size: 18px; font-family: 'Arial', 'Liberation Sans', 'DejaVu Sans', sans-serif; text-anchor: middle; fill: #1f1f1f" x="134.258191" y="325.285385" transform="rotate(-0 134.258191 325.285385)">50</text>
     </g>
    </g>
    <g id="xtick_2">
     <g id="line2d_3">
      <path d="M 209.206674 305.24101 
L 209.206674 3.00024 
" clip-path="url(#pfef91c63c9)" style="fill: none; stroke: #cfc7ab; stroke-width: 0.5; stroke-linecap: square"/>
     </g>
     <g id="line2d_4">
      <g>
       <use xlink:href="#m787f0dcad8" x="209.206674" y="305.24101" style="fill: #1f1f1f; stroke: #1f1f1f; stroke-width: 0.8"/>
      </g>
     </g>
     <g id="text_2">
      <text style="font-size: 18px; font-family: 'Arial', 'Liberation Sans', 'DejaVu Sans', sans-serif; text-anchor: middle; fill: #1f1f1f" x="209.206674" y="325.285385" transform="rotate(-0 209.206674 325.285385)">100</text>
     </g>
    </g>
    <g id="xtick_3">
     <g id="line2d_5">
      <path d="M 284.155158 305.24101 
L 284.155158 3.00024 
" clip-path="url(#pfef91c63c9)" style="fill: none; stroke: #cfc7ab; stroke-width: 0.5; stroke-linecap: square"/>
     </g>
     <g id="line2d_6">
      <g>
       <use xlink:href="#m787f0dcad8" x="284.155158" y="305.24101" style="fill: #1f1f1f; stroke: #1f1f1f; stroke-width: 0.8"/>
      </g>
     </g>
     <g id="text_3">
      <text style="font-size: 18px; font-family: 'Arial', 'Liberation Sans', 'DejaVu Sans', sans-serif; text-anchor: middle; fill: #1f1f1f" x="284.155158" y="325.285385" transform="rotate(-0 284.155158 325.285385)">150</text>
     </g>
    </g>
    <g id="xtick_4">
     <g id="line2d_7">
      <path d="M 359.103641 305.24101 
L 359.103641 3.00024 
" clip-path="url(#pfef91c63c9)" style="fill: none; stroke: #cfc7ab; stroke-width: 0.5; stroke-linecap: square"/>
     </g>
     <g id="line2d_8">
      <g>
       <use xlink:href="#m787f0dcad8" x="359.103641" y="305.24101" style="fill: #1f1f1f; stroke: #1f1f1f; stroke-width: 0.8"/>
      </g>
     </g>
     <g id="text_4">
      <text style="font-size: 18px; font-family: 'Arial', 'Liberation Sans', 'DejaVu Sans', sans-serif; text-anchor: middle; fill: #1f1f1f" x="359.103641" y="325.285385" transform="rotate(-0 359.103641 325.285385)">200</text>
     </g>
    </g>
    <g id="xtick_5">
     <g id="line2d_9">
      <path d="M 434.052124 305.24101 
L 434.052124 3.00024 
" clip-path="url(#pfef91c63c9)" style="fill: none; stroke: #cfc7ab; stroke-width: 0.5; stroke-linecap: square"/>
     </g>
     <g id="line2d_10">
      <g>
       <use xlink:href="#m787f0dcad8" x="434.052124" y="305.24101" style="fill: #1f1f1f; stroke: #1f1f1f; stroke-width: 0.8"/>
      </g>
     </g>
     <g id="text_5">
      <text style="font-size: 18px; font-family: 'Arial', 'Liberation Sans', 'DejaVu Sans', sans-serif; text-anchor: middle; fill: #1f1f1f" x="434.052124" y="325.285385" transform="rotate(-0 434.052124 325.285385)">250</text>
     </g>
    </g>
    <g id="text_6">
     <text style="font-size: 18px; font-family: 'Arial', 'Liberation Sans', 'DejaVu Sans', sans-serif; text-anchor: middle; fill: #1f1f1f" x="256.424219" y="346.06476" transform="rotate(-0 256.424219 346.06476)">Arrays sampled</text>
    </g>
   </g>
   <g id="matplotlib.axis_2">
    <g id="ytick_1">
     <g id="line2d_11">
      <path d="M 60.808677 291.502793 
L 452.03976 291.502793 
" clip-path="url(#pfef91c63c9)" style="fill: none; stroke: #cfc7ab; stroke-width: 0.5; stroke-linecap: square"/>
     </g>
     <g id="line2d_12">
      <defs>
       <path id="m82b19e1274" d="M 0 0 
L -3.5 0 
" style="stroke: #1f1f1f; stroke-width: 0.8"/>
      </defs>
      <g>
       <use xlink:href="#m82b19e1274" x="60.808677" y="291.502793" style="fill: #1f1f1f; stroke: #1f1f1f; stroke-width: 0.8"/>
      </g>
     </g>
     <g id="text_7">
      <text style="font-size: 18px; font-family: 'Arial', 'Liberation Sans', 'DejaVu Sans', sans-serif; text-anchor: end; fill: #1f1f1f" x="53.808677" y="298.024981" transform="rotate(-0 53.808677 298.024981)">0</text>
     </g>
    </g>
    <g id="ytick_2">
     <g id="line2d_13">
      <path d="M 60.808677 245.708737 
L 452.03976 245.708737 
" clip-path="url(#pfef91c63c9)" style="fill: none; stroke: #cfc7ab; stroke-width: 0.5; stroke-linecap: square"/>
     </g>
     <g id="line2d_14">
      <g>
       <use xlink:href="#m82b19e1274" x="60.808677" y="245.708737" style="fill: #1f1f1f; stroke: #1f1f1f; stroke-width: 0.8"/>
      </g>
     </g>
     <g id="text_8">
      <text style="font-size: 18px; font-family: 'Arial', 'Liberation Sans', 'DejaVu Sans', sans-serif; text-anchor: end; fill: #1f1f1f" x="53.808677" y="252.230925" transform="rotate(-0 53.808677 252.230925)">20</text>
     </g>
    </g>
    <g id="ytick_3">
     <g id="line2d_15">
      <path d="M 60.808677 199.914681 
L 452.03976 199.914681 
" clip-path="url(#pfef91c63c9)" style="fill: none; stroke: #cfc7ab; stroke-width: 0.5; stroke-linecap: square"/>
     </g>
     <g id="line2d_16">
      <g>
       <use xlink:href="#m82b19e1274" x="60.808677" y="199.914681" style="fill: #1f1f1f; stroke: #1f1f1f; stroke-width: 0.8"/>
      </g>
     </g>
     <g id="text_9">
      <text style="font-size: 18px; font-family: 'Arial', 'Liberation Sans', 'DejaVu Sans', sans-serif; text-anchor: end; fill: #1f1f1f" x="53.808677" y="206.436869" transform="rotate(-0 53.808677 206.436869)">40</text>
     </g>
    </g>
    <g id="ytick_4">
     <g id="line2d_17">
      <path d="M 60.808677 154.120625 
L 452.03976 154.120625 
" clip-path="url(#pfef91c63c9)" style="fill: none; stroke: #cfc7ab; stroke-width: 0.5; stroke-linecap: square"/>
     </g>
     <g id="line2d_18">
      <g>
       <use xlink:href="#m82b19e1274" x="60.808677" y="154.120625" style="fill: #1f1f1f; stroke: #1f1f1f; stroke-width: 0.8"/>
      </g>
     </g>
     <g id="text_10">
      <text style="font-size: 18px; font-family: 'Arial', 'Liberation Sans', 'DejaVu Sans', sans-serif; text-anchor: end; fill: #1f1f1f" x="53.808677" y="160.642812" transform="rotate(-0 53.808677 160.642812)">60</text>
     </g>
    </g>
    <g id="ytick_5">
     <g id="line2d_19">
      <path d="M 60.808677 108.326569 
L 452.03976 108.326569 
" clip-path="url(#pfef91c63c9)" style="fill: none; stroke: #cfc7ab; stroke-width: 0.5; stroke-linecap: square"/>
     </g>
     <g id="line2d_20">
      <g>
       <use xlink:href="#m82b19e1274" x="60.808677" y="108.326569" style="fill: #1f1f1f; stroke: #1f1f1f; stroke-width: 0.8"/>
      </g>
     </g>
     <g id="text_11">
      <text style="font-size: 18px; font-family: 'Arial', 'Liberation Sans', 'DejaVu Sans', sans-serif; text-anchor: end; fill: #1f1f1f" x="53.808677" y="114.848756" transform="rotate(-0 53.808677 114.848756)">80</text>
     </g>
    </g>
    <g id="ytick_6">
     <g id="line2d_21">
      <path d="M 60.808677 62.532513 
L 452.03976 62.532513 
" clip-path="url(#pfef91c63c9)" style="fill: none; stroke: #cfc7ab; stroke-width: 0.5; stroke-linecap: square"/>
     </g>
     <g id="line2d_22">
      <g>
       <use xlink:href="#m82b19e1274" x="60.808677" y="62.532513" style="fill: #1f1f1f; stroke: #1f1f1f; stroke-width: 0.8"/>
      </g>
     </g>
     <g id="text_12">
      <text style="font-size: 18px; font-family: 'Arial', 'Liberation Sans', 'DejaVu Sans', sans-serif; text-anchor: end; fill: #1f1f1f" x="53.808677" y="69.0547" transform="rotate(-0 53.808677 69.0547)">100</text>
     </g>
    </g>
    <g id="ytick_7">
     <g id="line2d_23">
      <path d="M 60.808677 16.738457 
L 452.03976 16.738457 
" clip-path="url(#pfef91c63c9)" style="fill: none; stroke: #cfc7ab; stroke-width: 0.5; stroke-linecap: square"/>
     </g>
     <g id="line2d_24">
      <g>
       <use xlink:href="#m82b19e1274" x="60.808677" y="16.738457" style="fill: #1f1f1f; stroke: #1f1f1f; stroke-width: 0.8"/>
      </g>
     </g>
     <g id="text_13">
      <text style="font-size: 18px; font-family: 'Arial', 'Liberation Sans', 'DejaVu Sans', sans-serif; text-anchor: end; fill: #1f1f1f" x="53.808677" y="23.260644" transform="rotate(-0 53.808677 23.260644)">120</text>
     </g>
    </g>
    <g id="text_14">
     <text style="font-size: 18px; font-family: 'Arial', 'Liberation Sans', 'DejaVu Sans', sans-serif; text-anchor: middle; fill: #1f1f1f" x="16.044615" y="154.120625" transform="rotate(-90 16.044615 154.120625)">Cumulative species</text>
    </g>
   </g>
   <g id="line2d_25">
    <path d="M 60.808677 247.082559 
L 62.307647 224.42595 
L 63.806617 209.691712 
L 66.804556 188.13416 
L 68.303526 178.872312 
L 69.802495 171.11022 
L 71.301465 165.420308 
L 72.800435 158.940449 
L 74.299404 153.536751 
L 77.297344 143.839859 
L 81.794253 130.994627 
L 83.293222 127.27386 
L 84.792192 122.980667 
L 86.291162 119.935362 
L 87.790131 117.611314 
L 92.28704 109.32259 
L 96.783949 102.842731 
L 99.781889 98.515192 
L 102.779828 94.37083 
L 104.278798 92.687899 
L 105.777767 91.256835 
L 107.276737 89.276242 
L 108.775707 87.604759 
L 110.274676 86.162246 
L 116.270555 81.193591 
L 120.767464 78.308565 
L 123.765403 75.847135 
L 126.763343 74.221446 
L 128.262312 73.694814 
L 129.761282 72.767484 
L 132.759221 70.580818 
L 137.25613 68.371255 
L 138.7551 67.443925 
L 140.25407 66.196037 
L 141.753039 65.154223 
L 143.252009 64.513106 
L 144.750979 63.643019 
L 146.249948 63.150733 
L 147.748918 62.314991 
L 150.746857 60.975515 
L 153.744797 59.521554 
L 156.742736 58.204975 
L 158.241706 57.70124 
L 159.740675 56.705219 
L 161.239645 56.109897 
L 162.738615 55.354295 
L 165.736554 54.23234 
L 170.233463 52.606651 
L 173.231402 51.851049 
L 180.726251 49.22934 
L 182.22522 48.634017 
L 183.72419 47.91276 
L 185.22316 47.431923 
L 186.722129 46.802255 
L 195.715947 44.352273 
L 197.214917 44.054611 
L 200.212856 43.184524 
L 201.711826 42.898311 
L 204.709765 42.474716 
L 206.208735 42.222849 
L 207.707705 41.75346 
L 209.206674 41.146689 
L 210.705644 40.837579 
L 212.204614 40.322396 
L 218.200492 39.13175 
L 225.695341 37.82662 
L 228.69328 37.219848 
L 231.691219 36.521489 
L 236.188128 35.731542 
L 237.687098 35.399535 
L 245.181946 34.323374 
L 249.678855 33.693706 
L 251.177825 33.556324 
L 254.175764 33.12128 
L 257.173704 32.766376 
L 260.171643 32.319884 
L 269.165461 31.220827 
L 272.1634 30.900269 
L 275.16134 30.545365 
L 281.157218 29.904248 
L 284.155158 29.411962 
L 287.153097 29.022712 
L 297.645885 27.832067 
L 305.140733 27.179502 
L 308.138672 26.96198 
L 309.637642 26.88184 
L 312.635581 26.57273 
L 315.633521 26.240723 
L 323.128369 25.427879 
L 326.126308 25.164563 
L 332.122187 24.443307 
L 338.118065 23.905227 
L 342.614974 23.49308 
L 345.612914 23.275558 
L 356.105701 22.405471 
L 360.60261 22.096361 
L 365.099519 21.615524 
L 371.095398 21.329311 
L 378.590246 20.779782 
L 383.087155 20.447775 
L 392.080973 19.886798 
L 393.579943 19.703622 
L 399.575822 19.508997 
L 410.068609 18.925123 
L 416.064488 18.71905 
L 422.060367 18.352697 
L 423.559336 18.306903 
L 426.557276 18.077933 
L 431.054185 17.848963 
L 434.052124 17.654338 
L 437.050063 17.48261 
L 447.542851 17.036118 
L 452.03976 16.738457 
L 452.03976 16.738457 
" clip-path="url(#pfef91c63c9)" style="fill: none; stroke-dasharray: 5.92,2.56; stroke-dashoffset: 0; stroke: #c7623c; stroke-width: 1.6"/>
   </g>
   <g id="line2d_26">
    <path d="M 60.808677 267.41512 
L 62.307647 254.77596 
L 63.806617 245.834671 
L 66.804556 233.149717 
L 69.802495 222.937643 
L 74.299404 213.02323 
L 80.295283 201.265606 
L 81.794253 198.472168 
L 83.293222 196.159568 
L 84.792192 193.37758 
L 87.790131 189.576673 
L 89.289101 188.076918 
L 90.788071 186.199361 
L 96.783949 180.097303 
L 99.781889 177.338211 
L 105.777767 172.930534 
L 108.775707 170.377515 
L 111.773646 168.671686 
L 117.769525 165.351617 
L 119.268494 164.389942 
L 120.767464 163.806068 
L 122.266434 162.86729 
L 123.765403 161.779681 
L 125.264373 161.001182 
L 126.763343 160.394411 
L 129.761282 159.364044 
L 131.260252 158.642788 
L 134.258191 156.914062 
L 135.757161 156.330188 
L 137.25613 155.39141 
L 138.7551 154.761742 
L 141.753039 152.987222 
L 153.744797 148.373471 
L 155.243766 147.698009 
L 158.241706 146.667642 
L 159.740675 145.877695 
L 162.738615 144.687049 
L 165.736554 143.816962 
L 170.233463 142.099685 
L 174.730372 141.012076 
L 176.229342 140.531239 
L 177.728311 139.901571 
L 182.22522 138.745271 
L 183.72419 138.161396 
L 188.221099 136.90206 
L 191.219038 136.043421 
L 192.718008 135.768657 
L 195.715947 135.047401 
L 197.214917 134.795533 
L 203.210796 133.353021 
L 206.208735 132.792043 
L 212.204614 131.349531 
L 215.202553 130.765656 
L 218.200492 129.987157 
L 230.19225 127.376896 
L 231.691219 127.159374 
L 233.190189 126.793022 
L 234.689159 126.609846 
L 236.188128 126.300736 
L 239.186068 125.545134 
L 240.685037 125.350509 
L 242.184007 124.96126 
L 261.670613 121.938852 
L 270.664431 120.942831 
L 272.1634 120.851243 
L 278.159279 119.946811 
L 281.157218 119.523216 
L 284.155158 118.95079 
L 288.652067 118.458504 
L 305.140733 116.615293 
L 309.637642 116.214595 
L 333.621156 113.741716 
L 338.118065 113.260878 
L 342.614974 112.837283 
L 350.109823 112.196167 
L 357.604671 111.86416 
L 362.10158 111.532153 
L 374.093337 110.742205 
L 377.091277 110.467441 
L 378.590246 110.421647 
L 381.588186 110.123986 
L 386.085095 109.826324 
L 420.561397 107.799937 
L 423.559336 107.685452 
L 431.054185 107.216063 
L 452.03976 106.036866 
L 452.03976 106.036866 
" clip-path="url(#pfef91c63c9)" style="fill: none; stroke-dasharray: 5.92,2.56; stroke-dashoffset: 0; stroke: #1f3a5f; stroke-width: 1.6"/>
   </g>
   <g id="line2d_27">
    <path d="M 60.808677 257.363324 
L 62.307647 242.022316 
L 63.806617 232.760468 
L 66.804556 219.686265 
L 68.303526 214.259669 
L 69.802495 209.7833 
L 71.301465 206.554819 
L 72.800435 202.971434 
L 75.798374 197.441802 
L 77.297344 194.957474 
L 84.792192 184.51643 
L 86.291162 183.142608 
L 87.790131 182.054999 
L 89.289101 180.601038 
L 92.28704 178.185401 
L 95.28498 176.296397 
L 98.282919 174.132627 
L 102.779828 171.281948 
L 104.278798 170.57214 
L 105.777767 170.045508 
L 108.775707 168.602995 
L 113.272616 166.942961 
L 114.771585 166.56516 
L 116.270555 166.038528 
L 122.266434 164.56167 
L 125.264373 163.680134 
L 126.763343 163.382473 
L 128.262312 163.199297 
L 134.258191 161.573608 
L 138.7551 160.669175 
L 141.753039 159.833433 
L 147.748918 158.734376 
L 149.247888 158.585545 
L 152.245827 158.01312 
L 161.239645 156.604953 
L 164.237584 156.135563 
L 167.235524 155.746314 
L 170.233463 155.425756 
L 173.231402 155.219682 
L 182.22522 154.097728 
L 188.221099 153.273435 
L 195.715947 152.666664 
L 200.212856 152.265966 
L 203.210796 152.08279 
L 207.707705 151.853819 
L 212.204614 151.430224 
L 228.69328 150.457101 
L 231.691219 150.205233 
L 248.179886 149.483977 
L 254.175764 149.163418 
L 272.1634 148.53375 
L 278.159279 148.30478 
L 284.155158 148.052913 
L 287.153097 147.926979 
L 294.647945 147.652215 
L 308.138672 147.331656 
L 317.13249 147.171377 
L 324.627338 146.930958 
L 330.623217 146.667642 
L 371.095398 145.946386 
L 384.586125 145.717416 
L 395.078913 145.614379 
L 419.062427 145.339615 
L 428.056245 145.22513 
L 452.03976 144.961814 
L 452.03976 144.961814 
" clip-path="url(#pfef91c63c9)" style="fill: none; stroke: #c7623c; stroke-width: 2.4; stroke-linecap: square"/>
   </g>
   <g id="line2d_28">
    <path d="M 60.808677 269.25833 
L 62.307647 258.439485 
L 63.806617 251.295612 
L 65.305586 245.960604 
L 66.804556 241.186574 
L 69.802495 233.309996 
L 77.297344 220.819668 
L 78.796313 218.472722 
L 84.792192 210.516005 
L 87.790131 207.539391 
L 89.289101 206.463231 
L 90.788071 205.089409 
L 99.781889 198.620999 
L 108.775707 193.480616 
L 113.272616 191.717545 
L 114.771585 191.339744 
L 119.268494 189.51943 
L 120.767464 189.130181 
L 123.765403 187.779256 
L 126.763343 186.851927 
L 129.761282 186.187913 
L 132.759221 185.100304 
L 134.258191 184.482084 
L 135.757161 184.092835 
L 137.25613 183.428821 
L 140.25407 182.387006 
L 141.753039 181.848926 
L 149.247888 180.040061 
L 152.245827 179.398944 
L 155.243766 178.689136 
L 158.241706 178.059468 
L 159.740675 177.498491 
L 162.738615 176.742889 
L 165.736554 176.239154 
L 170.233463 175.197339 
L 174.730372 174.670708 
L 176.229342 174.41884 
L 177.728311 174.029591 
L 180.726251 173.594547 
L 182.22522 173.365577 
L 183.72419 172.999225 
L 185.22316 172.861842 
L 189.720069 172.094792 
L 191.219038 171.900167 
L 192.718008 171.831476 
L 195.715947 171.396433 
L 198.713887 171.064426 
L 201.711826 170.640831 
L 204.709765 170.388963 
L 207.707705 170.068405 
L 210.705644 169.599016 
L 236.188128 167.045997 
L 239.186068 166.553711 
L 242.184007 166.267498 
L 264.668552 164.618912 
L 275.16134 164.046487 
L 278.159279 163.771722 
L 281.157218 163.577098 
L 285.654127 163.267988 
L 306.639703 162.386452 
L 314.134551 162.16893 
L 338.118065 161.161461 
L 344.113944 160.989733 
L 347.111883 160.840903 
L 354.606732 160.680624 
L 371.095398 160.348617 
L 377.091277 160.188337 
L 384.586125 160.039507 
L 416.064488 159.39839 
L 422.060367 159.31825 
L 452.03976 158.700031 
L 452.03976 158.700031 
" clip-path="url(#pfef91c63c9)" style="fill: none; stroke: #1f3a5f; stroke-width: 2.4; stroke-linecap: square"/>
   </g>
   <g id="patch_3">
    <path d="M 60.808677 305.24101 
L 60.808677 3.00024 
" style="fill: none; stroke: #1f1f1f; stroke-width: 0.8; stroke-linejoin: miter; stroke-linecap: square"/>
   </g>
   <g id="patch_4">
    <path d="M 452.03976 305.24101 
L 452.03976 3.00024 
" style="fill: none; stroke: #1f1f1f; stroke-width: 0.8; stroke-linejoin: miter; stroke-linecap: square"/>
   </g>
   <g id="patch_5">
    <path d="M 60.808677 305.24101 
L 452.03976 305.24101 
" style="fill: none; stroke: #1f1f1f; stroke-width: 0.8; stroke-linejoin: miter; stroke-linecap: square"/>
   </g>
   <g id="patch_6">
    <path d="M 60.808677 3.00024 
L 452.03976 3.00024 
" style="fill: none; stroke: #1f1f1f; stroke-width: 0.8; stroke-linejoin: miter; stroke-linecap: square"/>
   </g>
   <g id="patch_7">
    <path d="M 452.03976 102.921282 
Q 452.03976 61.389297 452.03976 19.857313 
" style="fill: none; stroke: #c7623c; stroke-linecap: round"/>
    <path d="M 455.63976 95.721282 
L 452.03976 102.921282 
L 448.43976 95.721282 
" style="fill: none; stroke: #c7623c; stroke-linecap: round"/>
    <path d="M 448.43976 27.057313 
L 452.03976 19.857313 
L 455.63976 27.057313 
" style="fill: none; stroke: #c7623c; stroke-linecap: round"/>
   </g>
   <g id="text_15">
    <text style="font-style: italic; font-size: 13px; font-family: 'Arial', 'Liberation Sans', 'DejaVu Sans', sans-serif; text-anchor: end; fill: #c7623c" x="402.03976" y="64.74938" transform="rotate(-0 402.03976 64.74938)">gap = 39</text>
   </g>
   <g id="patch_8">
    <path d="M 452.03976 155.579625 
Q 452.03976 151.831122 452.03976 148.08262 
" style="fill: none; stroke: #c7623c; stroke-linecap: round"/>
    <path d="M 455.63976 148.379625 
L 452.03976 155.579625 
L 448.43976 148.379625 
" style="fill: none; stroke: #c7623c; stroke-linecap: round"/>
    <path d="M 448.43976 155.28262 
L 452.03976 148.08262 
L 455.63976 155.28262 
" style="fill: none; stroke: #c7623c; stroke-linecap: round"/>
   </g>
   <g id="text_16">
    <text style="font-style: italic; font-size: 13px; font-family: 'Arial', 'Liberation Sans', 'DejaVu Sans', sans-serif; text-anchor: end; fill: #c7623c" x="402.03976" y="155.192641" transform="rotate(-0 402.03976 155.192641)">gap = 6</text>
   </g>
   <g id="legend_1">
    <g id="line2d_29">
     <path d="M 269.904604 218.930072 
L 284.904604 218.930072 
L 299.904604 218.930072 
" style="fill: none; stroke-dasharray: 5.92,2.56; stroke-dashoffset: 0; stroke: #c7623c; stroke-width: 1.6"/>
    </g>
    <g id="text_17">
     <text style="font-size: 15px; font-family: 'Arial', 'Liberation Sans', 'DejaVu Sans', sans-serif; text-anchor: start; fill: #1f1f1f" x="311.904604" y="224.180072" transform="rotate(-0 311.904604 224.180072)">IUCN ≥100g (120)</text>
    </g>
    <g id="line2d_30">
     <path d="M 269.904604 240.412885 
L 284.904604 240.412885 
L 299.904604 240.412885 
" style="fill: none; stroke-dasharray: 5.92,2.56; stroke-dashoffset: 0; stroke: #1f3a5f; stroke-width: 1.6"/>
    </g>
    <g id="text_18">
     <text style="font-size: 15px; font-family: 'Arial', 'Liberation Sans', 'DejaVu Sans', sans-serif; text-anchor: start; fill: #1f1f1f" x="311.904604" y="245.662885" transform="rotate(-0 311.904604 245.662885)">SSUSA ≥100g (81)</text>
    </g>
    <g id="line2d_31">
     <path d="M 269.904604 261.895697 
L 284.904604 261.895697 
L 299.904604 261.895697 
" style="fill: none; stroke: #c7623c; stroke-width: 2.4; stroke-linecap: square"/>
    </g>
    <g id="text_19">
     <text style="font-size: 15px; font-family: 'Arial', 'Liberation Sans', 'DejaVu Sans', sans-serif; text-anchor: start; fill: #1f1f1f" x="311.904604" y="267.145697" transform="rotate(-0 311.904604 267.145697)">IUCN ≥500g (64)</text>
    </g>
    <g id="line2d_32">
     <path d="M 269.904604 283.37851 
L 284.904604 283.37851 
L 299.904604 283.37851 
" style="fill: none; stroke: #1f3a5f; stroke-width: 2.4; stroke-linecap: square"/>
    </g>
    <g id="text_20">
     <text style="font-size: 15px; font-family: 'Arial', 'Liberation Sans', 'DejaVu Sans', sans-serif; text-anchor: start; fill: #1f1f1f" x="311.904604" y="288.62851" transform="rotate(-0 311.904604 288.62851)">SSUSA ≥500g (58)</text>
    </g>
   </g>
  </g>
 </g>
 <defs>
  <clipPath id="pfef91c63c9">
   <rect x="60.808677" y="3.00024" width="391.231083" height="302.24077"/>
  </clipPath>
 </defs>
</svg>
