<?xml version="1.0" encoding="utf-8" standalone="no"?>
<!DOCTYPE svg PUBLIC "-//W3C//DTD SVG 1.1//EN"
  "http://www.w3.org/Graphics/SVG/1.1/DTD/svg11.dtd">
<svg xmlns:xlink="http://www.w3.org/1999/xlink" width="756pt" height="244.8pt" viewBox="0 0 756 244.8" xmlns="http://www.w3.org/2000/svg" version="1.1">
 <metadata>
  <rdf:RDF xmlns:dc="http://purl.org/dc/elements/1.1/" xmlns:cc="http://creativecommons.org/ns#" xmlns:rdf="http://www.w3.org/1999/02/22-rdf-syntax-ns#">
   <cc:Work>
    <dc:type rdf:resource="http://purl.org/dc/dcmitype/StillImage"/>
    <dc:date>2026-05-05T06:39:07.959749</dc:date>
    <dc:format>image/svg+xml</dc:format>
    <dc:creator>
     <cc:Agent>
      <dc:title>Matplotlib v3.10.9, https://matplotlib.org/</dc:title>
     </cc:Agent>
    </dc:creator>
   </cc:Work>
  </rdf:RDF>
 </metadata>
 <defs>
  <style type="text/css">*{stroke-linejoin: round; stroke-linecap: butt}</style>
 </defs>
 <g id="figure_1">
  <g id="patch_1">
   <path d="M 0 244.8 
L 756 244.8 
L 756 0 
L 0 0 
L 0 244.8 
z
" style="fill: none"/>
  </g>
  <g id="axes_1">
   <g id="patch_2">
    <path d="M 81.472115 211.44351 
L 276.981174 211.44351 
L 276.981174 34.972751 
L 81.472115 34.972751 
L 81.472115 211.44351 
z
" style="fill: none"/>
   </g>
   <g id="patch_3">
    <path d="M 81.472115 203.422112 
L 111.181459 203.422112 
L 111.181459 157.585551 
L 81.472115 157.585551 
z
" clip-path="url(#p45224e4bf7)" style="fill: #3f6b3a; stroke: #1f1f1f; stroke-width: 0.3; stroke-linejoin: miter"/>
   </g>
   <g id="patch_4">
    <path d="M 81.472115 146.126411 
L 209.783384 146.126411 
L 209.783384 100.28985 
L 81.472115 100.28985 
z
" clip-path="url(#p45224e4bf7)" style="fill: #3f6b3a; stroke: #1f1f1f; stroke-width: 0.3; stroke-linejoin: miter"/>
   </g>
   <g id="patch_5">
    <path d="M 81.472115 88.83071 
L 267.671219 88.83071 
L 267.671219 42.994149 
L 81.472115 42.994149 
z
" clip-path="url(#p45224e4bf7)" style="fill: #3f6b3a; stroke: #1f1f1f; stroke-width: 0.3; stroke-linejoin: miter"/>
   </g>
   <g id="matplotlib.axis_1">
    <g id="xtick_1">
     <g id="line2d_1">
      <path d="M 81.472115 211.44351 
L 81.472115 34.972751 
" clip-path="url(#p45224e4bf7)" style="fill: none; stroke: #cfc7ab; stroke-width: 0.5; stroke-linecap: square"/>
     </g>
     <g id="line2d_2">
      <defs>
       <path id="m787f0dcad8" d="M 0 0 
L 0 3.5 
" style="stroke: #1f1f1f; stroke-width: 0.8"/>
      </defs>
      <g>
       <use xlink:href="#m787f0dcad8" x="81.472115" y="211.44351" style="fill: #1f1f1f; stroke: #1f1f1f; stroke-width: 0.8"/>
      </g>
     </g>
     <g id="text_1">
      <!-- 0.0 -->
      <g style="fill: #1f1f1f" transform="translate(72.725396 226.801791) scale(0.11 -0.11)">
       <defs>
        <path id="DejaVuSerif-30" d="M 2034 219 
Q 2513 219 2750 744 
Q 2988 1269 2988 2328 
Q 2988 3391 2750 3916 
Q 2513 4441 2034 4441 
Q 1556 4441 1318 3916 
Q 1081 3391 1081 2328 
Q 1081 1269 1318 744 
Q 1556 219 2034 219 
z
M 2034 -91 
Q 1275 -91 848 546 
Q 422 1184 422 2328 
Q 422 3475 848 4112 
Q 1275 4750 2034 4750 
Q 2797 4750 3222 4112 
Q 3647 3475 3647 2328 
Q 3647 1184 3222 546 
Q 2797 -91 2034 -91 
z
" transform="scale(0.015625)"/>
        <path id="DejaVuSerif-2e" d="M 603 325 
Q 603 500 722 622 
Q 841 744 1019 744 
Q 1191 744 1312 622 
Q 1434 500 1434 325 
Q 1434 153 1312 31 
Q 1191 -91 1019 -91 
Q 841 -91 722 29 
Q 603 150 603 325 
z
" transform="scale(0.015625)"/>
       </defs>
       <use xlink:href="#DejaVuSerif-30"/>
       <use xlink:href="#DejaVuSerif-2e" transform="translate(63.623047 0)"/>
       <use xlink:href="#DejaVuSerif-30" transform="translate(95.410156 0)"/>
      </g>
     </g>
    </g>
    <g id="xtick_2">
     <g id="line2d_3">
      <path d="M 154.746179 211.44351 
L 154.746179 34.972751 
" clip-path="url(#p45224e4bf7)" style="fill: none; stroke: #cfc7ab; stroke-width: 0.5; stroke-linecap: square"/>
     </g>
     <g id="line2d_4">
      <g>
       <use xlink:href="#m787f0dcad8" x="154.746179" y="211.44351" style="fill: #1f1f1f; stroke: #1f1f1f; stroke-width: 0.8"/>
      </g>
     </g>
     <g id="text_2">
      <!-- 0.2 -->
      <g style="fill: #1f1f1f" transform="translate(145.99946 226.801791) scale(0.11 -0.11)">
       <defs>
        <path id="DejaVuSerif-32" d="M 819 3553 
L 469 3553 
L 469 4384 
Q 803 4563 1142 4656 
Q 1481 4750 1806 4750 
Q 2534 4750 2956 4397 
Q 3378 4044 3378 3438 
Q 3378 2753 2422 1800 
Q 2347 1728 2309 1691 
L 1131 513 
L 3078 513 
L 3078 1088 
L 3444 1088 
L 3444 0 
L 434 0 
L 434 341 
L 1850 1753 
Q 2319 2222 2519 2614 
Q 2719 3006 2719 3438 
Q 2719 3909 2473 4175 
Q 2228 4441 1797 4441 
Q 1350 4441 1106 4219 
Q 863 3997 819 3553 
z
" transform="scale(0.015625)"/>
       </defs>
       <use xlink:href="#DejaVuSerif-30"/>
       <use xlink:href="#DejaVuSerif-2e" transform="translate(63.623047 0)"/>
       <use xlink:href="#DejaVuSerif-32" transform="translate(95.410156 0)"/>
      </g>
     </g>
    </g>
    <g id="xtick_3">
     <g id="line2d_5">
      <path d="M 228.020243 211.44351 
L 228.020243 34.972751 
" clip-path="url(#p45224e4bf7)" style="fill: none; stroke: #cfc7ab; stroke-width: 0.5; stroke-linecap: square"/>
     </g>
     <g id="line2d_6">
      <g>
       <use xlink:href="#m787f0dcad8" x="228.020243" y="211.44351" style="fill: #1f1f1f; stroke: #1f1f1f; stroke-width: 0.8"/>
      </g>
     </g>
     <g id="text_3">
      <!-- 0.4 -->
      <g style="fill: #1f1f1f" transform="translate(219.273524 226.801791) scale(0.11 -0.11)">
       <defs>
        <path id="DejaVuSerif-34" d="M 2234 1581 
L 2234 4063 
L 641 1581 
L 2234 1581 
z
M 3609 0 
L 1484 0 
L 1484 331 
L 2234 331 
L 2234 1247 
L 197 1247 
L 197 1588 
L 2241 4750 
L 2859 4750 
L 2859 1581 
L 3750 1581 
L 3750 1247 
L 2859 1247 
L 2859 331 
L 3609 331 
L 3609 0 
z
" transform="scale(0.015625)"/>
       </defs>
       <use xlink:href="#DejaVuSerif-30"/>
       <use xlink:href="#DejaVuSerif-2e" transform="translate(63.623047 0)"/>
       <use xlink:href="#DejaVuSerif-34" transform="translate(95.410156 0)"/>
      </g>
     </g>
    </g>
    <g id="text_4">
     <!-- importance -->
     <g style="fill: #1f1f1f" transform="translate(153.206098 239.928041) scale(0.09 -0.09)">
      <defs>
       <path id="DejaVuSerif-69" d="M 622 4353 
Q 622 4497 726 4603 
Q 831 4709 978 4709 
Q 1122 4709 1226 4603 
Q 1331 4497 1331 4353 
Q 1331 4206 1228 4103 
Q 1125 4000 978 4000 
Q 831 4000 726 4103 
Q 622 4206 622 4353 
z
M 1356 331 
L 1900 331 
L 1900 0 
L 231 0 
L 231 331 
L 781 331 
L 781 2988 
L 231 2988 
L 231 3322 
L 1356 3322 
L 1356 331 
z
" transform="scale(0.015625)"/>
       <path id="DejaVuSerif-6d" d="M 3316 2675 
Q 3481 3041 3739 3227 
Q 3997 3413 4341 3413 
Q 4863 3413 5119 3089 
Q 5375 2766 5375 2113 
L 5375 331 
L 5894 331 
L 5894 0 
L 4300 0 
L 4300 331 
L 4800 331 
L 4800 2047 
Q 4800 2556 4650 2772 
Q 4500 2988 4153 2988 
Q 3769 2988 3567 2697 
Q 3366 2406 3366 1850 
L 3366 331 
L 3866 331 
L 3866 0 
L 2291 0 
L 2291 331 
L 2791 331 
L 2791 2069 
Q 2791 2566 2641 2777 
Q 2491 2988 2144 2988 
Q 1759 2988 1557 2697 
Q 1356 2406 1356 1850 
L 1356 331 
L 1856 331 
L 1856 0 
L 263 0 
L 263 331 
L 781 331 
L 781 2994 
L 231 2994 
L 231 3322 
L 1356 3322 
L 1356 2731 
Q 1516 3063 1762 3238 
Q 2009 3413 2322 3413 
Q 2709 3413 2968 3220 
Q 3228 3028 3316 2675 
z
" transform="scale(0.015625)"/>
       <path id="DejaVuSerif-70" d="M 1313 1825 
L 1313 1497 
Q 1313 897 1542 583 
Q 1772 269 2209 269 
Q 2650 269 2876 622 
Q 3103 975 3103 1663 
Q 3103 2353 2876 2703 
Q 2650 3053 2209 3053 
Q 1772 3053 1542 2737 
Q 1313 2422 1313 1825 
z
M 738 2988 
L 184 2988 
L 184 3322 
L 1313 3322 
L 1313 2803 
Q 1481 3116 1742 3264 
Q 2003 3413 2388 3413 
Q 3000 3413 3387 2928 
Q 3775 2444 3775 1663 
Q 3775 881 3387 395 
Q 3000 -91 2388 -91 
Q 2003 -91 1742 57 
Q 1481 206 1313 519 
L 1313 -997 
L 1856 -997 
L 1856 -1331 
L 184 -1331 
L 184 -997 
L 738 -997 
L 738 2988 
z
" transform="scale(0.015625)"/>
       <path id="DejaVuSerif-6f" d="M 1925 219 
Q 2388 219 2623 584 
Q 2859 950 2859 1663 
Q 2859 2375 2623 2739 
Q 2388 3103 1925 3103 
Q 1463 3103 1227 2739 
Q 991 2375 991 1663 
Q 991 950 1228 584 
Q 1466 219 1925 219 
z
M 1925 -91 
Q 1200 -91 759 389 
Q 319 869 319 1663 
Q 319 2456 758 2934 
Q 1197 3413 1925 3413 
Q 2653 3413 3092 2934 
Q 3531 2456 3531 1663 
Q 3531 869 3092 389 
Q 2653 -91 1925 -91 
z
" transform="scale(0.015625)"/>
       <path id="DejaVuSerif-72" d="M 3059 3328 
L 3059 2497 
L 2728 2497 
Q 2713 2744 2591 2866 
Q 2469 2988 2234 2988 
Q 1809 2988 1582 2694 
Q 1356 2400 1356 1850 
L 1356 331 
L 2022 331 
L 2022 0 
L 263 0 
L 263 331 
L 781 331 
L 781 2994 
L 231 2994 
L 231 3322 
L 1356 3322 
L 1356 2731 
Q 1525 3078 1790 3245 
Q 2056 3413 2438 3413 
Q 2578 3413 2733 3391 
Q 2888 3369 3059 3328 
z
" transform="scale(0.015625)"/>
       <path id="DejaVuSerif-74" d="M 691 2988 
L 184 2988 
L 184 3322 
L 691 3322 
L 691 4353 
L 1269 4353 
L 1269 3322 
L 2350 3322 
L 2350 2988 
L 1269 2988 
L 1269 878 
Q 1269 456 1350 337 
Q 1431 219 1650 219 
Q 1875 219 1978 351 
Q 2081 484 2088 781 
L 2522 781 
Q 2497 328 2275 118 
Q 2053 -91 1600 -91 
Q 1103 -91 897 129 
Q 691 350 691 878 
L 691 2988 
z
" transform="scale(0.015625)"/>
       <path id="DejaVuSerif-61" d="M 2547 1044 
L 2547 1747 
L 1806 1747 
Q 1378 1747 1168 1562 
Q 959 1378 959 997 
Q 959 650 1171 447 
Q 1384 244 1747 244 
Q 2106 244 2326 466 
Q 2547 688 2547 1044 
z
M 3122 2075 
L 3122 331 
L 3634 331 
L 3634 0 
L 2547 0 
L 2547 359 
Q 2356 128 2106 18 
Q 1856 -91 1522 -91 
Q 969 -91 644 203 
Q 319 497 319 997 
Q 319 1513 691 1797 
Q 1063 2081 1741 2081 
L 2547 2081 
L 2547 2309 
Q 2547 2688 2317 2895 
Q 2088 3103 1672 3103 
Q 1328 3103 1125 2947 
Q 922 2791 872 2484 
L 575 2484 
L 575 3156 
Q 875 3284 1158 3348 
Q 1441 3413 1709 3413 
Q 2400 3413 2761 3070 
Q 3122 2728 3122 2075 
z
" transform="scale(0.015625)"/>
       <path id="DejaVuSerif-6e" d="M 263 0 
L 263 331 
L 781 331 
L 781 2988 
L 231 2988 
L 231 3322 
L 1356 3322 
L 1356 2731 
Q 1516 3069 1770 3241 
Q 2025 3413 2363 3413 
Q 2913 3413 3172 3097 
Q 3431 2781 3431 2113 
L 3431 331 
L 3944 331 
L 3944 0 
L 2356 0 
L 2356 331 
L 2853 331 
L 2853 1931 
Q 2853 2541 2703 2767 
Q 2553 2994 2175 2994 
Q 1775 2994 1565 2701 
Q 1356 2409 1356 1850 
L 1356 331 
L 1856 331 
L 1856 0 
L 263 0 
z
" transform="scale(0.015625)"/>
       <path id="DejaVuSerif-63" d="M 3291 997 
Q 3169 466 2822 187 
Q 2475 -91 1925 -91 
Q 1200 -91 759 389 
Q 319 869 319 1663 
Q 319 2459 759 2936 
Q 1200 3413 1925 3413 
Q 2241 3413 2553 3339 
Q 2866 3266 3181 3116 
L 3181 2266 
L 2847 2266 
Q 2781 2703 2561 2903 
Q 2341 3103 1931 3103 
Q 1466 3103 1228 2742 
Q 991 2381 991 1663 
Q 991 944 1227 581 
Q 1463 219 1931 219 
Q 2303 219 2525 412 
Q 2747 606 2828 997 
L 3291 997 
z
" transform="scale(0.015625)"/>
       <path id="DejaVuSerif-65" d="M 3469 1600 
L 991 1600 
L 991 1575 
Q 991 903 1244 561 
Q 1497 219 1991 219 
Q 2369 219 2611 417 
Q 2853 616 2950 1006 
L 3413 1006 
Q 3275 459 2904 184 
Q 2534 -91 1931 -91 
Q 1203 -91 761 389 
Q 319 869 319 1663 
Q 319 2450 753 2931 
Q 1188 3413 1894 3413 
Q 2647 3413 3050 2948 
Q 3453 2484 3469 1600 
z
M 2791 1931 
Q 2772 2513 2545 2808 
Q 2319 3103 1894 3103 
Q 1497 3103 1269 2806 
Q 1041 2509 991 1931 
L 2791 1931 
z
" transform="scale(0.015625)"/>
      </defs>
      <use xlink:href="#DejaVuSerif-69"/>
      <use xlink:href="#DejaVuSerif-6d" transform="translate(31.982422 0)"/>
      <use xlink:href="#DejaVuSerif-70" transform="translate(126.806641 0)"/>
      <use xlink:href="#DejaVuSerif-6f" transform="translate(190.820312 0)"/>
      <use xlink:href="#DejaVuSerif-72" transform="translate(251.025391 0)"/>
      <use xlink:href="#DejaVuSerif-74" transform="translate(298.828125 0)"/>
      <use xlink:href="#DejaVuSerif-61" transform="translate(339.013672 0)"/>
      <use xlink:href="#DejaVuSerif-6e" transform="translate(398.632812 0)"/>
      <use xlink:href="#DejaVuSerif-63" transform="translate(463.037109 0)"/>
      <use xlink:href="#DejaVuSerif-65" transform="translate(519.042969 0)"/>
     </g>
    </g>
   </g>
   <g id="matplotlib.axis_2">
    <g id="ytick_1">
     <g id="line2d_7">
      <path d="M 81.472115 180.503832 
L 276.981174 180.503832 
" clip-path="url(#p45224e4bf7)" style="fill: none; stroke: #cfc7ab; stroke-width: 0.5; stroke-linecap: square"/>
     </g>
     <g id="line2d_8">
      <defs>
       <path id="m82b19e1274" d="M 0 0 
L -3.5 0 
" style="stroke: #1f1f1f; stroke-width: 0.8"/>
      </defs>
      <g>
       <use xlink:href="#m82b19e1274" x="81.472115" y="180.503832" style="fill: #1f1f1f; stroke: #1f1f1f; stroke-width: 0.8"/>
      </g>
     </g>
     <g id="text_5">
      <!-- unique_nights -->
      <g style="fill: #1f1f1f" transform="translate(3.00024 184.30305) scale(0.1 -0.1)">
       <defs>
        <path id="DejaVuSerif-75" d="M 2266 3322 
L 3341 3322 
L 3341 331 
L 3884 331 
L 3884 0 
L 2766 0 
L 2766 588 
Q 2606 256 2353 82 
Q 2100 -91 1766 -91 
Q 1213 -91 952 223 
Q 691 538 691 1209 
L 691 2988 
L 172 2988 
L 172 3322 
L 1269 3322 
L 1269 1388 
Q 1269 781 1417 556 
Q 1566 331 1947 331 
Q 2347 331 2556 625 
Q 2766 919 2766 1478 
L 2766 2988 
L 2266 2988 
L 2266 3322 
z
" transform="scale(0.015625)"/>
        <path id="DejaVuSerif-71" d="M 3359 2988 
L 3359 -997 
L 3909 -997 
L 3909 -1331 
L 2241 -1331 
L 2241 -997 
L 2784 -997 
L 2784 519 
Q 2616 206 2355 57 
Q 2094 -91 1709 -91 
Q 1097 -91 708 395 
Q 319 881 319 1663 
Q 319 2444 706 2928 
Q 1094 3413 1709 3413 
Q 2094 3413 2355 3264 
Q 2616 3116 2784 2803 
L 2784 3322 
L 3909 3322 
L 3909 2988 
L 3359 2988 
z
M 2784 1825 
Q 2784 2422 2554 2737 
Q 2325 3053 1888 3053 
Q 1444 3053 1217 2703 
Q 991 2353 991 1663 
Q 991 975 1217 622 
Q 1444 269 1888 269 
Q 2325 269 2554 583 
Q 2784 897 2784 1497 
L 2784 1825 
z
" transform="scale(0.015625)"/>
        <path id="DejaVuSerif-5f" d="M 3200 -1259 
L 3200 -1509 
L 0 -1509 
L 0 -1259 
L 3200 -1259 
z
" transform="scale(0.015625)"/>
        <path id="DejaVuSerif-67" d="M 3359 2988 
L 3359 72 
Q 3359 -644 2965 -1033 
Q 2572 -1422 1844 -1422 
Q 1516 -1422 1216 -1362 
Q 916 -1303 641 -1184 
L 641 -488 
L 941 -488 
Q 997 -813 1206 -963 
Q 1416 -1113 1806 -1113 
Q 2313 -1113 2548 -827 
Q 2784 -541 2784 72 
L 2784 519 
Q 2616 206 2355 57 
Q 2094 -91 1709 -91 
Q 1097 -91 708 395 
Q 319 881 319 1663 
Q 319 2444 706 2928 
Q 1094 3413 1709 3413 
Q 2094 3413 2355 3264 
Q 2616 3116 2784 2803 
L 2784 3322 
L 3909 3322 
L 3909 2988 
L 3359 2988 
z
M 2784 1825 
Q 2784 2422 2554 2737 
Q 2325 3053 1888 3053 
Q 1444 3053 1217 2703 
Q 991 2353 991 1663 
Q 991 975 1217 622 
Q 1444 269 1888 269 
Q 2325 269 2554 583 
Q 2784 897 2784 1497 
L 2784 1825 
z
" transform="scale(0.015625)"/>
        <path id="DejaVuSerif-68" d="M 263 0 
L 263 331 
L 781 331 
L 781 4531 
L 231 4531 
L 231 4863 
L 1356 4863 
L 1356 2731 
Q 1516 3069 1770 3241 
Q 2025 3413 2363 3413 
Q 2913 3413 3172 3097 
Q 3431 2781 3431 2113 
L 3431 331 
L 3944 331 
L 3944 0 
L 2356 0 
L 2356 331 
L 2853 331 
L 2853 1931 
Q 2853 2541 2704 2764 
Q 2556 2988 2175 2988 
Q 1775 2988 1565 2697 
Q 1356 2406 1356 1850 
L 1356 331 
L 1856 331 
L 1856 0 
L 263 0 
z
" transform="scale(0.015625)"/>
        <path id="DejaVuSerif-73" d="M 359 184 
L 359 959 
L 691 959 
Q 703 588 923 403 
Q 1144 219 1575 219 
Q 1963 219 2166 364 
Q 2369 509 2369 788 
Q 2369 1006 2220 1140 
Q 2072 1275 1594 1428 
L 1178 1569 
Q 750 1706 558 1912 
Q 366 2119 366 2438 
Q 366 2894 700 3153 
Q 1034 3413 1625 3413 
Q 1888 3413 2178 3344 
Q 2469 3275 2778 3144 
L 2778 2419 
L 2447 2419 
Q 2434 2741 2221 2922 
Q 2009 3103 1644 3103 
Q 1281 3103 1095 2975 
Q 909 2847 909 2591 
Q 909 2381 1050 2254 
Q 1191 2128 1613 1997 
L 2069 1856 
Q 2541 1709 2748 1489 
Q 2956 1269 2956 922 
Q 2956 450 2595 179 
Q 2234 -91 1600 -91 
Q 1278 -91 972 -22 
Q 666 47 359 184 
z
" transform="scale(0.015625)"/>
       </defs>
       <use xlink:href="#DejaVuSerif-75"/>
       <use xlink:href="#DejaVuSerif-6e" transform="translate(64.404297 0)"/>
       <use xlink:href="#DejaVuSerif-69" transform="translate(128.808594 0)"/>
       <use xlink:href="#DejaVuSerif-71" transform="translate(160.791016 0)"/>
       <use xlink:href="#DejaVuSerif-75" transform="translate(224.804688 0)"/>
       <use xlink:href="#DejaVuSerif-65" transform="translate(289.208984 0)"/>
       <use xlink:href="#DejaVuSerif-5f" transform="translate(348.388672 0)"/>
       <use xlink:href="#DejaVuSerif-6e" transform="translate(398.388672 0)"/>
       <use xlink:href="#DejaVuSerif-69" transform="translate(462.792969 0)"/>
       <use xlink:href="#DejaVuSerif-67" transform="translate(494.775391 0)"/>
       <use xlink:href="#DejaVuSerif-68" transform="translate(558.789062 0)"/>
       <use xlink:href="#DejaVuSerif-74" transform="translate(623.193359 0)"/>
       <use xlink:href="#DejaVuSerif-73" transform="translate(663.378906 0)"/>
      </g>
     </g>
    </g>
    <g id="ytick_2">
     <g id="line2d_9">
      <path d="M 81.472115 123.208131 
L 276.981174 123.208131 
" clip-path="url(#p45224e4bf7)" style="fill: none; stroke: #cfc7ab; stroke-width: 0.5; stroke-linecap: square"/>
     </g>
     <g id="line2d_10">
      <g>
       <use xlink:href="#m82b19e1274" x="81.472115" y="123.208131" style="fill: #1f1f1f; stroke: #1f1f1f; stroke-width: 0.8"/>
      </g>
     </g>
     <g id="text_6">
      <!-- Latitude -->
      <g style="fill: #1f1f1f" transform="translate(31.872115 127.007349) scale(0.1 -0.1)">
       <defs>
        <path id="DejaVuSerif-4c" d="M 353 0 
L 353 331 
L 947 331 
L 947 4331 
L 353 4331 
L 353 4666 
L 2175 4666 
L 2175 4331 
L 1581 4331 
L 1581 384 
L 3713 384 
L 3713 1166 
L 4097 1166 
L 4097 0 
L 353 0 
z
" transform="scale(0.015625)"/>
        <path id="DejaVuSerif-64" d="M 3359 331 
L 3909 331 
L 3909 0 
L 2784 0 
L 2784 519 
Q 2616 206 2355 57 
Q 2094 -91 1709 -91 
Q 1097 -91 708 395 
Q 319 881 319 1663 
Q 319 2444 706 2928 
Q 1094 3413 1709 3413 
Q 2094 3413 2355 3264 
Q 2616 3116 2784 2803 
L 2784 4531 
L 2241 4531 
L 2241 4863 
L 3359 4863 
L 3359 331 
z
M 2784 1497 
L 2784 1825 
Q 2784 2422 2554 2737 
Q 2325 3053 1888 3053 
Q 1444 3053 1217 2703 
Q 991 2353 991 1663 
Q 991 975 1217 622 
Q 1444 269 1888 269 
Q 2325 269 2554 583 
Q 2784 897 2784 1497 
z
" transform="scale(0.015625)"/>
       </defs>
       <use xlink:href="#DejaVuSerif-4c"/>
       <use xlink:href="#DejaVuSerif-61" transform="translate(66.40625 0)"/>
       <use xlink:href="#DejaVuSerif-74" transform="translate(126.025391 0)"/>
       <use xlink:href="#DejaVuSerif-69" transform="translate(166.210938 0)"/>
       <use xlink:href="#DejaVuSerif-74" transform="translate(198.193359 0)"/>
       <use xlink:href="#DejaVuSerif-75" transform="translate(238.378906 0)"/>
       <use xlink:href="#DejaVuSerif-64" transform="translate(302.783203 0)"/>
       <use xlink:href="#DejaVuSerif-65" transform="translate(366.796875 0)"/>
      </g>
     </g>
    </g>
    <g id="ytick_3">
     <g id="line2d_11">
      <path d="M 81.472115 65.91243 
L 276.981174 65.91243 
" clip-path="url(#p45224e4bf7)" style="fill: none; stroke: #cfc7ab; stroke-width: 0.5; stroke-linecap: square"/>
     </g>
     <g id="line2d_12">
      <g>
       <use xlink:href="#m82b19e1274" x="81.472115" y="65.91243" style="fill: #1f1f1f; stroke: #1f1f1f; stroke-width: 0.8"/>
      </g>
     </g>
     <g id="text_7">
      <!-- Longitude -->
      <g style="fill: #1f1f1f" transform="translate(22.990865 69.711648) scale(0.1 -0.1)">
       <use xlink:href="#DejaVuSerif-4c"/>
       <use xlink:href="#DejaVuSerif-6f" transform="translate(66.40625 0)"/>
       <use xlink:href="#DejaVuSerif-6e" transform="translate(126.611328 0)"/>
       <use xlink:href="#DejaVuSerif-67" transform="translate(191.015625 0)"/>
       <use xlink:href="#DejaVuSerif-69" transform="translate(255.029297 0)"/>
       <use xlink:href="#DejaVuSerif-74" transform="translate(287.011719 0)"/>
       <use xlink:href="#DejaVuSerif-75" transform="translate(327.197266 0)"/>
       <use xlink:href="#DejaVuSerif-64" transform="translate(391.601562 0)"/>
       <use xlink:href="#DejaVuSerif-65" transform="translate(455.615234 0)"/>
      </g>
     </g>
    </g>
   </g>
   <g id="patch_6">
    <path d="M 81.472115 211.44351 
L 81.472115 34.972751 
" style="fill: none; stroke: #1f1f1f; stroke-width: 0.8; stroke-linejoin: miter; stroke-linecap: square"/>
   </g>
   <g id="patch_7">
    <path d="M 276.981174 211.44351 
L 276.981174 34.972751 
" style="fill: none; stroke: #1f1f1f; stroke-width: 0.8; stroke-linejoin: miter; stroke-linecap: square"/>
   </g>
   <g id="patch_8">
    <path d="M 81.472115 211.44351 
L 276.981174 211.44351 
" style="fill: none; stroke: #1f1f1f; stroke-width: 0.8; stroke-linejoin: miter; stroke-linecap: square"/>
   </g>
   <g id="patch_9">
    <path d="M 81.472115 34.972751 
L 276.981174 34.972751 
" style="fill: none; stroke: #1f1f1f; stroke-width: 0.8; stroke-linejoin: miter; stroke-linecap: square"/>
   </g>
   <g id="text_8">
    <!-- Effort + location -->
    <g style="fill: #1f3a5f" transform="translate(132.632191 28.972751) scale(0.11 -0.11)">
     <defs>
      <path id="DejaVuSerif-45" d="M 353 0 
L 353 331 
L 947 331 
L 947 4331 
L 353 4331 
L 353 4666 
L 4109 4666 
L 4109 3628 
L 3725 3628 
L 3725 4281 
L 1581 4281 
L 1581 2719 
L 3109 2719 
L 3109 3303 
L 3494 3303 
L 3494 1753 
L 3109 1753 
L 3109 2338 
L 1581 2338 
L 1581 384 
L 3775 384 
L 3775 1038 
L 4159 1038 
L 4159 0 
L 353 0 
z
" transform="scale(0.015625)"/>
      <path id="DejaVuSerif-66" d="M 2753 4078 
L 2450 4078 
Q 2447 4313 2317 4434 
Q 2188 4556 1941 4556 
Q 1619 4556 1487 4379 
Q 1356 4203 1356 3750 
L 1356 3322 
L 2284 3322 
L 2284 2988 
L 1356 2988 
L 1356 331 
L 2094 331 
L 2094 0 
L 231 0 
L 231 331 
L 781 331 
L 781 2988 
L 231 2988 
L 231 3322 
L 781 3322 
L 781 3738 
Q 781 4294 1070 4578 
Q 1359 4863 1919 4863 
Q 2128 4863 2337 4825 
Q 2547 4788 2753 4709 
L 2753 4078 
z
" transform="scale(0.015625)"/>
      <path id="DejaVuSerif-20" transform="scale(0.015625)"/>
      <path id="DejaVuSerif-2b" d="M 2931 4013 
L 2931 2259 
L 4684 2259 
L 4684 1753 
L 2931 1753 
L 2931 0 
L 2431 0 
L 2431 1753 
L 678 1753 
L 678 2259 
L 2431 2259 
L 2431 4013 
L 2931 4013 
z
" transform="scale(0.015625)"/>
      <path id="DejaVuSerif-6c" d="M 1313 331 
L 1856 331 
L 1856 0 
L 184 0 
L 184 331 
L 738 331 
L 738 4531 
L 184 4531 
L 184 4863 
L 1313 4863 
L 1313 331 
z
" transform="scale(0.015625)"/>
     </defs>
     <use xlink:href="#DejaVuSerif-45"/>
     <use xlink:href="#DejaVuSerif-66" transform="translate(72.998047 0)"/>
     <use xlink:href="#DejaVuSerif-66" transform="translate(110.009766 0)"/>
     <use xlink:href="#DejaVuSerif-6f" transform="translate(147.021484 0)"/>
     <use xlink:href="#DejaVuSerif-72" transform="translate(207.226562 0)"/>
     <use xlink:href="#DejaVuSerif-74" transform="translate(255.029297 0)"/>
     <use xlink:href="#DejaVuSerif-20" transform="translate(295.214844 0)"/>
     <use xlink:href="#DejaVuSerif-2b" transform="translate(327.001953 0)"/>
     <use xlink:href="#DejaVuSerif-20" transform="translate(410.791016 0)"/>
     <use xlink:href="#DejaVuSerif-6c" transform="translate(442.578125 0)"/>
     <use xlink:href="#DejaVuSerif-6f" transform="translate(474.560547 0)"/>
     <use xlink:href="#DejaVuSerif-63" transform="translate(534.765625 0)"/>
     <use xlink:href="#DejaVuSerif-61" transform="translate(590.771484 0)"/>
     <use xlink:href="#DejaVuSerif-74" transform="translate(650.390625 0)"/>
     <use xlink:href="#DejaVuSerif-69" transform="translate(690.576172 0)"/>
     <use xlink:href="#DejaVuSerif-6f" transform="translate(722.558594 0)"/>
     <use xlink:href="#DejaVuSerif-6e" transform="translate(782.763672 0)"/>
    </g>
   </g>
  </g>
  <g id="axes_2">
   <g id="patch_10">
    <path d="M 361.981643 211.44351 
L 752.99976 211.44351 
L 752.99976 34.972751 
L 361.981643 34.972751 
L 361.981643 211.44351 
z
" style="fill: none"/>
   </g>
   <g id="patch_11">
    <path d="M 361.981643 203.422112 
L 420.226234 203.422112 
L 420.226234 186.967962 
L 361.981643 186.967962 
z
" clip-path="url(#pd11537ac74)" style="fill: #1f3a5f; stroke: #1f1f1f; stroke-width: 0.3; stroke-linejoin: miter"/>
   </g>
   <g id="patch_12">
    <path d="M 361.981643 182.854424 
L 430.027318 182.854424 
L 430.027318 166.400274 
L 361.981643 166.400274 
z
" clip-path="url(#pd11537ac74)" style="fill: #1f3a5f; stroke: #1f1f1f; stroke-width: 0.3; stroke-linejoin: miter"/>
   </g>
   <g id="patch_13">
    <path d="M 361.981643 162.286737 
L 457.485794 162.286737 
L 457.485794 145.832587 
L 361.981643 145.832587 
z
" clip-path="url(#pd11537ac74)" style="fill: #1f3a5f; stroke: #1f1f1f; stroke-width: 0.3; stroke-linejoin: miter"/>
   </g>
   <g id="patch_14">
    <path d="M 361.981643 141.719049 
L 458.002724 141.719049 
L 458.002724 125.264899 
L 361.981643 125.264899 
z
" clip-path="url(#pd11537ac74)" style="fill: #1f3a5f; stroke: #1f1f1f; stroke-width: 0.3; stroke-linejoin: miter"/>
   </g>
   <g id="patch_15">
    <path d="M 361.981643 121.151362 
L 491.95669 121.151362 
L 491.95669 104.697212 
L 361.981643 104.697212 
z
" clip-path="url(#pd11537ac74)" style="fill: #1f3a5f; stroke: #1f1f1f; stroke-width: 0.3; stroke-linejoin: miter"/>
   </g>
   <g id="patch_16">
    <path d="M 361.981643 100.583674 
L 506.036831 100.583674 
L 506.036831 84.129524 
L 361.981643 84.129524 
z
" clip-path="url(#pd11537ac74)" style="fill: #1f3a5f; stroke: #1f1f1f; stroke-width: 0.3; stroke-linejoin: miter"/>
   </g>
   <g id="patch_17">
    <path d="M 361.981643 80.015987 
L 565.314134 80.015987 
L 565.314134 63.561837 
L 361.981643 63.561837 
z
" clip-path="url(#pd11537ac74)" style="fill: #1f3a5f; stroke: #1f1f1f; stroke-width: 0.3; stroke-linejoin: miter"/>
   </g>
   <g id="patch_18">
    <path d="M 361.981643 59.448299 
L 734.37985 59.448299 
L 734.37985 42.994149 
L 361.981643 42.994149 
z
" clip-path="url(#pd11537ac74)" style="fill: #1f3a5f; stroke: #1f1f1f; stroke-width: 0.3; stroke-linejoin: miter"/>
   </g>
   <g id="matplotlib.axis_3">
    <g id="xtick_4">
     <g id="line2d_13">
      <path d="M 361.981643 211.44351 
L 361.981643 34.972751 
" clip-path="url(#pd11537ac74)" style="fill: none; stroke: #cfc7ab; stroke-width: 0.5; stroke-linecap: square"/>
     </g>
     <g id="line2d_14">
      <g>
       <use xlink:href="#m787f0dcad8" x="361.981643" y="211.44351" style="fill: #1f1f1f; stroke: #1f1f1f; stroke-width: 0.8"/>
      </g>
     </g>
     <g id="text_9">
      <!-- 0.0000 -->
      <g style="fill: #1f1f1f" transform="translate(342.736799 226.801791) scale(0.11 -0.11)">
       <use xlink:href="#DejaVuSerif-30"/>
       <use xlink:href="#DejaVuSerif-2e" transform="translate(63.623047 0)"/>
       <use xlink:href="#DejaVuSerif-30" transform="translate(95.410156 0)"/>
       <use xlink:href="#DejaVuSerif-30" transform="translate(159.033203 0)"/>
       <use xlink:href="#DejaVuSerif-30" transform="translate(222.65625 0)"/>
       <use xlink:href="#DejaVuSerif-30" transform="translate(286.279297 0)"/>
      </g>
     </g>
    </g>
    <g id="xtick_5">
     <g id="line2d_15">
      <path d="M 412.303019 211.44351 
L 412.303019 34.972751 
" clip-path="url(#pd11537ac74)" style="fill: none; stroke: #cfc7ab; stroke-width: 0.5; stroke-linecap: square"/>
     </g>
     <g id="line2d_16">
      <g>
       <use xlink:href="#m787f0dcad8" x="412.303019" y="211.44351" style="fill: #1f1f1f; stroke: #1f1f1f; stroke-width: 0.8"/>
      </g>
     </g>
     <g id="text_10">
      <!-- 0.0025 -->
      <g style="fill: #1f1f1f" transform="translate(393.058175 226.801791) scale(0.11 -0.11)">
       <defs>
        <path id="DejaVuSerif-35" d="M 3219 4666 
L 3219 4153 
L 1081 4153 
L 1081 2816 
Q 1244 2928 1461 2984 
Q 1678 3041 1947 3041 
Q 2703 3041 3140 2622 
Q 3578 2203 3578 1478 
Q 3578 738 3136 323 
Q 2694 -91 1894 -91 
Q 1572 -91 1234 -12 
Q 897 66 544 225 
L 544 1131 
L 897 1131 
Q 925 688 1179 453 
Q 1434 219 1894 219 
Q 2388 219 2653 544 
Q 2919 869 2919 1478 
Q 2919 2084 2655 2407 
Q 2391 2731 1894 2731 
Q 1613 2731 1398 2631 
Q 1184 2531 1019 2322 
L 750 2322 
L 750 4666 
L 3219 4666 
z
" transform="scale(0.015625)"/>
       </defs>
       <use xlink:href="#DejaVuSerif-30"/>
       <use xlink:href="#DejaVuSerif-2e" transform="translate(63.623047 0)"/>
       <use xlink:href="#DejaVuSerif-30" transform="translate(95.410156 0)"/>
       <use xlink:href="#DejaVuSerif-30" transform="translate(159.033203 0)"/>
       <use xlink:href="#DejaVuSerif-32" transform="translate(222.65625 0)"/>
       <use xlink:href="#DejaVuSerif-35" transform="translate(286.279297 0)"/>
      </g>
     </g>
    </g>
    <g id="xtick_6">
     <g id="line2d_17">
      <path d="M 462.624395 211.44351 
L 462.624395 34.972751 
" clip-path="url(#pd11537ac74)" style="fill: none; stroke: #cfc7ab; stroke-width: 0.5; stroke-linecap: square"/>
     </g>
     <g id="line2d_18">
      <g>
       <use xlink:href="#m787f0dcad8" x="462.624395" y="211.44351" style="fill: #1f1f1f; stroke: #1f1f1f; stroke-width: 0.8"/>
      </g>
     </g>
     <g id="text_11">
      <!-- 0.0050 -->
      <g style="fill: #1f1f1f" transform="translate(443.379551 226.801791) scale(0.11 -0.11)">
       <use xlink:href="#DejaVuSerif-30"/>
       <use xlink:href="#DejaVuSerif-2e" transform="translate(63.623047 0)"/>
       <use xlink:href="#DejaVuSerif-30" transform="translate(95.410156 0)"/>
       <use xlink:href="#DejaVuSerif-30" transform="translate(159.033203 0)"/>
       <use xlink:href="#DejaVuSerif-35" transform="translate(222.65625 0)"/>
       <use xlink:href="#DejaVuSerif-30" transform="translate(286.279297 0)"/>
      </g>
     </g>
    </g>
    <g id="xtick_7">
     <g id="line2d_19">
      <path d="M 512.945771 211.44351 
L 512.945771 34.972751 
" clip-path="url(#pd11537ac74)" style="fill: none; stroke: #cfc7ab; stroke-width: 0.5; stroke-linecap: square"/>
     </g>
     <g id="line2d_20">
      <g>
       <use xlink:href="#m787f0dcad8" x="512.945771" y="211.44351" style="fill: #1f1f1f; stroke: #1f1f1f; stroke-width: 0.8"/>
      </g>
     </g>
     <g id="text_12">
      <!-- 0.0075 -->
      <g style="fill: #1f1f1f" transform="translate(493.700927 226.801791) scale(0.11 -0.11)">
       <defs>
        <path id="DejaVuSerif-37" d="M 3609 4347 
L 1784 0 
L 1319 0 
L 3059 4153 
L 903 4153 
L 903 3578 
L 538 3578 
L 538 4666 
L 3609 4666 
L 3609 4347 
z
" transform="scale(0.015625)"/>
       </defs>
       <use xlink:href="#DejaVuSerif-30"/>
       <use xlink:href="#DejaVuSerif-2e" transform="translate(63.623047 0)"/>
       <use xlink:href="#DejaVuSerif-30" transform="translate(95.410156 0)"/>
       <use xlink:href="#DejaVuSerif-30" transform="translate(159.033203 0)"/>
       <use xlink:href="#DejaVuSerif-37" transform="translate(222.65625 0)"/>
       <use xlink:href="#DejaVuSerif-35" transform="translate(286.279297 0)"/>
      </g>
     </g>
    </g>
    <g id="xtick_8">
     <g id="line2d_21">
      <path d="M 563.267147 211.44351 
L 563.267147 34.972751 
" clip-path="url(#pd11537ac74)" style="fill: none; stroke: #cfc7ab; stroke-width: 0.5; stroke-linecap: square"/>
     </g>
     <g id="line2d_22">
      <g>
       <use xlink:href="#m787f0dcad8" x="563.267147" y="211.44351" style="fill: #1f1f1f; stroke: #1f1f1f; stroke-width: 0.8"/>
      </g>
     </g>
     <g id="text_13">
      <!-- 0.0100 -->
      <g style="fill: #1f1f1f" transform="translate(544.022303 226.801791) scale(0.11 -0.11)">
       <defs>
        <path id="DejaVuSerif-31" d="M 909 0 
L 909 331 
L 1722 331 
L 1722 4213 
L 781 3603 
L 781 4013 
L 1919 4750 
L 2350 4750 
L 2350 331 
L 3163 331 
L 3163 0 
L 909 0 
z
" transform="scale(0.015625)"/>
       </defs>
       <use xlink:href="#DejaVuSerif-30"/>
       <use xlink:href="#DejaVuSerif-2e" transform="translate(63.623047 0)"/>
       <use xlink:href="#DejaVuSerif-30" transform="translate(95.410156 0)"/>
       <use xlink:href="#DejaVuSerif-31" transform="translate(159.033203 0)"/>
       <use xlink:href="#DejaVuSerif-30" transform="translate(222.65625 0)"/>
       <use xlink:href="#DejaVuSerif-30" transform="translate(286.279297 0)"/>
      </g>
     </g>
    </g>
    <g id="xtick_9">
     <g id="line2d_23">
      <path d="M 613.588523 211.44351 
L 613.588523 34.972751 
" clip-path="url(#pd11537ac74)" style="fill: none; stroke: #cfc7ab; stroke-width: 0.5; stroke-linecap: square"/>
     </g>
     <g id="line2d_24">
      <g>
       <use xlink:href="#m787f0dcad8" x="613.588523" y="211.44351" style="fill: #1f1f1f; stroke: #1f1f1f; stroke-width: 0.8"/>
      </g>
     </g>
     <g id="text_14">
      <!-- 0.0125 -->
      <g style="fill: #1f1f1f" transform="translate(594.34368 226.801791) scale(0.11 -0.11)">
       <use xlink:href="#DejaVuSerif-30"/>
       <use xlink:href="#DejaVuSerif-2e" transform="translate(63.623047 0)"/>
       <use xlink:href="#DejaVuSerif-30" transform="translate(95.410156 0)"/>
       <use xlink:href="#DejaVuSerif-31" transform="translate(159.033203 0)"/>
       <use xlink:href="#DejaVuSerif-32" transform="translate(222.65625 0)"/>
       <use xlink:href="#DejaVuSerif-35" transform="translate(286.279297 0)"/>
      </g>
     </g>
    </g>
    <g id="xtick_10">
     <g id="line2d_25">
      <path d="M 663.9099 211.44351 
L 663.9099 34.972751 
" clip-path="url(#pd11537ac74)" style="fill: none; stroke: #cfc7ab; stroke-width: 0.5; stroke-linecap: square"/>
     </g>
     <g id="line2d_26">
      <g>
       <use xlink:href="#m787f0dcad8" x="663.9099" y="211.44351" style="fill: #1f1f1f; stroke: #1f1f1f; stroke-width: 0.8"/>
      </g>
     </g>
     <g id="text_15">
      <!-- 0.0150 -->
      <g style="fill: #1f1f1f" transform="translate(644.665056 226.801791) scale(0.11 -0.11)">
       <use xlink:href="#DejaVuSerif-30"/>
       <use xlink:href="#DejaVuSerif-2e" transform="translate(63.623047 0)"/>
       <use xlink:href="#DejaVuSerif-30" transform="translate(95.410156 0)"/>
       <use xlink:href="#DejaVuSerif-31" transform="translate(159.033203 0)"/>
       <use xlink:href="#DejaVuSerif-35" transform="translate(222.65625 0)"/>
       <use xlink:href="#DejaVuSerif-30" transform="translate(286.279297 0)"/>
      </g>
     </g>
    </g>
    <g id="xtick_11">
     <g id="line2d_27">
      <path d="M 714.231276 211.44351 
L 714.231276 34.972751 
" clip-path="url(#pd11537ac74)" style="fill: none; stroke: #cfc7ab; stroke-width: 0.5; stroke-linecap: square"/>
     </g>
     <g id="line2d_28">
      <g>
       <use xlink:href="#m787f0dcad8" x="714.231276" y="211.44351" style="fill: #1f1f1f; stroke: #1f1f1f; stroke-width: 0.8"/>
      </g>
     </g>
     <g id="text_16">
      <!-- 0.0175 -->
      <g style="fill: #1f1f1f" transform="translate(694.986432 226.801791) scale(0.11 -0.11)">
       <use xlink:href="#DejaVuSerif-30"/>
       <use xlink:href="#DejaVuSerif-2e" transform="translate(63.623047 0)"/>
       <use xlink:href="#DejaVuSerif-30" transform="translate(95.410156 0)"/>
       <use xlink:href="#DejaVuSerif-31" transform="translate(159.033203 0)"/>
       <use xlink:href="#DejaVuSerif-37" transform="translate(222.65625 0)"/>
       <use xlink:href="#DejaVuSerif-35" transform="translate(286.279297 0)"/>
      </g>
     </g>
    </g>
    <g id="text_17">
     <!-- importance -->
     <g style="fill: #1f1f1f" transform="translate(531.470154 239.928041) scale(0.09 -0.09)">
      <use xlink:href="#DejaVuSerif-69"/>
      <use xlink:href="#DejaVuSerif-6d" transform="translate(31.982422 0)"/>
      <use xlink:href="#DejaVuSerif-70" transform="translate(126.806641 0)"/>
      <use xlink:href="#DejaVuSerif-6f" transform="translate(190.820312 0)"/>
      <use xlink:href="#DejaVuSerif-72" transform="translate(251.025391 0)"/>
      <use xlink:href="#DejaVuSerif-74" transform="translate(298.828125 0)"/>
      <use xlink:href="#DejaVuSerif-61" transform="translate(339.013672 0)"/>
      <use xlink:href="#DejaVuSerif-6e" transform="translate(398.632812 0)"/>
      <use xlink:href="#DejaVuSerif-63" transform="translate(463.037109 0)"/>
      <use xlink:href="#DejaVuSerif-65" transform="translate(519.042969 0)"/>
     </g>
    </g>
   </g>
   <g id="matplotlib.axis_4">
    <g id="ytick_4">
     <g id="line2d_29">
      <path d="M 361.981643 195.195037 
L 752.99976 195.195037 
" clip-path="url(#pd11537ac74)" style="fill: none; stroke: #cfc7ab; stroke-width: 0.5; stroke-linecap: square"/>
     </g>
     <g id="line2d_30">
      <g>
       <use xlink:href="#m82b19e1274" x="361.981643" y="195.195037" style="fill: #1f1f1f; stroke: #1f1f1f; stroke-width: 0.8"/>
      </g>
     </g>
     <g id="text_18">
      <!-- hab: Wetland -->
      <g style="fill: #1f1f1f" transform="translate(294.899611 198.614334) scale(0.09 -0.09)">
       <defs>
        <path id="DejaVuSerif-62" d="M 738 331 
L 738 4531 
L 184 4531 
L 184 4863 
L 1313 4863 
L 1313 2803 
Q 1481 3116 1742 3264 
Q 2003 3413 2388 3413 
Q 3000 3413 3387 2928 
Q 3775 2444 3775 1663 
Q 3775 881 3387 395 
Q 3000 -91 2388 -91 
Q 2003 -91 1742 57 
Q 1481 206 1313 519 
L 1313 0 
L 184 0 
L 184 331 
L 738 331 
z
M 1313 1497 
Q 1313 897 1542 583 
Q 1772 269 2209 269 
Q 2650 269 2876 622 
Q 3103 975 3103 1663 
Q 3103 2353 2876 2703 
Q 2650 3053 2209 3053 
Q 1772 3053 1542 2737 
Q 1313 2422 1313 1825 
L 1313 1497 
z
" transform="scale(0.015625)"/>
        <path id="DejaVuSerif-3a" d="M 666 325 
Q 666 500 786 622 
Q 906 744 1081 744 
Q 1256 744 1376 622 
Q 1497 500 1497 325 
Q 1497 150 1378 29 
Q 1259 -91 1081 -91 
Q 903 -91 784 29 
Q 666 150 666 325 
z
M 666 2363 
Q 666 2538 786 2658 
Q 906 2778 1081 2778 
Q 1259 2778 1378 2659 
Q 1497 2541 1497 2363 
Q 1497 2184 1378 2065 
Q 1259 1947 1081 1947 
Q 906 1947 786 2067 
Q 666 2188 666 2363 
z
" transform="scale(0.015625)"/>
        <path id="DejaVuSerif-57" d="M 4878 0 
L 4366 0 
L 3297 3794 
L 2228 0 
L 1716 0 
L 494 4331 
L 31 4331 
L 31 4666 
L 1734 4666 
L 1734 4331 
L 1153 4331 
L 2125 884 
L 3188 4666 
L 3694 4666 
L 4775 844 
L 5753 4331 
L 5216 4331 
L 5216 4666 
L 6559 4666 
L 6559 4331 
L 6100 4331 
L 4878 0 
z
" transform="scale(0.015625)"/>
       </defs>
       <use xlink:href="#DejaVuSerif-68"/>
       <use xlink:href="#DejaVuSerif-61" transform="translate(64.404297 0)"/>
       <use xlink:href="#DejaVuSerif-62" transform="translate(124.023438 0)"/>
       <use xlink:href="#DejaVuSerif-3a" transform="translate(188.037109 0)"/>
       <use xlink:href="#DejaVuSerif-20" transform="translate(221.728516 0)"/>
       <use xlink:href="#DejaVuSerif-57" transform="translate(253.515625 0)"/>
       <use xlink:href="#DejaVuSerif-65" transform="translate(348.173828 0)"/>
       <use xlink:href="#DejaVuSerif-74" transform="translate(407.353516 0)"/>
       <use xlink:href="#DejaVuSerif-6c" transform="translate(447.539062 0)"/>
       <use xlink:href="#DejaVuSerif-61" transform="translate(479.521484 0)"/>
       <use xlink:href="#DejaVuSerif-6e" transform="translate(539.140625 0)"/>
       <use xlink:href="#DejaVuSerif-64" transform="translate(603.544922 0)"/>
      </g>
     </g>
    </g>
    <g id="ytick_5">
     <g id="line2d_31">
      <path d="M 361.981643 174.627349 
L 752.99976 174.627349 
" clip-path="url(#pd11537ac74)" style="fill: none; stroke: #cfc7ab; stroke-width: 0.5; stroke-linecap: square"/>
     </g>
     <g id="line2d_32">
      <g>
       <use xlink:href="#m82b19e1274" x="361.981643" y="174.627349" style="fill: #1f1f1f; stroke: #1f1f1f; stroke-width: 0.8"/>
      </g>
     </g>
     <g id="text_19">
      <!-- hab: Grassland -->
      <g style="fill: #1f1f1f" transform="translate(286.268049 178.046646) scale(0.09 -0.09)">
       <defs>
        <path id="DejaVuSerif-47" d="M 4097 3272 
Q 3988 3856 3641 4136 
Q 3294 4416 2675 4416 
Q 1869 4416 1472 3897 
Q 1075 3378 1075 2328 
Q 1075 1300 1484 772 
Q 1894 244 2688 244 
Q 3041 244 3362 331 
Q 3684 419 3975 594 
L 3975 1797 
L 3097 1797 
L 3097 2131 
L 4609 2131 
L 4609 391 
Q 4194 150 3714 29 
Q 3234 -91 2688 -91 
Q 1631 -91 995 570 
Q 359 1231 359 2328 
Q 359 3434 996 4092 
Q 1634 4750 2713 4750 
Q 3113 4750 3539 4658 
Q 3966 4566 4447 4378 
L 4447 3272 
L 4097 3272 
z
" transform="scale(0.015625)"/>
       </defs>
       <use xlink:href="#DejaVuSerif-68"/>
       <use xlink:href="#DejaVuSerif-61" transform="translate(64.404297 0)"/>
       <use xlink:href="#DejaVuSerif-62" transform="translate(124.023438 0)"/>
       <use xlink:href="#DejaVuSerif-3a" transform="translate(188.037109 0)"/>
       <use xlink:href="#DejaVuSerif-20" transform="translate(221.728516 0)"/>
       <use xlink:href="#DejaVuSerif-47" transform="translate(253.515625 0)"/>
       <use xlink:href="#DejaVuSerif-72" transform="translate(333.398438 0)"/>
       <use xlink:href="#DejaVuSerif-61" transform="translate(381.201172 0)"/>
       <use xlink:href="#DejaVuSerif-73" transform="translate(440.820312 0)"/>
       <use xlink:href="#DejaVuSerif-73" transform="translate(492.138672 0)"/>
       <use xlink:href="#DejaVuSerif-6c" transform="translate(543.457031 0)"/>
       <use xlink:href="#DejaVuSerif-61" transform="translate(575.439453 0)"/>
       <use xlink:href="#DejaVuSerif-6e" transform="translate(635.058594 0)"/>
       <use xlink:href="#DejaVuSerif-64" transform="translate(699.462891 0)"/>
      </g>
     </g>
    </g>
    <g id="ytick_6">
     <g id="line2d_33">
      <path d="M 361.981643 154.059662 
L 752.99976 154.059662 
" clip-path="url(#pd11537ac74)" style="fill: none; stroke: #cfc7ab; stroke-width: 0.5; stroke-linecap: square"/>
     </g>
     <g id="line2d_34">
      <g>
       <use xlink:href="#m82b19e1274" x="361.981643" y="154.059662" style="fill: #1f1f1f; stroke: #1f1f1f; stroke-width: 0.8"/>
      </g>
     </g>
     <g id="text_20">
      <!-- hab: Shrubland -->
      <g style="fill: #1f1f1f" transform="translate(284.541174 157.478959) scale(0.09 -0.09)">
       <defs>
        <path id="DejaVuSerif-53" d="M 594 225 
L 594 1288 
L 953 1284 
Q 969 753 1261 498 
Q 1553 244 2150 244 
Q 2706 244 2998 464 
Q 3291 684 3291 1106 
Q 3291 1444 3114 1625 
Q 2938 1806 2369 1978 
L 1753 2163 
Q 1084 2366 811 2669 
Q 538 2972 538 3500 
Q 538 4094 959 4422 
Q 1381 4750 2144 4750 
Q 2469 4750 2856 4679 
Q 3244 4609 3681 4475 
L 3681 3481 
L 3328 3481 
Q 3275 3975 2998 4195 
Q 2722 4416 2156 4416 
Q 1663 4416 1405 4214 
Q 1147 4013 1147 3628 
Q 1147 3294 1340 3103 
Q 1534 2913 2163 2725 
L 2741 2553 
Q 3375 2363 3645 2067 
Q 3916 1772 3916 1275 
Q 3916 597 3481 253 
Q 3047 -91 2188 -91 
Q 1803 -91 1404 -12 
Q 1006 66 594 225 
z
" transform="scale(0.015625)"/>
       </defs>
       <use xlink:href="#DejaVuSerif-68"/>
       <use xlink:href="#DejaVuSerif-61" transform="translate(64.404297 0)"/>
       <use xlink:href="#DejaVuSerif-62" transform="translate(124.023438 0)"/>
       <use xlink:href="#DejaVuSerif-3a" transform="translate(188.037109 0)"/>
       <use xlink:href="#DejaVuSerif-20" transform="translate(221.728516 0)"/>
       <use xlink:href="#DejaVuSerif-53" transform="translate(253.515625 0)"/>
       <use xlink:href="#DejaVuSerif-68" transform="translate(322.021484 0)"/>
       <use xlink:href="#DejaVuSerif-72" transform="translate(386.425781 0)"/>
       <use xlink:href="#DejaVuSerif-75" transform="translate(434.228516 0)"/>
       <use xlink:href="#DejaVuSerif-62" transform="translate(498.632812 0)"/>
       <use xlink:href="#DejaVuSerif-6c" transform="translate(562.646484 0)"/>
       <use xlink:href="#DejaVuSerif-61" transform="translate(594.628906 0)"/>
       <use xlink:href="#DejaVuSerif-6e" transform="translate(654.248047 0)"/>
       <use xlink:href="#DejaVuSerif-64" transform="translate(718.652344 0)"/>
      </g>
     </g>
    </g>
    <g id="ytick_7">
     <g id="line2d_35">
      <path d="M 361.981643 133.491974 
L 752.99976 133.491974 
" clip-path="url(#pd11537ac74)" style="fill: none; stroke: #cfc7ab; stroke-width: 0.5; stroke-linecap: square"/>
     </g>
     <g id="line2d_36">
      <g>
       <use xlink:href="#m82b19e1274" x="361.981643" y="133.491974" style="fill: #1f1f1f; stroke: #1f1f1f; stroke-width: 0.8"/>
      </g>
     </g>
     <g id="text_21">
      <!-- hab: Forest -->
      <g style="fill: #1f1f1f" transform="translate(303.133205 136.911271) scale(0.09 -0.09)">
       <defs>
        <path id="DejaVuSerif-46" d="M 353 0 
L 353 331 
L 947 331 
L 947 4331 
L 353 4331 
L 353 4666 
L 4172 4666 
L 4172 3628 
L 3788 3628 
L 3788 4281 
L 1581 4281 
L 1581 2719 
L 3175 2719 
L 3175 3303 
L 3559 3303 
L 3559 1753 
L 3175 1753 
L 3175 2338 
L 1581 2338 
L 1581 331 
L 2328 331 
L 2328 0 
L 353 0 
z
" transform="scale(0.015625)"/>
       </defs>
       <use xlink:href="#DejaVuSerif-68"/>
       <use xlink:href="#DejaVuSerif-61" transform="translate(64.404297 0)"/>
       <use xlink:href="#DejaVuSerif-62" transform="translate(124.023438 0)"/>
       <use xlink:href="#DejaVuSerif-3a" transform="translate(188.037109 0)"/>
       <use xlink:href="#DejaVuSerif-20" transform="translate(221.728516 0)"/>
       <use xlink:href="#DejaVuSerif-46" transform="translate(253.515625 0)"/>
       <use xlink:href="#DejaVuSerif-6f" transform="translate(317.400391 0)"/>
       <use xlink:href="#DejaVuSerif-72" transform="translate(377.605469 0)"/>
       <use xlink:href="#DejaVuSerif-65" transform="translate(425.408203 0)"/>
       <use xlink:href="#DejaVuSerif-73" transform="translate(484.587891 0)"/>
       <use xlink:href="#DejaVuSerif-74" transform="translate(535.90625 0)"/>
      </g>
     </g>
    </g>
    <g id="ytick_8">
     <g id="line2d_37">
      <path d="M 361.981643 112.924287 
L 752.99976 112.924287 
" clip-path="url(#pd11537ac74)" style="fill: none; stroke: #cfc7ab; stroke-width: 0.5; stroke-linecap: square"/>
     </g>
     <g id="line2d_38">
      <g>
       <use xlink:href="#m82b19e1274" x="361.981643" y="112.924287" style="fill: #1f1f1f; stroke: #1f1f1f; stroke-width: 0.8"/>
      </g>
     </g>
     <g id="text_22">
      <!-- dev: Urban -->
      <g style="fill: #1f1f1f" transform="translate(304.104924 116.343584) scale(0.09 -0.09)">
       <defs>
        <path id="DejaVuSerif-76" d="M 1581 0 
L 359 2988 
L -19 2988 
L -19 3322 
L 1509 3322 
L 1509 2988 
L 978 2988 
L 1913 703 
L 2847 2988 
L 2350 2988 
L 2350 3322 
L 3597 3322 
L 3597 2988 
L 3225 2988 
L 2003 0 
L 1581 0 
z
" transform="scale(0.015625)"/>
        <path id="DejaVuSerif-55" d="M 897 4331 
L 300 4331 
L 300 4666 
L 2125 4666 
L 2125 4331 
L 1528 4331 
L 1528 1919 
Q 1528 1025 1820 672 
Q 2113 319 2828 319 
Q 3544 319 3836 672 
Q 4128 1025 4128 1919 
L 4128 4331 
L 3531 4331 
L 3531 4666 
L 5106 4666 
L 5106 4331 
L 4513 4331 
L 4513 1856 
Q 4513 791 4103 350 
Q 3694 -91 2713 -91 
Q 1731 -91 1314 353 
Q 897 797 897 1856 
L 897 4331 
z
" transform="scale(0.015625)"/>
       </defs>
       <use xlink:href="#DejaVuSerif-64"/>
       <use xlink:href="#DejaVuSerif-65" transform="translate(64.013672 0)"/>
       <use xlink:href="#DejaVuSerif-76" transform="translate(123.193359 0)"/>
       <use xlink:href="#DejaVuSerif-3a" transform="translate(179.6875 0)"/>
       <use xlink:href="#DejaVuSerif-20" transform="translate(213.378906 0)"/>
       <use xlink:href="#DejaVuSerif-55" transform="translate(245.166016 0)"/>
       <use xlink:href="#DejaVuSerif-72" transform="translate(329.443359 0)"/>
       <use xlink:href="#DejaVuSerif-62" transform="translate(377.246094 0)"/>
       <use xlink:href="#DejaVuSerif-61" transform="translate(441.259766 0)"/>
       <use xlink:href="#DejaVuSerif-6e" transform="translate(500.878906 0)"/>
      </g>
     </g>
    </g>
    <g id="ytick_9">
     <g id="line2d_39">
      <path d="M 361.981643 92.356599 
L 752.99976 92.356599 
" clip-path="url(#pd11537ac74)" style="fill: none; stroke: #cfc7ab; stroke-width: 0.5; stroke-linecap: square"/>
     </g>
     <g id="line2d_40">
      <g>
       <use xlink:href="#m82b19e1274" x="361.981643" y="92.356599" style="fill: #1f1f1f; stroke: #1f1f1f; stroke-width: 0.8"/>
      </g>
     </g>
     <g id="text_23">
      <!-- dev: Rural -->
      <g style="fill: #1f1f1f" transform="translate(307.79633 95.775896) scale(0.09 -0.09)">
       <defs>
        <path id="DejaVuSerif-52" d="M 3066 2316 
Q 3284 2256 3442 2114 
Q 3600 1972 3725 1716 
L 4403 331 
L 4972 331 
L 4972 0 
L 3872 0 
L 3144 1484 
Q 2934 1916 2759 2042 
Q 2584 2169 2278 2169 
L 1581 2169 
L 1581 331 
L 2241 331 
L 2241 0 
L 353 0 
L 353 331 
L 947 331 
L 947 4331 
L 353 4331 
L 353 4666 
L 2719 4666 
Q 3400 4666 3770 4341 
Q 4141 4016 4141 3419 
Q 4141 2938 3870 2661 
Q 3600 2384 3066 2316 
z
M 1581 2503 
L 2503 2503 
Q 2975 2503 3200 2726 
Q 3425 2950 3425 3419 
Q 3425 3888 3200 4109 
Q 2975 4331 2503 4331 
L 1581 4331 
L 1581 2503 
z
" transform="scale(0.015625)"/>
       </defs>
       <use xlink:href="#DejaVuSerif-64"/>
       <use xlink:href="#DejaVuSerif-65" transform="translate(64.013672 0)"/>
       <use xlink:href="#DejaVuSerif-76" transform="translate(123.193359 0)"/>
       <use xlink:href="#DejaVuSerif-3a" transform="translate(179.6875 0)"/>
       <use xlink:href="#DejaVuSerif-20" transform="translate(213.378906 0)"/>
       <use xlink:href="#DejaVuSerif-52" transform="translate(245.166016 0)"/>
       <use xlink:href="#DejaVuSerif-75" transform="translate(320.458984 0)"/>
       <use xlink:href="#DejaVuSerif-72" transform="translate(384.863281 0)"/>
       <use xlink:href="#DejaVuSerif-61" transform="translate(432.666016 0)"/>
       <use xlink:href="#DejaVuSerif-6c" transform="translate(492.285156 0)"/>
      </g>
     </g>
    </g>
    <g id="ytick_10">
     <g id="line2d_41">
      <path d="M 361.981643 71.788912 
L 752.99976 71.788912 
" clip-path="url(#pd11537ac74)" style="fill: none; stroke: #cfc7ab; stroke-width: 0.5; stroke-linecap: square"/>
     </g>
     <g id="line2d_42">
      <g>
       <use xlink:href="#m82b19e1274" x="361.981643" y="71.788912" style="fill: #1f1f1f; stroke: #1f1f1f; stroke-width: 0.8"/>
      </g>
     </g>
     <g id="text_24">
      <!-- dev: Wild -->
      <g style="fill: #1f1f1f" transform="translate(312.304768 75.208209) scale(0.09 -0.09)">
       <use xlink:href="#DejaVuSerif-64"/>
       <use xlink:href="#DejaVuSerif-65" transform="translate(64.013672 0)"/>
       <use xlink:href="#DejaVuSerif-76" transform="translate(123.193359 0)"/>
       <use xlink:href="#DejaVuSerif-3a" transform="translate(179.6875 0)"/>
       <use xlink:href="#DejaVuSerif-20" transform="translate(213.378906 0)"/>
       <use xlink:href="#DejaVuSerif-57" transform="translate(245.166016 0)"/>
       <use xlink:href="#DejaVuSerif-69" transform="translate(346.199219 0)"/>
       <use xlink:href="#DejaVuSerif-6c" transform="translate(378.181641 0)"/>
       <use xlink:href="#DejaVuSerif-64" transform="translate(410.164062 0)"/>
      </g>
     </g>
    </g>
    <g id="ytick_11">
     <g id="line2d_43">
      <path d="M 361.981643 51.221224 
L 752.99976 51.221224 
" clip-path="url(#pd11537ac74)" style="fill: none; stroke: #cfc7ab; stroke-width: 0.5; stroke-linecap: square"/>
     </g>
     <g id="line2d_44">
      <g>
       <use xlink:href="#m82b19e1274" x="361.981643" y="51.221224" style="fill: #1f1f1f; stroke: #1f1f1f; stroke-width: 0.8"/>
      </g>
     </g>
     <g id="text_25">
      <!-- dev: Suburban -->
      <g style="fill: #1f1f1f" transform="translate(288.170705 54.640521) scale(0.09 -0.09)">
       <use xlink:href="#DejaVuSerif-64"/>
       <use xlink:href="#DejaVuSerif-65" transform="translate(64.013672 0)"/>
       <use xlink:href="#DejaVuSerif-76" transform="translate(123.193359 0)"/>
       <use xlink:href="#DejaVuSerif-3a" transform="translate(179.6875 0)"/>
       <use xlink:href="#DejaVuSerif-20" transform="translate(213.378906 0)"/>
       <use xlink:href="#DejaVuSerif-53" transform="translate(245.166016 0)"/>
       <use xlink:href="#DejaVuSerif-75" transform="translate(313.671875 0)"/>
       <use xlink:href="#DejaVuSerif-62" transform="translate(378.076172 0)"/>
       <use xlink:href="#DejaVuSerif-75" transform="translate(442.089844 0)"/>
       <use xlink:href="#DejaVuSerif-72" transform="translate(506.494141 0)"/>
       <use xlink:href="#DejaVuSerif-62" transform="translate(554.296875 0)"/>
       <use xlink:href="#DejaVuSerif-61" transform="translate(618.310547 0)"/>
       <use xlink:href="#DejaVuSerif-6e" transform="translate(677.929688 0)"/>
      </g>
     </g>
    </g>
   </g>
   <g id="patch_19">
    <path d="M 361.981643 211.44351 
L 361.981643 34.972751 
" style="fill: none; stroke: #1f1f1f; stroke-width: 0.8; stroke-linejoin: miter; stroke-linecap: square"/>
   </g>
   <g id="patch_20">
    <path d="M 752.99976 211.44351 
L 752.99976 34.972751 
" style="fill: none; stroke: #1f1f1f; stroke-width: 0.8; stroke-linejoin: miter; stroke-linecap: square"/>
   </g>
   <g id="patch_21">
    <path d="M 361.981643 211.44351 
L 752.99976 211.44351 
" style="fill: none; stroke: #1f1f1f; stroke-width: 0.8; stroke-linejoin: miter; stroke-linecap: square"/>
   </g>
   <g id="patch_22">
    <path d="M 361.981643 34.972751 
L 752.99976 34.972751 
" style="fill: none; stroke: #1f1f1f; stroke-width: 0.8; stroke-linejoin: miter; stroke-linecap: square"/>
   </g>
   <g id="text_26">
    <!-- Habitat + development (top 8) -->
    <g style="fill: #1f3a5f" transform="translate(472.047342 28.972751) scale(0.11 -0.11)">
     <defs>
      <path id="DejaVuSerif-48" d="M 353 0 
L 353 331 
L 947 331 
L 947 4331 
L 353 4331 
L 353 4666 
L 2175 4666 
L 2175 4331 
L 1581 4331 
L 1581 2719 
L 4000 2719 
L 4000 4331 
L 3406 4331 
L 3406 4666 
L 5228 4666 
L 5228 4331 
L 4634 4331 
L 4634 331 
L 5228 331 
L 5228 0 
L 3406 0 
L 3406 331 
L 4000 331 
L 4000 2338 
L 1581 2338 
L 1581 331 
L 2175 331 
L 2175 0 
L 353 0 
z
" transform="scale(0.015625)"/>
      <path id="DejaVuSerif-28" d="M 2041 -997 
Q 1281 -656 893 83 
Q 506 822 506 1931 
Q 506 3044 893 3783 
Q 1281 4522 2041 4863 
L 2041 4556 
Q 1559 4225 1350 3623 
Q 1141 3022 1141 1931 
Q 1141 844 1350 242 
Q 1559 -359 2041 -691 
L 2041 -997 
z
" transform="scale(0.015625)"/>
      <path id="DejaVuSerif-38" d="M 2981 1275 
Q 2981 1775 2732 2051 
Q 2484 2328 2034 2328 
Q 1584 2328 1336 2051 
Q 1088 1775 1088 1275 
Q 1088 772 1336 495 
Q 1584 219 2034 219 
Q 2484 219 2732 495 
Q 2981 772 2981 1275 
z
M 2853 3541 
Q 2853 3966 2637 4203 
Q 2422 4441 2034 4441 
Q 1650 4441 1433 4203 
Q 1216 3966 1216 3541 
Q 1216 3113 1433 2875 
Q 1650 2638 2034 2638 
Q 2422 2638 2637 2875 
Q 2853 3113 2853 3541 
z
M 2516 2484 
Q 3047 2413 3344 2092 
Q 3641 1772 3641 1275 
Q 3641 619 3225 264 
Q 2809 -91 2034 -91 
Q 1263 -91 845 264 
Q 428 619 428 1275 
Q 428 1772 725 2092 
Q 1022 2413 1556 2484 
Q 1084 2569 832 2842 
Q 581 3116 581 3541 
Q 581 4103 968 4426 
Q 1356 4750 2034 4750 
Q 2713 4750 3100 4426 
Q 3488 4103 3488 3541 
Q 3488 3116 3236 2842 
Q 2984 2569 2516 2484 
z
" transform="scale(0.015625)"/>
      <path id="DejaVuSerif-29" d="M 453 -997 
L 453 -691 
Q 934 -359 1145 242 
Q 1356 844 1356 1931 
Q 1356 3022 1145 3623 
Q 934 4225 453 4556 
L 453 4863 
Q 1216 4522 1603 3783 
Q 1991 3044 1991 1931 
Q 1991 822 1603 83 
Q 1216 -656 453 -997 
z
" transform="scale(0.015625)"/>
     </defs>
     <use xlink:href="#DejaVuSerif-48"/>
     <use xlink:href="#DejaVuSerif-61" transform="translate(87.207031 0)"/>
     <use xlink:href="#DejaVuSerif-62" transform="translate(146.826172 0)"/>
     <use xlink:href="#DejaVuSerif-69" transform="translate(210.839844 0)"/>
     <use xlink:href="#DejaVuSerif-74" transform="translate(242.822266 0)"/>
     <use xlink:href="#DejaVuSerif-61" transform="translate(283.007812 0)"/>
     <use xlink:href="#DejaVuSerif-74" transform="translate(342.626953 0)"/>
     <use xlink:href="#DejaVuSerif-20" transform="translate(382.8125 0)"/>
     <use xlink:href="#DejaVuSerif-2b" transform="translate(414.599609 0)"/>
     <use xlink:href="#DejaVuSerif-20" transform="translate(498.388672 0)"/>
     <use xlink:href="#DejaVuSerif-64" transform="translate(530.175781 0)"/>
     <use xlink:href="#DejaVuSerif-65" transform="translate(594.189453 0)"/>
     <use xlink:href="#DejaVuSerif-76" transform="translate(653.369141 0)"/>
     <use xlink:href="#DejaVuSerif-65" transform="translate(709.863281 0)"/>
     <use xlink:href="#DejaVuSerif-6c" transform="translate(769.042969 0)"/>
     <use xlink:href="#DejaVuSerif-6f" transform="translate(801.025391 0)"/>
     <use xlink:href="#DejaVuSerif-70" transform="translate(861.230469 0)"/>
     <use xlink:href="#DejaVuSerif-6d" transform="translate(925.244141 0)"/>
     <use xlink:href="#DejaVuSerif-65" transform="translate(1020.068359 0)"/>
     <use xlink:href="#DejaVuSerif-6e" transform="translate(1079.248047 0)"/>
     <use xlink:href="#DejaVuSerif-74" transform="translate(1143.652344 0)"/>
     <use xlink:href="#DejaVuSerif-20" transform="translate(1183.837891 0)"/>
     <use xlink:href="#DejaVuSerif-28" transform="translate(1215.625 0)"/>
     <use xlink:href="#DejaVuSerif-74" transform="translate(1254.638672 0)"/>
     <use xlink:href="#DejaVuSerif-6f" transform="translate(1294.824219 0)"/>
     <use xlink:href="#DejaVuSerif-70" transform="translate(1355.029297 0)"/>
     <use xlink:href="#DejaVuSerif-20" transform="translate(1419.042969 0)"/>
     <use xlink:href="#DejaVuSerif-38" transform="translate(1450.830078 0)"/>
     <use xlink:href="#DejaVuSerif-29" transform="translate(1514.453125 0)"/>
    </g>
   </g>
  </g>
  <g id="text_27">
   <!-- RF predictors of camera-level Jaccard   ·   test R² = 0.46 -->
   <g style="fill: #1f3a5f" transform="translate(206.704688 12.118365) scale(0.12 -0.12)">
    <defs>
     <path id="DejaVuSerif-2d" d="M 281 1959 
L 1881 1959 
L 1881 1472 
L 281 1472 
L 281 1959 
z
" transform="scale(0.015625)"/>
     <path id="DejaVuSerif-4a" d="M -538 -1119 
L -538 -384 
L -181 -384 
Q -172 -694 -34 -845 
Q 103 -997 378 -997 
Q 750 -997 897 -762 
Q 1044 -528 1044 153 
L 1044 4331 
L 319 4331 
L 319 4666 
L 2272 4666 
L 2272 4331 
L 1678 4331 
L 1678 128 
Q 1678 -644 1368 -987 
Q 1059 -1331 372 -1331 
Q 150 -1331 -79 -1278 
Q -309 -1225 -538 -1119 
z
" transform="scale(0.015625)"/>
     <path id="DejaVuSerif-b7" d="M 594 2222 
Q 594 2397 714 2517 
Q 834 2638 1013 2638 
Q 1184 2638 1306 2516 
Q 1428 2394 1428 2222 
Q 1428 2047 1306 1926 
Q 1184 1806 1013 1806 
Q 834 1806 714 1925 
Q 594 2044 594 2222 
z
" transform="scale(0.015625)"/>
     <path id="DejaVuSerif-b2" d="M 531 4050 
L 313 4050 
L 313 4544 
Q 519 4644 737 4697 
Q 956 4750 1172 4750 
Q 1603 4750 1870 4544 
Q 2138 4338 2138 4013 
Q 2138 3631 1531 3088 
L 1472 3034 
L 728 2363 
L 1931 2363 
L 1931 2700 
L 2163 2700 
L 2163 2088 
L 281 2088 
L 281 2322 
L 1172 3116 
Q 1441 3356 1556 3547 
Q 1672 3738 1672 3944 
Q 1672 4209 1520 4364 
Q 1369 4519 1106 4519 
Q 863 4519 716 4400 
Q 569 4281 531 4050 
z
" transform="scale(0.015625)"/>
     <path id="DejaVuSerif-3d" d="M 678 2894 
L 4684 2894 
L 4684 2394 
L 678 2394 
L 678 2894 
z
M 678 1619 
L 4684 1619 
L 4684 1119 
L 678 1119 
L 678 1619 
z
" transform="scale(0.015625)"/>
     <path id="DejaVuSerif-36" d="M 2094 219 
Q 2534 219 2771 542 
Q 3009 866 3009 1472 
Q 3009 2078 2771 2401 
Q 2534 2725 2094 2725 
Q 1647 2725 1412 2412 
Q 1178 2100 1178 1509 
Q 1178 888 1415 553 
Q 1653 219 2094 219 
z
M 1075 2569 
Q 1288 2803 1556 2918 
Q 1825 3034 2163 3034 
Q 2859 3034 3264 2615 
Q 3669 2197 3669 1472 
Q 3669 763 3233 336 
Q 2797 -91 2069 -91 
Q 1278 -91 853 498 
Q 428 1088 428 2181 
Q 428 3406 931 4078 
Q 1434 4750 2350 4750 
Q 2597 4750 2869 4703 
Q 3141 4656 3425 4563 
L 3425 3794 
L 3072 3794 
Q 3034 4109 2831 4275 
Q 2628 4441 2284 4441 
Q 1678 4441 1381 3981 
Q 1084 3522 1075 2569 
z
" transform="scale(0.015625)"/>
    </defs>
    <use xlink:href="#DejaVuSerif-52"/>
    <use xlink:href="#DejaVuSerif-46" transform="translate(75.292969 0)"/>
    <use xlink:href="#DejaVuSerif-20" transform="translate(144.677734 0)"/>
    <use xlink:href="#DejaVuSerif-70" transform="translate(176.464844 0)"/>
    <use xlink:href="#DejaVuSerif-72" transform="translate(240.478516 0)"/>
    <use xlink:href="#DejaVuSerif-65" transform="translate(288.28125 0)"/>
    <use xlink:href="#DejaVuSerif-64" transform="translate(347.460938 0)"/>
    <use xlink:href="#DejaVuSerif-69" transform="translate(411.474609 0)"/>
    <use xlink:href="#DejaVuSerif-63" transform="translate(443.457031 0)"/>
    <use xlink:href="#DejaVuSerif-74" transform="translate(499.462891 0)"/>
    <use xlink:href="#DejaVuSerif-6f" transform="translate(539.648438 0)"/>
    <use xlink:href="#DejaVuSerif-72" transform="translate(599.853516 0)"/>
    <use xlink:href="#DejaVuSerif-73" transform="translate(647.65625 0)"/>
    <use xlink:href="#DejaVuSerif-20" transform="translate(698.974609 0)"/>
    <use xlink:href="#DejaVuSerif-6f" transform="translate(730.761719 0)"/>
    <use xlink:href="#DejaVuSerif-66" transform="translate(790.966797 0)"/>
    <use xlink:href="#DejaVuSerif-20" transform="translate(827.978516 0)"/>
    <use xlink:href="#DejaVuSerif-63" transform="translate(859.765625 0)"/>
    <use xlink:href="#DejaVuSerif-61" transform="translate(915.771484 0)"/>
    <use xlink:href="#DejaVuSerif-6d" transform="translate(975.390625 0)"/>
    <use xlink:href="#DejaVuSerif-65" transform="translate(1070.214844 0)"/>
    <use xlink:href="#DejaVuSerif-72" transform="translate(1129.394531 0)"/>
    <use xlink:href="#DejaVuSerif-61" transform="translate(1177.197266 0)"/>
    <use xlink:href="#DejaVuSerif-2d" transform="translate(1236.816406 0)"/>
    <use xlink:href="#DejaVuSerif-6c" transform="translate(1270.605469 0)"/>
    <use xlink:href="#DejaVuSerif-65" transform="translate(1302.587891 0)"/>
    <use xlink:href="#DejaVuSerif-76" transform="translate(1361.767578 0)"/>
    <use xlink:href="#DejaVuSerif-65" transform="translate(1418.261719 0)"/>
    <use xlink:href="#DejaVuSerif-6c" transform="translate(1477.441406 0)"/>
    <use xlink:href="#DejaVuSerif-20" transform="translate(1509.423828 0)"/>
    <use xlink:href="#DejaVuSerif-4a" transform="translate(1541.210938 0)"/>
    <use xlink:href="#DejaVuSerif-61" transform="translate(1581.298828 0)"/>
    <use xlink:href="#DejaVuSerif-63" transform="translate(1640.917969 0)"/>
    <use xlink:href="#DejaVuSerif-63" transform="translate(1696.923828 0)"/>
    <use xlink:href="#DejaVuSerif-61" transform="translate(1752.929688 0)"/>
    <use xlink:href="#DejaVuSerif-72" transform="translate(1812.548828 0)"/>
    <use xlink:href="#DejaVuSerif-64" transform="translate(1860.351562 0)"/>
    <use xlink:href="#DejaVuSerif-20" transform="translate(1924.365234 0)"/>
    <use xlink:href="#DejaVuSerif-20" transform="translate(1956.152344 0)"/>
    <use xlink:href="#DejaVuSerif-20" transform="translate(1987.939453 0)"/>
    <use xlink:href="#DejaVuSerif-b7" transform="translate(2019.726562 0)"/>
    <use xlink:href="#DejaVuSerif-20" transform="translate(2051.513672 0)"/>
    <use xlink:href="#DejaVuSerif-20" transform="translate(2083.300781 0)"/>
    <use xlink:href="#DejaVuSerif-20" transform="translate(2115.087891 0)"/>
    <use xlink:href="#DejaVuSerif-74" transform="translate(2146.875 0)"/>
    <use xlink:href="#DejaVuSerif-65" transform="translate(2187.060547 0)"/>
    <use xlink:href="#DejaVuSerif-73" transform="translate(2246.240234 0)"/>
    <use xlink:href="#DejaVuSerif-74" transform="translate(2297.558594 0)"/>
    <use xlink:href="#DejaVuSerif-20" transform="translate(2337.744141 0)"/>
    <use xlink:href="#DejaVuSerif-52" transform="translate(2369.53125 0)"/>
    <use xlink:href="#DejaVuSerif-b2" transform="translate(2444.824219 0)"/>
    <use xlink:href="#DejaVuSerif-20" transform="translate(2484.912109 0)"/>
    <use xlink:href="#DejaVuSerif-3d" transform="translate(2516.699219 0)"/>
    <use xlink:href="#DejaVuSerif-20" transform="translate(2600.488281 0)"/>
    <use xlink:href="#DejaVuSerif-30" transform="translate(2632.275391 0)"/>
    <use xlink:href="#DejaVuSerif-2e" transform="translate(2695.898438 0)"/>
    <use xlink:href="#DejaVuSerif-34" transform="translate(2727.685547 0)"/>
    <use xlink:href="#DejaVuSerif-36" transform="translate(2791.308594 0)"/>
   </g>
  </g>
 </g>
 <defs>
  <clipPath id="p45224e4bf7">
   <rect x="81.472115" y="34.972751" width="195.509059" height="176.470759"/>
  </clipPath>
  <clipPath id="pd11537ac74">
   <rect x="361.981643" y="34.972751" width="391.018117" height="176.470759"/>
  </clipPath>
 </defs>
</svg>
