<?xml version="1.0" encoding="utf-8" standalone="no"?>
<!DOCTYPE svg PUBLIC "-//W3C//DTD SVG 1.1//EN"
  "http://www.w3.org/Graphics/SVG/1.1/DTD/svg11.dtd">
<svg xmlns:xlink="http://www.w3.org/1999/xlink" width="756pt" height="244.8pt" viewBox="0 0 756 244.8" xmlns="http://www.w3.org/2000/svg" version="1.1">
 <metadata>
  <rdf:RDF xmlns:dc="http://purl.org/dc/elements/1.1/" xmlns:cc="http://creativecommons.org/ns#" xmlns:rdf="http://www.w3.org/1999/02/22-rdf-syntax-ns#">
   <cc:Work>
    <dc:type rdf:resource="http://purl.org/dc/dcmitype/StillImage"/>
    <dc:date>2026-04-28T13:55:03.032689</dc:date>
    <dc:format>image/svg+xml</dc:format>
    <dc:creator>
     <cc:Agent>
      <dc:title>Matplotlib v3.10.8, https://matplotlib.org/</dc:title>
     </cc:Agent>
    </dc:creator>
   </cc:Work>
  </rdf:RDF>
 </metadata>
 <defs>
  <style type="text/css">*{stroke-linejoin: round; stroke-linecap: butt}</style>
 </defs>
 <g id="figure_1">
  <g id="patch_1">
   <path d="M 0 244.8 
L 756 244.8 
L 756 0 
L 0 0 
L 0 244.8 
z
" style="fill: none"/>
  </g>
  <g id="axes_1">
   <g id="patch_2">
    <path d="M 45.798834 209.351479 
L 752.99976 209.351479 
L 752.99976 19.030177 
L 45.798834 19.030177 
L 45.798834 209.351479 
z
" style="fill: none"/>
   </g>
   <g id="PathCollection_1">
    <defs>
     <path id="C0_0_61bd254d67" d="M 0 2.12132 
C 0.562581 2.12132 1.102195 1.897805 1.5 1.5 
C 1.897805 1.102195 2.12132 0.562581 2.12132 -0 
C 2.12132 -0.562581 1.897805 -1.102195 1.5 -1.5 
C 1.102195 -1.897805 0.562581 -2.12132 0 -2.12132 
C -0.562581 -2.12132 -1.102195 -1.897805 -1.5 -1.5 
C -1.897805 -1.102195 -2.12132 -0.562581 -2.12132 0 
C -2.12132 0.562581 -1.897805 1.102195 -1.5 1.5 
C -1.102195 1.897805 -0.562581 2.12132 0 2.12132 
z
"/>
    </defs>
    <g clip-path="url(#pdeec3ac544)">
     <use xlink:href="#C0_0_61bd254d67" x="158.623224" y="185.094842" style="fill: #c7623c; fill-opacity: 0.7; stroke: #1f1f1f; stroke-opacity: 0.7; stroke-width: 0.3"/>
    </g>
    <g clip-path="url(#pdeec3ac544)">
     <use xlink:href="#C0_0_61bd254d67" x="82.986761" y="200.700511" style="fill: #c7623c; fill-opacity: 0.7; stroke: #1f1f1f; stroke-opacity: 0.7; stroke-width: 0.3"/>
    </g>
    <g clip-path="url(#pdeec3ac544)">
     <use xlink:href="#C0_0_61bd254d67" x="143.495931" y="193.23693" style="fill: #c7623c; fill-opacity: 0.7; stroke: #1f1f1f; stroke-opacity: 0.7; stroke-width: 0.3"/>
    </g>
    <g clip-path="url(#pdeec3ac544)">
     <use xlink:href="#C0_0_61bd254d67" x="110.720131" y="198.664989" style="fill: #c7623c; fill-opacity: 0.7; stroke: #1f1f1f; stroke-opacity: 0.7; stroke-width: 0.3"/>
    </g>
    <g clip-path="url(#pdeec3ac544)">
     <use xlink:href="#C0_0_61bd254d67" x="221.65361" y="195.272452" style="fill: #c7623c; fill-opacity: 0.7; stroke: #1f1f1f; stroke-opacity: 0.7; stroke-width: 0.3"/>
    </g>
    <g clip-path="url(#pdeec3ac544)">
     <use xlink:href="#C0_0_61bd254d67" x="715.811833" y="32.430697" style="fill: #c7623c; fill-opacity: 0.7; stroke: #1f1f1f; stroke-opacity: 0.7; stroke-width: 0.3"/>
    </g>
    <g clip-path="url(#pdeec3ac544)">
     <use xlink:href="#C0_0_61bd254d67" x="130.889854" y="191.201408" style="fill: #c7623c; fill-opacity: 0.7; stroke: #1f1f1f; stroke-opacity: 0.7; stroke-width: 0.3"/>
    </g>
    <g clip-path="url(#pdeec3ac544)">
     <use xlink:href="#C0_0_61bd254d67" x="82.986761" y="198.664989" style="fill: #1f3a5f; fill-opacity: 0.7; stroke: #1f1f1f; stroke-opacity: 0.7; stroke-width: 0.3"/>
    </g>
    <g clip-path="url(#pdeec3ac544)">
     <use xlink:href="#C0_0_61bd254d67" x="168.708086" y="181.023798" style="fill: #c7623c; fill-opacity: 0.7; stroke: #1f1f1f; stroke-opacity: 0.7; stroke-width: 0.3"/>
    </g>
    <g clip-path="url(#pdeec3ac544)">
     <use xlink:href="#C0_0_61bd254d67" x="95.592838" y="200.700511" style="fill: #c7623c; fill-opacity: 0.7; stroke: #1f1f1f; stroke-opacity: 0.7; stroke-width: 0.3"/>
    </g>
    <g clip-path="url(#pdeec3ac544)">
     <use xlink:href="#C0_0_61bd254d67" x="80.465546" y="200.700511" style="fill: #c7623c; fill-opacity: 0.7; stroke: #1f1f1f; stroke-opacity: 0.7; stroke-width: 0.3"/>
    </g>
    <g clip-path="url(#pdeec3ac544)">
     <use xlink:href="#C0_0_61bd254d67" x="125.847423" y="197.986481" style="fill: #c7623c; fill-opacity: 0.7; stroke: #1f1f1f; stroke-opacity: 0.7; stroke-width: 0.3"/>
    </g>
    <g clip-path="url(#pdeec3ac544)">
     <use xlink:href="#C0_0_61bd254d67" x="85.507977" y="200.700511" style="fill: #c7623c; fill-opacity: 0.7; stroke: #1f1f1f; stroke-opacity: 0.7; stroke-width: 0.3"/>
    </g>
    <g clip-path="url(#pdeec3ac544)">
     <use xlink:href="#C0_0_61bd254d67" x="88.029192" y="200.022003" style="fill: #c7623c; fill-opacity: 0.7; stroke: #1f1f1f; stroke-opacity: 0.7; stroke-width: 0.3"/>
    </g>
    <g clip-path="url(#pdeec3ac544)">
     <use xlink:href="#C0_0_61bd254d67" x="140.974716" y="197.307974" style="fill: #c7623c; fill-opacity: 0.7; stroke: #1f1f1f; stroke-opacity: 0.7; stroke-width: 0.3"/>
    </g>
    <g clip-path="url(#pdeec3ac544)">
     <use xlink:href="#C0_0_61bd254d67" x="246.865764" y="155.919028" style="fill: #c7623c; fill-opacity: 0.7; stroke: #1f1f1f; stroke-opacity: 0.7; stroke-width: 0.3"/>
    </g>
    <g clip-path="url(#pdeec3ac544)">
     <use xlink:href="#C0_0_61bd254d67" x="554.454045" y="83.318745" style="fill: #c7623c; fill-opacity: 0.7; stroke: #1f1f1f; stroke-opacity: 0.7; stroke-width: 0.3"/>
    </g>
    <g clip-path="url(#pdeec3ac544)">
     <use xlink:href="#C0_0_61bd254d67" x="322.502226" y="174.238725" style="fill: #c7623c; fill-opacity: 0.7; stroke: #1f1f1f; stroke-opacity: 0.7; stroke-width: 0.3"/>
    </g>
    <g clip-path="url(#pdeec3ac544)">
     <use xlink:href="#C0_0_61bd254d67" x="95.592838" y="200.022003" style="fill: #c7623c; fill-opacity: 0.7; stroke: #1f1f1f; stroke-opacity: 0.7; stroke-width: 0.3"/>
    </g>
    <g clip-path="url(#pdeec3ac544)">
     <use xlink:href="#C0_0_61bd254d67" x="85.507977" y="200.700511" style="fill: #c7623c; fill-opacity: 0.7; stroke: #1f1f1f; stroke-opacity: 0.7; stroke-width: 0.3"/>
    </g>
    <g clip-path="url(#pdeec3ac544)">
     <use xlink:href="#C0_0_61bd254d67" x="90.550408" y="199.343496" style="fill: #c7623c; fill-opacity: 0.7; stroke: #1f1f1f; stroke-opacity: 0.7; stroke-width: 0.3"/>
    </g>
    <g clip-path="url(#pdeec3ac544)">
     <use xlink:href="#C0_0_61bd254d67" x="267.035487" y="180.345291" style="fill: #c7623c; fill-opacity: 0.7; stroke: #1f1f1f; stroke-opacity: 0.7; stroke-width: 0.3"/>
    </g>
    <g clip-path="url(#pdeec3ac544)">
     <use xlink:href="#C0_0_61bd254d67" x="251.908195" y="184.416335" style="fill: #c7623c; fill-opacity: 0.7; stroke: #1f1f1f; stroke-opacity: 0.7; stroke-width: 0.3"/>
    </g>
    <g clip-path="url(#pdeec3ac544)">
     <use xlink:href="#C0_0_61bd254d67" x="88.029192" y="200.700511" style="fill: #c7623c; fill-opacity: 0.7; stroke: #1f1f1f; stroke-opacity: 0.7; stroke-width: 0.3"/>
    </g>
    <g clip-path="url(#pdeec3ac544)">
     <use xlink:href="#C0_0_61bd254d67" x="183.835378" y="191.201408" style="fill: #c7623c; fill-opacity: 0.7; stroke: #1f1f1f; stroke-opacity: 0.7; stroke-width: 0.3"/>
    </g>
    <g clip-path="url(#pdeec3ac544)">
     <use xlink:href="#C0_0_61bd254d67" x="103.156485" y="198.664989" style="fill: #c7623c; fill-opacity: 0.7; stroke: #1f1f1f; stroke-opacity: 0.7; stroke-width: 0.3"/>
    </g>
    <g clip-path="url(#pdeec3ac544)">
     <use xlink:href="#C0_0_61bd254d67" x="637.654154" y="83.318745" style="fill: #c7623c; fill-opacity: 0.7; stroke: #1f1f1f; stroke-opacity: 0.7; stroke-width: 0.3"/>
    </g>
    <g clip-path="url(#pdeec3ac544)">
     <use xlink:href="#C0_0_61bd254d67" x="100.635269" y="200.700511" style="fill: #c7623c; fill-opacity: 0.7; stroke: #1f1f1f; stroke-opacity: 0.7; stroke-width: 0.3"/>
    </g>
    <g clip-path="url(#pdeec3ac544)">
     <use xlink:href="#C0_0_61bd254d67" x="135.932285" y="200.700511" style="fill: #c7623c; fill-opacity: 0.7; stroke: #1f1f1f; stroke-opacity: 0.7; stroke-width: 0.3"/>
    </g>
    <g clip-path="url(#pdeec3ac544)">
     <use xlink:href="#C0_0_61bd254d67" x="410.744766" y="170.167681" style="fill: #c7623c; fill-opacity: 0.7; stroke: #1f1f1f; stroke-opacity: 0.7; stroke-width: 0.3"/>
    </g>
    <g clip-path="url(#pdeec3ac544)">
     <use xlink:href="#C0_0_61bd254d67" x="80.465546" y="200.700511" style="fill: #c7623c; fill-opacity: 0.7; stroke: #1f1f1f; stroke-opacity: 0.7; stroke-width: 0.3"/>
    </g>
    <g clip-path="url(#pdeec3ac544)">
     <use xlink:href="#C0_0_61bd254d67" x="153.580793" y="191.879915" style="fill: #c7623c; fill-opacity: 0.7; stroke: #1f1f1f; stroke-opacity: 0.7; stroke-width: 0.3"/>
    </g>
    <g clip-path="url(#pdeec3ac544)">
     <use xlink:href="#C0_0_61bd254d67" x="193.92024" y="178.309769" style="fill: #c7623c; fill-opacity: 0.7; stroke: #1f1f1f; stroke-opacity: 0.7; stroke-width: 0.3"/>
    </g>
    <g clip-path="url(#pdeec3ac544)">
     <use xlink:href="#C0_0_61bd254d67" x="95.592838" y="196.629467" style="fill: #c7623c; fill-opacity: 0.7; stroke: #1f1f1f; stroke-opacity: 0.7; stroke-width: 0.3"/>
    </g>
    <g clip-path="url(#pdeec3ac544)">
     <use xlink:href="#C0_0_61bd254d67" x="708.248186" y="101.638443" style="fill: #c7623c; fill-opacity: 0.7; stroke: #1f1f1f; stroke-opacity: 0.7; stroke-width: 0.3"/>
    </g>
    <g clip-path="url(#pdeec3ac544)">
     <use xlink:href="#C0_0_61bd254d67" x="110.720131" y="197.986481" style="fill: #c7623c; fill-opacity: 0.7; stroke: #1f1f1f; stroke-opacity: 0.7; stroke-width: 0.3"/>
    </g>
    <g clip-path="url(#pdeec3ac544)">
     <use xlink:href="#C0_0_61bd254d67" x="256.950625" y="154.562013" style="fill: #c7623c; fill-opacity: 0.7; stroke: #1f1f1f; stroke-opacity: 0.7; stroke-width: 0.3"/>
    </g>
    <g clip-path="url(#pdeec3ac544)">
     <use xlink:href="#C0_0_61bd254d67" x="657.823878" y="55.499946" style="fill: #c7623c; fill-opacity: 0.7; stroke: #1f1f1f; stroke-opacity: 0.7; stroke-width: 0.3"/>
    </g>
    <g clip-path="url(#pdeec3ac544)">
     <use xlink:href="#C0_0_61bd254d67" x="95.592838" y="200.700511" style="fill: #c7623c; fill-opacity: 0.7; stroke: #1f1f1f; stroke-opacity: 0.7; stroke-width: 0.3"/>
    </g>
    <g clip-path="url(#pdeec3ac544)">
     <use xlink:href="#C0_0_61bd254d67" x="120.804993" y="195.950959" style="fill: #c7623c; fill-opacity: 0.7; stroke: #1f1f1f; stroke-opacity: 0.7; stroke-width: 0.3"/>
    </g>
    <g clip-path="url(#pdeec3ac544)">
     <use xlink:href="#C0_0_61bd254d67" x="130.889854" y="193.23693" style="fill: #c7623c; fill-opacity: 0.7; stroke: #1f1f1f; stroke-opacity: 0.7; stroke-width: 0.3"/>
    </g>
    <g clip-path="url(#pdeec3ac544)">
     <use xlink:href="#C0_0_61bd254d67" x="100.635269" y="200.022003" style="fill: #c7623c; fill-opacity: 0.7; stroke: #1f1f1f; stroke-opacity: 0.7; stroke-width: 0.3"/>
    </g>
    <g clip-path="url(#pdeec3ac544)">
     <use xlink:href="#C0_0_61bd254d67" x="130.889854" y="190.522901" style="fill: #c7623c; fill-opacity: 0.7; stroke: #1f1f1f; stroke-opacity: 0.7; stroke-width: 0.3"/>
    </g>
    <g clip-path="url(#pdeec3ac544)">
     <use xlink:href="#C0_0_61bd254d67" x="700.68454" y="48.714872" style="fill: #c7623c; fill-opacity: 0.7; stroke: #1f1f1f; stroke-opacity: 0.7; stroke-width: 0.3"/>
    </g>
    <g clip-path="url(#pdeec3ac544)">
     <use xlink:href="#C0_0_61bd254d67" x="234.259687" y="182.380813" style="fill: #c7623c; fill-opacity: 0.7; stroke: #1f1f1f; stroke-opacity: 0.7; stroke-width: 0.3"/>
    </g>
    <g clip-path="url(#pdeec3ac544)">
     <use xlink:href="#C0_0_61bd254d67" x="85.507977" y="198.664989" style="fill: #1f3a5f; fill-opacity: 0.7; stroke: #1f1f1f; stroke-opacity: 0.7; stroke-width: 0.3"/>
    </g>
    <g clip-path="url(#pdeec3ac544)">
     <use xlink:href="#C0_0_61bd254d67" x="88.029192" y="198.664989" style="fill: #c7623c; fill-opacity: 0.7; stroke: #1f1f1f; stroke-opacity: 0.7; stroke-width: 0.3"/>
    </g>
    <g clip-path="url(#pdeec3ac544)">
     <use xlink:href="#C0_0_61bd254d67" x="516.635814" y="87.389789" style="fill: #c7623c; fill-opacity: 0.7; stroke: #1f1f1f; stroke-opacity: 0.7; stroke-width: 0.3"/>
    </g>
    <g clip-path="url(#pdeec3ac544)">
     <use xlink:href="#C0_0_61bd254d67" x="108.198915" y="191.879915" style="fill: #1f3a5f; fill-opacity: 0.7; stroke: #1f1f1f; stroke-opacity: 0.7; stroke-width: 0.3"/>
    </g>
    <g clip-path="url(#pdeec3ac544)">
     <use xlink:href="#C0_0_61bd254d67" x="451.084213" y="141.670374" style="fill: #c7623c; fill-opacity: 0.7; stroke: #1f1f1f; stroke-opacity: 0.7; stroke-width: 0.3"/>
    </g>
    <g clip-path="url(#pdeec3ac544)">
     <use xlink:href="#C0_0_61bd254d67" x="156.102009" y="200.700511" style="fill: #c7623c; fill-opacity: 0.7; stroke: #1f1f1f; stroke-opacity: 0.7; stroke-width: 0.3"/>
    </g>
    <g clip-path="url(#pdeec3ac544)">
     <use xlink:href="#C0_0_61bd254d67" x="211.568748" y="192.558423" style="fill: #c7623c; fill-opacity: 0.7; stroke: #1f1f1f; stroke-opacity: 0.7; stroke-width: 0.3"/>
    </g>
    <g clip-path="url(#pdeec3ac544)">
     <use xlink:href="#C0_0_61bd254d67" x="322.502226" y="195.950959" style="fill: #c7623c; fill-opacity: 0.7; stroke: #1f1f1f; stroke-opacity: 0.7; stroke-width: 0.3"/>
    </g>
    <g clip-path="url(#pdeec3ac544)">
     <use xlink:href="#C0_0_61bd254d67" x="153.580793" y="197.986481" style="fill: #c7623c; fill-opacity: 0.7; stroke: #1f1f1f; stroke-opacity: 0.7; stroke-width: 0.3"/>
    </g>
    <g clip-path="url(#pdeec3ac544)">
     <use xlink:href="#C0_0_61bd254d67" x="188.877809" y="187.808872" style="fill: #c7623c; fill-opacity: 0.7; stroke: #1f1f1f; stroke-opacity: 0.7; stroke-width: 0.3"/>
    </g>
    <g clip-path="url(#pdeec3ac544)">
     <use xlink:href="#C0_0_61bd254d67" x="113.241346" y="194.593945" style="fill: #c7623c; fill-opacity: 0.7; stroke: #1f1f1f; stroke-opacity: 0.7; stroke-width: 0.3"/>
    </g>
    <g clip-path="url(#pdeec3ac544)">
     <use xlink:href="#C0_0_61bd254d67" x="541.847968" y="103.673965" style="fill: #c7623c; fill-opacity: 0.7; stroke: #1f1f1f; stroke-opacity: 0.7; stroke-width: 0.3"/>
    </g>
    <g clip-path="url(#pdeec3ac544)">
     <use xlink:href="#C0_0_61bd254d67" x="156.102009" y="195.950959" style="fill: #c7623c; fill-opacity: 0.7; stroke: #1f1f1f; stroke-opacity: 0.7; stroke-width: 0.3"/>
    </g>
    <g clip-path="url(#pdeec3ac544)">
     <use xlink:href="#C0_0_61bd254d67" x="113.241346" y="199.343496" style="fill: #c7623c; fill-opacity: 0.7; stroke: #1f1f1f; stroke-opacity: 0.7; stroke-width: 0.3"/>
    </g>
    <g clip-path="url(#pdeec3ac544)">
     <use xlink:href="#C0_0_61bd254d67" x="133.41107" y="195.272452" style="fill: #c7623c; fill-opacity: 0.7; stroke: #1f1f1f; stroke-opacity: 0.7; stroke-width: 0.3"/>
    </g>
    <g clip-path="url(#pdeec3ac544)">
     <use xlink:href="#C0_0_61bd254d67" x="80.465546" y="200.700511" style="fill: #c7623c; fill-opacity: 0.7; stroke: #1f1f1f; stroke-opacity: 0.7; stroke-width: 0.3"/>
    </g>
    <g clip-path="url(#pdeec3ac544)">
     <use xlink:href="#C0_0_61bd254d67" x="380.490181" y="178.988277" style="fill: #c7623c; fill-opacity: 0.7; stroke: #1f1f1f; stroke-opacity: 0.7; stroke-width: 0.3"/>
    </g>
    <g clip-path="url(#pdeec3ac544)">
     <use xlink:href="#C0_0_61bd254d67" x="630.090508" y="132.171272" style="fill: #c7623c; fill-opacity: 0.7; stroke: #1f1f1f; stroke-opacity: 0.7; stroke-width: 0.3"/>
    </g>
    <g clip-path="url(#pdeec3ac544)">
     <use xlink:href="#C0_0_61bd254d67" x="400.659905" y="135.563808" style="fill: #c7623c; fill-opacity: 0.7; stroke: #1f1f1f; stroke-opacity: 0.7; stroke-width: 0.3"/>
    </g>
    <g clip-path="url(#pdeec3ac544)">
     <use xlink:href="#C0_0_61bd254d67" x="98.114054" y="195.272452" style="fill: #1f3a5f; fill-opacity: 0.7; stroke: #1f1f1f; stroke-opacity: 0.7; stroke-width: 0.3"/>
    </g>
    <g clip-path="url(#pdeec3ac544)">
     <use xlink:href="#C0_0_61bd254d67" x="113.241346" y="197.307974" style="fill: #c7623c; fill-opacity: 0.7; stroke: #1f1f1f; stroke-opacity: 0.7; stroke-width: 0.3"/>
    </g>
    <g clip-path="url(#pdeec3ac544)">
     <use xlink:href="#C0_0_61bd254d67" x="103.156485" y="197.986481" style="fill: #c7623c; fill-opacity: 0.7; stroke: #1f1f1f; stroke-opacity: 0.7; stroke-width: 0.3"/>
    </g>
    <g clip-path="url(#pdeec3ac544)">
     <use xlink:href="#C0_0_61bd254d67" x="622.526862" y="116.565604" style="fill: #c7623c; fill-opacity: 0.7; stroke: #1f1f1f; stroke-opacity: 0.7; stroke-width: 0.3"/>
    </g>
    <g clip-path="url(#pdeec3ac544)">
     <use xlink:href="#C0_0_61bd254d67" x="77.94433" y="197.307974" style="fill: #1f3a5f; fill-opacity: 0.7; stroke: #1f1f1f; stroke-opacity: 0.7; stroke-width: 0.3"/>
    </g>
    <g clip-path="url(#pdeec3ac544)">
     <use xlink:href="#C0_0_61bd254d67" x="77.94433" y="166.096638" style="fill: #1f3a5f; fill-opacity: 0.7; stroke: #1f1f1f; stroke-opacity: 0.7; stroke-width: 0.3"/>
    </g>
   </g>
   <g id="matplotlib.axis_1">
    <g id="xtick_1">
     <g id="line2d_1">
      <path d="M 77.94433 209.351479 
L 77.94433 19.030177 
" clip-path="url(#pdeec3ac544)" style="fill: none; stroke: #cfc7ab; stroke-width: 0.5; stroke-linecap: square"/>
     </g>
     <g id="line2d_2">
      <defs>
       <path id="m787f0dcad8" d="M 0 0 
L 0 3.5 
" style="stroke: #1f1f1f; stroke-width: 0.8"/>
      </defs>
      <g>
       <use xlink:href="#m787f0dcad8" x="77.94433" y="209.351479" style="fill: #1f1f1f; stroke: #1f1f1f; stroke-width: 0.8"/>
      </g>
     </g>
     <g id="text_1">
      <!-- 0 -->
      <g style="fill: #1f1f1f" transform="translate(74.444955 224.70976) scale(0.11 -0.11)">
       <defs>
        <path id="DejaVuSerif-30" d="M 2034 219 
Q 2513 219 2750 744 
Q 2988 1269 2988 2328 
Q 2988 3391 2750 3916 
Q 2513 4441 2034 4441 
Q 1556 4441 1318 3916 
Q 1081 3391 1081 2328 
Q 1081 1269 1318 744 
Q 1556 219 2034 219 
z
M 2034 -91 
Q 1275 -91 848 546 
Q 422 1184 422 2328 
Q 422 3475 848 4112 
Q 1275 4750 2034 4750 
Q 2797 4750 3222 4112 
Q 3647 3475 3647 2328 
Q 3647 1184 3222 546 
Q 2797 -91 2034 -91 
z
" transform="scale(0.015625)"/>
       </defs>
       <use xlink:href="#DejaVuSerif-30"/>
      </g>
     </g>
    </g>
    <g id="xtick_2">
     <g id="line2d_3">
      <path d="M 204.005102 209.351479 
L 204.005102 19.030177 
" clip-path="url(#pdeec3ac544)" style="fill: none; stroke: #cfc7ab; stroke-width: 0.5; stroke-linecap: square"/>
     </g>
     <g id="line2d_4">
      <g>
       <use xlink:href="#m787f0dcad8" x="204.005102" y="209.351479" style="fill: #1f1f1f; stroke: #1f1f1f; stroke-width: 0.8"/>
      </g>
     </g>
     <g id="text_2">
      <!-- 50 -->
      <g style="fill: #1f1f1f" transform="translate(197.006352 224.70976) scale(0.11 -0.11)">
       <defs>
        <path id="DejaVuSerif-35" d="M 3219 4666 
L 3219 4153 
L 1081 4153 
L 1081 2816 
Q 1244 2928 1461 2984 
Q 1678 3041 1947 3041 
Q 2703 3041 3140 2622 
Q 3578 2203 3578 1478 
Q 3578 738 3136 323 
Q 2694 -91 1894 -91 
Q 1572 -91 1234 -12 
Q 897 66 544 225 
L 544 1131 
L 897 1131 
Q 925 688 1179 453 
Q 1434 219 1894 219 
Q 2388 219 2653 544 
Q 2919 869 2919 1478 
Q 2919 2084 2655 2407 
Q 2391 2731 1894 2731 
Q 1613 2731 1398 2631 
Q 1184 2531 1019 2322 
L 750 2322 
L 750 4666 
L 3219 4666 
z
" transform="scale(0.015625)"/>
       </defs>
       <use xlink:href="#DejaVuSerif-35"/>
       <use xlink:href="#DejaVuSerif-30" transform="translate(63.623047 0)"/>
      </g>
     </g>
    </g>
    <g id="xtick_3">
     <g id="line2d_5">
      <path d="M 330.065873 209.351479 
L 330.065873 19.030177 
" clip-path="url(#pdeec3ac544)" style="fill: none; stroke: #cfc7ab; stroke-width: 0.5; stroke-linecap: square"/>
     </g>
     <g id="line2d_6">
      <g>
       <use xlink:href="#m787f0dcad8" x="330.065873" y="209.351479" style="fill: #1f1f1f; stroke: #1f1f1f; stroke-width: 0.8"/>
      </g>
     </g>
     <g id="text_3">
      <!-- 100 -->
      <g style="fill: #1f1f1f" transform="translate(319.567748 224.70976) scale(0.11 -0.11)">
       <defs>
        <path id="DejaVuSerif-31" d="M 909 0 
L 909 331 
L 1722 331 
L 1722 4213 
L 781 3603 
L 781 4013 
L 1919 4750 
L 2350 4750 
L 2350 331 
L 3163 331 
L 3163 0 
L 909 0 
z
" transform="scale(0.015625)"/>
       </defs>
       <use xlink:href="#DejaVuSerif-31"/>
       <use xlink:href="#DejaVuSerif-30" transform="translate(63.623047 0)"/>
       <use xlink:href="#DejaVuSerif-30" transform="translate(127.246094 0)"/>
      </g>
     </g>
    </g>
    <g id="xtick_4">
     <g id="line2d_7">
      <path d="M 456.126644 209.351479 
L 456.126644 19.030177 
" clip-path="url(#pdeec3ac544)" style="fill: none; stroke: #cfc7ab; stroke-width: 0.5; stroke-linecap: square"/>
     </g>
     <g id="line2d_8">
      <g>
       <use xlink:href="#m787f0dcad8" x="456.126644" y="209.351479" style="fill: #1f1f1f; stroke: #1f1f1f; stroke-width: 0.8"/>
      </g>
     </g>
     <g id="text_4">
      <!-- 150 -->
      <g style="fill: #1f1f1f" transform="translate(445.628519 224.70976) scale(0.11 -0.11)">
       <use xlink:href="#DejaVuSerif-31"/>
       <use xlink:href="#DejaVuSerif-35" transform="translate(63.623047 0)"/>
       <use xlink:href="#DejaVuSerif-30" transform="translate(127.246094 0)"/>
      </g>
     </g>
    </g>
    <g id="xtick_5">
     <g id="line2d_9">
      <path d="M 582.187415 209.351479 
L 582.187415 19.030177 
" clip-path="url(#pdeec3ac544)" style="fill: none; stroke: #cfc7ab; stroke-width: 0.5; stroke-linecap: square"/>
     </g>
     <g id="line2d_10">
      <g>
       <use xlink:href="#m787f0dcad8" x="582.187415" y="209.351479" style="fill: #1f1f1f; stroke: #1f1f1f; stroke-width: 0.8"/>
      </g>
     </g>
     <g id="text_5">
      <!-- 200 -->
      <g style="fill: #1f1f1f" transform="translate(571.68929 224.70976) scale(0.11 -0.11)">
       <defs>
        <path id="DejaVuSerif-32" d="M 819 3553 
L 469 3553 
L 469 4384 
Q 803 4563 1142 4656 
Q 1481 4750 1806 4750 
Q 2534 4750 2956 4397 
Q 3378 4044 3378 3438 
Q 3378 2753 2422 1800 
Q 2347 1728 2309 1691 
L 1131 513 
L 3078 513 
L 3078 1088 
L 3444 1088 
L 3444 0 
L 434 0 
L 434 341 
L 1850 1753 
Q 2319 2222 2519 2614 
Q 2719 3006 2719 3438 
Q 2719 3909 2473 4175 
Q 2228 4441 1797 4441 
Q 1350 4441 1106 4219 
Q 863 3997 819 3553 
z
" transform="scale(0.015625)"/>
       </defs>
       <use xlink:href="#DejaVuSerif-32"/>
       <use xlink:href="#DejaVuSerif-30" transform="translate(63.623047 0)"/>
       <use xlink:href="#DejaVuSerif-30" transform="translate(127.246094 0)"/>
      </g>
     </g>
    </g>
    <g id="xtick_6">
     <g id="line2d_11">
      <path d="M 708.248186 209.351479 
L 708.248186 19.030177 
" clip-path="url(#pdeec3ac544)" style="fill: none; stroke: #cfc7ab; stroke-width: 0.5; stroke-linecap: square"/>
     </g>
     <g id="line2d_12">
      <g>
       <use xlink:href="#m787f0dcad8" x="708.248186" y="209.351479" style="fill: #1f1f1f; stroke: #1f1f1f; stroke-width: 0.8"/>
      </g>
     </g>
     <g id="text_6">
      <!-- 250 -->
      <g style="fill: #1f1f1f" transform="translate(697.750061 224.70976) scale(0.11 -0.11)">
       <use xlink:href="#DejaVuSerif-32"/>
       <use xlink:href="#DejaVuSerif-35" transform="translate(63.623047 0)"/>
       <use xlink:href="#DejaVuSerif-30" transform="translate(127.246094 0)"/>
      </g>
     </g>
    </g>
    <g id="text_7">
     <!-- IUCN-predicted arrays -->
     <g style="fill: #1f1f1f" transform="translate(335.466094 239.355697) scale(0.11 -0.11)">
      <defs>
       <path id="DejaVuSerif-49" d="M 1581 331 
L 2175 331 
L 2175 0 
L 353 0 
L 353 331 
L 947 331 
L 947 4331 
L 353 4331 
L 353 4666 
L 2175 4666 
L 2175 4331 
L 1581 4331 
L 1581 331 
z
" transform="scale(0.015625)"/>
       <path id="DejaVuSerif-55" d="M 897 4331 
L 300 4331 
L 300 4666 
L 2125 4666 
L 2125 4331 
L 1528 4331 
L 1528 1919 
Q 1528 1025 1820 672 
Q 2113 319 2828 319 
Q 3544 319 3836 672 
Q 4128 1025 4128 1919 
L 4128 4331 
L 3531 4331 
L 3531 4666 
L 5106 4666 
L 5106 4331 
L 4513 4331 
L 4513 1856 
Q 4513 791 4103 350 
Q 3694 -91 2713 -91 
Q 1731 -91 1314 353 
Q 897 797 897 1856 
L 897 4331 
z
" transform="scale(0.015625)"/>
       <path id="DejaVuSerif-43" d="M 4513 1234 
Q 4306 581 3820 245 
Q 3334 -91 2591 -91 
Q 2134 -91 1743 65 
Q 1353 222 1050 525 
Q 700 875 529 1320 
Q 359 1766 359 2328 
Q 359 3416 987 4083 
Q 1616 4750 2644 4750 
Q 3025 4750 3456 4650 
Q 3888 4550 4384 4347 
L 4384 3272 
L 4031 3272 
Q 3916 3859 3567 4137 
Q 3219 4416 2591 4416 
Q 1844 4416 1459 3886 
Q 1075 3356 1075 2328 
Q 1075 1303 1459 773 
Q 1844 244 2591 244 
Q 3113 244 3450 492 
Q 3788 741 3938 1234 
L 4513 1234 
z
" transform="scale(0.015625)"/>
       <path id="DejaVuSerif-4e" d="M 313 0 
L 313 331 
L 941 331 
L 941 4331 
L 313 4331 
L 313 4666 
L 1509 4666 
L 4306 984 
L 4306 4331 
L 3681 4331 
L 3681 4666 
L 5319 4666 
L 5319 4331 
L 4691 4331 
L 4691 -91 
L 4313 -91 
L 1325 3841 
L 1325 331 
L 1953 331 
L 1953 0 
L 313 0 
z
" transform="scale(0.015625)"/>
       <path id="DejaVuSerif-2d" d="M 281 1959 
L 1881 1959 
L 1881 1472 
L 281 1472 
L 281 1959 
z
" transform="scale(0.015625)"/>
       <path id="DejaVuSerif-70" d="M 1313 1825 
L 1313 1497 
Q 1313 897 1542 583 
Q 1772 269 2209 269 
Q 2650 269 2876 622 
Q 3103 975 3103 1663 
Q 3103 2353 2876 2703 
Q 2650 3053 2209 3053 
Q 1772 3053 1542 2737 
Q 1313 2422 1313 1825 
z
M 738 2988 
L 184 2988 
L 184 3322 
L 1313 3322 
L 1313 2803 
Q 1481 3116 1742 3264 
Q 2003 3413 2388 3413 
Q 3000 3413 3387 2928 
Q 3775 2444 3775 1663 
Q 3775 881 3387 395 
Q 3000 -91 2388 -91 
Q 2003 -91 1742 57 
Q 1481 206 1313 519 
L 1313 -997 
L 1856 -997 
L 1856 -1331 
L 184 -1331 
L 184 -997 
L 738 -997 
L 738 2988 
z
" transform="scale(0.015625)"/>
       <path id="DejaVuSerif-72" d="M 3059 3328 
L 3059 2497 
L 2728 2497 
Q 2713 2744 2591 2866 
Q 2469 2988 2234 2988 
Q 1809 2988 1582 2694 
Q 1356 2400 1356 1850 
L 1356 331 
L 2022 331 
L 2022 0 
L 263 0 
L 263 331 
L 781 331 
L 781 2994 
L 231 2994 
L 231 3322 
L 1356 3322 
L 1356 2731 
Q 1525 3078 1790 3245 
Q 2056 3413 2438 3413 
Q 2578 3413 2733 3391 
Q 2888 3369 3059 3328 
z
" transform="scale(0.015625)"/>
       <path id="DejaVuSerif-65" d="M 3469 1600 
L 991 1600 
L 991 1575 
Q 991 903 1244 561 
Q 1497 219 1991 219 
Q 2369 219 2611 417 
Q 2853 616 2950 1006 
L 3413 1006 
Q 3275 459 2904 184 
Q 2534 -91 1931 -91 
Q 1203 -91 761 389 
Q 319 869 319 1663 
Q 319 2450 753 2931 
Q 1188 3413 1894 3413 
Q 2647 3413 3050 2948 
Q 3453 2484 3469 1600 
z
M 2791 1931 
Q 2772 2513 2545 2808 
Q 2319 3103 1894 3103 
Q 1497 3103 1269 2806 
Q 1041 2509 991 1931 
L 2791 1931 
z
" transform="scale(0.015625)"/>
       <path id="DejaVuSerif-64" d="M 3359 331 
L 3909 331 
L 3909 0 
L 2784 0 
L 2784 519 
Q 2616 206 2355 57 
Q 2094 -91 1709 -91 
Q 1097 -91 708 395 
Q 319 881 319 1663 
Q 319 2444 706 2928 
Q 1094 3413 1709 3413 
Q 2094 3413 2355 3264 
Q 2616 3116 2784 2803 
L 2784 4531 
L 2241 4531 
L 2241 4863 
L 3359 4863 
L 3359 331 
z
M 2784 1497 
L 2784 1825 
Q 2784 2422 2554 2737 
Q 2325 3053 1888 3053 
Q 1444 3053 1217 2703 
Q 991 2353 991 1663 
Q 991 975 1217 622 
Q 1444 269 1888 269 
Q 2325 269 2554 583 
Q 2784 897 2784 1497 
z
" transform="scale(0.015625)"/>
       <path id="DejaVuSerif-69" d="M 622 4353 
Q 622 4497 726 4603 
Q 831 4709 978 4709 
Q 1122 4709 1226 4603 
Q 1331 4497 1331 4353 
Q 1331 4206 1228 4103 
Q 1125 4000 978 4000 
Q 831 4000 726 4103 
Q 622 4206 622 4353 
z
M 1356 331 
L 1900 331 
L 1900 0 
L 231 0 
L 231 331 
L 781 331 
L 781 2988 
L 231 2988 
L 231 3322 
L 1356 3322 
L 1356 331 
z
" transform="scale(0.015625)"/>
       <path id="DejaVuSerif-63" d="M 3291 997 
Q 3169 466 2822 187 
Q 2475 -91 1925 -91 
Q 1200 -91 759 389 
Q 319 869 319 1663 
Q 319 2459 759 2936 
Q 1200 3413 1925 3413 
Q 2241 3413 2553 3339 
Q 2866 3266 3181 3116 
L 3181 2266 
L 2847 2266 
Q 2781 2703 2561 2903 
Q 2341 3103 1931 3103 
Q 1466 3103 1228 2742 
Q 991 2381 991 1663 
Q 991 944 1227 581 
Q 1463 219 1931 219 
Q 2303 219 2525 412 
Q 2747 606 2828 997 
L 3291 997 
z
" transform="scale(0.015625)"/>
       <path id="DejaVuSerif-74" d="M 691 2988 
L 184 2988 
L 184 3322 
L 691 3322 
L 691 4353 
L 1269 4353 
L 1269 3322 
L 2350 3322 
L 2350 2988 
L 1269 2988 
L 1269 878 
Q 1269 456 1350 337 
Q 1431 219 1650 219 
Q 1875 219 1978 351 
Q 2081 484 2088 781 
L 2522 781 
Q 2497 328 2275 118 
Q 2053 -91 1600 -91 
Q 1103 -91 897 129 
Q 691 350 691 878 
L 691 2988 
z
" transform="scale(0.015625)"/>
       <path id="DejaVuSerif-20" transform="scale(0.015625)"/>
       <path id="DejaVuSerif-61" d="M 2547 1044 
L 2547 1747 
L 1806 1747 
Q 1378 1747 1168 1562 
Q 959 1378 959 997 
Q 959 650 1171 447 
Q 1384 244 1747 244 
Q 2106 244 2326 466 
Q 2547 688 2547 1044 
z
M 3122 2075 
L 3122 331 
L 3634 331 
L 3634 0 
L 2547 0 
L 2547 359 
Q 2356 128 2106 18 
Q 1856 -91 1522 -91 
Q 969 -91 644 203 
Q 319 497 319 997 
Q 319 1513 691 1797 
Q 1063 2081 1741 2081 
L 2547 2081 
L 2547 2309 
Q 2547 2688 2317 2895 
Q 2088 3103 1672 3103 
Q 1328 3103 1125 2947 
Q 922 2791 872 2484 
L 575 2484 
L 575 3156 
Q 875 3284 1158 3348 
Q 1441 3413 1709 3413 
Q 2400 3413 2761 3070 
Q 3122 2728 3122 2075 
z
" transform="scale(0.015625)"/>
       <path id="DejaVuSerif-79" d="M 1381 -609 
L 1600 -56 
L 359 2988 
L -19 2988 
L -19 3322 
L 1509 3322 
L 1509 2988 
L 978 2988 
L 1913 703 
L 2847 2988 
L 2350 2988 
L 2350 3322 
L 3597 3322 
L 3597 2988 
L 3225 2988 
L 1703 -750 
Q 1547 -1138 1356 -1280 
Q 1166 -1422 819 -1422 
Q 672 -1422 517 -1397 
Q 363 -1372 206 -1325 
L 206 -691 
L 500 -691 
Q 519 -903 608 -995 
Q 697 -1088 884 -1088 
Q 1056 -1088 1161 -992 
Q 1266 -897 1381 -609 
z
" transform="scale(0.015625)"/>
       <path id="DejaVuSerif-73" d="M 359 184 
L 359 959 
L 691 959 
Q 703 588 923 403 
Q 1144 219 1575 219 
Q 1963 219 2166 364 
Q 2369 509 2369 788 
Q 2369 1006 2220 1140 
Q 2072 1275 1594 1428 
L 1178 1569 
Q 750 1706 558 1912 
Q 366 2119 366 2438 
Q 366 2894 700 3153 
Q 1034 3413 1625 3413 
Q 1888 3413 2178 3344 
Q 2469 3275 2778 3144 
L 2778 2419 
L 2447 2419 
Q 2434 2741 2221 2922 
Q 2009 3103 1644 3103 
Q 1281 3103 1095 2975 
Q 909 2847 909 2591 
Q 909 2381 1050 2254 
Q 1191 2128 1613 1997 
L 2069 1856 
Q 2541 1709 2748 1489 
Q 2956 1269 2956 922 
Q 2956 450 2595 179 
Q 2234 -91 1600 -91 
Q 1278 -91 972 -22 
Q 666 47 359 184 
z
" transform="scale(0.015625)"/>
      </defs>
      <use xlink:href="#DejaVuSerif-49"/>
      <use xlink:href="#DejaVuSerif-55" transform="translate(39.501953 0)"/>
      <use xlink:href="#DejaVuSerif-43" transform="translate(123.779297 0)"/>
      <use xlink:href="#DejaVuSerif-4e" transform="translate(200.292969 0)"/>
      <use xlink:href="#DejaVuSerif-2d" transform="translate(287.792969 0)"/>
      <use xlink:href="#DejaVuSerif-70" transform="translate(321.582031 0)"/>
      <use xlink:href="#DejaVuSerif-72" transform="translate(385.595703 0)"/>
      <use xlink:href="#DejaVuSerif-65" transform="translate(433.398438 0)"/>
      <use xlink:href="#DejaVuSerif-64" transform="translate(492.578125 0)"/>
      <use xlink:href="#DejaVuSerif-69" transform="translate(556.591797 0)"/>
      <use xlink:href="#DejaVuSerif-63" transform="translate(588.574219 0)"/>
      <use xlink:href="#DejaVuSerif-74" transform="translate(644.580078 0)"/>
      <use xlink:href="#DejaVuSerif-65" transform="translate(684.765625 0)"/>
      <use xlink:href="#DejaVuSerif-64" transform="translate(743.945312 0)"/>
      <use xlink:href="#DejaVuSerif-20" transform="translate(807.958984 0)"/>
      <use xlink:href="#DejaVuSerif-61" transform="translate(839.746094 0)"/>
      <use xlink:href="#DejaVuSerif-72" transform="translate(899.365234 0)"/>
      <use xlink:href="#DejaVuSerif-72" transform="translate(947.167969 0)"/>
      <use xlink:href="#DejaVuSerif-61" transform="translate(994.970703 0)"/>
      <use xlink:href="#DejaVuSerif-79" transform="translate(1054.589844 0)"/>
      <use xlink:href="#DejaVuSerif-73" transform="translate(1111.083984 0)"/>
     </g>
    </g>
   </g>
   <g id="matplotlib.axis_2">
    <g id="ytick_1">
     <g id="line2d_13">
      <path d="M 45.798834 200.700511 
L 752.99976 200.700511 
" clip-path="url(#pdeec3ac544)" style="fill: none; stroke: #cfc7ab; stroke-width: 0.5; stroke-linecap: square"/>
     </g>
     <g id="line2d_14">
      <defs>
       <path id="m82b19e1274" d="M 0 0 
L -3.5 0 
" style="stroke: #1f1f1f; stroke-width: 0.8"/>
      </defs>
      <g>
       <use xlink:href="#m82b19e1274" x="45.798834" y="200.700511" style="fill: #1f1f1f; stroke: #1f1f1f; stroke-width: 0.8"/>
      </g>
     </g>
     <g id="text_8">
      <!-- 0 -->
      <g style="fill: #1f1f1f" transform="translate(31.800084 204.879651) scale(0.11 -0.11)">
       <use xlink:href="#DejaVuSerif-30"/>
      </g>
     </g>
    </g>
    <g id="ytick_2">
     <g id="line2d_15">
      <path d="M 45.798834 166.775145 
L 752.99976 166.775145 
" clip-path="url(#pdeec3ac544)" style="fill: none; stroke: #cfc7ab; stroke-width: 0.5; stroke-linecap: square"/>
     </g>
     <g id="line2d_16">
      <g>
       <use xlink:href="#m82b19e1274" x="45.798834" y="166.775145" style="fill: #1f1f1f; stroke: #1f1f1f; stroke-width: 0.8"/>
      </g>
     </g>
     <g id="text_9">
      <!-- 50 -->
      <g style="fill: #1f1f1f" transform="translate(24.801334 170.954285) scale(0.11 -0.11)">
       <use xlink:href="#DejaVuSerif-35"/>
       <use xlink:href="#DejaVuSerif-30" transform="translate(63.623047 0)"/>
      </g>
     </g>
    </g>
    <g id="ytick_3">
     <g id="line2d_17">
      <path d="M 45.798834 132.849779 
L 752.99976 132.849779 
" clip-path="url(#pdeec3ac544)" style="fill: none; stroke: #cfc7ab; stroke-width: 0.5; stroke-linecap: square"/>
     </g>
     <g id="line2d_18">
      <g>
       <use xlink:href="#m82b19e1274" x="45.798834" y="132.849779" style="fill: #1f1f1f; stroke: #1f1f1f; stroke-width: 0.8"/>
      </g>
     </g>
     <g id="text_10">
      <!-- 100 -->
      <g style="fill: #1f1f1f" transform="translate(17.802584 137.02892) scale(0.11 -0.11)">
       <use xlink:href="#DejaVuSerif-31"/>
       <use xlink:href="#DejaVuSerif-30" transform="translate(63.623047 0)"/>
       <use xlink:href="#DejaVuSerif-30" transform="translate(127.246094 0)"/>
      </g>
     </g>
    </g>
    <g id="ytick_4">
     <g id="line2d_19">
      <path d="M 45.798834 98.924414 
L 752.99976 98.924414 
" clip-path="url(#pdeec3ac544)" style="fill: none; stroke: #cfc7ab; stroke-width: 0.5; stroke-linecap: square"/>
     </g>
     <g id="line2d_20">
      <g>
       <use xlink:href="#m82b19e1274" x="45.798834" y="98.924414" style="fill: #1f1f1f; stroke: #1f1f1f; stroke-width: 0.8"/>
      </g>
     </g>
     <g id="text_11">
      <!-- 150 -->
      <g style="fill: #1f1f1f" transform="translate(17.802584 103.103554) scale(0.11 -0.11)">
       <use xlink:href="#DejaVuSerif-31"/>
       <use xlink:href="#DejaVuSerif-35" transform="translate(63.623047 0)"/>
       <use xlink:href="#DejaVuSerif-30" transform="translate(127.246094 0)"/>
      </g>
     </g>
    </g>
    <g id="ytick_5">
     <g id="line2d_21">
      <path d="M 45.798834 64.999048 
L 752.99976 64.999048 
" clip-path="url(#pdeec3ac544)" style="fill: none; stroke: #cfc7ab; stroke-width: 0.5; stroke-linecap: square"/>
     </g>
     <g id="line2d_22">
      <g>
       <use xlink:href="#m82b19e1274" x="45.798834" y="64.999048" style="fill: #1f1f1f; stroke: #1f1f1f; stroke-width: 0.8"/>
      </g>
     </g>
     <g id="text_12">
      <!-- 200 -->
      <g style="fill: #1f1f1f" transform="translate(17.802584 69.178189) scale(0.11 -0.11)">
       <use xlink:href="#DejaVuSerif-32"/>
       <use xlink:href="#DejaVuSerif-30" transform="translate(63.623047 0)"/>
       <use xlink:href="#DejaVuSerif-30" transform="translate(127.246094 0)"/>
      </g>
     </g>
    </g>
    <g id="ytick_6">
     <g id="line2d_23">
      <path d="M 45.798834 31.073682 
L 752.99976 31.073682 
" clip-path="url(#pdeec3ac544)" style="fill: none; stroke: #cfc7ab; stroke-width: 0.5; stroke-linecap: square"/>
     </g>
     <g id="line2d_24">
      <g>
       <use xlink:href="#m82b19e1274" x="45.798834" y="31.073682" style="fill: #1f1f1f; stroke: #1f1f1f; stroke-width: 0.8"/>
      </g>
     </g>
     <g id="text_13">
      <!-- 250 -->
      <g style="fill: #1f1f1f" transform="translate(17.802584 35.252823) scale(0.11 -0.11)">
       <use xlink:href="#DejaVuSerif-32"/>
       <use xlink:href="#DejaVuSerif-35" transform="translate(63.623047 0)"/>
       <use xlink:href="#DejaVuSerif-30" transform="translate(127.246094 0)"/>
      </g>
     </g>
    </g>
    <g id="text_14">
     <!-- SSUSA-observed arrays -->
     <g style="fill: #1f1f1f" transform="translate(11.358521 180.7795) rotate(-90) scale(0.11 -0.11)">
      <defs>
       <path id="DejaVuSerif-53" d="M 594 225 
L 594 1288 
L 953 1284 
Q 969 753 1261 498 
Q 1553 244 2150 244 
Q 2706 244 2998 464 
Q 3291 684 3291 1106 
Q 3291 1444 3114 1625 
Q 2938 1806 2369 1978 
L 1753 2163 
Q 1084 2366 811 2669 
Q 538 2972 538 3500 
Q 538 4094 959 4422 
Q 1381 4750 2144 4750 
Q 2469 4750 2856 4679 
Q 3244 4609 3681 4475 
L 3681 3481 
L 3328 3481 
Q 3275 3975 2998 4195 
Q 2722 4416 2156 4416 
Q 1663 4416 1405 4214 
Q 1147 4013 1147 3628 
Q 1147 3294 1340 3103 
Q 1534 2913 2163 2725 
L 2741 2553 
Q 3375 2363 3645 2067 
Q 3916 1772 3916 1275 
Q 3916 597 3481 253 
Q 3047 -91 2188 -91 
Q 1803 -91 1404 -12 
Q 1006 66 594 225 
z
" transform="scale(0.015625)"/>
       <path id="DejaVuSerif-41" d="M 1281 1691 
L 2994 1691 
L 2138 3909 
L 1281 1691 
z
M -38 0 
L -38 331 
L 372 331 
L 2034 4666 
L 2559 4666 
L 4225 331 
L 4684 331 
L 4684 0 
L 2988 0 
L 2988 331 
L 3506 331 
L 3116 1356 
L 1153 1356 
L 763 331 
L 1275 331 
L 1275 0 
L -38 0 
z
" transform="scale(0.015625)"/>
       <path id="DejaVuSerif-6f" d="M 1925 219 
Q 2388 219 2623 584 
Q 2859 950 2859 1663 
Q 2859 2375 2623 2739 
Q 2388 3103 1925 3103 
Q 1463 3103 1227 2739 
Q 991 2375 991 1663 
Q 991 950 1228 584 
Q 1466 219 1925 219 
z
M 1925 -91 
Q 1200 -91 759 389 
Q 319 869 319 1663 
Q 319 2456 758 2934 
Q 1197 3413 1925 3413 
Q 2653 3413 3092 2934 
Q 3531 2456 3531 1663 
Q 3531 869 3092 389 
Q 2653 -91 1925 -91 
z
" transform="scale(0.015625)"/>
       <path id="DejaVuSerif-62" d="M 738 331 
L 738 4531 
L 184 4531 
L 184 4863 
L 1313 4863 
L 1313 2803 
Q 1481 3116 1742 3264 
Q 2003 3413 2388 3413 
Q 3000 3413 3387 2928 
Q 3775 2444 3775 1663 
Q 3775 881 3387 395 
Q 3000 -91 2388 -91 
Q 2003 -91 1742 57 
Q 1481 206 1313 519 
L 1313 0 
L 184 0 
L 184 331 
L 738 331 
z
M 1313 1497 
Q 1313 897 1542 583 
Q 1772 269 2209 269 
Q 2650 269 2876 622 
Q 3103 975 3103 1663 
Q 3103 2353 2876 2703 
Q 2650 3053 2209 3053 
Q 1772 3053 1542 2737 
Q 1313 2422 1313 1825 
L 1313 1497 
z
" transform="scale(0.015625)"/>
       <path id="DejaVuSerif-76" d="M 1581 0 
L 359 2988 
L -19 2988 
L -19 3322 
L 1509 3322 
L 1509 2988 
L 978 2988 
L 1913 703 
L 2847 2988 
L 2350 2988 
L 2350 3322 
L 3597 3322 
L 3597 2988 
L 3225 2988 
L 2003 0 
L 1581 0 
z
" transform="scale(0.015625)"/>
      </defs>
      <use xlink:href="#DejaVuSerif-53"/>
      <use xlink:href="#DejaVuSerif-53" transform="translate(66.755859 0)"/>
      <use xlink:href="#DejaVuSerif-55" transform="translate(135.261719 0)"/>
      <use xlink:href="#DejaVuSerif-53" transform="translate(219.539062 0)"/>
      <use xlink:href="#DejaVuSerif-41" transform="translate(288.044922 0)"/>
      <use xlink:href="#DejaVuSerif-2d" transform="translate(360.261719 0)"/>
      <use xlink:href="#DejaVuSerif-6f" transform="translate(394.050781 0)"/>
      <use xlink:href="#DejaVuSerif-62" transform="translate(454.255859 0)"/>
      <use xlink:href="#DejaVuSerif-73" transform="translate(518.269531 0)"/>
      <use xlink:href="#DejaVuSerif-65" transform="translate(569.587891 0)"/>
      <use xlink:href="#DejaVuSerif-72" transform="translate(628.767578 0)"/>
      <use xlink:href="#DejaVuSerif-76" transform="translate(676.570312 0)"/>
      <use xlink:href="#DejaVuSerif-65" transform="translate(733.064453 0)"/>
      <use xlink:href="#DejaVuSerif-64" transform="translate(792.244141 0)"/>
      <use xlink:href="#DejaVuSerif-20" transform="translate(856.257812 0)"/>
      <use xlink:href="#DejaVuSerif-61" transform="translate(888.044922 0)"/>
      <use xlink:href="#DejaVuSerif-72" transform="translate(947.664062 0)"/>
      <use xlink:href="#DejaVuSerif-72" transform="translate(995.466797 0)"/>
      <use xlink:href="#DejaVuSerif-61" transform="translate(1043.269531 0)"/>
      <use xlink:href="#DejaVuSerif-79" transform="translate(1102.888672 0)"/>
      <use xlink:href="#DejaVuSerif-73" transform="translate(1159.382812 0)"/>
     </g>
    </g>
   </g>
   <g id="line2d_25">
    <path d="M 77.94433 200.700511 
L 720.854263 27.681146 
" clip-path="url(#pdeec3ac544)" style="fill: none; stroke-dasharray: 2.96,1.28; stroke-dashoffset: 0; stroke: #706a58; stroke-width: 0.8"/>
   </g>
   <g id="patch_3">
    <path d="M 45.798834 209.351479 
L 45.798834 19.030177 
" style="fill: none; stroke: #1f1f1f; stroke-width: 0.8; stroke-linejoin: miter; stroke-linecap: square"/>
   </g>
   <g id="patch_4">
    <path d="M 752.99976 209.351479 
L 752.99976 19.030177 
" style="fill: none; stroke: #1f1f1f; stroke-width: 0.8; stroke-linejoin: miter; stroke-linecap: square"/>
   </g>
   <g id="patch_5">
    <path d="M 45.798834 209.351479 
L 752.99976 209.351479 
" style="fill: none; stroke: #1f1f1f; stroke-width: 0.8; stroke-linejoin: miter; stroke-linecap: square"/>
   </g>
   <g id="patch_6">
    <path d="M 45.798834 19.030177 
L 752.99976 19.030177 
" style="fill: none; stroke: #1f1f1f; stroke-width: 0.8; stroke-linejoin: miter; stroke-linecap: square"/>
   </g>
   <g id="text_15">
    <!-- Per-species: predicted vs observed array count -->
    <g style="fill: #1f3a5f" transform="translate(242.179047 13.030177) scale(0.132 -0.132)">
     <defs>
      <path id="DejaVuSerif-50" d="M 1581 2375 
L 2406 2375 
Q 2872 2375 3115 2626 
Q 3359 2878 3359 3353 
Q 3359 3831 3115 4081 
Q 2872 4331 2406 4331 
L 1581 4331 
L 1581 2375 
z
M 353 0 
L 353 331 
L 947 331 
L 947 4331 
L 353 4331 
L 353 4666 
L 2559 4666 
Q 3259 4666 3668 4311 
Q 4078 3956 4078 3353 
Q 4078 2753 3668 2397 
Q 3259 2041 2559 2041 
L 1581 2041 
L 1581 331 
L 2303 331 
L 2303 0 
L 353 0 
z
" transform="scale(0.015625)"/>
      <path id="DejaVuSerif-3a" d="M 666 325 
Q 666 500 786 622 
Q 906 744 1081 744 
Q 1256 744 1376 622 
Q 1497 500 1497 325 
Q 1497 150 1378 29 
Q 1259 -91 1081 -91 
Q 903 -91 784 29 
Q 666 150 666 325 
z
M 666 2363 
Q 666 2538 786 2658 
Q 906 2778 1081 2778 
Q 1259 2778 1378 2659 
Q 1497 2541 1497 2363 
Q 1497 2184 1378 2065 
Q 1259 1947 1081 1947 
Q 906 1947 786 2067 
Q 666 2188 666 2363 
z
" transform="scale(0.015625)"/>
      <path id="DejaVuSerif-75" d="M 2266 3322 
L 3341 3322 
L 3341 331 
L 3884 331 
L 3884 0 
L 2766 0 
L 2766 588 
Q 2606 256 2353 82 
Q 2100 -91 1766 -91 
Q 1213 -91 952 223 
Q 691 538 691 1209 
L 691 2988 
L 172 2988 
L 172 3322 
L 1269 3322 
L 1269 1388 
Q 1269 781 1417 556 
Q 1566 331 1947 331 
Q 2347 331 2556 625 
Q 2766 919 2766 1478 
L 2766 2988 
L 2266 2988 
L 2266 3322 
z
" transform="scale(0.015625)"/>
      <path id="DejaVuSerif-6e" d="M 263 0 
L 263 331 
L 781 331 
L 781 2988 
L 231 2988 
L 231 3322 
L 1356 3322 
L 1356 2731 
Q 1516 3069 1770 3241 
Q 2025 3413 2363 3413 
Q 2913 3413 3172 3097 
Q 3431 2781 3431 2113 
L 3431 331 
L 3944 331 
L 3944 0 
L 2356 0 
L 2356 331 
L 2853 331 
L 2853 1931 
Q 2853 2541 2703 2767 
Q 2553 2994 2175 2994 
Q 1775 2994 1565 2701 
Q 1356 2409 1356 1850 
L 1356 331 
L 1856 331 
L 1856 0 
L 263 0 
z
" transform="scale(0.015625)"/>
     </defs>
     <use xlink:href="#DejaVuSerif-50"/>
     <use xlink:href="#DejaVuSerif-65" transform="translate(62.785156 0)"/>
     <use xlink:href="#DejaVuSerif-72" transform="translate(121.964844 0)"/>
     <use xlink:href="#DejaVuSerif-2d" transform="translate(169.767578 0)"/>
     <use xlink:href="#DejaVuSerif-73" transform="translate(203.556641 0)"/>
     <use xlink:href="#DejaVuSerif-70" transform="translate(254.875 0)"/>
     <use xlink:href="#DejaVuSerif-65" transform="translate(318.888672 0)"/>
     <use xlink:href="#DejaVuSerif-63" transform="translate(378.068359 0)"/>
     <use xlink:href="#DejaVuSerif-69" transform="translate(434.074219 0)"/>
     <use xlink:href="#DejaVuSerif-65" transform="translate(466.056641 0)"/>
     <use xlink:href="#DejaVuSerif-73" transform="translate(525.236328 0)"/>
     <use xlink:href="#DejaVuSerif-3a" transform="translate(576.554688 0)"/>
     <use xlink:href="#DejaVuSerif-20" transform="translate(610.246094 0)"/>
     <use xlink:href="#DejaVuSerif-70" transform="translate(642.033203 0)"/>
     <use xlink:href="#DejaVuSerif-72" transform="translate(706.046875 0)"/>
     <use xlink:href="#DejaVuSerif-65" transform="translate(753.849609 0)"/>
     <use xlink:href="#DejaVuSerif-64" transform="translate(813.029297 0)"/>
     <use xlink:href="#DejaVuSerif-69" transform="translate(877.042969 0)"/>
     <use xlink:href="#DejaVuSerif-63" transform="translate(909.025391 0)"/>
     <use xlink:href="#DejaVuSerif-74" transform="translate(965.03125 0)"/>
     <use xlink:href="#DejaVuSerif-65" transform="translate(1005.216797 0)"/>
     <use xlink:href="#DejaVuSerif-64" transform="translate(1064.396484 0)"/>
     <use xlink:href="#DejaVuSerif-20" transform="translate(1128.410156 0)"/>
     <use xlink:href="#DejaVuSerif-76" transform="translate(1160.197266 0)"/>
     <use xlink:href="#DejaVuSerif-73" transform="translate(1216.691406 0)"/>
     <use xlink:href="#DejaVuSerif-20" transform="translate(1268.009766 0)"/>
     <use xlink:href="#DejaVuSerif-6f" transform="translate(1299.796875 0)"/>
     <use xlink:href="#DejaVuSerif-62" transform="translate(1360.001953 0)"/>
     <use xlink:href="#DejaVuSerif-73" transform="translate(1424.015625 0)"/>
     <use xlink:href="#DejaVuSerif-65" transform="translate(1475.333984 0)"/>
     <use xlink:href="#DejaVuSerif-72" transform="translate(1534.513672 0)"/>
     <use xlink:href="#DejaVuSerif-76" transform="translate(1582.316406 0)"/>
     <use xlink:href="#DejaVuSerif-65" transform="translate(1638.810547 0)"/>
     <use xlink:href="#DejaVuSerif-64" transform="translate(1697.990234 0)"/>
     <use xlink:href="#DejaVuSerif-20" transform="translate(1762.003906 0)"/>
     <use xlink:href="#DejaVuSerif-61" transform="translate(1793.791016 0)"/>
     <use xlink:href="#DejaVuSerif-72" transform="translate(1853.410156 0)"/>
     <use xlink:href="#DejaVuSerif-72" transform="translate(1901.212891 0)"/>
     <use xlink:href="#DejaVuSerif-61" transform="translate(1949.015625 0)"/>
     <use xlink:href="#DejaVuSerif-79" transform="translate(2008.634766 0)"/>
     <use xlink:href="#DejaVuSerif-20" transform="translate(2065.128906 0)"/>
     <use xlink:href="#DejaVuSerif-63" transform="translate(2096.916016 0)"/>
     <use xlink:href="#DejaVuSerif-6f" transform="translate(2152.921875 0)"/>
     <use xlink:href="#DejaVuSerif-75" transform="translate(2213.126953 0)"/>
     <use xlink:href="#DejaVuSerif-6e" transform="translate(2277.53125 0)"/>
     <use xlink:href="#DejaVuSerif-74" transform="translate(2341.935547 0)"/>
    </g>
   </g>
   <g id="legend_1">
    <g id="line2d_26">
     <path d="M 55.698834 33.438459 
L 66.698834 33.438459 
L 77.698834 33.438459 
" style="fill: none; stroke-dasharray: 2.96,1.28; stroke-dashoffset: 0; stroke: #706a58; stroke-width: 0.8"/>
    </g>
    <g id="text_16">
     <!-- 1:1 -->
     <g style="fill: #1f1f1f" transform="translate(86.498834 37.288459) scale(0.11 -0.11)">
      <use xlink:href="#DejaVuSerif-31"/>
      <use xlink:href="#DejaVuSerif-3a" transform="translate(63.623047 0)"/>
      <use xlink:href="#DejaVuSerif-31" transform="translate(97.314453 0)"/>
     </g>
    </g>
   </g>
  </g>
 </g>
 <defs>
  <clipPath id="pdeec3ac544">
   <rect x="45.798834" y="19.030177" width="707.200926" height="190.321301"/>
  </clipPath>
 </defs>
</svg>
