<?xml version="1.0" encoding="utf-8" standalone="no"?>
<!DOCTYPE svg PUBLIC "-//W3C//DTD SVG 1.1//EN"
  "http://www.w3.org/Graphics/SVG/1.1/DTD/svg11.dtd">
<svg xmlns:xlink="http://www.w3.org/1999/xlink" width="756pt" height="244.8pt" viewBox="0 0 756 244.8" xmlns="http://www.w3.org/2000/svg" version="1.1">
 <metadata>
  <rdf:RDF xmlns:dc="http://purl.org/dc/elements/1.1/" xmlns:cc="http://creativecommons.org/ns#" xmlns:rdf="http://www.w3.org/1999/02/22-rdf-syntax-ns#">
   <cc:Work>
    <dc:type rdf:resource="http://purl.org/dc/dcmitype/StillImage"/>
    <dc:date>2026-04-28T13:55:04.410254</dc:date>
    <dc:format>image/svg+xml</dc:format>
    <dc:creator>
     <cc:Agent>
      <dc:title>Matplotlib v3.10.8, https://matplotlib.org/</dc:title>
     </cc:Agent>
    </dc:creator>
   </cc:Work>
  </rdf:RDF>
 </metadata>
 <defs>
  <style type="text/css">*{stroke-linejoin: round; stroke-linecap: butt}</style>
 </defs>
 <g id="figure_1">
  <g id="patch_1">
   <path d="M 0 244.8 
L 756 244.8 
L 756 0 
L 0 0 
L 0 244.8 
z
" style="fill: none"/>
  </g>
  <g id="axes_1">
   <g id="patch_2">
    <path d="M 116.41524 212.254916 
L 752.99976 212.254916 
L 752.99976 19.030177 
L 116.41524 19.030177 
L 116.41524 212.254916 
z
" style="fill: none"/>
   </g>
   <g id="patch_3">
    <path d="M 549.422838 203.471974 
L 460.390038 203.471974 
L 460.390038 196.374646 
L 549.422838 196.374646 
z
" clip-path="url(#p97508d7c0d)" style="fill: #c7623c; stroke: #1f1f1f; stroke-width: 0.3; stroke-linejoin: miter"/>
   </g>
   <g id="patch_4">
    <path d="M 549.422838 194.600314 
L 453.541362 194.600314 
L 453.541362 187.502987 
L 549.422838 187.502987 
z
" clip-path="url(#p97508d7c0d)" style="fill: #c7623c; stroke: #1f1f1f; stroke-width: 0.3; stroke-linejoin: miter"/>
   </g>
   <g id="patch_5">
    <path d="M 549.422838 185.728655 
L 443.268346 185.728655 
L 443.268346 178.631328 
L 549.422838 178.631328 
z
" clip-path="url(#p97508d7c0d)" style="fill: #c7623c; stroke: #1f1f1f; stroke-width: 0.3; stroke-linejoin: miter"/>
   </g>
   <g id="patch_6">
    <path d="M 549.422838 176.856996 
L 439.844008 176.856996 
L 439.844008 169.759668 
L 549.422838 169.759668 
z
" clip-path="url(#p97508d7c0d)" style="fill: #c7623c; stroke: #1f1f1f; stroke-width: 0.3; stroke-linejoin: miter"/>
   </g>
   <g id="patch_7">
    <path d="M 549.422838 167.985337 
L 429.570992 167.985337 
L 429.570992 160.888009 
L 549.422838 160.888009 
z
" clip-path="url(#p97508d7c0d)" style="fill: #c7623c; stroke: #1f1f1f; stroke-width: 0.3; stroke-linejoin: miter"/>
   </g>
   <g id="patch_8">
    <path d="M 549.422838 159.113677 
L 409.024962 159.113677 
L 409.024962 152.01635 
L 549.422838 152.01635 
z
" clip-path="url(#p97508d7c0d)" style="fill: #c7623c; stroke: #1f1f1f; stroke-width: 0.3; stroke-linejoin: miter"/>
   </g>
   <g id="patch_9">
    <path d="M 549.422838 150.242018 
L 409.024962 150.242018 
L 409.024962 143.144691 
L 549.422838 143.144691 
z
" clip-path="url(#p97508d7c0d)" style="fill: #c7623c; stroke: #1f1f1f; stroke-width: 0.3; stroke-linejoin: miter"/>
   </g>
   <g id="patch_10">
    <path d="M 549.422838 141.370359 
L 395.327608 141.370359 
L 395.327608 134.273031 
L 549.422838 134.273031 
z
" clip-path="url(#p97508d7c0d)" style="fill: #c7623c; stroke: #1f1f1f; stroke-width: 0.3; stroke-linejoin: miter"/>
   </g>
   <g id="patch_11">
    <path d="M 549.422838 132.498699 
L 395.327608 132.498699 
L 395.327608 125.401372 
L 549.422838 125.401372 
z
" clip-path="url(#p97508d7c0d)" style="fill: #c7623c; stroke: #1f1f1f; stroke-width: 0.3; stroke-linejoin: miter"/>
   </g>
   <g id="patch_12">
    <path d="M 549.422838 123.62704 
L 381.630254 123.62704 
L 381.630254 116.529713 
L 549.422838 116.529713 
z
" clip-path="url(#p97508d7c0d)" style="fill: #c7623c; stroke: #1f1f1f; stroke-width: 0.3; stroke-linejoin: miter"/>
   </g>
   <g id="patch_13">
    <path d="M 549.422838 114.755381 
L 381.630254 114.755381 
L 381.630254 107.658054 
L 549.422838 107.658054 
z
" clip-path="url(#p97508d7c0d)" style="fill: #c7623c; stroke: #1f1f1f; stroke-width: 0.3; stroke-linejoin: miter"/>
   </g>
   <g id="patch_14">
    <path d="M 549.422838 105.883722 
L 724.0641 105.883722 
L 724.0641 98.786394 
L 549.422838 98.786394 
z
" clip-path="url(#p97508d7c0d)" style="fill: #1f3a5f; stroke: #1f1f1f; stroke-width: 0.3; stroke-linejoin: miter"/>
   </g>
   <g id="patch_15">
    <path d="M 549.422838 97.012062 
L 350.811208 97.012062 
L 350.811208 89.914735 
L 549.422838 89.914735 
z
" clip-path="url(#p97508d7c0d)" style="fill: #c7623c; stroke: #1f1f1f; stroke-width: 0.3; stroke-linejoin: miter"/>
   </g>
   <g id="patch_16">
    <path d="M 549.422838 88.140403 
L 340.538192 88.140403 
L 340.538192 81.043076 
L 549.422838 81.043076 
z
" clip-path="url(#p97508d7c0d)" style="fill: #c7623c; stroke: #1f1f1f; stroke-width: 0.3; stroke-linejoin: miter"/>
   </g>
   <g id="patch_17">
    <path d="M 549.422838 79.268744 
L 251.505392 79.268744 
L 251.505392 72.171416 
L 549.422838 72.171416 
z
" clip-path="url(#p97508d7c0d)" style="fill: #c7623c; stroke: #1f1f1f; stroke-width: 0.3; stroke-linejoin: miter"/>
   </g>
   <g id="patch_18">
    <path d="M 549.422838 70.397085 
L 248.081054 70.397085 
L 248.081054 63.299757 
L 549.422838 63.299757 
z
" clip-path="url(#p97508d7c0d)" style="fill: #c7623c; stroke: #1f1f1f; stroke-width: 0.3; stroke-linejoin: miter"/>
   </g>
   <g id="patch_19">
    <path d="M 549.422838 61.525425 
L 241.232377 61.525425 
L 241.232377 54.428098 
L 549.422838 54.428098 
z
" clip-path="url(#p97508d7c0d)" style="fill: #c7623c; stroke: #1f1f1f; stroke-width: 0.3; stroke-linejoin: miter"/>
   </g>
   <g id="patch_20">
    <path d="M 549.422838 52.653766 
L 234.3837 52.653766 
L 234.3837 45.556439 
L 549.422838 45.556439 
z
" clip-path="url(#p97508d7c0d)" style="fill: #c7623c; stroke: #1f1f1f; stroke-width: 0.3; stroke-linejoin: miter"/>
   </g>
   <g id="patch_21">
    <path d="M 549.422838 43.782107 
L 193.291638 43.782107 
L 193.291638 36.684779 
L 549.422838 36.684779 
z
" clip-path="url(#p97508d7c0d)" style="fill: #c7623c; stroke: #1f1f1f; stroke-width: 0.3; stroke-linejoin: miter"/>
   </g>
   <g id="patch_22">
    <path d="M 549.422838 34.910448 
L 145.3509 34.910448 
L 145.3509 27.81312 
L 549.422838 27.81312 
z
" clip-path="url(#p97508d7c0d)" style="fill: #c7623c; stroke: #1f1f1f; stroke-width: 0.3; stroke-linejoin: miter"/>
   </g>
   <g id="matplotlib.axis_1">
    <g id="xtick_1">
     <g id="line2d_1">
      <path d="M 121.380531 212.254916 
L 121.380531 19.030177 
" clip-path="url(#p97508d7c0d)" style="fill: none; stroke: #cfc7ab; stroke-width: 0.5; stroke-linecap: square"/>
     </g>
     <g id="line2d_2">
      <defs>
       <path id="m787f0dcad8" d="M 0 0 
L 0 3.5 
" style="stroke: #1f1f1f; stroke-width: 0.8"/>
      </defs>
      <g>
       <use xlink:href="#m787f0dcad8" x="121.380531" y="212.254916" style="fill: #1f1f1f; stroke: #1f1f1f; stroke-width: 0.8"/>
      </g>
     </g>
     <g id="text_1">
      <!-- −125 -->
      <g style="fill: #1f1f1f" transform="translate(110.393656 225.333666) scale(0.08 -0.08)">
       <defs>
        <path id="DejaVuSerif-2212" d="M 678 2259 
L 4684 2259 
L 4684 1753 
L 678 1753 
L 678 2259 
z
" transform="scale(0.015625)"/>
        <path id="DejaVuSerif-31" d="M 909 0 
L 909 331 
L 1722 331 
L 1722 4213 
L 781 3603 
L 781 4013 
L 1919 4750 
L 2350 4750 
L 2350 331 
L 3163 331 
L 3163 0 
L 909 0 
z
" transform="scale(0.015625)"/>
        <path id="DejaVuSerif-32" d="M 819 3553 
L 469 3553 
L 469 4384 
Q 803 4563 1142 4656 
Q 1481 4750 1806 4750 
Q 2534 4750 2956 4397 
Q 3378 4044 3378 3438 
Q 3378 2753 2422 1800 
Q 2347 1728 2309 1691 
L 1131 513 
L 3078 513 
L 3078 1088 
L 3444 1088 
L 3444 0 
L 434 0 
L 434 341 
L 1850 1753 
Q 2319 2222 2519 2614 
Q 2719 3006 2719 3438 
Q 2719 3909 2473 4175 
Q 2228 4441 1797 4441 
Q 1350 4441 1106 4219 
Q 863 3997 819 3553 
z
" transform="scale(0.015625)"/>
        <path id="DejaVuSerif-35" d="M 3219 4666 
L 3219 4153 
L 1081 4153 
L 1081 2816 
Q 1244 2928 1461 2984 
Q 1678 3041 1947 3041 
Q 2703 3041 3140 2622 
Q 3578 2203 3578 1478 
Q 3578 738 3136 323 
Q 2694 -91 1894 -91 
Q 1572 -91 1234 -12 
Q 897 66 544 225 
L 544 1131 
L 897 1131 
Q 925 688 1179 453 
Q 1434 219 1894 219 
Q 2388 219 2653 544 
Q 2919 869 2919 1478 
Q 2919 2084 2655 2407 
Q 2391 2731 1894 2731 
Q 1613 2731 1398 2631 
Q 1184 2531 1019 2322 
L 750 2322 
L 750 4666 
L 3219 4666 
z
" transform="scale(0.015625)"/>
       </defs>
       <use xlink:href="#DejaVuSerif-2212"/>
       <use xlink:href="#DejaVuSerif-31" transform="translate(83.789062 0)"/>
       <use xlink:href="#DejaVuSerif-32" transform="translate(147.412109 0)"/>
       <use xlink:href="#DejaVuSerif-35" transform="translate(211.035156 0)"/>
      </g>
     </g>
    </g>
    <g id="xtick_2">
     <g id="line2d_3">
      <path d="M 206.988992 212.254916 
L 206.988992 19.030177 
" clip-path="url(#p97508d7c0d)" style="fill: none; stroke: #cfc7ab; stroke-width: 0.5; stroke-linecap: square"/>
     </g>
     <g id="line2d_4">
      <g>
       <use xlink:href="#m787f0dcad8" x="206.988992" y="212.254916" style="fill: #1f1f1f; stroke: #1f1f1f; stroke-width: 0.8"/>
      </g>
     </g>
     <g id="text_2">
      <!-- −100 -->
      <g style="fill: #1f1f1f" transform="translate(196.002117 225.333666) scale(0.08 -0.08)">
       <defs>
        <path id="DejaVuSerif-30" d="M 2034 219 
Q 2513 219 2750 744 
Q 2988 1269 2988 2328 
Q 2988 3391 2750 3916 
Q 2513 4441 2034 4441 
Q 1556 4441 1318 3916 
Q 1081 3391 1081 2328 
Q 1081 1269 1318 744 
Q 1556 219 2034 219 
z
M 2034 -91 
Q 1275 -91 848 546 
Q 422 1184 422 2328 
Q 422 3475 848 4112 
Q 1275 4750 2034 4750 
Q 2797 4750 3222 4112 
Q 3647 3475 3647 2328 
Q 3647 1184 3222 546 
Q 2797 -91 2034 -91 
z
" transform="scale(0.015625)"/>
       </defs>
       <use xlink:href="#DejaVuSerif-2212"/>
       <use xlink:href="#DejaVuSerif-31" transform="translate(83.789062 0)"/>
       <use xlink:href="#DejaVuSerif-30" transform="translate(147.412109 0)"/>
       <use xlink:href="#DejaVuSerif-30" transform="translate(211.035156 0)"/>
      </g>
     </g>
    </g>
    <g id="xtick_3">
     <g id="line2d_5">
      <path d="M 292.597454 212.254916 
L 292.597454 19.030177 
" clip-path="url(#p97508d7c0d)" style="fill: none; stroke: #cfc7ab; stroke-width: 0.5; stroke-linecap: square"/>
     </g>
     <g id="line2d_6">
      <g>
       <use xlink:href="#m787f0dcad8" x="292.597454" y="212.254916" style="fill: #1f1f1f; stroke: #1f1f1f; stroke-width: 0.8"/>
      </g>
     </g>
     <g id="text_3">
      <!-- −75 -->
      <g style="fill: #1f1f1f" transform="translate(284.155579 225.333666) scale(0.08 -0.08)">
       <defs>
        <path id="DejaVuSerif-37" d="M 3609 4347 
L 1784 0 
L 1319 0 
L 3059 4153 
L 903 4153 
L 903 3578 
L 538 3578 
L 538 4666 
L 3609 4666 
L 3609 4347 
z
" transform="scale(0.015625)"/>
       </defs>
       <use xlink:href="#DejaVuSerif-2212"/>
       <use xlink:href="#DejaVuSerif-37" transform="translate(83.789062 0)"/>
       <use xlink:href="#DejaVuSerif-35" transform="translate(147.412109 0)"/>
      </g>
     </g>
    </g>
    <g id="xtick_4">
     <g id="line2d_7">
      <path d="M 378.205915 212.254916 
L 378.205915 19.030177 
" clip-path="url(#p97508d7c0d)" style="fill: none; stroke: #cfc7ab; stroke-width: 0.5; stroke-linecap: square"/>
     </g>
     <g id="line2d_8">
      <g>
       <use xlink:href="#m787f0dcad8" x="378.205915" y="212.254916" style="fill: #1f1f1f; stroke: #1f1f1f; stroke-width: 0.8"/>
      </g>
     </g>
     <g id="text_4">
      <!-- −50 -->
      <g style="fill: #1f1f1f" transform="translate(369.76404 225.333666) scale(0.08 -0.08)">
       <use xlink:href="#DejaVuSerif-2212"/>
       <use xlink:href="#DejaVuSerif-35" transform="translate(83.789062 0)"/>
       <use xlink:href="#DejaVuSerif-30" transform="translate(147.412109 0)"/>
      </g>
     </g>
    </g>
    <g id="xtick_5">
     <g id="line2d_9">
      <path d="M 463.814377 212.254916 
L 463.814377 19.030177 
" clip-path="url(#p97508d7c0d)" style="fill: none; stroke: #cfc7ab; stroke-width: 0.5; stroke-linecap: square"/>
     </g>
     <g id="line2d_10">
      <g>
       <use xlink:href="#m787f0dcad8" x="463.814377" y="212.254916" style="fill: #1f1f1f; stroke: #1f1f1f; stroke-width: 0.8"/>
      </g>
     </g>
     <g id="text_5">
      <!-- −25 -->
      <g style="fill: #1f1f1f" transform="translate(455.372502 225.333666) scale(0.08 -0.08)">
       <use xlink:href="#DejaVuSerif-2212"/>
       <use xlink:href="#DejaVuSerif-32" transform="translate(83.789062 0)"/>
       <use xlink:href="#DejaVuSerif-35" transform="translate(147.412109 0)"/>
      </g>
     </g>
    </g>
    <g id="xtick_6">
     <g id="line2d_11">
      <path d="M 549.422838 212.254916 
L 549.422838 19.030177 
" clip-path="url(#p97508d7c0d)" style="fill: none; stroke: #cfc7ab; stroke-width: 0.5; stroke-linecap: square"/>
     </g>
     <g id="line2d_12">
      <g>
       <use xlink:href="#m787f0dcad8" x="549.422838" y="212.254916" style="fill: #1f1f1f; stroke: #1f1f1f; stroke-width: 0.8"/>
      </g>
     </g>
     <g id="text_6">
      <!-- 0 -->
      <g style="fill: #1f1f1f" transform="translate(546.877838 225.333666) scale(0.08 -0.08)">
       <use xlink:href="#DejaVuSerif-30"/>
      </g>
     </g>
    </g>
    <g id="xtick_7">
     <g id="line2d_13">
      <path d="M 635.0313 212.254916 
L 635.0313 19.030177 
" clip-path="url(#p97508d7c0d)" style="fill: none; stroke: #cfc7ab; stroke-width: 0.5; stroke-linecap: square"/>
     </g>
     <g id="line2d_14">
      <g>
       <use xlink:href="#m787f0dcad8" x="635.0313" y="212.254916" style="fill: #1f1f1f; stroke: #1f1f1f; stroke-width: 0.8"/>
      </g>
     </g>
     <g id="text_7">
      <!-- 25 -->
      <g style="fill: #1f1f1f" transform="translate(629.9413 225.333666) scale(0.08 -0.08)">
       <use xlink:href="#DejaVuSerif-32"/>
       <use xlink:href="#DejaVuSerif-35" transform="translate(63.623047 0)"/>
      </g>
     </g>
    </g>
    <g id="xtick_8">
     <g id="line2d_15">
      <path d="M 720.639762 212.254916 
L 720.639762 19.030177 
" clip-path="url(#p97508d7c0d)" style="fill: none; stroke: #cfc7ab; stroke-width: 0.5; stroke-linecap: square"/>
     </g>
     <g id="line2d_16">
      <g>
       <use xlink:href="#m787f0dcad8" x="720.639762" y="212.254916" style="fill: #1f1f1f; stroke: #1f1f1f; stroke-width: 0.8"/>
      </g>
     </g>
     <g id="text_8">
      <!-- 50 -->
      <g style="fill: #1f1f1f" transform="translate(715.549762 225.333666) scale(0.08 -0.08)">
       <use xlink:href="#DejaVuSerif-35"/>
       <use xlink:href="#DejaVuSerif-30" transform="translate(63.623047 0)"/>
      </g>
     </g>
    </g>
    <g id="text_9">
     <!-- Observed − Predicted  (arrays) -->
     <g style="fill: #1f1f1f" transform="translate(347.517891 239.355697) scale(0.11 -0.11)">
      <defs>
       <path id="DejaVuSerif-4f" d="M 2625 244 
Q 3391 244 3781 770 
Q 4172 1297 4172 2328 
Q 4172 3363 3781 3889 
Q 3391 4416 2625 4416 
Q 1856 4416 1465 3889 
Q 1075 3363 1075 2328 
Q 1075 1297 1465 770 
Q 1856 244 2625 244 
z
M 2625 -91 
Q 2150 -91 1751 65 
Q 1353 222 1050 525 
Q 700 875 529 1319 
Q 359 1763 359 2328 
Q 359 2894 529 3339 
Q 700 3784 1050 4134 
Q 1356 4441 1750 4595 
Q 2144 4750 2625 4750 
Q 3641 4750 4266 4084 
Q 4891 3419 4891 2328 
Q 4891 1769 4719 1320 
Q 4547 872 4197 525 
Q 3891 219 3497 64 
Q 3103 -91 2625 -91 
z
" transform="scale(0.015625)"/>
       <path id="DejaVuSerif-62" d="M 738 331 
L 738 4531 
L 184 4531 
L 184 4863 
L 1313 4863 
L 1313 2803 
Q 1481 3116 1742 3264 
Q 2003 3413 2388 3413 
Q 3000 3413 3387 2928 
Q 3775 2444 3775 1663 
Q 3775 881 3387 395 
Q 3000 -91 2388 -91 
Q 2003 -91 1742 57 
Q 1481 206 1313 519 
L 1313 0 
L 184 0 
L 184 331 
L 738 331 
z
M 1313 1497 
Q 1313 897 1542 583 
Q 1772 269 2209 269 
Q 2650 269 2876 622 
Q 3103 975 3103 1663 
Q 3103 2353 2876 2703 
Q 2650 3053 2209 3053 
Q 1772 3053 1542 2737 
Q 1313 2422 1313 1825 
L 1313 1497 
z
" transform="scale(0.015625)"/>
       <path id="DejaVuSerif-73" d="M 359 184 
L 359 959 
L 691 959 
Q 703 588 923 403 
Q 1144 219 1575 219 
Q 1963 219 2166 364 
Q 2369 509 2369 788 
Q 2369 1006 2220 1140 
Q 2072 1275 1594 1428 
L 1178 1569 
Q 750 1706 558 1912 
Q 366 2119 366 2438 
Q 366 2894 700 3153 
Q 1034 3413 1625 3413 
Q 1888 3413 2178 3344 
Q 2469 3275 2778 3144 
L 2778 2419 
L 2447 2419 
Q 2434 2741 2221 2922 
Q 2009 3103 1644 3103 
Q 1281 3103 1095 2975 
Q 909 2847 909 2591 
Q 909 2381 1050 2254 
Q 1191 2128 1613 1997 
L 2069 1856 
Q 2541 1709 2748 1489 
Q 2956 1269 2956 922 
Q 2956 450 2595 179 
Q 2234 -91 1600 -91 
Q 1278 -91 972 -22 
Q 666 47 359 184 
z
" transform="scale(0.015625)"/>
       <path id="DejaVuSerif-65" d="M 3469 1600 
L 991 1600 
L 991 1575 
Q 991 903 1244 561 
Q 1497 219 1991 219 
Q 2369 219 2611 417 
Q 2853 616 2950 1006 
L 3413 1006 
Q 3275 459 2904 184 
Q 2534 -91 1931 -91 
Q 1203 -91 761 389 
Q 319 869 319 1663 
Q 319 2450 753 2931 
Q 1188 3413 1894 3413 
Q 2647 3413 3050 2948 
Q 3453 2484 3469 1600 
z
M 2791 1931 
Q 2772 2513 2545 2808 
Q 2319 3103 1894 3103 
Q 1497 3103 1269 2806 
Q 1041 2509 991 1931 
L 2791 1931 
z
" transform="scale(0.015625)"/>
       <path id="DejaVuSerif-72" d="M 3059 3328 
L 3059 2497 
L 2728 2497 
Q 2713 2744 2591 2866 
Q 2469 2988 2234 2988 
Q 1809 2988 1582 2694 
Q 1356 2400 1356 1850 
L 1356 331 
L 2022 331 
L 2022 0 
L 263 0 
L 263 331 
L 781 331 
L 781 2994 
L 231 2994 
L 231 3322 
L 1356 3322 
L 1356 2731 
Q 1525 3078 1790 3245 
Q 2056 3413 2438 3413 
Q 2578 3413 2733 3391 
Q 2888 3369 3059 3328 
z
" transform="scale(0.015625)"/>
       <path id="DejaVuSerif-76" d="M 1581 0 
L 359 2988 
L -19 2988 
L -19 3322 
L 1509 3322 
L 1509 2988 
L 978 2988 
L 1913 703 
L 2847 2988 
L 2350 2988 
L 2350 3322 
L 3597 3322 
L 3597 2988 
L 3225 2988 
L 2003 0 
L 1581 0 
z
" transform="scale(0.015625)"/>
       <path id="DejaVuSerif-64" d="M 3359 331 
L 3909 331 
L 3909 0 
L 2784 0 
L 2784 519 
Q 2616 206 2355 57 
Q 2094 -91 1709 -91 
Q 1097 -91 708 395 
Q 319 881 319 1663 
Q 319 2444 706 2928 
Q 1094 3413 1709 3413 
Q 2094 3413 2355 3264 
Q 2616 3116 2784 2803 
L 2784 4531 
L 2241 4531 
L 2241 4863 
L 3359 4863 
L 3359 331 
z
M 2784 1497 
L 2784 1825 
Q 2784 2422 2554 2737 
Q 2325 3053 1888 3053 
Q 1444 3053 1217 2703 
Q 991 2353 991 1663 
Q 991 975 1217 622 
Q 1444 269 1888 269 
Q 2325 269 2554 583 
Q 2784 897 2784 1497 
z
" transform="scale(0.015625)"/>
       <path id="DejaVuSerif-20" transform="scale(0.015625)"/>
       <path id="DejaVuSerif-50" d="M 1581 2375 
L 2406 2375 
Q 2872 2375 3115 2626 
Q 3359 2878 3359 3353 
Q 3359 3831 3115 4081 
Q 2872 4331 2406 4331 
L 1581 4331 
L 1581 2375 
z
M 353 0 
L 353 331 
L 947 331 
L 947 4331 
L 353 4331 
L 353 4666 
L 2559 4666 
Q 3259 4666 3668 4311 
Q 4078 3956 4078 3353 
Q 4078 2753 3668 2397 
Q 3259 2041 2559 2041 
L 1581 2041 
L 1581 331 
L 2303 331 
L 2303 0 
L 353 0 
z
" transform="scale(0.015625)"/>
       <path id="DejaVuSerif-69" d="M 622 4353 
Q 622 4497 726 4603 
Q 831 4709 978 4709 
Q 1122 4709 1226 4603 
Q 1331 4497 1331 4353 
Q 1331 4206 1228 4103 
Q 1125 4000 978 4000 
Q 831 4000 726 4103 
Q 622 4206 622 4353 
z
M 1356 331 
L 1900 331 
L 1900 0 
L 231 0 
L 231 331 
L 781 331 
L 781 2988 
L 231 2988 
L 231 3322 
L 1356 3322 
L 1356 331 
z
" transform="scale(0.015625)"/>
       <path id="DejaVuSerif-63" d="M 3291 997 
Q 3169 466 2822 187 
Q 2475 -91 1925 -91 
Q 1200 -91 759 389 
Q 319 869 319 1663 
Q 319 2459 759 2936 
Q 1200 3413 1925 3413 
Q 2241 3413 2553 3339 
Q 2866 3266 3181 3116 
L 3181 2266 
L 2847 2266 
Q 2781 2703 2561 2903 
Q 2341 3103 1931 3103 
Q 1466 3103 1228 2742 
Q 991 2381 991 1663 
Q 991 944 1227 581 
Q 1463 219 1931 219 
Q 2303 219 2525 412 
Q 2747 606 2828 997 
L 3291 997 
z
" transform="scale(0.015625)"/>
       <path id="DejaVuSerif-74" d="M 691 2988 
L 184 2988 
L 184 3322 
L 691 3322 
L 691 4353 
L 1269 4353 
L 1269 3322 
L 2350 3322 
L 2350 2988 
L 1269 2988 
L 1269 878 
Q 1269 456 1350 337 
Q 1431 219 1650 219 
Q 1875 219 1978 351 
Q 2081 484 2088 781 
L 2522 781 
Q 2497 328 2275 118 
Q 2053 -91 1600 -91 
Q 1103 -91 897 129 
Q 691 350 691 878 
L 691 2988 
z
" transform="scale(0.015625)"/>
       <path id="DejaVuSerif-28" d="M 2041 -997 
Q 1281 -656 893 83 
Q 506 822 506 1931 
Q 506 3044 893 3783 
Q 1281 4522 2041 4863 
L 2041 4556 
Q 1559 4225 1350 3623 
Q 1141 3022 1141 1931 
Q 1141 844 1350 242 
Q 1559 -359 2041 -691 
L 2041 -997 
z
" transform="scale(0.015625)"/>
       <path id="DejaVuSerif-61" d="M 2547 1044 
L 2547 1747 
L 1806 1747 
Q 1378 1747 1168 1562 
Q 959 1378 959 997 
Q 959 650 1171 447 
Q 1384 244 1747 244 
Q 2106 244 2326 466 
Q 2547 688 2547 1044 
z
M 3122 2075 
L 3122 331 
L 3634 331 
L 3634 0 
L 2547 0 
L 2547 359 
Q 2356 128 2106 18 
Q 1856 -91 1522 -91 
Q 969 -91 644 203 
Q 319 497 319 997 
Q 319 1513 691 1797 
Q 1063 2081 1741 2081 
L 2547 2081 
L 2547 2309 
Q 2547 2688 2317 2895 
Q 2088 3103 1672 3103 
Q 1328 3103 1125 2947 
Q 922 2791 872 2484 
L 575 2484 
L 575 3156 
Q 875 3284 1158 3348 
Q 1441 3413 1709 3413 
Q 2400 3413 2761 3070 
Q 3122 2728 3122 2075 
z
" transform="scale(0.015625)"/>
       <path id="DejaVuSerif-79" d="M 1381 -609 
L 1600 -56 
L 359 2988 
L -19 2988 
L -19 3322 
L 1509 3322 
L 1509 2988 
L 978 2988 
L 1913 703 
L 2847 2988 
L 2350 2988 
L 2350 3322 
L 3597 3322 
L 3597 2988 
L 3225 2988 
L 1703 -750 
Q 1547 -1138 1356 -1280 
Q 1166 -1422 819 -1422 
Q 672 -1422 517 -1397 
Q 363 -1372 206 -1325 
L 206 -691 
L 500 -691 
Q 519 -903 608 -995 
Q 697 -1088 884 -1088 
Q 1056 -1088 1161 -992 
Q 1266 -897 1381 -609 
z
" transform="scale(0.015625)"/>
       <path id="DejaVuSerif-29" d="M 453 -997 
L 453 -691 
Q 934 -359 1145 242 
Q 1356 844 1356 1931 
Q 1356 3022 1145 3623 
Q 934 4225 453 4556 
L 453 4863 
Q 1216 4522 1603 3783 
Q 1991 3044 1991 1931 
Q 1991 822 1603 83 
Q 1216 -656 453 -997 
z
" transform="scale(0.015625)"/>
      </defs>
      <use xlink:href="#DejaVuSerif-4f"/>
      <use xlink:href="#DejaVuSerif-62" transform="translate(81.982422 0)"/>
      <use xlink:href="#DejaVuSerif-73" transform="translate(145.996094 0)"/>
      <use xlink:href="#DejaVuSerif-65" transform="translate(197.314453 0)"/>
      <use xlink:href="#DejaVuSerif-72" transform="translate(256.494141 0)"/>
      <use xlink:href="#DejaVuSerif-76" transform="translate(304.296875 0)"/>
      <use xlink:href="#DejaVuSerif-65" transform="translate(360.791016 0)"/>
      <use xlink:href="#DejaVuSerif-64" transform="translate(419.970703 0)"/>
      <use xlink:href="#DejaVuSerif-20" transform="translate(483.984375 0)"/>
      <use xlink:href="#DejaVuSerif-2212" transform="translate(515.771484 0)"/>
      <use xlink:href="#DejaVuSerif-20" transform="translate(599.560547 0)"/>
      <use xlink:href="#DejaVuSerif-50" transform="translate(631.347656 0)"/>
      <use xlink:href="#DejaVuSerif-72" transform="translate(698.632812 0)"/>
      <use xlink:href="#DejaVuSerif-65" transform="translate(746.435547 0)"/>
      <use xlink:href="#DejaVuSerif-64" transform="translate(805.615234 0)"/>
      <use xlink:href="#DejaVuSerif-69" transform="translate(869.628906 0)"/>
      <use xlink:href="#DejaVuSerif-63" transform="translate(901.611328 0)"/>
      <use xlink:href="#DejaVuSerif-74" transform="translate(957.617188 0)"/>
      <use xlink:href="#DejaVuSerif-65" transform="translate(997.802734 0)"/>
      <use xlink:href="#DejaVuSerif-64" transform="translate(1056.982422 0)"/>
      <use xlink:href="#DejaVuSerif-20" transform="translate(1120.996094 0)"/>
      <use xlink:href="#DejaVuSerif-20" transform="translate(1152.783203 0)"/>
      <use xlink:href="#DejaVuSerif-28" transform="translate(1184.570312 0)"/>
      <use xlink:href="#DejaVuSerif-61" transform="translate(1223.583984 0)"/>
      <use xlink:href="#DejaVuSerif-72" transform="translate(1283.203125 0)"/>
      <use xlink:href="#DejaVuSerif-72" transform="translate(1331.005859 0)"/>
      <use xlink:href="#DejaVuSerif-61" transform="translate(1378.808594 0)"/>
      <use xlink:href="#DejaVuSerif-79" transform="translate(1438.427734 0)"/>
      <use xlink:href="#DejaVuSerif-73" transform="translate(1494.921875 0)"/>
      <use xlink:href="#DejaVuSerif-29" transform="translate(1546.240234 0)"/>
     </g>
    </g>
   </g>
   <g id="matplotlib.axis_2">
    <g id="ytick_1">
     <g id="line2d_17">
      <path d="M 116.41524 199.92331 
L 752.99976 199.92331 
" clip-path="url(#p97508d7c0d)" style="fill: none; stroke: #cfc7ab; stroke-width: 0.5; stroke-linecap: square"/>
     </g>
     <g id="line2d_18">
      <defs>
       <path id="m82b19e1274" d="M 0 0 
L -3.5 0 
" style="stroke: #1f1f1f; stroke-width: 0.8"/>
      </defs>
      <g>
       <use xlink:href="#m82b19e1274" x="116.41524" y="199.92331" style="fill: #1f1f1f; stroke: #1f1f1f; stroke-width: 0.8"/>
      </g>
     </g>
     <g id="text_10">
      <!-- sylvilagus aquaticus -->
      <g style="fill: #1f1f1f" transform="translate(27.57774 202.962685) scale(0.08 -0.08)">
       <defs>
        <path id="DejaVuSerif-Italic-73" d="M 222 959 
L 553 959 
Q 541 869 541 788 
Q 541 219 1313 219 
Q 2088 219 2200 788 
Q 2209 844 2209 944 
Q 2209 1041 2103 1158 
Q 1997 1275 1550 1428 
L 1159 1569 
Q 759 1706 629 1882 
Q 500 2059 500 2263 
Q 500 2344 516 2438 
Q 606 2894 990 3153 
Q 1375 3413 1931 3413 
Q 2484 3413 3066 3144 
L 2925 2419 
L 2594 2419 
Q 2606 2491 2606 2553 
Q 2606 2781 2448 2942 
Q 2291 3103 1925 3103 
Q 1191 3103 1091 2591 
Q 1078 2538 1078 2444 
Q 1078 2347 1179 2237 
Q 1281 2128 1678 1997 
L 2106 1856 
Q 2550 1709 2716 1488 
Q 2831 1331 2831 1178 
Q 2831 522 2306 181 
Q 1894 -91 1262 -91 
Q 631 -91 72 184 
L 222 959 
z
" transform="scale(0.015625)"/>
        <path id="DejaVuSerif-Italic-79" d="M 3681 3294 
Q 3372 1506 2828 563 
Q 2031 -822 1391 -1238 
Q 1106 -1422 356 -1422 
Q 209 -1422 60 -1397 
Q -88 -1372 -238 -1325 
L -113 -691 
L 181 -691 
Q 175 -741 175 -788 
Q 175 -919 231 -994 
Q 309 -1100 513 -1100 
Q 1063 -1100 1541 -622 
L 756 2988 
L 378 2988 
L 444 3322 
L 1303 3322 
L 2041 25 
Q 2544 778 2666 1088 
Q 3059 2059 3138 2959 
L 2759 2959 
L 2825 3294 
L 3681 3294 
z
" transform="scale(0.015625)"/>
        <path id="DejaVuSerif-Italic-6c" d="M 903 331 
L 1447 331 
L 1384 0 
L 266 0 
L 1147 4531 
L 594 4531 
L 656 4863 
L 1784 4863 
L 903 331 
z
" transform="scale(0.015625)"/>
        <path id="DejaVuSerif-Italic-76" d="M 1681 0 
L 1259 0 
L 619 2988 
L 241 2988 
L 303 3322 
L 1163 3322 
L 1725 703 
Q 2084 1016 2325 1413 
Q 2825 2238 3003 2988 
L 2622 2988 
L 2688 3322 
L 3547 3322 
Q 3206 2034 2775 1313 
Q 2400 688 1681 0 
z
" transform="scale(0.015625)"/>
        <path id="DejaVuSerif-Italic-69" d="M 1009 4353 
Q 1038 4497 1163 4603 
Q 1288 4709 1434 4709 
Q 1578 4709 1663 4603 
Q 1728 4522 1728 4422 
Q 1728 4388 1719 4353 
Q 1691 4206 1567 4103 
Q 1444 4000 1297 4000 
Q 1150 4000 1066 4103 
Q 1003 4181 1003 4281 
Q 1003 4316 1009 4353 
z
M 963 331 
L 1506 331 
L 1444 0 
L 325 0 
L 903 2988 
L 353 2988 
L 419 3322 
L 1544 3322 
L 963 331 
z
" transform="scale(0.015625)"/>
        <path id="DejaVuSerif-Italic-61" d="M 2325 519 
Q 1909 -91 1238 -91 
Q 688 -91 409 281 
Q 216 544 216 919 
Q 216 1078 250 1256 
Q 463 2359 1231 2928 
Q 1884 3413 2675 3413 
Q 3206 3413 3388 3322 
L 2806 331 
L 3300 331 
L 3238 0 
L 2225 0 
L 2325 519 
z
M 822 938 
Q 822 269 1469 269 
Q 1863 269 2130 583 
Q 2397 897 2516 1497 
L 2806 3003 
L 2806 3003 
Q 2806 3094 2556 3094 
Q 1956 3094 1491 2625 
Q 1028 2153 863 1297 
Q 822 1097 822 938 
z
" transform="scale(0.015625)"/>
        <path id="DejaVuSerif-Italic-67" d="M 3822 3322 
L 3188 72 
Q 3044 -672 2581 -1031 
Q 2078 -1422 1381 -1422 
Q 1053 -1422 765 -1362 
Q 478 -1303 225 -1184 
L 363 -488 
L 663 -488 
Q 653 -813 834 -963 
Q 1016 -1113 1406 -1113 
Q 1913 -1113 2203 -825 
Q 2494 -544 2613 72 
L 2700 519 
Q 2472 206 2181 57 
Q 1891 -91 1525 -91 
Q 975 -91 697 281 
Q 522 516 503 841 
Q 491 1031 534 1256 
Q 750 2359 1516 2928 
Q 2169 3409 2931 3413 
Q 3631 3416 3822 3322 
z
M 3184 2988 
Q 3181 3094 2844 3094 
Q 2234 3094 1775 2625 
Q 1316 2153 1147 1297 
Q 1100 1044 1113 853 
Q 1125 659 1203 528 
Q 1356 269 1756 269 
Q 2194 269 2484 583 
Q 2775 897 2891 1497 
L 2953 1825 
L 3184 2988 
z
" transform="scale(0.015625)"/>
        <path id="DejaVuSerif-Italic-75" d="M 3097 3322 
L 3672 3322 
L 3091 331 
L 3634 331 
L 3572 0 
L 2453 0 
L 2566 588 
Q 2341 256 2055 82 
Q 1769 -91 1434 -91 
Q 881 -91 681 225 
Q 559 413 559 734 
Q 559 944 613 1209 
L 956 2988 
L 438 2988 
L 503 3322 
L 1600 3322 
L 1225 1388 
Q 1163 1066 1163 853 
Q 1163 663 1213 556 
Q 1316 331 1697 331 
Q 2097 331 2364 625 
Q 2631 919 2738 1478 
L 3097 3322 
z
" transform="scale(0.015625)"/>
        <path id="DejaVuSerif-Italic-20" transform="scale(0.015625)"/>
        <path id="DejaVuSerif-Italic-71" d="M 2684 519 
Q 2469 206 2206 56 
Q 1944 -91 1597 -91 
Q 1047 -91 769 281 
Q 594 516 575 841 
Q 563 1031 606 1256 
Q 822 2359 1588 2928 
Q 2241 3409 3006 3413 
Q 3613 3416 3803 3322 
L 2963 -1000 
L 3516 -1000 
L 3450 -1331 
L 2322 -1331 
L 2684 519 
z
M 2916 3094 
Q 2316 3094 1850 2625 
Q 1388 2153 1219 1297 
Q 1172 1044 1184 853 
Q 1197 659 1275 528 
Q 1428 269 1828 269 
Q 2222 269 2489 583 
Q 2756 897 2872 1497 
L 3166 3003 
Q 3169 3094 2916 3094 
z
" transform="scale(0.015625)"/>
        <path id="DejaVuSerif-Italic-74" d="M 856 2988 
L 350 2988 
L 416 3322 
L 922 3322 
L 1122 4353 
L 1700 4353 
L 1500 3322 
L 2581 3322 
L 2516 2988 
L 1434 2988 
L 1025 878 
Q 978 631 978 488 
Q 978 388 1000 338 
Q 1059 219 1278 219 
Q 1503 219 1633 351 
Q 1763 484 1825 781 
L 2259 781 
Q 2147 328 1884 118 
Q 1622 -91 1169 -91 
Q 672 -91 506 131 
Q 406 266 406 516 
Q 406 675 447 878 
L 856 2988 
z
" transform="scale(0.015625)"/>
        <path id="DejaVuSerif-Italic-63" d="M 3163 997 
Q 2938 466 2536 187 
Q 2134 -91 1584 -91 
Q 859 -91 513 388 
Q 272 722 272 1203 
Q 272 1419 319 1663 
Q 475 2459 1008 2936 
Q 1541 3413 2266 3413 
Q 2581 3413 2879 3339 
Q 3178 3266 3463 3116 
L 3300 2266 
L 2966 2266 
Q 2966 2309 2966 2347 
Q 2966 2722 2803 2903 
Q 2622 3103 2213 3103 
Q 1747 3103 1439 2742 
Q 1131 2381 991 1663 
Q 928 1334 928 1078 
Q 928 778 1016 581 
Q 1181 219 1650 219 
Q 2022 219 2281 412 
Q 2541 606 2700 997 
L 3163 997 
z
" transform="scale(0.015625)"/>
       </defs>
       <use xlink:href="#DejaVuSerif-Italic-73"/>
       <use xlink:href="#DejaVuSerif-Italic-79" transform="translate(51.318359 0)"/>
       <use xlink:href="#DejaVuSerif-Italic-6c" transform="translate(107.8125 0)"/>
       <use xlink:href="#DejaVuSerif-Italic-76" transform="translate(139.794922 0)"/>
       <use xlink:href="#DejaVuSerif-Italic-69" transform="translate(196.289062 0)"/>
       <use xlink:href="#DejaVuSerif-Italic-6c" transform="translate(228.271484 0)"/>
       <use xlink:href="#DejaVuSerif-Italic-61" transform="translate(260.253906 0)"/>
       <use xlink:href="#DejaVuSerif-Italic-67" transform="translate(319.873047 0)"/>
       <use xlink:href="#DejaVuSerif-Italic-75" transform="translate(383.886719 0)"/>
       <use xlink:href="#DejaVuSerif-Italic-73" transform="translate(448.291016 0)"/>
       <use xlink:href="#DejaVuSerif-Italic-20" transform="translate(499.609375 0)"/>
       <use xlink:href="#DejaVuSerif-Italic-61" transform="translate(531.396484 0)"/>
       <use xlink:href="#DejaVuSerif-Italic-71" transform="translate(591.015625 0)"/>
       <use xlink:href="#DejaVuSerif-Italic-75" transform="translate(655.029297 0)"/>
       <use xlink:href="#DejaVuSerif-Italic-61" transform="translate(719.433594 0)"/>
       <use xlink:href="#DejaVuSerif-Italic-74" transform="translate(779.052734 0)"/>
       <use xlink:href="#DejaVuSerif-Italic-69" transform="translate(819.238281 0)"/>
       <use xlink:href="#DejaVuSerif-Italic-63" transform="translate(851.220703 0)"/>
       <use xlink:href="#DejaVuSerif-Italic-75" transform="translate(907.226562 0)"/>
       <use xlink:href="#DejaVuSerif-Italic-73" transform="translate(971.630859 0)"/>
      </g>
     </g>
    </g>
    <g id="ytick_2">
     <g id="line2d_19">
      <path d="M 116.41524 191.051651 
L 752.99976 191.051651 
" clip-path="url(#p97508d7c0d)" style="fill: none; stroke: #cfc7ab; stroke-width: 0.5; stroke-linecap: square"/>
     </g>
     <g id="line2d_20">
      <g>
       <use xlink:href="#m82b19e1274" x="116.41524" y="191.051651" style="fill: #1f1f1f; stroke: #1f1f1f; stroke-width: 0.8"/>
      </g>
     </g>
     <g id="text_11">
      <!-- lepus townsendii -->
      <g style="fill: #1f1f1f" transform="translate(40.93774 194.091026) scale(0.08 -0.08)">
       <defs>
        <path id="DejaVuSerif-Italic-65" d="M 938 1275 
Q 925 1156 925 1050 
Q 925 756 1031 563 
Q 1216 219 1709 219 
Q 2072 219 2250 328 
Q 2569 525 2644 778 
L 3066 778 
Q 2941 381 2475 103 
Q 2150 -91 1506 -91 
Q 863 -91 516 388 
Q 272 722 272 1206 
Q 272 1419 319 1659 
Q 472 2450 1000 2931 
Q 1528 3413 2278 3413 
Q 3500 3413 3500 2547 
Q 3500 1913 2859 1603 
Q 2206 1288 938 1275 
z
M 2541 1975 
Q 2891 2181 2891 2569 
Q 2891 3103 2181 3103 
Q 1763 3103 1472 2784 
Q 1181 2466 1003 1606 
Q 2006 1653 2541 1975 
z
" transform="scale(0.015625)"/>
        <path id="DejaVuSerif-Italic-70" d="M 1466 1825 
L 1400 1497 
Q 1353 1250 1353 1053 
Q 1353 769 1453 581 
Q 1622 269 2059 269 
Q 2500 269 2795 622 
Q 3091 975 3225 1663 
Q 3284 1978 3284 2225 
Q 3284 2513 3200 2703 
Q 3041 3053 2600 3053 
Q 2163 3053 1872 2737 
Q 1581 2422 1466 1825 
z
M 1116 2988 
L 563 2988 
L 628 3322 
L 1756 3322 
L 1656 2803 
Q 1884 3116 2175 3264 
Q 2466 3413 2850 3413 
Q 3463 3413 3753 2928 
Q 3947 2609 3947 2163 
Q 3947 1928 3897 1663 
Q 3744 881 3262 395 
Q 2781 -91 2169 -91 
Q 1784 -91 1551 57 
Q 1319 206 1213 519 
L 850 -1331 
L 275 -1331 
L 1116 2988 
z
" transform="scale(0.015625)"/>
        <path id="DejaVuSerif-Italic-6f" d="M 1644 219 
Q 2106 219 2414 584 
Q 2722 950 2859 1663 
Q 2922 1988 2922 2241 
Q 2922 2541 2834 2738 
Q 2669 3103 2206 3103 
Q 1744 3103 1436 2739 
Q 1128 2375 991 1663 
Q 928 1338 928 1088 
Q 928 784 1019 584 
Q 1184 219 1644 219 
z
M 1584 -91 
Q 859 -91 513 388 
Q 272 722 272 1203 
Q 272 1419 319 1663 
Q 472 2456 1005 2934 
Q 1538 3413 2266 3413 
Q 2994 3413 3341 2934 
Q 3578 2603 3578 2122 
Q 3578 1906 3531 1663 
Q 3378 869 2845 389 
Q 2313 -91 1584 -91 
z
" transform="scale(0.015625)"/>
        <path id="DejaVuSerif-Italic-77" d="M 3741 728 
Q 4156 1178 4250 1344 
Q 4594 1969 4931 2988 
L 4447 2984 
L 4513 3322 
L 5347 3322 
L 5281 2984 
L 5278 2984 
Q 4959 1825 4656 1266 
Q 4209 469 3719 0 
L 3241 0 
L 2900 2484 
L 1597 0 
L 1138 0 
L 734 2988 
L 359 2981 
L 425 3322 
L 1281 3322 
L 1631 728 
L 2991 3322 
L 3394 3322 
L 3741 728 
z
" transform="scale(0.015625)"/>
        <path id="DejaVuSerif-Italic-6e" d="M 450 0 
L 1031 2988 
L 481 2988 
L 544 3322 
L 1669 3322 
L 1556 2731 
Q 1781 3069 2068 3241 
Q 2356 3413 2694 3413 
Q 3244 3413 3444 3097 
Q 3563 2906 3563 2588 
Q 3563 2378 3509 2113 
L 3163 331 
L 3675 331 
L 3613 0 
L 2522 0 
L 2897 1931 
Q 2959 2253 2959 2469 
Q 2959 2659 2909 2769 
Q 2803 2994 2425 2994 
Q 2025 2994 1759 2701 
Q 1494 2409 1384 1850 
L 1025 0 
L 450 0 
z
" transform="scale(0.015625)"/>
        <path id="DejaVuSerif-Italic-64" d="M 3841 4863 
L 2897 0 
L 2322 0 
L 2422 519 
Q 2191 206 1902 57 
Q 1613 -91 1228 -91 
Q 616 -91 322 394 
Q 125 716 125 1166 
Q 125 1397 178 1663 
Q 331 2444 812 2928 
Q 1294 3413 1909 3413 
Q 2294 3413 2525 3264 
Q 2756 3116 2866 2803 
L 3200 4531 
L 2656 4531 
L 2722 4863 
L 3841 4863 
z
M 2613 1497 
L 2675 1825 
Q 2722 2069 2722 2266 
Q 2722 2550 2622 2738 
Q 2456 3053 2019 3053 
Q 1575 3053 1279 2703 
Q 984 2353 850 1663 
Q 788 1347 788 1103 
Q 788 813 875 622 
Q 1031 269 1475 269 
Q 1913 269 2203 583 
Q 2494 897 2613 1497 
z
" transform="scale(0.015625)"/>
       </defs>
       <use xlink:href="#DejaVuSerif-Italic-6c"/>
       <use xlink:href="#DejaVuSerif-Italic-65" transform="translate(31.982422 0)"/>
       <use xlink:href="#DejaVuSerif-Italic-70" transform="translate(91.162109 0)"/>
       <use xlink:href="#DejaVuSerif-Italic-75" transform="translate(155.175781 0)"/>
       <use xlink:href="#DejaVuSerif-Italic-73" transform="translate(219.580078 0)"/>
       <use xlink:href="#DejaVuSerif-Italic-20" transform="translate(270.898438 0)"/>
       <use xlink:href="#DejaVuSerif-Italic-74" transform="translate(302.685547 0)"/>
       <use xlink:href="#DejaVuSerif-Italic-6f" transform="translate(342.871094 0)"/>
       <use xlink:href="#DejaVuSerif-Italic-77" transform="translate(403.076172 0)"/>
       <use xlink:href="#DejaVuSerif-Italic-6e" transform="translate(488.671875 0)"/>
       <use xlink:href="#DejaVuSerif-Italic-73" transform="translate(553.076172 0)"/>
       <use xlink:href="#DejaVuSerif-Italic-65" transform="translate(604.394531 0)"/>
       <use xlink:href="#DejaVuSerif-Italic-6e" transform="translate(663.574219 0)"/>
       <use xlink:href="#DejaVuSerif-Italic-64" transform="translate(727.978516 0)"/>
       <use xlink:href="#DejaVuSerif-Italic-69" transform="translate(791.992188 0)"/>
       <use xlink:href="#DejaVuSerif-Italic-69" transform="translate(823.974609 0)"/>
      </g>
     </g>
    </g>
    <g id="ytick_3">
     <g id="line2d_21">
      <path d="M 116.41524 182.179991 
L 752.99976 182.179991 
" clip-path="url(#p97508d7c0d)" style="fill: none; stroke: #cfc7ab; stroke-width: 0.5; stroke-linecap: square"/>
     </g>
     <g id="line2d_22">
      <g>
       <use xlink:href="#m82b19e1274" x="116.41524" y="182.179991" style="fill: #1f1f1f; stroke: #1f1f1f; stroke-width: 0.8"/>
      </g>
     </g>
     <g id="text_12">
      <!-- sorex monticola -->
      <g style="fill: #1f1f1f" transform="translate(44.92774 185.219366) scale(0.08 -0.08)">
       <defs>
        <path id="DejaVuSerif-Italic-72" d="M 3375 3328 
L 3213 2497 
L 2881 2497 
Q 2891 2559 2891 2613 
Q 2891 2775 2816 2866 
Q 2719 2988 2484 2988 
Q 2059 2988 1775 2694 
Q 1491 2400 1384 1850 
L 1025 0 
L 450 0 
L 1031 2994 
L 481 2994 
L 544 3322 
L 1669 3322 
L 1556 2731 
Q 1791 3078 2089 3245 
Q 2388 3413 2769 3413 
Q 2909 3413 3059 3391 
Q 3209 3369 3375 3328 
z
" transform="scale(0.015625)"/>
        <path id="DejaVuSerif-Italic-78" d="M 409 0 
L 19 0 
L 1484 1594 
L 747 2988 
L 338 2988 
L 400 3322 
L 1244 3322 
L 1934 2028 
L 3125 3322 
L 3516 3322 
L 2078 1759 
L 2838 331 
L 3272 331 
L 3209 0 
L 2338 0 
L 1631 1325 
L 409 0 
z
" transform="scale(0.015625)"/>
        <path id="DejaVuSerif-Italic-6d" d="M 3503 2675 
Q 3741 3041 4034 3227 
Q 4328 3413 4672 3413 
Q 5194 3413 5388 3088 
Q 5503 2894 5503 2578 
Q 5503 2372 5453 2113 
L 5106 331 
L 5625 331 
L 5563 0 
L 4469 0 
L 4866 2047 
Q 4913 2291 4913 2466 
Q 4913 2659 4856 2772 
Q 4750 2988 4403 2988 
Q 4019 2988 3761 2697 
Q 3503 2406 3394 1850 
L 3034 0 
L 2459 0 
L 2863 2069 
Q 2906 2303 2906 2472 
Q 2906 2666 2850 2775 
Q 2741 2988 2394 2988 
Q 2009 2988 1751 2697 
Q 1494 2406 1384 1850 
L 1025 0 
L 450 0 
L 1031 2994 
L 481 2994 
L 544 3322 
L 1669 3322 
L 1556 2731 
Q 1778 3063 2059 3238 
Q 2341 3413 2653 3413 
Q 3041 3413 3262 3220 
Q 3484 3028 3503 2675 
z
" transform="scale(0.015625)"/>
       </defs>
       <use xlink:href="#DejaVuSerif-Italic-73"/>
       <use xlink:href="#DejaVuSerif-Italic-6f" transform="translate(51.318359 0)"/>
       <use xlink:href="#DejaVuSerif-Italic-72" transform="translate(111.523438 0)"/>
       <use xlink:href="#DejaVuSerif-Italic-65" transform="translate(159.326172 0)"/>
       <use xlink:href="#DejaVuSerif-Italic-78" transform="translate(218.505859 0)"/>
       <use xlink:href="#DejaVuSerif-Italic-20" transform="translate(274.902344 0)"/>
       <use xlink:href="#DejaVuSerif-Italic-6d" transform="translate(306.689453 0)"/>
       <use xlink:href="#DejaVuSerif-Italic-6f" transform="translate(401.513672 0)"/>
       <use xlink:href="#DejaVuSerif-Italic-6e" transform="translate(461.71875 0)"/>
       <use xlink:href="#DejaVuSerif-Italic-74" transform="translate(526.123047 0)"/>
       <use xlink:href="#DejaVuSerif-Italic-69" transform="translate(566.308594 0)"/>
       <use xlink:href="#DejaVuSerif-Italic-63" transform="translate(598.291016 0)"/>
       <use xlink:href="#DejaVuSerif-Italic-6f" transform="translate(654.296875 0)"/>
       <use xlink:href="#DejaVuSerif-Italic-6c" transform="translate(714.501953 0)"/>
       <use xlink:href="#DejaVuSerif-Italic-61" transform="translate(746.484375 0)"/>
      </g>
     </g>
    </g>
    <g id="ytick_4">
     <g id="line2d_23">
      <path d="M 116.41524 173.308332 
L 752.99976 173.308332 
" clip-path="url(#p97508d7c0d)" style="fill: none; stroke: #cfc7ab; stroke-width: 0.5; stroke-linecap: square"/>
     </g>
     <g id="line2d_24">
      <g>
       <use xlink:href="#m82b19e1274" x="116.41524" y="173.308332" style="fill: #1f1f1f; stroke: #1f1f1f; stroke-width: 0.8"/>
      </g>
     </g>
     <g id="text_13">
      <!-- ursus americanus -->
      <g style="fill: #1f1f1f" transform="translate(37.40024 176.347707) scale(0.08 -0.08)">
       <use xlink:href="#DejaVuSerif-Italic-75"/>
       <use xlink:href="#DejaVuSerif-Italic-72" transform="translate(64.404297 0)"/>
       <use xlink:href="#DejaVuSerif-Italic-73" transform="translate(112.207031 0)"/>
       <use xlink:href="#DejaVuSerif-Italic-75" transform="translate(163.525391 0)"/>
       <use xlink:href="#DejaVuSerif-Italic-73" transform="translate(227.929688 0)"/>
       <use xlink:href="#DejaVuSerif-Italic-20" transform="translate(279.248047 0)"/>
       <use xlink:href="#DejaVuSerif-Italic-61" transform="translate(311.035156 0)"/>
       <use xlink:href="#DejaVuSerif-Italic-6d" transform="translate(370.654297 0)"/>
       <use xlink:href="#DejaVuSerif-Italic-65" transform="translate(465.478516 0)"/>
       <use xlink:href="#DejaVuSerif-Italic-72" transform="translate(524.658203 0)"/>
       <use xlink:href="#DejaVuSerif-Italic-69" transform="translate(572.460938 0)"/>
       <use xlink:href="#DejaVuSerif-Italic-63" transform="translate(604.443359 0)"/>
       <use xlink:href="#DejaVuSerif-Italic-61" transform="translate(660.449219 0)"/>
       <use xlink:href="#DejaVuSerif-Italic-6e" transform="translate(720.068359 0)"/>
       <use xlink:href="#DejaVuSerif-Italic-75" transform="translate(784.472656 0)"/>
       <use xlink:href="#DejaVuSerif-Italic-73" transform="translate(848.876953 0)"/>
      </g>
     </g>
    </g>
    <g id="ytick_5">
     <g id="line2d_25">
      <path d="M 116.41524 164.436673 
L 752.99976 164.436673 
" clip-path="url(#p97508d7c0d)" style="fill: none; stroke: #cfc7ab; stroke-width: 0.5; stroke-linecap: square"/>
     </g>
     <g id="line2d_26">
      <g>
       <use xlink:href="#m82b19e1274" x="116.41524" y="164.436673" style="fill: #1f1f1f; stroke: #1f1f1f; stroke-width: 0.8"/>
      </g>
     </g>
     <g id="text_14">
      <!-- puma concolor -->
      <g style="fill: #1f1f1f" transform="translate(49.29899 167.476048) scale(0.08 -0.08)">
       <use xlink:href="#DejaVuSerif-Italic-70"/>
       <use xlink:href="#DejaVuSerif-Italic-75" transform="translate(64.013672 0)"/>
       <use xlink:href="#DejaVuSerif-Italic-6d" transform="translate(128.417969 0)"/>
       <use xlink:href="#DejaVuSerif-Italic-61" transform="translate(223.242188 0)"/>
       <use xlink:href="#DejaVuSerif-Italic-20" transform="translate(282.861328 0)"/>
       <use xlink:href="#DejaVuSerif-Italic-63" transform="translate(314.648438 0)"/>
       <use xlink:href="#DejaVuSerif-Italic-6f" transform="translate(370.654297 0)"/>
       <use xlink:href="#DejaVuSerif-Italic-6e" transform="translate(430.859375 0)"/>
       <use xlink:href="#DejaVuSerif-Italic-63" transform="translate(495.263672 0)"/>
       <use xlink:href="#DejaVuSerif-Italic-6f" transform="translate(551.269531 0)"/>
       <use xlink:href="#DejaVuSerif-Italic-6c" transform="translate(611.474609 0)"/>
       <use xlink:href="#DejaVuSerif-Italic-6f" transform="translate(643.457031 0)"/>
       <use xlink:href="#DejaVuSerif-Italic-72" transform="translate(703.662109 0)"/>
      </g>
     </g>
    </g>
    <g id="ytick_6">
     <g id="line2d_27">
      <path d="M 116.41524 155.565014 
L 752.99976 155.565014 
" clip-path="url(#p97508d7c0d)" style="fill: none; stroke: #cfc7ab; stroke-width: 0.5; stroke-linecap: square"/>
     </g>
     <g id="line2d_28">
      <g>
       <use xlink:href="#m82b19e1274" x="116.41524" y="155.565014" style="fill: #1f1f1f; stroke: #1f1f1f; stroke-width: 0.8"/>
      </g>
     </g>
     <g id="text_15">
      <!-- spilogale gracilis -->
      <g style="fill: #1f1f1f" transform="translate(40.55149 158.604389) scale(0.08 -0.08)">
       <use xlink:href="#DejaVuSerif-Italic-73"/>
       <use xlink:href="#DejaVuSerif-Italic-70" transform="translate(51.318359 0)"/>
       <use xlink:href="#DejaVuSerif-Italic-69" transform="translate(115.332031 0)"/>
       <use xlink:href="#DejaVuSerif-Italic-6c" transform="translate(147.314453 0)"/>
       <use xlink:href="#DejaVuSerif-Italic-6f" transform="translate(179.296875 0)"/>
       <use xlink:href="#DejaVuSerif-Italic-67" transform="translate(239.501953 0)"/>
       <use xlink:href="#DejaVuSerif-Italic-61" transform="translate(303.515625 0)"/>
       <use xlink:href="#DejaVuSerif-Italic-6c" transform="translate(363.134766 0)"/>
       <use xlink:href="#DejaVuSerif-Italic-65" transform="translate(395.117188 0)"/>
       <use xlink:href="#DejaVuSerif-Italic-20" transform="translate(454.296875 0)"/>
       <use xlink:href="#DejaVuSerif-Italic-67" transform="translate(486.083984 0)"/>
       <use xlink:href="#DejaVuSerif-Italic-72" transform="translate(550.097656 0)"/>
       <use xlink:href="#DejaVuSerif-Italic-61" transform="translate(597.900391 0)"/>
       <use xlink:href="#DejaVuSerif-Italic-63" transform="translate(657.519531 0)"/>
       <use xlink:href="#DejaVuSerif-Italic-69" transform="translate(713.525391 0)"/>
       <use xlink:href="#DejaVuSerif-Italic-6c" transform="translate(745.507812 0)"/>
       <use xlink:href="#DejaVuSerif-Italic-69" transform="translate(777.490234 0)"/>
       <use xlink:href="#DejaVuSerif-Italic-73" transform="translate(809.472656 0)"/>
      </g>
     </g>
    </g>
    <g id="ytick_7">
     <g id="line2d_29">
      <path d="M 116.41524 146.693354 
L 752.99976 146.693354 
" clip-path="url(#p97508d7c0d)" style="fill: none; stroke: #cfc7ab; stroke-width: 0.5; stroke-linecap: square"/>
     </g>
     <g id="line2d_30">
      <g>
       <use xlink:href="#m82b19e1274" x="116.41524" y="146.693354" style="fill: #1f1f1f; stroke: #1f1f1f; stroke-width: 0.8"/>
      </g>
     </g>
     <g id="text_16">
      <!-- sylvilagus floridanus -->
      <g style="fill: #1f1f1f" transform="translate(25.88274 149.732729) scale(0.08 -0.08)">
       <defs>
        <path id="DejaVuSerif-Italic-66" d="M 3191 4078 
L 2888 4078 
Q 2900 4144 2900 4203 
Q 2900 4347 2825 4434 
Q 2719 4556 2472 4556 
Q 2150 4556 1984 4379 
Q 1819 4203 1731 3750 
L 1647 3322 
L 2575 3322 
L 2509 2988 
L 1581 2988 
L 963 -206 
Q 853 -763 509 -1047 
Q 166 -1331 -394 -1331 
L -356 -1025 
Q -28 -1025 131 -850 
Q 297 -663 388 -206 
L 1006 2988 
L 456 2988 
L 522 3322 
L 1072 3322 
L 1153 3738 
Q 1263 4297 1606 4578 
Q 1950 4863 2509 4863 
Q 2719 4863 2920 4825 
Q 3122 4788 3316 4709 
L 3191 4078 
z
" transform="scale(0.015625)"/>
       </defs>
       <use xlink:href="#DejaVuSerif-Italic-73"/>
       <use xlink:href="#DejaVuSerif-Italic-79" transform="translate(51.318359 0)"/>
       <use xlink:href="#DejaVuSerif-Italic-6c" transform="translate(107.8125 0)"/>
       <use xlink:href="#DejaVuSerif-Italic-76" transform="translate(139.794922 0)"/>
       <use xlink:href="#DejaVuSerif-Italic-69" transform="translate(196.289062 0)"/>
       <use xlink:href="#DejaVuSerif-Italic-6c" transform="translate(228.271484 0)"/>
       <use xlink:href="#DejaVuSerif-Italic-61" transform="translate(260.253906 0)"/>
       <use xlink:href="#DejaVuSerif-Italic-67" transform="translate(319.873047 0)"/>
       <use xlink:href="#DejaVuSerif-Italic-75" transform="translate(383.886719 0)"/>
       <use xlink:href="#DejaVuSerif-Italic-73" transform="translate(448.291016 0)"/>
       <use xlink:href="#DejaVuSerif-Italic-20" transform="translate(499.609375 0)"/>
       <use xlink:href="#DejaVuSerif-Italic-66" transform="translate(531.396484 0)"/>
       <use xlink:href="#DejaVuSerif-Italic-6c" transform="translate(568.408203 0)"/>
       <use xlink:href="#DejaVuSerif-Italic-6f" transform="translate(600.390625 0)"/>
       <use xlink:href="#DejaVuSerif-Italic-72" transform="translate(660.595703 0)"/>
       <use xlink:href="#DejaVuSerif-Italic-69" transform="translate(708.398438 0)"/>
       <use xlink:href="#DejaVuSerif-Italic-64" transform="translate(740.380859 0)"/>
       <use xlink:href="#DejaVuSerif-Italic-61" transform="translate(804.394531 0)"/>
       <use xlink:href="#DejaVuSerif-Italic-6e" transform="translate(864.013672 0)"/>
       <use xlink:href="#DejaVuSerif-Italic-75" transform="translate(928.417969 0)"/>
       <use xlink:href="#DejaVuSerif-Italic-73" transform="translate(992.822266 0)"/>
      </g>
     </g>
    </g>
    <g id="ytick_8">
     <g id="line2d_31">
      <path d="M 116.41524 137.821695 
L 752.99976 137.821695 
" clip-path="url(#p97508d7c0d)" style="fill: none; stroke: #cfc7ab; stroke-width: 0.5; stroke-linecap: square"/>
     </g>
     <g id="line2d_32">
      <g>
       <use xlink:href="#m82b19e1274" x="116.41524" y="137.821695" style="fill: #1f1f1f; stroke: #1f1f1f; stroke-width: 0.8"/>
      </g>
     </g>
     <g id="text_17">
      <!-- lepus americanus -->
      <g style="fill: #1f1f1f" transform="translate(38.06649 140.86107) scale(0.08 -0.08)">
       <use xlink:href="#DejaVuSerif-Italic-6c"/>
       <use xlink:href="#DejaVuSerif-Italic-65" transform="translate(31.982422 0)"/>
       <use xlink:href="#DejaVuSerif-Italic-70" transform="translate(91.162109 0)"/>
       <use xlink:href="#DejaVuSerif-Italic-75" transform="translate(155.175781 0)"/>
       <use xlink:href="#DejaVuSerif-Italic-73" transform="translate(219.580078 0)"/>
       <use xlink:href="#DejaVuSerif-Italic-20" transform="translate(270.898438 0)"/>
       <use xlink:href="#DejaVuSerif-Italic-61" transform="translate(302.685547 0)"/>
       <use xlink:href="#DejaVuSerif-Italic-6d" transform="translate(362.304688 0)"/>
       <use xlink:href="#DejaVuSerif-Italic-65" transform="translate(457.128906 0)"/>
       <use xlink:href="#DejaVuSerif-Italic-72" transform="translate(516.308594 0)"/>
       <use xlink:href="#DejaVuSerif-Italic-69" transform="translate(564.111328 0)"/>
       <use xlink:href="#DejaVuSerif-Italic-63" transform="translate(596.09375 0)"/>
       <use xlink:href="#DejaVuSerif-Italic-61" transform="translate(652.099609 0)"/>
       <use xlink:href="#DejaVuSerif-Italic-6e" transform="translate(711.71875 0)"/>
       <use xlink:href="#DejaVuSerif-Italic-75" transform="translate(776.123047 0)"/>
       <use xlink:href="#DejaVuSerif-Italic-73" transform="translate(840.527344 0)"/>
      </g>
     </g>
    </g>
    <g id="ytick_9">
     <g id="line2d_33">
      <path d="M 116.41524 128.950036 
L 752.99976 128.950036 
" clip-path="url(#p97508d7c0d)" style="fill: none; stroke: #cfc7ab; stroke-width: 0.5; stroke-linecap: square"/>
     </g>
     <g id="line2d_34">
      <g>
       <use xlink:href="#m82b19e1274" x="116.41524" y="128.950036" style="fill: #1f1f1f; stroke: #1f1f1f; stroke-width: 0.8"/>
      </g>
     </g>
     <g id="text_18">
      <!-- lepus californicus -->
      <g style="fill: #1f1f1f" transform="translate(37.78274 131.989411) scale(0.08 -0.08)">
       <use xlink:href="#DejaVuSerif-Italic-6c"/>
       <use xlink:href="#DejaVuSerif-Italic-65" transform="translate(31.982422 0)"/>
       <use xlink:href="#DejaVuSerif-Italic-70" transform="translate(91.162109 0)"/>
       <use xlink:href="#DejaVuSerif-Italic-75" transform="translate(155.175781 0)"/>
       <use xlink:href="#DejaVuSerif-Italic-73" transform="translate(219.580078 0)"/>
       <use xlink:href="#DejaVuSerif-Italic-20" transform="translate(270.898438 0)"/>
       <use xlink:href="#DejaVuSerif-Italic-63" transform="translate(302.685547 0)"/>
       <use xlink:href="#DejaVuSerif-Italic-61" transform="translate(358.691406 0)"/>
       <use xlink:href="#DejaVuSerif-Italic-6c" transform="translate(418.310547 0)"/>
       <use xlink:href="#DejaVuSerif-Italic-69" transform="translate(450.292969 0)"/>
       <use xlink:href="#DejaVuSerif-Italic-66" transform="translate(482.275391 0)"/>
       <use xlink:href="#DejaVuSerif-Italic-6f" transform="translate(519.287109 0)"/>
       <use xlink:href="#DejaVuSerif-Italic-72" transform="translate(579.492188 0)"/>
       <use xlink:href="#DejaVuSerif-Italic-6e" transform="translate(627.294922 0)"/>
       <use xlink:href="#DejaVuSerif-Italic-69" transform="translate(691.699219 0)"/>
       <use xlink:href="#DejaVuSerif-Italic-63" transform="translate(723.681641 0)"/>
       <use xlink:href="#DejaVuSerif-Italic-75" transform="translate(779.6875 0)"/>
       <use xlink:href="#DejaVuSerif-Italic-73" transform="translate(844.091797 0)"/>
      </g>
     </g>
    </g>
    <g id="ytick_10">
     <g id="line2d_35">
      <path d="M 116.41524 120.078377 
L 752.99976 120.078377 
" clip-path="url(#p97508d7c0d)" style="fill: none; stroke: #cfc7ab; stroke-width: 0.5; stroke-linecap: square"/>
     </g>
     <g id="line2d_36">
      <g>
       <use xlink:href="#m82b19e1274" x="116.41524" y="120.078377" style="fill: #1f1f1f; stroke: #1f1f1f; stroke-width: 0.8"/>
      </g>
     </g>
     <g id="text_19">
      <!-- bassariscus astutus -->
      <g style="fill: #1f1f1f" transform="translate(30.06149 123.117752) scale(0.08 -0.08)">
       <defs>
        <path id="DejaVuSerif-Italic-62" d="M 1153 4531 
L 600 4531 
L 666 4863 
L 1794 4863 
L 1394 2803 
Q 1622 3116 1912 3264 
Q 2203 3413 2588 3413 
Q 3200 3413 3494 2928 
Q 3688 2609 3688 2163 
Q 3688 1928 3634 1663 
Q 3481 881 3000 395 
Q 2519 -91 1906 -91 
Q 1522 -91 1289 57 
Q 1056 206 950 519 
L 850 0 
L 275 0 
L 1153 4531 
z
M 1141 1497 
Q 1091 1250 1091 1053 
Q 1091 769 1191 581 
Q 1359 269 1797 269 
Q 2238 269 2533 622 
Q 2828 975 2963 1663 
Q 3025 1978 3025 2225 
Q 3025 2513 2938 2703 
Q 2781 3053 2338 3053 
Q 1900 3053 1609 2737 
Q 1319 2422 1203 1825 
L 1141 1497 
z
" transform="scale(0.015625)"/>
       </defs>
       <use xlink:href="#DejaVuSerif-Italic-62"/>
       <use xlink:href="#DejaVuSerif-Italic-61" transform="translate(64.013672 0)"/>
       <use xlink:href="#DejaVuSerif-Italic-73" transform="translate(123.632812 0)"/>
       <use xlink:href="#DejaVuSerif-Italic-73" transform="translate(174.951172 0)"/>
       <use xlink:href="#DejaVuSerif-Italic-61" transform="translate(226.269531 0)"/>
       <use xlink:href="#DejaVuSerif-Italic-72" transform="translate(285.888672 0)"/>
       <use xlink:href="#DejaVuSerif-Italic-69" transform="translate(333.691406 0)"/>
       <use xlink:href="#DejaVuSerif-Italic-73" transform="translate(365.673828 0)"/>
       <use xlink:href="#DejaVuSerif-Italic-63" transform="translate(416.992188 0)"/>
       <use xlink:href="#DejaVuSerif-Italic-75" transform="translate(472.998047 0)"/>
       <use xlink:href="#DejaVuSerif-Italic-73" transform="translate(537.402344 0)"/>
       <use xlink:href="#DejaVuSerif-Italic-20" transform="translate(588.720703 0)"/>
       <use xlink:href="#DejaVuSerif-Italic-61" transform="translate(620.507812 0)"/>
       <use xlink:href="#DejaVuSerif-Italic-73" transform="translate(680.126953 0)"/>
       <use xlink:href="#DejaVuSerif-Italic-74" transform="translate(731.445312 0)"/>
       <use xlink:href="#DejaVuSerif-Italic-75" transform="translate(771.630859 0)"/>
       <use xlink:href="#DejaVuSerif-Italic-74" transform="translate(836.035156 0)"/>
       <use xlink:href="#DejaVuSerif-Italic-75" transform="translate(876.220703 0)"/>
       <use xlink:href="#DejaVuSerif-Italic-73" transform="translate(940.625 0)"/>
      </g>
     </g>
    </g>
    <g id="ytick_11">
     <g id="line2d_37">
      <path d="M 116.41524 111.206717 
L 752.99976 111.206717 
" clip-path="url(#p97508d7c0d)" style="fill: none; stroke: #cfc7ab; stroke-width: 0.5; stroke-linecap: square"/>
     </g>
     <g id="line2d_38">
      <g>
       <use xlink:href="#m82b19e1274" x="116.41524" y="111.206717" style="fill: #1f1f1f; stroke: #1f1f1f; stroke-width: 0.8"/>
      </g>
     </g>
     <g id="text_20">
      <!-- lynx rufus -->
      <g style="fill: #1f1f1f" transform="translate(68.93524 114.246092) scale(0.08 -0.08)">
       <use xlink:href="#DejaVuSerif-Italic-6c"/>
       <use xlink:href="#DejaVuSerif-Italic-79" transform="translate(31.982422 0)"/>
       <use xlink:href="#DejaVuSerif-Italic-6e" transform="translate(88.476562 0)"/>
       <use xlink:href="#DejaVuSerif-Italic-78" transform="translate(152.880859 0)"/>
       <use xlink:href="#DejaVuSerif-Italic-20" transform="translate(209.277344 0)"/>
       <use xlink:href="#DejaVuSerif-Italic-72" transform="translate(241.064453 0)"/>
       <use xlink:href="#DejaVuSerif-Italic-75" transform="translate(288.867188 0)"/>
       <use xlink:href="#DejaVuSerif-Italic-66" transform="translate(353.271484 0)"/>
       <use xlink:href="#DejaVuSerif-Italic-75" transform="translate(390.283203 0)"/>
       <use xlink:href="#DejaVuSerif-Italic-73" transform="translate(454.6875 0)"/>
      </g>
     </g>
    </g>
    <g id="ytick_12">
     <g id="line2d_39">
      <path d="M 116.41524 102.335058 
L 752.99976 102.335058 
" clip-path="url(#p97508d7c0d)" style="fill: none; stroke: #cfc7ab; stroke-width: 0.5; stroke-linecap: square"/>
     </g>
     <g id="line2d_40">
      <g>
       <use xlink:href="#m82b19e1274" x="116.41524" y="102.335058" style="fill: #1f1f1f; stroke: #1f1f1f; stroke-width: 0.8"/>
      </g>
     </g>
     <g id="text_21">
      <!-- sus scrofa -->
      <g style="fill: #1f1f1f" transform="translate(68.55399 105.374433) scale(0.08 -0.08)">
       <use xlink:href="#DejaVuSerif-Italic-73"/>
       <use xlink:href="#DejaVuSerif-Italic-75" transform="translate(51.318359 0)"/>
       <use xlink:href="#DejaVuSerif-Italic-73" transform="translate(115.722656 0)"/>
       <use xlink:href="#DejaVuSerif-Italic-20" transform="translate(167.041016 0)"/>
       <use xlink:href="#DejaVuSerif-Italic-73" transform="translate(198.828125 0)"/>
       <use xlink:href="#DejaVuSerif-Italic-63" transform="translate(250.146484 0)"/>
       <use xlink:href="#DejaVuSerif-Italic-72" transform="translate(306.152344 0)"/>
       <use xlink:href="#DejaVuSerif-Italic-6f" transform="translate(353.955078 0)"/>
       <use xlink:href="#DejaVuSerif-Italic-66" transform="translate(414.160156 0)"/>
       <use xlink:href="#DejaVuSerif-Italic-61" transform="translate(451.171875 0)"/>
      </g>
     </g>
    </g>
    <g id="ytick_13">
     <g id="line2d_41">
      <path d="M 116.41524 93.463399 
L 752.99976 93.463399 
" clip-path="url(#p97508d7c0d)" style="fill: none; stroke: #cfc7ab; stroke-width: 0.5; stroke-linecap: square"/>
     </g>
     <g id="line2d_42">
      <g>
       <use xlink:href="#m82b19e1274" x="116.41524" y="93.463399" style="fill: #1f1f1f; stroke: #1f1f1f; stroke-width: 0.8"/>
      </g>
     </g>
     <g id="text_22">
      <!-- erethizon dorsatum -->
      <g style="fill: #1f1f1f" transform="translate(29.87899 96.502774) scale(0.08 -0.08)">
       <defs>
        <path id="DejaVuSerif-Italic-68" d="M 309 0 
L 1191 4531 
L 641 4531 
L 703 4863 
L 1828 4863 
L 1416 2731 
Q 1641 3069 1928 3241 
Q 2216 3413 2553 3413 
Q 3103 3413 3300 3097 
Q 3422 2906 3422 2588 
Q 3422 2378 3369 2113 
L 3022 331 
L 3534 331 
L 3472 0 
L 2381 0 
L 2756 1931 
Q 2819 2253 2819 2469 
Q 2819 2659 2769 2763 
Q 2666 2988 2284 2988 
Q 1884 2988 1617 2697 
Q 1350 2406 1244 1850 
L 884 0 
L 309 0 
z
" transform="scale(0.015625)"/>
        <path id="DejaVuSerif-Italic-7a" d="M 2550 3047 
Q 2888 3047 3216 3322 
L 3403 3322 
L 3353 3053 
L 1081 684 
Q 1113 675 1203 647 
Q 1309 613 1416 544 
L 1569 450 
Q 1863 272 2075 272 
Q 2484 272 2966 741 
L 2891 363 
Q 2356 -163 1950 -163 
Q 1703 -156 1356 59 
Q 1009 275 791 275 
Q 453 275 125 0 
L -63 0 
L -13 269 
L 2263 2634 
Q 2228 2647 2138 2675 
Q 2031 2709 1925 2778 
L 1772 2872 
Q 1478 3050 1266 3050 
Q 856 3050 375 2581 
L 450 2959 
Q 984 3484 1391 3484 
Q 1638 3478 1984 3262 
Q 2331 3047 2550 3047 
z
" transform="scale(0.015625)"/>
       </defs>
       <use xlink:href="#DejaVuSerif-Italic-65"/>
       <use xlink:href="#DejaVuSerif-Italic-72" transform="translate(59.179688 0)"/>
       <use xlink:href="#DejaVuSerif-Italic-65" transform="translate(106.982422 0)"/>
       <use xlink:href="#DejaVuSerif-Italic-74" transform="translate(166.162109 0)"/>
       <use xlink:href="#DejaVuSerif-Italic-68" transform="translate(206.347656 0)"/>
       <use xlink:href="#DejaVuSerif-Italic-69" transform="translate(270.751953 0)"/>
       <use xlink:href="#DejaVuSerif-Italic-7a" transform="translate(302.734375 0)"/>
       <use xlink:href="#DejaVuSerif-Italic-6f" transform="translate(355.419922 0)"/>
       <use xlink:href="#DejaVuSerif-Italic-6e" transform="translate(415.625 0)"/>
       <use xlink:href="#DejaVuSerif-Italic-20" transform="translate(480.029297 0)"/>
       <use xlink:href="#DejaVuSerif-Italic-64" transform="translate(511.816406 0)"/>
       <use xlink:href="#DejaVuSerif-Italic-6f" transform="translate(575.830078 0)"/>
       <use xlink:href="#DejaVuSerif-Italic-72" transform="translate(636.035156 0)"/>
       <use xlink:href="#DejaVuSerif-Italic-73" transform="translate(683.837891 0)"/>
       <use xlink:href="#DejaVuSerif-Italic-61" transform="translate(735.15625 0)"/>
       <use xlink:href="#DejaVuSerif-Italic-74" transform="translate(794.775391 0)"/>
       <use xlink:href="#DejaVuSerif-Italic-75" transform="translate(834.960938 0)"/>
       <use xlink:href="#DejaVuSerif-Italic-6d" transform="translate(899.365234 0)"/>
      </g>
     </g>
    </g>
    <g id="ytick_14">
     <g id="line2d_43">
      <path d="M 116.41524 84.591739 
L 752.99976 84.591739 
" clip-path="url(#p97508d7c0d)" style="fill: none; stroke: #cfc7ab; stroke-width: 0.5; stroke-linecap: square"/>
     </g>
     <g id="line2d_44">
      <g>
       <use xlink:href="#m82b19e1274" x="116.41524" y="84.591739" style="fill: #1f1f1f; stroke: #1f1f1f; stroke-width: 0.8"/>
      </g>
     </g>
     <g id="text_23">
      <!-- sciurus niger -->
      <g style="fill: #1f1f1f" transform="translate(56.10399 87.574239) scale(0.08 -0.08)">
       <use xlink:href="#DejaVuSerif-Italic-73"/>
       <use xlink:href="#DejaVuSerif-Italic-63" transform="translate(51.318359 0)"/>
       <use xlink:href="#DejaVuSerif-Italic-69" transform="translate(107.324219 0)"/>
       <use xlink:href="#DejaVuSerif-Italic-75" transform="translate(139.306641 0)"/>
       <use xlink:href="#DejaVuSerif-Italic-72" transform="translate(203.710938 0)"/>
       <use xlink:href="#DejaVuSerif-Italic-75" transform="translate(251.513672 0)"/>
       <use xlink:href="#DejaVuSerif-Italic-73" transform="translate(315.917969 0)"/>
       <use xlink:href="#DejaVuSerif-Italic-20" transform="translate(367.236328 0)"/>
       <use xlink:href="#DejaVuSerif-Italic-6e" transform="translate(399.023438 0)"/>
       <use xlink:href="#DejaVuSerif-Italic-69" transform="translate(463.427734 0)"/>
       <use xlink:href="#DejaVuSerif-Italic-67" transform="translate(495.410156 0)"/>
       <use xlink:href="#DejaVuSerif-Italic-65" transform="translate(559.423828 0)"/>
       <use xlink:href="#DejaVuSerif-Italic-72" transform="translate(618.603516 0)"/>
      </g>
     </g>
    </g>
    <g id="ytick_15">
     <g id="line2d_45">
      <path d="M 116.41524 75.72008 
L 752.99976 75.72008 
" clip-path="url(#p97508d7c0d)" style="fill: none; stroke: #cfc7ab; stroke-width: 0.5; stroke-linecap: square"/>
     </g>
     <g id="line2d_46">
      <g>
       <use xlink:href="#m82b19e1274" x="116.41524" y="75.72008" style="fill: #1f1f1f; stroke: #1f1f1f; stroke-width: 0.8"/>
      </g>
     </g>
     <g id="text_24">
      <!-- marmota monax -->
      <g style="fill: #1f1f1f" transform="translate(43.46899 78.759455) scale(0.08 -0.08)">
       <use xlink:href="#DejaVuSerif-Italic-6d"/>
       <use xlink:href="#DejaVuSerif-Italic-61" transform="translate(94.824219 0)"/>
       <use xlink:href="#DejaVuSerif-Italic-72" transform="translate(154.443359 0)"/>
       <use xlink:href="#DejaVuSerif-Italic-6d" transform="translate(202.246094 0)"/>
       <use xlink:href="#DejaVuSerif-Italic-6f" transform="translate(297.070312 0)"/>
       <use xlink:href="#DejaVuSerif-Italic-74" transform="translate(357.275391 0)"/>
       <use xlink:href="#DejaVuSerif-Italic-61" transform="translate(397.460938 0)"/>
       <use xlink:href="#DejaVuSerif-Italic-20" transform="translate(457.080078 0)"/>
       <use xlink:href="#DejaVuSerif-Italic-6d" transform="translate(488.867188 0)"/>
       <use xlink:href="#DejaVuSerif-Italic-6f" transform="translate(583.691406 0)"/>
       <use xlink:href="#DejaVuSerif-Italic-6e" transform="translate(643.896484 0)"/>
       <use xlink:href="#DejaVuSerif-Italic-61" transform="translate(708.300781 0)"/>
       <use xlink:href="#DejaVuSerif-Italic-78" transform="translate(767.919922 0)"/>
      </g>
     </g>
    </g>
    <g id="ytick_16">
     <g id="line2d_47">
      <path d="M 116.41524 66.848421 
L 752.99976 66.848421 
" clip-path="url(#p97508d7c0d)" style="fill: none; stroke: #cfc7ab; stroke-width: 0.5; stroke-linecap: square"/>
     </g>
     <g id="line2d_48">
      <g>
       <use xlink:href="#m82b19e1274" x="116.41524" y="66.848421" style="fill: #1f1f1f; stroke: #1f1f1f; stroke-width: 0.8"/>
      </g>
     </g>
     <g id="text_25">
      <!-- taxidea taxus -->
      <g style="fill: #1f1f1f" transform="translate(55.43774 69.887796) scale(0.08 -0.08)">
       <use xlink:href="#DejaVuSerif-Italic-74"/>
       <use xlink:href="#DejaVuSerif-Italic-61" transform="translate(40.185547 0)"/>
       <use xlink:href="#DejaVuSerif-Italic-78" transform="translate(99.804688 0)"/>
       <use xlink:href="#DejaVuSerif-Italic-69" transform="translate(156.201172 0)"/>
       <use xlink:href="#DejaVuSerif-Italic-64" transform="translate(188.183594 0)"/>
       <use xlink:href="#DejaVuSerif-Italic-65" transform="translate(252.197266 0)"/>
       <use xlink:href="#DejaVuSerif-Italic-61" transform="translate(311.376953 0)"/>
       <use xlink:href="#DejaVuSerif-Italic-20" transform="translate(370.996094 0)"/>
       <use xlink:href="#DejaVuSerif-Italic-74" transform="translate(402.783203 0)"/>
       <use xlink:href="#DejaVuSerif-Italic-61" transform="translate(442.96875 0)"/>
       <use xlink:href="#DejaVuSerif-Italic-78" transform="translate(502.587891 0)"/>
       <use xlink:href="#DejaVuSerif-Italic-75" transform="translate(558.984375 0)"/>
       <use xlink:href="#DejaVuSerif-Italic-73" transform="translate(623.388672 0)"/>
      </g>
     </g>
    </g>
    <g id="ytick_17">
     <g id="line2d_49">
      <path d="M 116.41524 57.976762 
L 752.99976 57.976762 
" clip-path="url(#p97508d7c0d)" style="fill: none; stroke: #cfc7ab; stroke-width: 0.5; stroke-linecap: square"/>
     </g>
     <g id="line2d_50">
      <g>
       <use xlink:href="#m82b19e1274" x="116.41524" y="57.976762" style="fill: #1f1f1f; stroke: #1f1f1f; stroke-width: 0.8"/>
      </g>
     </g>
     <g id="text_26">
      <!-- spilogale putorius -->
      <g style="fill: #1f1f1f" transform="translate(36.58274 61.016137) scale(0.08 -0.08)">
       <use xlink:href="#DejaVuSerif-Italic-73"/>
       <use xlink:href="#DejaVuSerif-Italic-70" transform="translate(51.318359 0)"/>
       <use xlink:href="#DejaVuSerif-Italic-69" transform="translate(115.332031 0)"/>
       <use xlink:href="#DejaVuSerif-Italic-6c" transform="translate(147.314453 0)"/>
       <use xlink:href="#DejaVuSerif-Italic-6f" transform="translate(179.296875 0)"/>
       <use xlink:href="#DejaVuSerif-Italic-67" transform="translate(239.501953 0)"/>
       <use xlink:href="#DejaVuSerif-Italic-61" transform="translate(303.515625 0)"/>
       <use xlink:href="#DejaVuSerif-Italic-6c" transform="translate(363.134766 0)"/>
       <use xlink:href="#DejaVuSerif-Italic-65" transform="translate(395.117188 0)"/>
       <use xlink:href="#DejaVuSerif-Italic-20" transform="translate(454.296875 0)"/>
       <use xlink:href="#DejaVuSerif-Italic-70" transform="translate(486.083984 0)"/>
       <use xlink:href="#DejaVuSerif-Italic-75" transform="translate(550.097656 0)"/>
       <use xlink:href="#DejaVuSerif-Italic-74" transform="translate(614.501953 0)"/>
       <use xlink:href="#DejaVuSerif-Italic-6f" transform="translate(654.6875 0)"/>
       <use xlink:href="#DejaVuSerif-Italic-72" transform="translate(714.892578 0)"/>
       <use xlink:href="#DejaVuSerif-Italic-69" transform="translate(762.695312 0)"/>
       <use xlink:href="#DejaVuSerif-Italic-75" transform="translate(794.677734 0)"/>
       <use xlink:href="#DejaVuSerif-Italic-73" transform="translate(859.082031 0)"/>
      </g>
     </g>
    </g>
    <g id="ytick_18">
     <g id="line2d_51">
      <path d="M 116.41524 49.105102 
L 752.99976 49.105102 
" clip-path="url(#p97508d7c0d)" style="fill: none; stroke: #cfc7ab; stroke-width: 0.5; stroke-linecap: square"/>
     </g>
     <g id="line2d_52">
      <g>
       <use xlink:href="#m82b19e1274" x="116.41524" y="49.105102" style="fill: #1f1f1f; stroke: #1f1f1f; stroke-width: 0.8"/>
      </g>
     </g>
     <g id="text_27">
      <!-- vulpes vulpes -->
      <g style="fill: #1f1f1f" transform="translate(54.48774 52.144477) scale(0.08 -0.08)">
       <use xlink:href="#DejaVuSerif-Italic-76"/>
       <use xlink:href="#DejaVuSerif-Italic-75" transform="translate(56.494141 0)"/>
       <use xlink:href="#DejaVuSerif-Italic-6c" transform="translate(120.898438 0)"/>
       <use xlink:href="#DejaVuSerif-Italic-70" transform="translate(152.880859 0)"/>
       <use xlink:href="#DejaVuSerif-Italic-65" transform="translate(216.894531 0)"/>
       <use xlink:href="#DejaVuSerif-Italic-73" transform="translate(276.074219 0)"/>
       <use xlink:href="#DejaVuSerif-Italic-20" transform="translate(327.392578 0)"/>
       <use xlink:href="#DejaVuSerif-Italic-76" transform="translate(359.179688 0)"/>
       <use xlink:href="#DejaVuSerif-Italic-75" transform="translate(415.673828 0)"/>
       <use xlink:href="#DejaVuSerif-Italic-6c" transform="translate(480.078125 0)"/>
       <use xlink:href="#DejaVuSerif-Italic-70" transform="translate(512.060547 0)"/>
       <use xlink:href="#DejaVuSerif-Italic-65" transform="translate(576.074219 0)"/>
       <use xlink:href="#DejaVuSerif-Italic-73" transform="translate(635.253906 0)"/>
      </g>
     </g>
    </g>
    <g id="ytick_19">
     <g id="line2d_53">
      <path d="M 116.41524 40.233443 
L 752.99976 40.233443 
" clip-path="url(#p97508d7c0d)" style="fill: none; stroke: #cfc7ab; stroke-width: 0.5; stroke-linecap: square"/>
     </g>
     <g id="line2d_54">
      <g>
       <use xlink:href="#m82b19e1274" x="116.41524" y="40.233443" style="fill: #1f1f1f; stroke: #1f1f1f; stroke-width: 0.8"/>
      </g>
     </g>
     <g id="text_28">
      <!-- mephitis mephitis -->
      <g style="fill: #1f1f1f" transform="translate(36.80774 43.272818) scale(0.08 -0.08)">
       <use xlink:href="#DejaVuSerif-Italic-6d"/>
       <use xlink:href="#DejaVuSerif-Italic-65" transform="translate(94.824219 0)"/>
       <use xlink:href="#DejaVuSerif-Italic-70" transform="translate(154.003906 0)"/>
       <use xlink:href="#DejaVuSerif-Italic-68" transform="translate(218.017578 0)"/>
       <use xlink:href="#DejaVuSerif-Italic-69" transform="translate(282.421875 0)"/>
       <use xlink:href="#DejaVuSerif-Italic-74" transform="translate(314.404297 0)"/>
       <use xlink:href="#DejaVuSerif-Italic-69" transform="translate(354.589844 0)"/>
       <use xlink:href="#DejaVuSerif-Italic-73" transform="translate(386.572266 0)"/>
       <use xlink:href="#DejaVuSerif-Italic-20" transform="translate(437.890625 0)"/>
       <use xlink:href="#DejaVuSerif-Italic-6d" transform="translate(469.677734 0)"/>
       <use xlink:href="#DejaVuSerif-Italic-65" transform="translate(564.501953 0)"/>
       <use xlink:href="#DejaVuSerif-Italic-70" transform="translate(623.681641 0)"/>
       <use xlink:href="#DejaVuSerif-Italic-68" transform="translate(687.695312 0)"/>
       <use xlink:href="#DejaVuSerif-Italic-69" transform="translate(752.099609 0)"/>
       <use xlink:href="#DejaVuSerif-Italic-74" transform="translate(784.082031 0)"/>
       <use xlink:href="#DejaVuSerif-Italic-69" transform="translate(824.267578 0)"/>
       <use xlink:href="#DejaVuSerif-Italic-73" transform="translate(856.25 0)"/>
      </g>
     </g>
    </g>
    <g id="ytick_20">
     <g id="line2d_55">
      <path d="M 116.41524 31.361784 
L 752.99976 31.361784 
" clip-path="url(#p97508d7c0d)" style="fill: none; stroke: #cfc7ab; stroke-width: 0.5; stroke-linecap: square"/>
     </g>
     <g id="line2d_56">
      <g>
       <use xlink:href="#m82b19e1274" x="116.41524" y="31.361784" style="fill: #1f1f1f; stroke: #1f1f1f; stroke-width: 0.8"/>
      </g>
     </g>
     <g id="text_29">
      <!-- urocyon cinereoargenteus -->
      <g style="fill: #1f1f1f" transform="translate(3.00024 34.344284) scale(0.08 -0.08)">
       <use xlink:href="#DejaVuSerif-Italic-75"/>
       <use xlink:href="#DejaVuSerif-Italic-72" transform="translate(64.404297 0)"/>
       <use xlink:href="#DejaVuSerif-Italic-6f" transform="translate(112.207031 0)"/>
       <use xlink:href="#DejaVuSerif-Italic-63" transform="translate(172.412109 0)"/>
       <use xlink:href="#DejaVuSerif-Italic-79" transform="translate(228.417969 0)"/>
       <use xlink:href="#DejaVuSerif-Italic-6f" transform="translate(284.912109 0)"/>
       <use xlink:href="#DejaVuSerif-Italic-6e" transform="translate(345.117188 0)"/>
       <use xlink:href="#DejaVuSerif-Italic-20" transform="translate(409.521484 0)"/>
       <use xlink:href="#DejaVuSerif-Italic-63" transform="translate(441.308594 0)"/>
       <use xlink:href="#DejaVuSerif-Italic-69" transform="translate(497.314453 0)"/>
       <use xlink:href="#DejaVuSerif-Italic-6e" transform="translate(529.296875 0)"/>
       <use xlink:href="#DejaVuSerif-Italic-65" transform="translate(593.701172 0)"/>
       <use xlink:href="#DejaVuSerif-Italic-72" transform="translate(652.880859 0)"/>
       <use xlink:href="#DejaVuSerif-Italic-65" transform="translate(700.683594 0)"/>
       <use xlink:href="#DejaVuSerif-Italic-6f" transform="translate(759.863281 0)"/>
       <use xlink:href="#DejaVuSerif-Italic-61" transform="translate(820.068359 0)"/>
       <use xlink:href="#DejaVuSerif-Italic-72" transform="translate(879.6875 0)"/>
       <use xlink:href="#DejaVuSerif-Italic-67" transform="translate(927.490234 0)"/>
       <use xlink:href="#DejaVuSerif-Italic-65" transform="translate(991.503906 0)"/>
       <use xlink:href="#DejaVuSerif-Italic-6e" transform="translate(1050.683594 0)"/>
       <use xlink:href="#DejaVuSerif-Italic-74" transform="translate(1115.087891 0)"/>
       <use xlink:href="#DejaVuSerif-Italic-65" transform="translate(1155.273438 0)"/>
       <use xlink:href="#DejaVuSerif-Italic-75" transform="translate(1214.453125 0)"/>
       <use xlink:href="#DejaVuSerif-Italic-73" transform="translate(1278.857422 0)"/>
      </g>
     </g>
    </g>
   </g>
   <g id="line2d_57">
    <path d="M 549.422838 212.254916 
L 549.422838 19.030177 
" clip-path="url(#p97508d7c0d)" style="fill: none; stroke: #1f1f1f; stroke-width: 0.6; stroke-linecap: square"/>
   </g>
   <g id="patch_23">
    <path d="M 116.41524 212.254916 
L 116.41524 19.030177 
" style="fill: none; stroke: #1f1f1f; stroke-width: 0.8; stroke-linejoin: miter; stroke-linecap: square"/>
   </g>
   <g id="patch_24">
    <path d="M 752.99976 212.254916 
L 752.99976 19.030177 
" style="fill: none; stroke: #1f1f1f; stroke-width: 0.8; stroke-linejoin: miter; stroke-linecap: square"/>
   </g>
   <g id="patch_25">
    <path d="M 116.41524 212.254916 
L 752.99976 212.254916 
" style="fill: none; stroke: #1f1f1f; stroke-width: 0.8; stroke-linejoin: miter; stroke-linecap: square"/>
   </g>
   <g id="patch_26">
    <path d="M 116.41524 19.030177 
L 752.99976 19.030177 
" style="fill: none; stroke: #1f1f1f; stroke-width: 0.8; stroke-linejoin: miter; stroke-linecap: square"/>
   </g>
   <g id="text_30">
    <!-- Top-20 species by prediction discordance -->
    <g style="fill: #1f3a5f" transform="translate(296.161125 13.030177) scale(0.132 -0.132)">
     <defs>
      <path id="DejaVuSerif-54" d="M 1222 0 
L 1222 331 
L 1819 331 
L 1819 4294 
L 447 4294 
L 447 3566 
L 63 3566 
L 63 4666 
L 4206 4666 
L 4206 3566 
L 3822 3566 
L 3822 4294 
L 2450 4294 
L 2450 331 
L 3047 331 
L 3047 0 
L 1222 0 
z
" transform="scale(0.015625)"/>
      <path id="DejaVuSerif-6f" d="M 1925 219 
Q 2388 219 2623 584 
Q 2859 950 2859 1663 
Q 2859 2375 2623 2739 
Q 2388 3103 1925 3103 
Q 1463 3103 1227 2739 
Q 991 2375 991 1663 
Q 991 950 1228 584 
Q 1466 219 1925 219 
z
M 1925 -91 
Q 1200 -91 759 389 
Q 319 869 319 1663 
Q 319 2456 758 2934 
Q 1197 3413 1925 3413 
Q 2653 3413 3092 2934 
Q 3531 2456 3531 1663 
Q 3531 869 3092 389 
Q 2653 -91 1925 -91 
z
" transform="scale(0.015625)"/>
      <path id="DejaVuSerif-70" d="M 1313 1825 
L 1313 1497 
Q 1313 897 1542 583 
Q 1772 269 2209 269 
Q 2650 269 2876 622 
Q 3103 975 3103 1663 
Q 3103 2353 2876 2703 
Q 2650 3053 2209 3053 
Q 1772 3053 1542 2737 
Q 1313 2422 1313 1825 
z
M 738 2988 
L 184 2988 
L 184 3322 
L 1313 3322 
L 1313 2803 
Q 1481 3116 1742 3264 
Q 2003 3413 2388 3413 
Q 3000 3413 3387 2928 
Q 3775 2444 3775 1663 
Q 3775 881 3387 395 
Q 3000 -91 2388 -91 
Q 2003 -91 1742 57 
Q 1481 206 1313 519 
L 1313 -997 
L 1856 -997 
L 1856 -1331 
L 184 -1331 
L 184 -997 
L 738 -997 
L 738 2988 
z
" transform="scale(0.015625)"/>
      <path id="DejaVuSerif-2d" d="M 281 1959 
L 1881 1959 
L 1881 1472 
L 281 1472 
L 281 1959 
z
" transform="scale(0.015625)"/>
      <path id="DejaVuSerif-6e" d="M 263 0 
L 263 331 
L 781 331 
L 781 2988 
L 231 2988 
L 231 3322 
L 1356 3322 
L 1356 2731 
Q 1516 3069 1770 3241 
Q 2025 3413 2363 3413 
Q 2913 3413 3172 3097 
Q 3431 2781 3431 2113 
L 3431 331 
L 3944 331 
L 3944 0 
L 2356 0 
L 2356 331 
L 2853 331 
L 2853 1931 
Q 2853 2541 2703 2767 
Q 2553 2994 2175 2994 
Q 1775 2994 1565 2701 
Q 1356 2409 1356 1850 
L 1356 331 
L 1856 331 
L 1856 0 
L 263 0 
z
" transform="scale(0.015625)"/>
     </defs>
     <use xlink:href="#DejaVuSerif-54"/>
     <use xlink:href="#DejaVuSerif-6f" transform="translate(58.949219 0)"/>
     <use xlink:href="#DejaVuSerif-70" transform="translate(119.154297 0)"/>
     <use xlink:href="#DejaVuSerif-2d" transform="translate(183.167969 0)"/>
     <use xlink:href="#DejaVuSerif-32" transform="translate(216.957031 0)"/>
     <use xlink:href="#DejaVuSerif-30" transform="translate(280.580078 0)"/>
     <use xlink:href="#DejaVuSerif-20" transform="translate(344.203125 0)"/>
     <use xlink:href="#DejaVuSerif-73" transform="translate(375.990234 0)"/>
     <use xlink:href="#DejaVuSerif-70" transform="translate(427.308594 0)"/>
     <use xlink:href="#DejaVuSerif-65" transform="translate(491.322266 0)"/>
     <use xlink:href="#DejaVuSerif-63" transform="translate(550.501953 0)"/>
     <use xlink:href="#DejaVuSerif-69" transform="translate(606.507812 0)"/>
     <use xlink:href="#DejaVuSerif-65" transform="translate(638.490234 0)"/>
     <use xlink:href="#DejaVuSerif-73" transform="translate(697.669922 0)"/>
     <use xlink:href="#DejaVuSerif-20" transform="translate(748.988281 0)"/>
     <use xlink:href="#DejaVuSerif-62" transform="translate(780.775391 0)"/>
     <use xlink:href="#DejaVuSerif-79" transform="translate(844.789062 0)"/>
     <use xlink:href="#DejaVuSerif-20" transform="translate(901.283203 0)"/>
     <use xlink:href="#DejaVuSerif-70" transform="translate(933.070312 0)"/>
     <use xlink:href="#DejaVuSerif-72" transform="translate(997.083984 0)"/>
     <use xlink:href="#DejaVuSerif-65" transform="translate(1044.886719 0)"/>
     <use xlink:href="#DejaVuSerif-64" transform="translate(1104.066406 0)"/>
     <use xlink:href="#DejaVuSerif-69" transform="translate(1168.080078 0)"/>
     <use xlink:href="#DejaVuSerif-63" transform="translate(1200.0625 0)"/>
     <use xlink:href="#DejaVuSerif-74" transform="translate(1256.068359 0)"/>
     <use xlink:href="#DejaVuSerif-69" transform="translate(1296.253906 0)"/>
     <use xlink:href="#DejaVuSerif-6f" transform="translate(1328.236328 0)"/>
     <use xlink:href="#DejaVuSerif-6e" transform="translate(1388.441406 0)"/>
     <use xlink:href="#DejaVuSerif-20" transform="translate(1452.845703 0)"/>
     <use xlink:href="#DejaVuSerif-64" transform="translate(1484.632812 0)"/>
     <use xlink:href="#DejaVuSerif-69" transform="translate(1548.646484 0)"/>
     <use xlink:href="#DejaVuSerif-73" transform="translate(1580.628906 0)"/>
     <use xlink:href="#DejaVuSerif-63" transform="translate(1631.947266 0)"/>
     <use xlink:href="#DejaVuSerif-6f" transform="translate(1687.953125 0)"/>
     <use xlink:href="#DejaVuSerif-72" transform="translate(1748.158203 0)"/>
     <use xlink:href="#DejaVuSerif-64" transform="translate(1795.960938 0)"/>
     <use xlink:href="#DejaVuSerif-61" transform="translate(1859.974609 0)"/>
     <use xlink:href="#DejaVuSerif-6e" transform="translate(1919.59375 0)"/>
     <use xlink:href="#DejaVuSerif-63" transform="translate(1983.998047 0)"/>
     <use xlink:href="#DejaVuSerif-65" transform="translate(2040.003906 0)"/>
    </g>
   </g>
   <g id="legend_1">
    <g id="patch_27">
     <path d="M 591.743197 183.921322 
L 613.743197 183.921322 
L 613.743197 176.221322 
L 591.743197 176.221322 
z
" style="fill: #1f3a5f; stroke: #1f1f1f; stroke-linejoin: miter"/>
    </g>
    <g id="text_31">
     <!-- observed &gt; predicted -->
     <g style="fill: #1f1f1f" transform="translate(622.543197 183.921322) scale(0.11 -0.11)">
      <defs>
       <path id="DejaVuSerif-3e" d="M 678 3188 
L 678 3719 
L 4684 2266 
L 4684 1747 
L 678 294 
L 678 825 
L 3922 2003 
L 678 3188 
z
" transform="scale(0.015625)"/>
      </defs>
      <use xlink:href="#DejaVuSerif-6f"/>
      <use xlink:href="#DejaVuSerif-62" transform="translate(60.205078 0)"/>
      <use xlink:href="#DejaVuSerif-73" transform="translate(124.21875 0)"/>
      <use xlink:href="#DejaVuSerif-65" transform="translate(175.537109 0)"/>
      <use xlink:href="#DejaVuSerif-72" transform="translate(234.716797 0)"/>
      <use xlink:href="#DejaVuSerif-76" transform="translate(282.519531 0)"/>
      <use xlink:href="#DejaVuSerif-65" transform="translate(339.013672 0)"/>
      <use xlink:href="#DejaVuSerif-64" transform="translate(398.193359 0)"/>
      <use xlink:href="#DejaVuSerif-20" transform="translate(462.207031 0)"/>
      <use xlink:href="#DejaVuSerif-3e" transform="translate(493.994141 0)"/>
      <use xlink:href="#DejaVuSerif-20" transform="translate(577.783203 0)"/>
      <use xlink:href="#DejaVuSerif-70" transform="translate(609.570312 0)"/>
      <use xlink:href="#DejaVuSerif-72" transform="translate(673.583984 0)"/>
      <use xlink:href="#DejaVuSerif-65" transform="translate(721.386719 0)"/>
      <use xlink:href="#DejaVuSerif-64" transform="translate(780.566406 0)"/>
      <use xlink:href="#DejaVuSerif-69" transform="translate(844.580078 0)"/>
      <use xlink:href="#DejaVuSerif-63" transform="translate(876.5625 0)"/>
      <use xlink:href="#DejaVuSerif-74" transform="translate(932.568359 0)"/>
      <use xlink:href="#DejaVuSerif-65" transform="translate(972.753906 0)"/>
      <use xlink:href="#DejaVuSerif-64" transform="translate(1031.933594 0)"/>
     </g>
    </g>
    <g id="patch_28">
     <path d="M 591.743197 200.06726 
L 613.743197 200.06726 
L 613.743197 192.36726 
L 591.743197 192.36726 
z
" style="fill: #c7623c; stroke: #1f1f1f; stroke-linejoin: miter"/>
    </g>
    <g id="text_32">
     <!-- predicted &gt; observed -->
     <g style="fill: #1f1f1f" transform="translate(622.543197 200.06726) scale(0.11 -0.11)">
      <use xlink:href="#DejaVuSerif-70"/>
      <use xlink:href="#DejaVuSerif-72" transform="translate(64.013672 0)"/>
      <use xlink:href="#DejaVuSerif-65" transform="translate(111.816406 0)"/>
      <use xlink:href="#DejaVuSerif-64" transform="translate(170.996094 0)"/>
      <use xlink:href="#DejaVuSerif-69" transform="translate(235.009766 0)"/>
      <use xlink:href="#DejaVuSerif-63" transform="translate(266.992188 0)"/>
      <use xlink:href="#DejaVuSerif-74" transform="translate(322.998047 0)"/>
      <use xlink:href="#DejaVuSerif-65" transform="translate(363.183594 0)"/>
      <use xlink:href="#DejaVuSerif-64" transform="translate(422.363281 0)"/>
      <use xlink:href="#DejaVuSerif-20" transform="translate(486.376953 0)"/>
      <use xlink:href="#DejaVuSerif-3e" transform="translate(518.164062 0)"/>
      <use xlink:href="#DejaVuSerif-20" transform="translate(601.953125 0)"/>
      <use xlink:href="#DejaVuSerif-6f" transform="translate(633.740234 0)"/>
      <use xlink:href="#DejaVuSerif-62" transform="translate(693.945312 0)"/>
      <use xlink:href="#DejaVuSerif-73" transform="translate(757.958984 0)"/>
      <use xlink:href="#DejaVuSerif-65" transform="translate(809.277344 0)"/>
      <use xlink:href="#DejaVuSerif-72" transform="translate(868.457031 0)"/>
      <use xlink:href="#DejaVuSerif-76" transform="translate(916.259766 0)"/>
      <use xlink:href="#DejaVuSerif-65" transform="translate(972.753906 0)"/>
      <use xlink:href="#DejaVuSerif-64" transform="translate(1031.933594 0)"/>
     </g>
    </g>
   </g>
  </g>
 </g>
 <defs>
  <clipPath id="p97508d7c0d">
   <rect x="116.41524" y="19.030177" width="636.58452" height="193.224739"/>
  </clipPath>
 </defs>
</svg>
